<?xml version="1.0" encoding="utf-8"?>
<!-- Generator: Adobe Illustrator 26.0.2, SVG Export Plug-In . SVG Version: 6.00 Build 0)  -->
<svg version="1.1" id="Capa_1" xmlns="http://www.w3.org/2000/svg" xmlns:xlink="http://www.w3.org/1999/xlink" x="0px" y="0px"
	 viewBox="0 0 600 600" style="enable-background:new 0 0 600 600;" xml:space="preserve">
<style type="text/css">
	.st0{fill:#0DB5FF;}
	.st1{fill:#875D3A;}
	.st2{fill:#E8AE8E;}
	.st3{fill:#FFFFFF;}
	.st4{fill:#256BB7;}
	.st5{fill:#EE2424;}
	.st6{fill:#B27D66;}
	.st7{fill:#808080;}
	.st8{fill:#593418;}
	.st9{fill:#C4C8CC;}
	.st10{fill:#FF9797;}
	.st11{fill:#CE956B;}
	.st12{fill:#FFE6CA;}
	.st13{fill:#4D4D4D;}
	.st14{fill:#B3B3B3;}
	.st15{fill:#979FA5;}
	.st16{fill:#E3E4E5;}
	.st17{fill:#1E0A04;}
	.st18{fill:#3A3A3A;}
	.st19{fill:#212121;}
	.st20{opacity:0.5;}
	.st21{clip-path:url(#SVGID_00000018942240767972905110000004033694776831411133_);}
	.st22{fill:#A9E9FF;}
</style>
<g id="Grupo_1238_00000021089645082549972120000006103808629695895989_" transform="translate(217.556 386.548)">
	<g>
		<g id="Grupo_1237_00000026135959132717236650000014264588840808749219_" transform="translate(0)">
			<g id="Grupo_1236_00000029014965380869775500000000937756323322736288_">
				<g>
					<g id="Grupo_1235_00000176730455822280163060000006215749490718192059_">
						<path class="st0" d="M332.4-66.1c0-162.6-103.3-280.2-265.9-280.2S-210.6-223.8-210.6-61.2S-124.6,159.7,38,159.7
							S332.4,96.5,332.4-66.1z"/>
						<path id="Trazado_4037_00000036212238110975655850000018171978005142790065_" class="st1" d="M-94.8-127.2L-94.8-127.2
							c9.6-9.7,23.9-5.8,31.6-2.6c1.4,0.5,8.9,3.5,16.7,7.5c-4.9-4-10.1-7.4-15.7-10.3c-1-0.4-2.1-0.8-3.3-1.2l-0.7-0.2l-0.3-0.7
							C-69-141.6-81.5-177-77-200.3c2.4-12.3,14.6-21.3,21.6-25.6l2.7-1.6c2-6.5,4.7-12.8,8.1-18.7c5.3-8.9,12.3-16.6,20.7-22.7
							c6.1-4.7,13-8.4,20.3-10.9c0.3-0.1,0.5-0.2,0.8-0.3l4.2-1.4l-2.1,3.6c-3.6,6.1-6.6,12.4-9.1,18.9c-1.4,3.9-2.6,7.8-3.5,11.8
							l2.4-2c13.7-10.9,29.6-18.8,46.5-23.2c13.9-3.8,28.3-5.4,42.7-4.5l4.8,0.3l-4,2.6c-7.4,4.7-12.9,11.8-15.8,20.1l-0.5,1.8
							c3.5-0.9,7.1-1.7,10.4-2.2c20.4-3.5,42.7-4.5,70.2-3.1h0c15.6,0,31.7-7.2,48-21.4c1-0.9,2-1.8,2.9-2.7l2.1-2l0.5,2.9
							c1.1,6.1,2,12.2,2.5,18.3c2.8,36.3-4.2,61.6-21.6,77.2c-14,13-30.4,23.2-48.2,30c-5.5,2.1-11,4.1-16.5,5.8
							c-1,0.3-2.1,0.6-3,0.9l-1.8,0.5l-0.2-1.9c-0.5-7.2-1.7-14.3-3.5-21.3h0l0-0.1c-0.5,0.4-1,0.8-1.5,1.2l1.5-0.9l0.4,2.3
							c1.2,7.2,1.8,14.4,1.9,21.7l0,0.8c2.6-0.5,4.8-1,6.7-1.5c9.6-2.4,18.9-5.9,27.7-10.3c3.4-1.6,6.8-3.4,10.1-5.3l1.7-0.9
							l0.6,1.8c4.3,12.8,7.4,26,9,39.4l-3.1,0.5c-0.6-3.5-1.8-6.9-3.8-10c-2.2-0.5-14.6-2.5-36.9,11.8c-2,6.7-3.3,13.5-3.7,20.5
							c5.2-4.6,10.8-8.8,16.8-12.4c11.1-6.7,21.1-9.6,29.7-8.7l1.3,0.1l0.1,1.3c1,8.7,1.2,17.4,0.7,26.1l0,0.1
							c-1.2,8.4-7.8,16.1-15.3,25c-2.5,2.9-5.5,6.5-8.4,10.2l-2.7-1.7c3.5-6.7,6.2-13.7,8.3-20.9c0.6-2.2,1-4.5,1.3-6.8
							c0.8-6.6-0.7-11.4-4.3-13.9c-4.2-2.9-10.8-2.5-17.6,1c-13.1,6.7-19.2,26.1-21.3,34.1c-0.6,2.1-0.8,4.4-0.7,6.6
							c2.1-7.5,6.9-22.3,14.3-30.3c6.6-7.1,15.4-10.4,20.9-7.9c2.3,1.1,6,4.2,5,12.9c-1.8,11.8-5.5,23.3-11,34l5.9-5.3l-5.5,9.4
							l0.6,0.6c0.1,0.1,10.4,10.9,8.2,23.9l-0.2,1.3l-7.8,0.1c-1.4,0-2.7,0.8-3.4,2.1L118.3,5.2l-0.4,0.2l-1.7,1.1
							c-7.4,4.6-14.6,9.7-21.4,15.2c-3,2.5-9.5,3.7-18.6,3.7c-8.5-0.1-17-0.9-25.4-2.2c-19.8-3-36.3-7.8-38.9-9.7
							C3.2,6.3-4.9-1.6-12.2-10.2l-0.1-0.2c0-0.1-0.1-0.2-0.2-0.2c-0.1-0.1-0.2-0.3-0.3-0.4c-0.9-1.4-1.6-2.8-2.3-4.2
							c-1.4-2.9-2.4-5.9-3-9c-0.3-1.6-0.4-3.2-0.4-4.7c0-1.6,0.1-3.2,0.4-4.7c0.3-1.5,0.8-3,1.4-4.5c0.1-0.4,0.3-0.8,0.5-1.1
							c0.1-0.1,0.1-0.2,0.2-0.3c0.1-0.2,0.2-0.5,0.4-0.7l0.2-0.4c1.8-3.3,4.8-5.8,8.3-7.1c3-1,6.2-1.2,9.3-0.8
							c3.2,0.4,6.3,1.2,9.2,2.4c1.5,0.6,2.9,1.2,4.4,1.9c0.8,0.4,1.5,0.8,2.1,1.1l1.1,0.6c0.3,0.2,0.7,0.4,1,0.6
							c3.2,1.8,6.5,3.2,10,4.2c-3.2-1.8-6.3-3.6-9.4-5.4c-0.4-0.2-0.7-0.4-1.1-0.6l-1-0.6c-0.6-0.4-1.3-0.7-2.2-1.2
							c-1.5-0.7-3-1.4-4.5-2c-3.1-1.2-6.3-2.1-9.6-2.5c-3.3-0.5-6.7-0.2-9.9,0.8c-1.6,0.6-3.1,1.4-4.5,2.4c-1.4,1-2.5,2.3-3.5,3.7
							c-0.4,0.6-0.8,1.2-1.1,1.8L-17-41c-0.1,0.2-0.2,0.5-0.3,0.7c-0.1,0.1-0.1,0.3-0.2,0.4c-0.2,0.3-0.3,0.7-0.5,1.1l0,0.1
							c-0.6,1.5-1.1,3.1-1.5,4.8c-0.3,1.6-0.5,3.3-0.5,5c0,1.7,0.2,3.3,0.5,5c0,0.2,0.1,0.3,0.1,0.5l1.4,6.8l-4.2-5.2
							c-8.2-10.1-15.4-21-21.5-32.5l-0.5-1l0,0c-1.1,0.5-2.2,1.1-3.5,1.6l-0.2,0.1c-5.6,2.2-11.4,3.9-17.3,5.1
							c-3.1,0.7-6.4,0.5-9.5-0.5l-0.2-0.1c-6.4-4.1-12.4-12.3-18.2-25.1c-3.7-8.4-6.2-17.4-7.5-26.5
							C-101.9-112.5-100-121.4-94.8-127.2 M-84.2-119.4L-84.2-119.4c0.6-0.4,1.1-0.6,1.7-0.8l0.3-0.1c0.1,0,0.3-0.1,0.4-0.1l0.1,0
							c0.3-0.1,0.7-0.1,1-0.2c1.3-0.1,2.6-0.1,3.9,0.1c2.6,0.4,5.2,1.2,7.6,2.4c4.9,2.4,9.1,6,12.5,10.2c1.7,2.2,3.2,4.5,4.4,6.9
							l0.8,1.7l1.2,2.8l-3-0.3l-0.3,0c-0.2,0-0.3,0-0.5,0H-54c-0.5,0-1.1,0-1.7,0c-1.2,0-2.3,0.2-3.4,0.5c-1.2,0.3-2.4,0.9-3.4,1.6
							c-0.5,0.4-0.9,1-1.2,1.6c-0.1,0.2-0.1,0.4-0.2,0.6c0,0.1,0,0.1,0,0.2l0,0.3c0,0.2,0,0.4,0,0.6c0,0.1,0,0.2,0,0.3l0,0.3
							c0,0.1,0,0.2,0,0.2l0.2,0.6l0.1,0.2c0,0.1,0,0.1,0.1,0.2l0.5,0.9c0,0.1,0.1,0.1,0.1,0.2l0.1,0.1c0.1,0.1,0.1,0.2,0.2,0.3
							c0.1,0.2,0.2,0.3,0.3,0.5c1.5,1.7,3.2,3.3,5.1,4.5c1,0.7,2.2,1.4,3.6,2.2l0.5,0.3c0.5,0.2,0.9,0.5,1.3,0.7l0.8,0.4
							c0.3,0.1,0.6,0.3,0.9,0.6c0,0.1,0.1,0.1,0.1,0.2l0,0.1c0.1,0.2,0.2,0.5,0.2,0.8c0,0.6,0.1,1.2,0.1,2c0,1.4-0.2,2.7-0.4,4
							c-0.4,2.7-1.4,5.2-3,7.4c1-0.9,1.8-2,2.5-3.2c0.7-1.2,1.2-2.6,1.6-3.9c0.4-1.4,0.7-2.8,0.8-4.2c0.1-0.8,0.1-1.5,0.1-2.1l0-0.5
							c0-0.1,0-0.2,0-0.3l-0.1-1.3l-2.7-1.5l-1.8-1c-1-0.6-2.3-1.4-3.4-2.2c-1.7-1.1-3.3-2.5-4.7-4.1c-0.6-0.7-1-1.5-1.2-2.3
							l-0.4-0.9l0.1-0.1v0l0.7-0.6c0.1-0.2,0.3-0.4,0.5-0.5c0.7-0.6,1.6-1,2.5-1.2c1-0.3,2-0.4,3-0.4c0.6,0,1.1,0,1.5,0
							c0.2,0,0.4,0,0.6,0l0.2,0l0.5,0.1c0.1,0,0.2,0,0.2,0l0.8,0.2l0.3,0.1c0.6,0.1,1.2,0.3,1.7,0.5l1,0.4c0.3,0.1,0.6,0.2,0.9,0.4
							l1,0.5l-1.3-3.8v0c-0.2-0.5-0.4-1-0.6-1.6l-0.8-1.9l-0.6-1.4c-0.1-0.2-0.2-0.4-0.3-0.6c-1.3-2.5-2.9-4.9-4.6-7.2
							c-3.5-4.5-8-8.2-13.2-10.8c-2.6-1.3-5.4-2.1-8.3-2.4c-1.5-0.1-3,0-4.4,0.2c-0.3,0.1-0.7,0.1-1,0.2l-0.2,0.1
							c-0.1,0-0.2,0-0.2,0.1l-0.6,0.3c-0.7,0.3-1.3,0.7-1.9,1.2c-1.1,1-1.7,2.4-2,3.9c-0.2,1.4-0.2,2.7-0.1,4.1c0-1.4,0.2-2.7,0.6-4
							C-85.9-117.4-85.2-118.5-84.2-119.4 M66.5-31.4c0.2,0.2,0.4,0.4,0.7,0.5c0.4,0.2,0.8,0.2,1.2,0c1.2-0.8,2.6-1.2,4.1-1.2
							c-1.4-0.4-2.9-0.4-4.4,0.1C67.5-32,67-31.7,66.5-31.4 M58.4-118.5c6.6,4.4,12.7,9.3,18.4,14.9c2.7-3.9,4.9-8.1,6.5-12.6
							c-2,1.4-4.2,3.1-5.3,3.9l-4.8,3.6l7.5-17.5c-19.1-11.6-40.7-18.5-63-20.1c-2.3,3.9-3.9,8.2-4.5,12.7
							C31.2-133.9,47.6-125.6,58.4-118.5 M92.4-43.7c4.1,0.3,8,2,11.1,4.8c1.4,1.4,2.1,3.3,1.9,5.3c-0.1,1.5-0.6,2.9-1.4,4.1
							c0.3-0.3,0.5-0.6,0.8-0.9c1.5-2,1.8-4.7,0.8-7c-3.9-8.6-17-8.3-21-8.1c-4.1,0.3-8.2,1.2-12.1,2.5
							C79.1-44.3,85.8-44.5,92.4-43.7 M50.7-50.1c1.3-3.5,6-17.7,3.3-25.3c-1.2-3.2-4.7-4.5-6.7-5.1l0,0c-6.6-1.7-16,0.3-18.9,5.8
							c-3.7,7-4.2,15.8-1.4,25C34.7-48.5,42.8-48.6,50.7-50.1 M59.7-98.7c5.8,6.9,7.7,17.4,5.6,30.2c0.3-0.7,0.6-1.5,0.9-2.3
							c2.1-5.8,4.2-20.8-3.1-30.4c-5.1-6.7-13.8-9.7-25.8-8.8c-11.4,0.9-19.8,4.8-25,11.8C3.5-86,7-68.2,7.8-64.8
							c1.1,4.6,1.7,6.9,3,8.5c-3.6-15.3-2.3-28,3.7-37c5-7.4,13-12,23.2-13.2c1.2-0.1,2.5-0.2,3.7-0.2
							C48.5-106.9,55.2-104,59.7-98.7 M125-76.4c-3.1-0.6-6.2,0.2-8.7,2.1c-4.9,4.1-7.6,18.4-8.4,24.7c4.2,2.1,8.9,2.8,13.6,2.2
							c5.8-10,8.2-16.8,8.2-23.6C129.6-75.1,128.3-76,125-76.4 M12.3-23.6l-0.4,2.8L0-30.1L0.1-31c0-0.2,0.1-0.4,0.1-0.7l0.1-0.3
							c0.1-0.4,0.3-0.8,0.5-1.2c-0.5,0.6-0.9,1.4-1.1,2.2C-0.8-27.4,0-23.7,2-20.8c-0.4-0.9-0.7-1.9-1-2.8l-1.5-4.8l13,10.1l0.1,0.6
							c0.4,1.9,1.1,3.7,1.9,5.4C19.2-2.4,29,2.5,44.4,2.5c2.2,0,4.4-0.1,6.8-0.3l4.5-0.4l0.2,0C73.4,5.7,87.7,5,99.7-0.3
							c4.9-2.2,9.7-4.8,14.2-7.6l1.6-1c-1.1-0.4-2.2-0.8-3.2-1.3l1.8,1.3L112-7.6C108-5.2,103.7-3,99.4-1.1
							C85.9,4.5,70.1,4.5,49.7-1.2l-0.5-0.1l-0.3-0.4c-2.5-2.8-4.4-6.1-5.6-9.7c-5.2-14.9-11.6-22.3-19-21.9
							c-4.2-0.1-8.2,2-10.6,5.5C12.9-26.6,12.4-25.1,12.3-23.6"/>
						<path id="Trazado_4038_00000134962387254062067880000003321395521276735659_" class="st2" d="M31.9-37c0,0,15.7,3.7,29.7-2.5
							s30-7.4,39.9-1.2c4.1,0.5,20.3,2.5,28.9-5c7.8,2.4,13.2,14.9,10.7,24.4c-6.3,0-11.4-1.3-12.4,4.6
							c-0.9,5.9-12.4,23.1-12.4,23.1s-22.1,19.1-28.9,19C80.5,25.4,18,19,13.1,15.6S-20.1-10.5-19.7-26c0.4-15.5,8.4-23.6,16.6-23.5
							S31.9-37,31.9-37"/>
						<path id="Trazado_4039_00000137831054976829967160000015966413587951612853_" class="st2" d="M34.6-37.8
							c0,0,15.7,3.7,29.7-2.5s30-7.4,39.9-1.2c4.1,0.5,20.3,2.5,28.9-5c7.8,2.4,13.2,14.9,10.7,24.4c-6.3,0-11.4-1.3-12.4,4.6
							C130.5-11.5,119,5.7,119,5.7s-22.1,19.1-28.9,19c-6.8-0.1-69.3-6.5-74.2-9.8S-17.3-11.3-17-26.8c0.4-15.5,8.4-23.6,16.6-23.5
							C7.8-50.4,34.6-37.8,34.6-37.8"/>
						<path id="Trazado_4040_00000152252529657585187670000009625711264986434447_" class="st3" d="M13.1-52.4
							c3.8,2.1,7.9,3.5,12.2,4.1c8.5,1.6,26.2-0.4,26.2-0.4s6.7-0.6,9.8-10.9c3.1-10.4,10-40.3-11.5-45.3s-37.3,4.2-40.4,22.8
							S13.1-52.4,13.1-52.4"/>
						<path id="Trazado_4041_00000127741284595229506840000011971669397576580534_" class="st3" d="M102-51.6l3.9,2.7
							c0,0,15.4,3.6,15.7,3.5c0.3,0,5.6-0.3,5.6-0.3s18-29,16.4-43.6s-20.8-14.2-29.8,0.4S102-51.6,102-51.6"/>
						<path id="Trazado_4042_00000131327470374630123100000006951184865243449996_" class="st4" d="M25.6-63.3v-0.1l0.1-0.1
							c1.4-2.2,4.6-3.9,8.9-4.8l0.9-0.2l-0.3,0.9c-0.4,1.1-0.6,2.2-0.8,3.3c-0.6,2.2-0.2,4.5,1,6.4c1.2,1.2,2.8,1.7,4.5,1.6
							c4.5,0,7-2.6,7.7-8c0.1-1,0.2-2,0.1-3.1l-0.1-0.8l0.8,0.2c2,0.5,3.7,1.7,4.8,3.5l0.1,0.1l0,0.2c-0.7,4.5-1.8,8.8-3.3,13.1
							l-0.1,0.3l-0.3,0.1c-4.2,0.7-8.4,1.1-12.7,1.1c-3.1,0-6.2-0.2-9.3-0.7l-0.3-0.1l-0.1-0.3C25.9-54.7,25.4-59,25.6-63.3"/>
						<path id="Trazado_4043_00000109748796816617433890000016288348365880971411_" class="st0" d="M51.2-56.9c0,0,0.4-3.2-1.7-3.6
							c-2.1-0.4-3.9,2.5-3.9,2.5l-11.3-0.7c-1.3-2-4-2.5-6-1.2c-1.4,0.9-2.1,2.6-1.9,4.2c0.3,1.4,1.1,5.4,1.1,5.4s12.6,1.8,22.3-0.4
							C50.7-52.7,51.1-54.8,51.2-56.9"/>
						<path id="Trazado_4044_00000094579719921690889200000003697679271580866727_" class="st4" d="M110.2-63.5l0-0.1l0.1-0.1
							c1.4-2,1.2-1.9,4-2.1l1.3,0.2l-0.4,0.8c-0.5,1-0.9,2-1.2,3.1c-0.8,2-1.1,4.2-0.9,6.4c0.3,1.2,0.3,1.6,1.6,1.9
							c2.7,0.7,4.2-1.5,5.9-6.6c0.3-1,0.6-2,0.8-3l0.1-0.8l3.4-1c1.2,1,2,2.5,2.1,4.1v0.1l0,0.1c-1.4,4.2-3.1,8.3-5,12.3l-0.1,0.3
							h-0.2c-2.6,0.1-5.3-0.1-7.9-0.7c-1.9-0.4-3.7-1.1-5.4-2l-0.2-0.1l0-0.3C108.3-55.2,109-59.4,110.2-63.5"/>
						<path id="Trazado_4045_00000083805426640905420610000007297768044451663293_" class="st0" d="M123.7-53.7c0,0,1.4-3.2-0.9-4
							c-1.7-0.6-3.4,1.6-3.4,1.6l-7.1-1.6c0,0,0.6-2.1-0.9-2.1c-0.9,0-1.5,2.4-1.7,3.8c-0.1,1.4-1.2,5.7-1.2,5.7
							c4.2,2,8.8,3,13.5,2.8C123.1-49.5,123.6-51.6,123.7-53.7"/>
						<path id="Trazado_4046_00000160885189977272435040000010215560138687050936_" class="st5" d="M15.2-26.8
							c2-2.9,5.4-4.6,8.9-4.5c6.3-0.3,12.2,6.8,16.9,20.5c1.2,3.4,2.9,6.6,5.1,9.4l1.4,1.7l-2.2,0c-0.5,0-1,0-1.5,0
							C29.4,0.4,20.5-4,16.1-13.3C13.6-18.7,13.3-23.5,15.2-26.8"/>
						<path id="Trazado_4047_00000072971573599058383880000004684611267148535197_" class="st2" d="M-52.8-123.9l10.8,6
							c0,0,8.2,9,10.5,27.5c-1.9-3.2-4.3-6.1-7.1-8.6c0,0,9.4,20.9-0.5,38.3c-5.1,5.2-24.1,15.2-34.1,12.9
							c-10-2.3-34.3-39.9-29.4-66.3S-64.3-134.9-52.8-123.9"/>
						<path id="Trazado_4048_00000125567128395020372970000015259528891014447520_" class="st6" d="M134.8-47.7
							c-2.3-3.1,19.6-27.1,21.6-24.3C158.3-69.2,143.6-36,134.8-47.7"/>
						<path id="Trazado_4049_00000047739620546653369690000007334707604903774654_" class="st1" d="M-92.3,112
							c1-27.9,13.9-59.5,17.9-68.5l0.3-0.6l0.5,0.4c0.9,0.7,1.8,1.2,2.6,1.7c3.1,1.9,6.4,3.5,9.8,4.7c6.3,2.2,12.9,3.4,19.5,3.6
							l0.6,0l-4.3,20.5l-0.3,0.1c-2,0.5-4,1.1-6,1.7c20-4.5,40.8-4.1,60.5,1.3l1.5,0.4l-2.6,1.1c-8.9,3.8-17.7,8.5-20.2,9.9
							l-0.1,0.1l-6.7,3.3l1.9,4.6l-0.5,0.2c-2,0.7-5.8,1.9-8.3,2.5l-2.3,0.6l1.4,1.9c0.5,0.6,1.8,2.8,2.6,4.1l0.3,0.5l-0.5,0.3
							c-2.2,1-5.5,2.7-9.2,4.8l-2.2,1.2l2,1.5c1.1,0.7,5.5,4.2,7.3,5.7l0.4,0.3l-3.6,6l6.8,5.1l-1.2,0.2c-5.1,0.9-10.2,1.4-15.3,1.4
							c-1.6,0-3.3,0-5.1-0.1c-17.6-0.7-34.4-7.8-47.2-19.9l-0.2-0.2L-92.3,112z"/>
						<path id="Trazado_4050_00000042703801712923640000000006339186486974442368_" class="st7" d="M78.9,27.8l1.7-0.1
							c7.3-0.4,12.5-1.8,15.4-4.1c4-3.2,7.9-6.2,12.1-9.1l1.2-0.9l2.3,4.3l-16,33.7l-0.4,0.2c-2.7,1.4-5.6,2.6-8.5,3.5l-1.5,0.5
							L85,54.3c-1.2-8.4-3.1-16.7-5.6-24.8L78.9,27.8z"/>
						<path id="Trazado_4051_00000105398300792038593450000003449758231622558338_" class="st7" d="M-86.8,20.1
							c1.9-6.7,4.4-13.1,7.3-19.4l0.4-0.7c0.6-1.3,1.2-2.6,2-3.9l1.2-2.2l1.3-2.2c0.6-1.1,1.3-2.1,2-3.1c0.3-0.4,0.6-0.8,0.8-1.2
							c0.3-0.5,0.7-0.9,1-1.4c0.2-0.2,0.4-0.5,0.5-0.7l0.1-0.1c0.5-0.7,1-1.3,1.5-1.9l1.6-1.9l2.2-2.3l1.7-1.7
							c0.2-0.2,0.4-0.4,0.6-0.6l0.9-0.8c2.6-2.2,5.4-4.1,8.4-5.7c3-1.6,6.2-2.8,9.4-3.5c1.6-0.4,3.3-0.6,5-0.7
							c0.7-0.1,1.5-0.1,2.5-0.1l0.3,0c0.3,0,0.6,0,0.9,0l0.7,0.1l0.4,0.5c6.7,9.6,14,18.7,21.9,27.4l0.1-0.8l0.1,1.1
							c9.5,10.5,42.5,28.5,62,31.5c8.2,1.3,16.6,2.1,24.9,2.3h0.9l0.3,0.9c4.7,15,7.4,30.6,7.9,46.3l0,0.3l-7.7,16.1l-1.3-1.7
							C69.3,82,64.1,77,61,76.3c-4.3-0.7-8.7-0.5-13,0.4l-0.6,0.1l-0.5-0.4c-3.3-3-7.5-4.9-11.9-5.4c-1.1-0.1-4.4-0.5-16.7,4.1
							l-0.4,0.2L17.4,75c-3.3-1-6.6-1.9-9.9-2.5c-15.6-2.8-31.7-2.5-47.2,0.8l-2,0.4l4.5-21.2l1,0c2.3-0.1,4.7-0.2,7-0.5l2.6-0.3
							l4.2-0.6l2.1-4.7c2.8-6.7,4.9-13.8,6-21c0.5-3.2,0.8-6.3,1-9.3c-0.7,2.8-1.5,5.7-2.4,9c-2,6.9-4.4,13.7-7.2,20.3l-1.5,3.3
							L-27,49l-2.6,0.3c-3.4,0.4-6.9,0.5-10.3,0.5c-6.9,0-13.7-1.2-20.1-3.4c-6.4-2.3-12.3-5.9-17.3-10.6c-2.5-2.4-4.7-4.9-6.7-7.7
							c-0.9-1.2-1.8-2.6-2.8-4.3c-0.1-0.1-0.2-0.3-0.3-0.4l-0.5-1L-86.8,20.1z"/>
						<path id="Trazado_4052_00000029041311591547710590000003470056611781431971_" class="st8" d="M85.2,61.5
							c0,2.8,1.6,5.1,3.6,5.1c2,0,3.6-2.3,3.6-5.1c0-2.8-1.6-5.1-3.6-5.1C86.8,56.5,85.2,58.8,85.2,61.5"/>
						<path id="Trazado_4053_00000061443147480866258170000014832201178733385382_" class="st2" d="M-30.2,113.8l-1.6-1.2l1.8-1
							c4.6-2.5,8.3-4.1,8.3-4.1l0.8-0.4l-0.5-0.8c-0.2-0.3-1.3-2.2-2.3-3.8l-0.9-1.5l1.7-0.5c3.5-1,7.4-2.4,7.9-2.5l0.8-0.3l-2-4.9
							l5.2-2.6c12.6-6.2,38.9-17.4,45.8-16.7c4.3,0.5,8.2,2.4,11.2,5.5l0.5,0.6l0.8-0.2c0.1,0,8.4-1.8,13.2-0.7
							c3.4,0.8,10.5,9.2,14.4,14.7l0.5,0.6l-13.3,28l-2.2-6.1l0-0.4c0-0.4,0-0.7,0.1-1.1l0-0.6l-0.1-0.7c0-0.1,0-0.2,0-0.3
							c0-0.1,0-0.3,0-0.4l-0.1-0.7c-0.4-1.7-0.8-3.4-1.4-5.1c-1.2-3.6-2.5-6.9-3.6-9.8c-0.8-2.1-2-4.1-3.4-5.9
							c0.3,2.2,0.8,4.4,1.7,6.5c1,2.6,2.4,6.1,3.5,9.6c0.2,0.5,0.3,1.1,0.5,1.6c0.1,0.3,0.2,0.6,0.3,0.9l0.4,1.4
							c0,0.1,0.1,0.3,0.1,0.5l0.2,1.1c0,0.2,0.1,0.4,0.1,0.5l0.1,0.6l0,0.6c0,0.4,0,0.7-0.1,1.1l0,0.2c0,0.4-0.1,0.9-0.1,1.3
							c-0.3,3.2-0.7,6.4-1.2,10.2c-0.4,2.6-0.8,5.4-1.2,8.5l0,0.2l-3.9,8.3l-0.2,0.2c-1.3,1.1-2.8,1.9-4.4,2.2
							c-1.7,0.4-3.4,0.5-5.2,0.5c-4.1,0-8.9-0.8-11.3-2.6c-2.2-1.7-1.5-5.7-0.5-10.2l-0.4,0.1l0.9-2.2c0.2-0.6,0.4-1.1,0.6-1.7
							c0.7-2,1.4-4.1,1.9-6.2c0.3-1.2,0.5-2.3,0.6-3.2c0.1-0.6,0.1-1.1,0.2-1.7c0-0.1,0-0.2,0-0.2v-0.2c0-0.2,0-0.3,0-0.5
							c0-0.3,0-0.5-0.1-0.6l0-0.2c-0.4-2.2-0.9-4.3-1.4-6.4c-1.2-4.7-2.7-9.2-4.6-13.7c-0.5-1.2-1.1-2.3-1.6-3.3
							c-0.3-0.6-0.6-1.1-0.9-1.6c-0.3-0.5-0.7-1-1.1-1.5c-0.1-0.1-0.2-0.2-0.3-0.3c0.1,0.1,0.2,0.2,0.2,0.4c0.3,0.5,0.6,1,0.8,1.6
							c0.2,0.5,0.4,1,0.7,1.7c0.4,1,0.7,2,1.2,3.4c1.5,4.7,2.8,9.6,3.8,13.7c0.5,2,1,4.1,1.4,6.2l0,0.1c0,0.3,0.1,0.4,0.1,0.6
							c0,0.1,0,0.2,0,0.4v0.1c0,0.1,0,0.2,0,0.3c0,0.5-0.1,1-0.1,1.5c-0.1,0.9-0.3,1.9-0.6,3.1c-1,4.1-2.4,8.1-4.3,11.8
							c-0.9,1.8-2.1,3.5-3.5,5.1c-0.6,0.6-1.3,1.2-2,1.6v0.4l-1.5,0c-0.5,0-1,0-1.6,0c-2.1,0-4.2-0.2-6.2-0.6c-1-0.2-2-0.5-2.9-0.9
							c-0.5-0.2-1.1-0.5-1.5-0.8l-0.2,0.1l-0.4-0.4l-0.5,0.1l-0.1-0.4l-1.9-0.5l1.6-1.1c0-0.1,0-0.3,0-0.4l-0.6-3.4l0.5,0.6
							c0,0,0-0.1,0-0.1c0.1-1.9,0.2-3.8,0.4-5.5c0.2-1.6,0.3-3.4,0.6-5.5l0.5-4.1l0.1-0.7L7.2,120l-0.7,0.1
							c-1.4,0.2-2.8,0.3-4.1,0.3c1,0.4,2.1,0.7,3.2,1l1.3,0.3l-0.4,1.7c0,0.1-0.1,0.3-0.1,0.4c-0.5,1.9-0.8,3.7-1.2,5.4
							c-0.2,1.1-0.3,2-0.5,3l-0.1,0.9l-0.9,0.2c-3,0.6-11.2,1.7-22.8-2.3l-0.5-0.2l-7.4-5.6l3.6-6l-0.6-0.5
							C-25.1,117.8-28,115.6-30.2,113.8"/>
						<path id="Trazado_4054_00000141416833775011351540000003176174546823306646_" class="st9" d="M-2.8,137.9
							c1.9,0,3.9-0.1,5.8-0.4c0,0.1,0,0.1,0,0.2c0,0.6,0.1,1.1,0.2,1.7c0,0.2,0.1,0.3,0.1,0.5c0,0.2,0.1,0.4,0.2,0.6
							c0.1,0.2,0.2,0.4,0.3,0.6l0.4,0.6l0.3,0.4c1,0.9,2.1,1.7,3.4,2.2c1.1,0.5,2.3,0.8,3.5,1c2.2,0.4,4.5,0.7,6.8,0.7
							c0.6,0,1.1,0,1.7,0l0.6,0c0.2,0,0.5-0.1,0.7-0.1c0.4-0.1,0.7-0.2,1.1-0.4c1.2-0.6,2.4-1.4,3.3-2.4c0.3,1.7,1.3,3.3,2.7,4.3
							c2.5,1.9,8,3.4,13.4,3.4c1.9,0,3.7-0.2,5.5-0.6l-2.5,5.2c-1.3,2.7-0.1,5.9,2.5,7.1c0.7,0.3,1.5,0.5,2.3,0.5h0l234.5-1.7v2.5
							c0,0.9-0.7,1.6-1.6,1.6l-238.6,2.6c-0.2,0-0.5-0.1-0.7-0.2l-63.5-30.1c-0.6-0.3-0.9-0.8-0.9-1.4v-0.9c0.6-0.1,1.2-0.3,1.6-0.4
							C-14.2,136.8-8.5,137.8-2.8,137.9"/>
						<path id="Trazado_4055_00000155861173354780029770000004624897337125527200_" class="st9" d="M49.5,157.6l83.3-175l237.2-1.8
							h0c0,0,0,0,0,0l-83.3,175L49.5,157.6C49.6,157.7,49.5,157.6,49.5,157.6"/>
						<path id="Trazado_4056_00000002370418210097087550000007846039194782603136_" class="st3" d="M212.7,62.3c0,0,0-7.3,0.5-11.8
							c0.4-4.5-6.8,1.7-6.8,1.7s-1.3-2.7-5-0.5c-3.6,2.2-5.7,3.7,2,14.3c-5,7.9-4.9,20.6,6.5,25.1c8.1,3.2,23.1,4.3,41.5-13.2
							l-1-2.5c-3.4,0.6-6.9,1-10.4,0.9c6.5-1.5,12.6-4.6,17.7-8.9c-0.4-1.2-1-2.4-1.8-3.4C255.8,64.2,225.5,73.7,212.7,62.3"/>
						<path id="Trazado_4057_00000127034069300127208590000018346145494249246627_" class="st9" d="M46.8,153.4L35.7,154l-9.5-4
							l11.5-0.8l10.8-0.6L46.8,153.4z"/>
						<path id="Trazado_4058_00000041980280207778311190000015839261366282028931_" class="st9" d="M31.1,147.9l-7.2,0.7l-10.1-3.3
							c0,0,7-1.2,7.3-1.2c0.3,0,5-3.5,5-3.5L31.1,147.9z"/>
						<path id="Trazado_4059_00000072977848089530814610000011975736662309926314_" class="st10" d="M26-27.4
							c4.3,0.9,6.9,7.3,4.1,8.2c-2.8,0.9-4.8-3.5-7.1-4.1C20.8-23.9,18.8-28.8,26-27.4"/>
						<path id="Trazado_4060_00000065061636019068125840000007592905694838685335_" class="st8" d="M61.4-250.2
							c-8.4,2.4-16.7,5.4-24.7,8.8c11.4-15.6,27.2-33.4,46.4-35.2c-28.9-3.3-70.3,2.9-98.4,31.6l16.7-36.6c0,0-50.7,28.9-57.6,96.1
							c-1.6-11.4,0.9-28.2,0.9-28.2s-24.5,12-4.1,82.4l17.4,13.2c0,0,8.1,9.1,10.5,27.5c-2.2-3-4.5-5.9-7.1-8.6
							c0,0,11,24.9-4.1,43.8c4.6,13,23.6,35.4,23.6,35.4s-4.7-19.4,3.4-24.4s28.9-3.2,28.9-3.2l0-5c0,0-8.8-10.5-6.3-24.2
							s8.5-29.2,32.6-32.1c0,0,10.2-10.4,33.1,3.5c-22.9-24.6-49.4-29.6-49.4-29.6L11-132.4c0,0-15.8,7.3-18.5,28.8
							c-5.9-10.4-15.6-41.1-7.3-61c-0.1,6.5,0.7,13,2.2,19.3c0,0,6.9-59,77.4-51.9c0,0,4.7-35.3,53.6-39.1
							c36.6-2.9,65.8-20.6,75.8-45c-21.1,15.7-28.4,22.4-55.7,23S75.7-257,61.4-250.2"/>
						<path id="Trazado_4061_00000023283565953027894430000014353109802520589492_" class="st8" d="M116.8-119.3
							c0,0-14.2,30.7-15.5,57.2c6.7-18,13.2-34.1,33.5-39.1c-2.2-2,6.9-16.2,21.7-19.9C136.2-120.7,116.7-119.3,116.8-119.3"/>
						<path id="Trazado_4062_00000119799702977464620970000001554142846506561931_" class="st8" d="M-74.5,41.8
							c0,0-16.8,28.4-17.7,63.5c6.6,7.2,32.4,21.9,62.2,20.5c3.6-6,6.7-6.6,6.7-6.6l-12.8-6.8l-19.2-2c0,0,8.5-3.6,10.8-4.5
							c-9.1-0.5-18.1-2.2-26.7-5c-0.5-12.7,6.6-44.4,6.6-44.4c0.5,3.5,1.4,6.9,2.7,10.1c0.7-4.5,0.9-16.9,0.9-16.9L-74.5,41.8z"/>
						<path id="Trazado_4063_00000045611593980252730120000012097002186577611399_" class="st11" d="M196.4-283.4c0,0-2,82.5-55,112
							c11.7-13.4,18.6-30.2,19.8-47.9c-16.4,2.8-31.8,9.9-44.6,20.5c4-8.7,9.8-16.5,17-22.9c0,0-24,11.5-27.6,32.4
							c11.6-4.4,23.4-8.1,35.5-11.1c0,0-6.9,15.5-33.3,40.6l-1.3,13.1c0,0,54.1-10.9,81.3-50.4S196.4-283.4,196.4-283.4"/>
						<path id="Trazado_4064_00000076575349095267406830000001200860199458613175_" class="st11" d="M147.7-161.4
							c0,0,7.8,44.8,5.6,67.3c-0.7,6.9-5.6,15.7-12,24.5l-6.4,13.4l3.1-0.3c0,0,24.2-18,25.7-37s-1.9-46.4-10.7-70.5
							C151.3-163,147.7-161.4,147.7-161.4"/>
						<path id="Trazado_4065_00000178163064807528071370000014295657764257499316_" class="st6" d="M-84.8-102.8c0,0-7.9,6.4-15.7,2
							c1,15.2,13.1,51.3,27.3,53.1s34.1-12.9,34.1-12.9c2.4-4.4,3.8-9.3,4.1-14.3c0,0-4.7,5.7-13.2-3c-8-6.8-18.3-10.6-15.6-15.2
							c2.7-4.7,13.6-3.3,13.6-3.3s-5.6-18-18.9-21.6c-13.3-3.5-20.1-3.4-17.9,5.9L-84.8-102.8z"/>
						<path id="Trazado_4066_00000012467763719556856070000007123786823676548245_" class="st6" d="M1-23.6c0,0,1.6,14.4,24.6,22.4
							C16.4-8.3,10.3-22,10.3-22l-10.8-6.4L1-23.6z"/>
						<path id="Trazado_4067_00000098924984822140613730000017395325632692916899_" class="st6" d="M100.3-28.2c0,0,2.1-2,1-3.1
							c-1.1-1.1-3.2,3.6-11,2.9c-7.8-0.7-13.4-6.4-17.9-5.7c-4.5,0.8-10.9,3.9-4.1,8S86.2-17.5,100.3-28.2"/>
						<path id="Trazado_4068_00000062163069639802936950000018040278795052527265_" class="st6" d="M7.6,119
							c-4.3-1.7-8.2-4.3-11.2-7.8c-8.3,1.7-16.8,2.5-25.3,2.3c1.6,2.1,3.4,4,5.5,5.6l-3.6,6l11.1,8.7L3.9,135l0.7,4.3l10.5,4.2
							c0,0-6.9-0.2-1.5-26.3c-3.6-1.3-6.6-3.7-8.6-7C5.5,113.3,6.4,116.2,7.6,119"/>
						<path id="Trazado_4069_00000085971361472068629230000006520710631626382766_" class="st6" d="M33.6,117.8c0,0-2.7,28,10,28.1
							c-4.9,4.6-15.6,0.1-15.8-2.3C27.6,141.1,33.6,117.8,33.6,117.8"/>
						<path id="Trazado_4070_00000057126103969446739230000015244279377133515919_" class="st12" d="M100.8-17.2l3,6.7
							c0,0-20.7,15.4-54.2,7.7C52.5,1,77,6.1,91.2,2.1c8.6-2.4,16.8-6.1,24.4-11L100.8-17.2z"/>
						<path id="Trazado_4071_00000046303375424059178700000017994829470500821888_" class="st12" d="M102-28.8c0,0,4.5-9.3-7.9-10.5
							c-12.5-1.3-32.6,0.3-31.6,7.7c-1.7-4.5,1.5-8.7,9.2-10.5C79.3-44,114-46.5,102-28.8"/>
						<path id="Trazado_4072_00000031904729273660805020000000945555150138441899_" class="st12" d="M80.7-37.1
							c0,2.5,4.4,4.6,9.7,4.6c5.4,0,9.7-2.1,9.7-4.6c0-2.5-4.4-4.6-9.7-4.6C85-41.7,80.7-39.6,80.7-37.1"/>
						<path id="Trazado_4073_00000119833899662660939340000004085739770603211431_" class="st12" d="M128.4-42.7
							c0,0,7.7,7.7,3.5,21.9c7.7-0.2,9.9-0.6,9.6-5.1C141.2-30.5,140.8-45.2,128.4-42.7"/>
						<path id="Trazado_4074_00000079488457414999379690000008812607747486844091_" class="st12" d="M117.9,5.4
							c0,0-21.4,13.9-23.9,18.4c-3.5,1.8-7.7,1.7-11.1-0.3c8.2-1.1,10.5-5.4,16.6-11.1c14-13.2,22.7-15.4,22.7-15.4L117.9,5.4z"/>
						<path id="Trazado_4075_00000031166859481908464880000010621388006236209043_" class="st12" d="M-34.6-103.6
							c0,0-29.2-27.2-47.6-23.6s-18.3,15.4-18.3,15.4s0.6-21.7,17.8-21.9c17.2-0.1,40.7,15.8,40.7,15.8
							C-38.8-113.6-36.2-108.8-34.6-103.6"/>
						<path id="Trazado_4076_00000159471614417442639120000013521190948839900583_" class="st12" d="M70.1,105.3
							c0,0-9.6-20.9-20-17.5c-1.2-2.5-8.8-10.8-22.3-5.4c-13.6,5.4-42.6,11.3-42.6,11.3s32.6-19.3,46.4-20s15.6,6,15.6,6
							s12-5.5,20.7,3.2s9.2,10.6,9.2,10.6L70.1,105.3z"/>
						<path id="Trazado_4077_00000040570266667824379350000009849051444724414655_" class="st13" d="M94,23.9l7.6,15.1l-6.2,15.1
							l-12.1,3.3l-7.2-29.6L94,23.9z"/>
						<path id="Trazado_4078_00000133493249531673406690000001893598917965628574_" class="st13" d="M-30.5-28.8
							c0,0-35.6-2.1-46.7,64.6C-82,32.1-86,27.5-89,22.3c0,0,13.8-59.2,54.1-57.9C-32.2-31.1-30.5-28.8-30.5-28.8"/>
						<path id="Trazado_4079_00000127002244279390913340000001381167626242249350_" class="st13" d="M-13.5,19.2
							c0,0,0.3,38.4,13.9,52.3c-14.1-0.3-28.2,0.5-42.2,2.2l1.9-24l17.4,1.4L-13.5,19.2z"/>
						<path id="Trazado_4080_00000176733828914753457420000012266515997549554062_" class="st14" d="M-43.6,49.7
							c14.2-12.2,24.9-27.8,31.3-45.4c-1.2,14.9-10.2,46.9-10.2,46.9L-43.6,49.7z"/>
						<path id="Trazado_4081_00000118389534784272819400000001280097979172369540_" class="st14" d="M68.3,85.5
							c0,0,10.4-14.9,10.6-48c6.3,24.1,5.4,38,5.4,38l-7.7,16.1L68.3,85.5z"/>
						<path id="Trazado_4082_00000101797846421222368720000004310693743055090086_" class="st15" d="M132.9-17.4L132.9-17.4
							c3,5.9,3.1,12.8,0.3,18.8L57.5,159.5h229.7v7.5l-3.1,1l-240.6,2.6l-67-30.8l-1.1-4.7l5.4-4c0,0,7.6,5.4,23,4
							c0.7,4.3,2.5,8.8,14.4,7.8s9.4-3.6,9.4-3.6s-3.4,7.5,14,7.9S62,124.7,62,124.7L132.9-17.4z"/>
						<path id="Trazado_4083_00000049932247065508612020000011626854284807709060_" class="st16" d="M263.7-19.1l2.6,2
							c5.5,4.4,9.3,10.5,10.8,17.4l26.8,123.6l68.9-144.7L263.7-19.1z"/>
						<path id="Trazado_4084_00000048481247512438197800000002649674721070195328_" class="st11" d="M-49,51.2l-4.1,24.7l-7.8,2.3
							c0,0-4.2,1.7-3.9,1.5c8.8,0.3,17.6,1.1,26.4,2.5c-1.4-1.5-3.2-2.6-5.2-3.3c0,0,23.4-1,40.2,4.6c4.9-1.9,9.7-4.3,14.2-7
							c0,0-31-7.8-53.9-3c1.9-7.2,3.3-14.4,4.2-21.8C-39,51.8-49,51.2-49,51.2"/>
						<path id="Trazado_4085_00000012452768447471945010000004599830478026387376_" class="st17" d="M-78.2,40.4
							c-0.6-0.5-1.2-1.1-1.8-1.6c-2.7-2.5-5.1-5.3-7.2-8.3c-1.1-1.5-2.1-3-3-4.6c-0.1-0.2-0.2-0.4-0.3-0.6l-0.5-0.8
							c-0.4-0.8-1.2-1.5-0.6-2.4l0.9-3.2c2-6.8,4.5-13.5,7.5-20c0.8-1.6,1.5-3.2,2.4-4.8l1.3-2.4l1.4-2.3c0.9-1.6,2-3,3-4.5
							c0.5-0.7,1.1-1.5,1.6-2.2c0.5-0.7,1.1-1.5,1.7-2.1l1.8-2.1l1.9-2l0.5-0.5l0.5-0.5l1-0.9c0.3-0.3,0.7-0.6,1-0.9l1-0.9
							c2.8-2.4,5.9-4.5,9.1-6.2c3.3-1.8,6.8-3.1,10.5-3.9c1.8-0.4,3.7-0.7,5.6-0.8c0.1,0,0.2,0,0.3,0c-2.9-4.5-5.7-9.1-8.1-13.7
							c-5.5,3.5-11.5,6.1-17.8,7.8c-4.1,0.6-8.7,0.9-12.6-1.1c-6.3-3.8-10.7-9.9-14.4-16c-10.4-17.2-22.2-52.3-6.8-69.2
							c2.5-2.6,5.5-4.5,8.8-5.8c5.8-2.1,12.1-2.4,18.1-0.9c-1.5-4.3-3.7-11.2-5.8-19.2c-4.6-18.3-5.8-33.4-3.7-44.7
							c3.3-17.3,23.1-28.3,27.9-30.7c4.3-16,13.6-30.1,26.6-40.4c8.7-6.6,18.7-11.1,29.4-13.5l5.9-1l-3.3,5.1
							c-3.2,5-6.1,10.2-8.7,15.6c-1.4,2.9-2.7,5.9-3.8,9c5.1-3.6,10.5-6.8,16.1-9.5c20.2-9.9,42.5-14.8,65-14.3
							c7.3,0,16.4,1.9,23.7,3l-9.8,3.4c-8.5,3-15.6,9.1-19.7,17.2c21.7-3.8,43.8-5.3,65.9-4.2c1.4,0.1,5.3,0.2,6.7,0.3
							c20.4,1,40-12.1,53.7-26.3l3.4-3.8c4.3,17.2,6,34.9,5.1,52.6c-1.1,20.5-7.2,42.2-23.1,56.3c-7.2,6.8-15.1,12.8-23.6,17.9
							c1.4,3.8,12.9,36.2,10.6,71.2l0,0.2c-0.7,4.2-2.2,8.2-4.6,11.8C159-65,154-53.2,147.6-46c-1.8,2.1-4,3.9-6.4,5.2
							c3,5.5,4.3,11.8,3.6,18L370-24.5c3,0,5.4,2.4,5.4,5.3c0,0.8-0.2,1.6-0.5,2.3l-83.3,175c-0.5,1-1.2,1.8-2.2,2.3v3.2
							c0,3.8-3.1,6.8-6.8,6.9L44,173.2h-0.1c-1,0-2-0.2-3-0.7l-63.5-30.1c-2.4-1.1-3.9-3.5-3.9-6.2c-6.1,0.9-12.3,1.2-18.5,0.8
							c-19.2-0.9-37.5-8.7-51.3-22.1l-0.8-0.8l0-1.2C-96.4,82.5-82,48.8-78.2,40.4 M-43.4-32.1c-3.2,0.7-6.2,1.9-9.1,3.4
							c-2.9,1.5-5.6,3.4-8.1,5.6l-0.9,0.8c-0.3,0.3-0.6,0.6-0.9,0.9l-0.9,0.9l-0.5,0.4l-0.4,0.5l-1.7,1.8l-1.6,1.9
							c-0.6,0.6-1.1,1.3-1.6,2c-0.5,0.7-1,1.3-1.5,2c-0.9,1.4-1.9,2.8-2.8,4.2l-1.3,2.2L-76-3.3c-0.8,1.5-1.6,3-2.3,4.6
							c-2.9,6.2-5.3,12.6-7.2,19.2l-0.5,1.8l0,0l0.2,0.3c0.1,0.2,0.2,0.4,0.3,0.5c0.9,1.4,1.8,2.8,2.7,4.2c1.9,2.7,4.1,5.2,6.5,7.5
							c4.8,4.6,10.5,8.1,16.8,10.3c6.3,2.2,13,3.3,19.7,3.4c3.4,0,6.8-0.1,10.1-0.5l2.5-0.3l1.9-0.3l0,0l0.1-0.3l1-2.3
							c2.8-6.6,5.1-13.3,7.1-20.1c2-6.9,3.6-13.9,4.7-21c0.7,7.3,0.4,14.7-0.8,21.9c-1.2,7.3-3.2,14.5-6.1,21.3l-1.1,2.5l-0.9,2.1
							l-0.3,0.6l-0.1,0.3l-0.3,0l-1.3,0.2l-3.3,0.5l-2.7,0.3c-2.4,0.2-4.7,0.4-7.1,0.5L-40,72.1c15.7-3.3,31.9-3.6,47.7-0.8
							c3.4,0.6,6.8,1.4,10.1,2.5c12.6-4.7,16-4.3,17.3-4.2c4.7,0.5,9.1,2.6,12.7,5.8c4.5-0.9,9.1-1.1,13.6-0.4
							c4.6,1.1,11.4,9.3,15,13.9l6.6-13.8c-0.5-15.6-3.1-31.1-7.8-46c-8.4-0.3-16.8-1.1-25.1-2.3C-1.6,20.8-18.8-9.5-35-32.8h0
							c-0.4,0-0.8,0-1.2-0.1c-0.8,0-1.6,0-2.4,0.1C-40.2-32.7-41.8-32.5-43.4-32.1 M94.6,50.7L110.1,18l-1.2-2.4
							c-3.6,2.5-7.6,5.4-12,9c-3.4,2.8-9.3,4.1-16.2,4.4c2.5,8.2,4.4,16.6,5.6,25C89.2,53.2,91.9,52.1,94.6,50.7 M87,59.5
							c0.2,1.9,0.4,3.8,0.6,5.8l3.4-7.1C89.5,58.7,88.1,59.1,87,59.5 M161.1-119.4c-19.2-2-41.4,17-47.9,23.1
							c-0.7-10.4,3.9-25.1,3.9-25.1c26-16.9,39.1-12.2,39.1-12.2s2.5,2.2,4.5,11c-1.7-13.3-4.7-26.4-9-39.1
							c-3.3,1.9-6.7,3.7-10.2,5.3c-9,4.5-18.4,8-28,10.4c-2.7,0.7-5.8,1.3-8.6,1.8l-0.1-2.7c-0.1-7.1-0.7-14.2-1.9-21.2l-1.4,0.9
							c-1.2,0.8-2.4,1.6-3.7,2.3c-1.2,0.7-2.5,1.5-3.7,2.2l-2.5,1.4l-3.7,2l-0.5-7.2l-0.3-4.4l-0.4-4.3l-0.2-2.2l-0.1-0.9l0,0
							c0,0,0,0,0,0c0,0,0,0,0-0.1c0,0,0,0,0,0c0,0,0,0,0,0l-0.1,0l-0.1,0l-0.2,0.1c-0.3,0.1-0.6,0.2-0.9,0.3
							c-1.2,0.3-2.3,0.6-3.5,0.8c-2.3,0.4-4.7,0.6-7.1,0.5c2.1-1,4.3-2,6.4-3l3.1-1.4c0.3-0.1,0.5-0.2,0.8-0.4l0.2-0.1l0.1,0
							l0.1-0.1c0.3-0.1,0.5-0.2,0.8-0.4l3.2-1.6c0.2,0.8,0.3,1.6,0.4,2.4c0.1,0.7,0.2,1.4,0.3,2.1l0.1,1.3l0.2,2.2l0.4,4.4l0.5,6
							l1.2-0.7c1.2-0.7,2.4-1.4,3.6-2.1c1.2-0.7,2.4-1.5,3.5-2.2c0.3-0.2,0.6-0.4,0.9-0.6l0.4-0.3l0.2-0.2l0.4-0.3
							c1.2-0.9,2.3-1.7,3.4-2.6l0.9,2.8l0.5,1.4c0.1,0.2,0.1,0.5,0.2,0.7l0.1,0.4c0.3,1,0.5,2,0.8,3c0.4,2,0.8,4.1,1,6.1
							s0.4,4.1,0.5,6.1c0,0.8,0.1,1.6,0.1,2.4c0,0.4,0.1,0.8,0.1,1.3c1-0.3,2-0.6,3-0.9c5.5-1.7,11-3.7,16.4-5.8
							c17.6-6.8,33.8-16.9,47.7-29.7c20.9-18.8,23.2-49.5,21.1-75.9c-0.5-6.1-1.3-12.1-2.4-18.2c-1,0.9-2,1.8-3,2.7
							c-13.6,11.9-30.5,21.8-49.1,21.8c-23.3-1.2-46.8-0.9-69.9,3.1c-4.2,0.7-8.8,1.8-13,2.9l1.3-4.4c3-8.7,8.7-16.1,16.4-21
							c-14.2-0.8-28.5,0.7-42.2,4.5c-16.7,4.4-32.4,12.2-45.9,22.9l-6.1,4.9c1.2-5.6,2.7-11.1,4.6-16.6c2.6-6.6,5.7-13,9.2-19.1
							c-0.3,0.1-0.7,0.2-1,0.3c-7.2,2.5-13.9,6-19.9,10.6c-8.2,6-15.1,13.5-20.2,22.3C-54-227.6-57-206.2-56.3-185.7
							c-1.1-10.4-1.1-21,0.2-31.4c0.3-2.5,0.7-5,1.2-7.5c-6.9,4.2-18.6,12.9-20.9,24.6c-4.4,22.9,8,57.9,10.5,64.7
							c1.2,0.4,2.3,0.8,3.4,1.3c9.4,4.9,17.9,11.4,25,19.3c-8.7-5.3-17.8-9.8-27.3-13.5c-9.6-4-21.9-5.9-29.9,2.2
							c-10.9,12.3-3.8,37.6,2.1,51.1c3.8,8.5,9.7,19.4,17.6,24.4c2.8,0.9,5.8,1,8.6,0.4c5.7-1.2,11.3-2.9,16.8-5
							c3.5-1.4,6.8-3.3,9.7-5.7c-0.8,2.1-2,4-3.5,5.6C-36.4-43.8-29.3-33-21.2-23c-0.1-0.2-0.1-0.5-0.2-0.7
							c-0.3-1.7-0.5-3.5-0.5-5.2c0-1.8,0.1-3.5,0.5-5.3c0.3-1.7,0.9-3.5,1.5-5.1c0.2-0.4,0.3-0.8,0.5-1.2c0.2-0.4,0.4-0.8,0.6-1.2
							c0.4-0.8,0.9-1.6,1.4-2.3c2.1-3.1,5.2-5.4,8.7-6.6c3.4-1.1,7.1-1.4,10.6-0.9c3.4,0.5,6.7,1.3,9.9,2.6c1.6,0.6,3.1,1.3,4.7,2.1
							c0.8,0.4,1.5,0.8,2.3,1.2l1,0.6c0.3,0.2,0.7,0.4,1,0.6c5.7,3.3,11.5,6.5,17.3,10.1c-6.9-0.7-13.5-2.8-19.6-6.2
							c-0.4-0.2-0.7-0.4-1.1-0.6l-1-0.6c-0.6-0.4-1.3-0.7-2-1.1c-1.4-0.7-2.8-1.3-4.2-1.9c-2.8-1.1-5.8-1.9-8.9-2.3
							c-2.9-0.4-5.8-0.2-8.6,0.7c-2.7,0.9-4.9,2.7-6.5,5c-0.4,0.6-0.8,1.2-1.1,1.8c-0.2,0.3-0.3,0.7-0.5,1c-0.2,0.3-0.3,0.7-0.5,1
							c-0.6,1.4-1,2.8-1.3,4.2c-0.3,1.4-0.4,2.9-0.4,4.4c0,1.5,0.1,3,0.4,4.5c0.6,3,1.6,5.9,2.9,8.6c0.7,1.4,1.4,2.7,2.2,4
							c0.1,0.2,0.3,0.4,0.4,0.6c15.9,20,41.4,29.8,62.1,33c21.8,3.3,37.7,2.9,42.7-1.2C100.3,15,107.5,9.9,115,5.2l1.7-1.1L128-19.7
							c0.9-1.8,2.7-3,4.8-3.1l6.5,0c2-12.3-7.7-22.5-7.8-22.6l-1.4-1.5l0.9-1.5c-1.3,1.3-2.9,2.3-4.6,3c6.4-9.1,13.1-26.7,14.7-39.9
							c2-16.3-13.3-14.3-23.1-3.7S103-54.9,103-54.9s-3.6-2.7-1.3-11.9c2.4-9.2,8.7-28.3,22.1-35.1s26.3-2.5,24.3,14.5
							c-0.3,2.4-0.7,4.7-1.3,7c-2.1,7.4-4.9,14.5-8.4,21.3c2.8-3.7,5.7-7.1,8.4-10.3c7.4-8.7,13.8-16.3,15-24.2
							C162.3-102.2,162.1-110.8,161.1-119.4 M153.9-69.6c-1,1.2-2.1,2.5-3.1,3.7c-5.2,5.8-9.9,11.9-14.1,18.4c0.5,0.6,1,1.3,1.6,2.2
							C141.3-46.8,148.2-51.9,153.9-69.6 M370.1-19.1C370.1-19.2,370.1-19.2,370.1-19.1L370.1-19.1l-237.3,1.7l-83.3,175
							c0,0,0,0,0.1,0l237.2-1.8L370.1-19.1z M-21.2,136.3c0,0.6,0.4,1.2,0.9,1.4l63.5,30.1c0.2,0.1,0.5,0.2,0.7,0.2l238.6-2.6
							c0.9,0,1.6-0.7,1.6-1.6v-2.5L49.6,163h0c-3,0-5.4-2.4-5.4-5.4c0-0.8,0.2-1.6,0.5-2.3l2.5-5.2c-1.8,0.4-3.7,0.6-5.5,0.6
							c-5.4,0-10.9-1.4-13.4-3.4c-1.4-1-2.4-2.6-2.7-4.3c-0.9,1-2,1.8-3.3,2.4c-0.4,0.2-0.7,0.3-1.1,0.4c-0.2,0-0.4,0.1-0.7,0.1
							l-0.6,0c-0.6,0-1.1,0-1.7,0c-2.3,0-4.6-0.3-6.8-0.7c-1.2-0.2-2.3-0.6-3.5-1c-1.3-0.5-2.4-1.2-3.4-2.2l-0.3-0.4L3.8,141
							c-0.1-0.2-0.2-0.4-0.3-0.6c-0.1-0.2-0.1-0.4-0.2-0.6c0-0.2-0.1-0.3-0.1-0.5c-0.1-0.6-0.2-1.1-0.2-1.7c0-0.1,0-0.1,0-0.2
							c-1.9,0.3-3.9,0.4-5.8,0.4c-5.7-0.1-11.4-1-16.9-2.9c-0.4,0.1-0.9,0.2-1.6,0.4L-21.2,136.3z M-18.9,129.6l0.3,0.1
							c11.2,3.9,19.1,2.9,22.1,2.3c0.1-1,0.3-2,0.5-3c0.3-1.9,0.7-3.7,1.2-5.5c0.1-0.3,0.1-0.5,0.2-0.8c-2.7-0.6-5.3-1.7-7.5-3.2
							c-0.8-0.6-1.6-1.3-2.3-2.1c0.9,0.5,1.8,0.9,2.8,1.1c2.6,0.7,5.4,0.8,8.1,0.3v0l0.1-0.3l-0.1-0.3L6,117.4
							c-0.2-0.5-0.4-1-0.6-1.5c-0.4-1-0.7-2-0.9-3.1c-0.5-2.1-0.9-4.3-0.9-6.5c0.5,2.1,1.3,4.1,2.2,6.1c0.5,0.9,0.9,1.8,1.5,2.7
							c0.3,0.4,0.5,0.9,0.8,1.3l1.1,1.7L9,119.1l0,0.3l0,0.2l0,0.3l-0.2,1.4L8.4,124c-0.2,1.8-0.4,3.7-0.6,5.5
							c-0.2,1.8-0.3,3.6-0.4,5.4c0,0.9,0,1.7,0,2.5c0,0.4,0.1,0.7,0.1,1.1c0,0.1,0,0.1,0,0.2c0,0.1,0,0.1,0,0.1s0,0,0,0l0,0l0,0.1
							c0.6,0.5,1.2,0.9,2,1.2c0.9,0.3,1.8,0.6,2.7,0.8c2,0.4,4,0.6,6,0.6c0.5,0,1,0,1.5,0H20h0c0,0,0.1,0,0.1,0
							c0.1,0,0.3-0.1,0.4-0.1c0.7-0.3,1.3-0.8,1.9-1.4c1.3-1.4,2.4-3,3.2-4.8c1.8-3.7,3.2-7.5,4.2-11.5c0.2-1,0.4-2,0.6-3
							c0.1-0.5,0.1-1,0.1-1.4c0-0.1,0-0.2,0-0.3c0-0.1,0-0.2,0-0.2c0-0.1,0-0.4-0.1-0.6c-0.3-2-0.8-4-1.3-6.1
							c-1.2-4.6-2.4-9.2-3.8-13.7c-0.4-1.1-0.7-2.2-1.1-3.3c-0.2-0.5-0.4-1.1-0.6-1.6c-0.2-0.5-0.4-0.9-0.7-1.4
							c-0.1-0.2-0.2-0.3-0.3-0.5c-0.1-0.1-0.2-0.2-0.4-0.3c-0.2-0.1-0.4-0.2-0.7-0.3l-0.8-0.2c-1.1-0.2-2.3-0.2-3.4-0.2
							c-2.2,0.1-4.3,0.4-6.4,0.8c2-0.9,4.1-1.6,6.2-2.2c1.2-0.3,2.5-0.5,3.8-0.6c0.3,0,0.7,0,1,0c0.4,0,0.7,0.1,1.1,0.2
							c0.4,0.1,0.8,0.3,1.2,0.5c0.3,0.2,0.6,0.5,0.9,0.8c0.4,0.5,0.8,1.1,1.2,1.6c0.3,0.5,0.7,1.1,1,1.7c0.6,1.1,1.1,2.2,1.6,3.4
							c1.9,4.5,3.5,9.1,4.7,13.9c0.5,2.1,1,4.2,1.4,6.5c0,0.3,0.1,0.5,0.1,1c0,0.2,0,0.4,0,0.6c0,0.2,0,0.4,0,0.5
							c0,0.6-0.1,1.2-0.2,1.8c-0.2,1.2-0.4,2.3-0.6,3.4c-0.5,2.2-1.1,4.3-1.9,6.4c-0.2,0.6-0.4,1.2-0.7,1.8h0l-0.2,1.1
							c-0.9,4.1-1.9,8.4-0.2,9.7c2.2,1.7,9.8,3.2,15.4,1.9c1.4-0.3,2.7-0.9,3.8-1.9l3.8-7.9c0.4-2.8,0.8-5.7,1.2-8.5
							c0.5-3.4,0.9-6.8,1.2-10.2c0-0.4,0.1-0.8,0.1-1.2c0-0.4,0.1-0.8,0.1-1.2l0-0.6l0-0.5c0-0.2,0-0.3-0.1-0.5l-0.1-0.6l-0.1-0.6
							c0-0.2-0.1-0.4-0.1-0.6l-0.3-1.2c-0.2-0.8-0.5-1.6-0.7-2.4c-1.1-3.2-2.3-6.4-3.5-9.6c-1.3-3.4-2-7.1-2-10.7
							c2.7,2.5,4.8,5.6,6.2,9.1c1.3,3.2,2.5,6.5,3.6,9.8c0.6,1.7,1.1,3.5,1.5,5.2l0.1,0.7c0.1,0.2,0.1,0.5,0.1,0.8l0.1,0.8l0,0.7
							c0,0.5,0,0.9-0.1,1.4l1,2.8l11.6-24.4C69.1,88,62.7,80.8,60.1,80.2c-4.2-0.5-8.5-0.3-12.6,0.7l-1.6,0.3l-1-1.2
							c-2.8-2.8-6.4-4.6-10.4-5.1c-6.1-0.7-31.2,9.7-45.1,16.6l-4.1,2l2.1,5.1l-2.1,0.7c-0.2,0.1-4.3,1.5-7.9,2.5
							c1,1.7,2.1,3.5,2.3,3.9l1.2,2.1l-2.2,1c0,0-3.7,1.6-8.2,4.1c2.6,2,6.1,4.8,6.3,4.9l1.5,1.2l-3.5,6L-18.9,129.6z M-44.9,131.8
							c6.8,0.4,13.6,0,20.3-1.2l-6.2-4.7l3.6-6c-2.7-2.1-6.4-5-7.3-5.7l-2.7-1.9l2.9-1.7c3.7-2.1,7.1-3.8,9.2-4.8
							c-1-1.7-2.2-3.5-2.5-4.1l-1.9-2.6l3.1-0.7c2.3-0.6,5.9-1.7,8.2-2.5l-1.9-4.6l7.2-3.5c0.1,0,10.2-5.6,20.4-10l1.2-0.5
							c-23.9-6.9-49.9-5.4-73.5,2.3c6.2-2.6,12.5-4.7,19-6.3l4.1-19.5c-6.7-0.2-13.4-1.4-19.7-3.6c-3.5-1.2-6.8-2.8-9.9-4.7
							c-0.9-0.5-1.8-1.1-2.6-1.7c-4.2,9.6-16.9,40.7-17.8,68.3C-79,124.1-62.4,131.1-44.9,131.8"/>
						<path id="Trazado_4086_00000014621309848974114860000004824548915120335267_" class="st17" d="M37-111.7
							c37.5-2.8,34.2,31.5,30.5,41.4c-1.3,4-3.4,7.6-6.1,10.8c9-30.8-3.7-47.6-23.7-45.3C16-102.3,4.2-84,13.2-52.3
							C8.3-54.9,7.6-57.2,6-64.4C3.6-74.4-0.5-108.8,37-111.7"/>
						<path id="Trazado_4087_00000181045613329486721480000003535485284787595161_" class="st17" d="M47.3-82L47.3-82
							c3.4,0.6,6.4,2.9,7.8,6.1c3.4,9.3-3.6,27.2-3.6,27.2c-8.7,1.8-17.6,2-26.3,0.5c-3.4-10.7-2.5-20,1.3-27.1
							C29.9-81.6,39.9-83.9,47.3-82 M27.6-50.8c7.3,1,14.6,0.9,21.8-0.4c1.5-4.2,2.6-8.6,3.2-13c-1-1.6-2.6-2.8-4.5-3.2
							c0.1,1.1,0,2.1-0.1,3.2c-0.6,4.7-2.7,8.5-8.2,8.4c-5.8-0.1-6.6-3.9-6-8.6c0.1-1.2,0.4-2.3,0.8-3.4c-3.8,0.8-7.1,2.3-8.6,4.6
							C25.9-59,26.4-54.8,27.6-50.8"/>
						<path id="Trazado_4088_00000064333580491216796180000012074990712971381937_" class="st17" d="M105.9-48.9
							c0,0,2.3-21,9.1-26.7c2.8-2.2,6.4-3.1,9.9-2.4c3.9,0.5,6,1.8,6.1,6.9c0,7.9-3.3,15.7-8.8,25C116.3-44.9,109.1-46.3,105.9-48.9
							 M122.2-65.1c-0.1,1.3-0.3,2.6-0.7,3.9c-1.1,4.4-3.1,8.1-6.4,8.4c-3.5,0.3-3.4-3.2-2.3-7.6c0.3-1,0.6-2,1-3
							c-1.1,0.5-2,1.3-2.8,2.2c-0.9,3.5-1.5,7.1-2,10.8c3.7,1.7,7.8,2.3,11.9,1.7c2.7-4,4.6-8.4,5.5-13.2
							C126-63.8,124.2-65.2,122.2-65.1"/>
						<path id="Trazado_4089_00000002381145050369886950000002893953013019791783_" class="st17" d="M76.6-101.2
							c0,0-29.9-32.4-65.6-30.9c0.5-5.7,2.4-11.2,5.5-15.9c23.4,1.4,46,8.7,65.8,21.1l-5.7,13.2c0,0,6.7-5.1,9-6.3
							C83.9-113.1,80.8-106.8,76.6-101.2"/>
						<path id="Trazado_4090_00000163035099583288413620000001170106121811896198_" class="st17" d="M68.8-29.5
							c-2.7,1.5-7.2-2.5-1.5-4.1c7-2,11.4,3.5,12.8,7.6C74.3-31.7,71.5-31.1,68.8-29.5"/>
						<path id="Trazado_4091_00000181807239569583158010000006531750978195001522_" class="st17" d="M49.9-2.8
							C65.7,1.6,83,3.9,98.5-2.6c4.3-1.8,8.5-4,12.5-6.4c-3.5-2.5-6.8-5.3-10-8.2c5.8,3.1,11.8,5.8,18.1,7.9
							c-6.1,3.9-12.4,7.3-19,10.4C85.9,7.3,70.2,6.7,55.3,3.4L51,3.8c-2.4,0.2-4.7,0.3-6.9,0.3c-16,0-26.3-5.2-31.3-15.8
							c-0.9-1.8-1.5-3.7-2-5.7L2.3-24c1.4,3.8,2.9,7.6,4.7,11.3c-2.3-1.6-4.3-3.6-5.8-5.9c-2.8-3.6-3.9-8.1-3.2-12.6
							c0.4-1.8,1.5-3.3,3.1-4.1c2.8-1.1,5.9-1,8.6,0.2c-2.5,0.3-4.9,1-7.1,2.3c-0.5,0.4-0.9,1-1,1.6c0,0.2-0.1,0.4-0.1,0.6l9,7
							c0.2-1.7,0.8-3.4,1.7-4.9c2.6-4,7.1-6.3,11.9-6.3c8.3-0.4,15.2,7.3,20.6,23C45.7-8.6,47.5-5.5,49.9-2.8 M24.2-30.2
							c-3.2-0.1-6.2,1.4-8,4c-1.8,3-1.4,7.4,1,12.5C21.4-4.6,30.5-0.4,45.4-0.7C43-3.6,41.2-6.9,40-10.4
							C35.5-23.7,30-30.5,24.2-30.2"/>
						<path id="Trazado_4092_00000170260272113828818410000015597190250479853488_" class="st17" d="M-49.7-92.1l-1-0.4
							c-0.6-0.2-1.1-0.4-1.7-0.5l-0.8-0.2c-0.1,0-0.1,0-0.2,0l-0.2,0l-0.2,0c-0.2,0-0.5-0.1-0.7-0.1c-0.5,0-0.9,0-1.4,0
							c-0.9,0-1.8,0.2-2.7,0.4c-0.7,0.2-1.3,0.5-1.9,0.9c-0.1,0.1-0.2,0.2-0.3,0.3c0,0,0,0,0,0l0,0c0,0,0,0,0,0c0,0,0,0,0,0.1
							c0,0,0,0.1,0,0.1c0.2,0.6,0.5,1.2,0.9,1.6c1.3,1.4,2.7,2.7,4.4,3.8c1.1,0.7,2.2,1.5,3.4,2.1l1.7,1l2.6,1.4l0.4,0.2l0.2,0.1
							C-47.1-81-47-81-47-80.9l0.1,1l0.1,1c0,0.2,0,0.3,0,0.5l0,0.4c0,0.8,0,1.6-0.1,2.3c-0.2,1.5-0.4,3-0.9,4.5
							c-0.4,1.5-1,2.9-1.7,4.2c-0.8,1.4-1.7,2.7-2.9,3.7c-2.5,2.4-6.3,2.7-9.1,0.7c-1.1-0.7-2.1-1.6-3-2.6c-0.5-0.5-0.8-1-1.2-1.5
							c-0.4-0.5-0.7-1-1.1-1.5c0.5,0.4,0.9,0.9,1.4,1.3c0.5,0.4,1,0.8,1.5,1.2c1,0.7,2,1.3,3.2,1.8c1.1,0.5,2.3,0.6,3.5,0.3
							c1.1-0.3,2-0.9,2.7-1.8c1.4-2,2.4-4.3,2.7-6.8c0.2-1.2,0.4-2.5,0.4-3.8c0-0.6,0-1.2,0-1.9c0-0.1,0-0.1,0-0.1l0,0l0,0
							c0,0,0,0,0,0h0l-0.1,0l-1-0.5c-0.6-0.3-1.3-0.7-1.9-1c-1.3-0.7-2.5-1.5-3.7-2.3c-2-1.3-3.9-3-5.5-4.8
							c-0.2-0.2-0.4-0.6-0.6-0.8c-0.1-0.1-0.2-0.3-0.3-0.4l-0.3-0.5l-0.3-0.5c-0.1-0.2-0.1-0.4-0.2-0.6l-0.2-0.6
							c-0.1-0.2-0.1-0.5-0.1-0.7c0-0.2-0.1-0.5-0.1-0.7c0-0.3,0-0.5,0.1-0.8l0-0.4c0-0.1,0.1-0.2,0.1-0.4c0.1-0.2,0.2-0.5,0.2-0.7
							c0.4-0.9,1-1.6,1.7-2.2c1.2-0.9,2.5-1.6,3.9-1.9c1.2-0.3,2.5-0.5,3.8-0.6c0.6,0,1.2,0,1.9,0c0.3,0,0.6,0,0.9,0.1l0.3,0
							l-0.1-0.2l-0.8-1.7c-1.2-2.3-2.6-4.5-4.2-6.6c-3.2-4.1-7.3-7.5-11.9-9.8c-2.2-1.1-4.6-1.9-7.1-2.2c-1.2-0.2-2.4-0.2-3.5-0.1
							c-0.3,0-0.6,0.1-0.8,0.1c-0.1,0-0.3,0-0.4,0.1l-0.3,0.1c-0.4,0.1-0.8,0.3-1.2,0.6c-0.8,0.6-1.3,1.5-1.6,2.4
							c-0.4,1.2-0.5,2.4-0.6,3.6c0,2.7,0.2,5.4,0.8,8c0.5,2.5,1.1,4.9,1.9,7.3c-1.3-2.2-2.4-4.5-3.4-6.8c-1.2-2.7-2-5.5-2.4-8.3
							c-0.2-1.6-0.2-3.1,0.1-4.7c0.3-1.8,1.2-3.5,2.5-4.7c0.7-0.6,1.5-1.2,2.4-1.5l0.6-0.3c0.2-0.1,0.4-0.1,0.6-0.2
							c0.4-0.1,0.8-0.2,1.2-0.3c1.6-0.3,3.2-0.4,4.8-0.3c3.1,0.3,6.1,1.1,8.8,2.5c5.4,2.7,10.1,6.5,13.7,11.2
							c1.8,2.3,3.4,4.8,4.8,7.5c0.2,0.3,0.3,0.7,0.5,1l0.2,0.5l0.1,0.2l0.1,0.1l0.1,0.2l0.7,1.8c0.2,0.6,0.5,1.2,0.7,1.8l2.5,7.3
							l-4.4-2C-49.1-91.8-49.4-92-49.7-92.1"/>
						<path id="Trazado_4093_00000090999468120628375110000017794030758706543018_" class="st3" d="M28.6-70.7
							c-0.4,3.8,0.3,6.8,4.6,6.9c4.1,0.1,5.7-3,6-6.8c0.4-3.8-0.4-6.8-4.6-6.9C30.5-77.5,29-74.5,28.6-70.7"/>
						<path id="Trazado_4094_00000170984645633583362750000002373569373213275069_" class="st3" d="M113.6-67.7
							c-0.8,3.6-0.7,6.5,2.6,6.4c3.2-0.1,4.7-3.1,5.6-6.7c0.8-3.6,0.6-6.5-2.6-6.4C116-74.2,114.5-71.3,113.6-67.7"/>
						<path id="Trazado_4095_00000178193891416045788620000008559852187332430521_" class="st18" d="M-59.4-132.8
							c3-1.2,6.4-1.2,9.4,0.2c1.9,0.8,3.7,2.1,5,3.7l3.3,3.8L5.9-70.8c1.5-1,3.2-1.4,5-1.3l65,3c2,0.1,3.8,1.1,4.9,2.9
							c1,1.9,1.1,4.3,0.2,6.2c9.6-2.7,15.7-1.3,19.2,0.5l0-0.4c0.6-4.3,4.1-7.5,8.4-7.7l45.5,2.1c1.5,0,2.9,0.9,3.6,2.3
							c0.8,2.3,0.4,4.8-1.2,6.7l-8,11.1c-1.4,2.2-3.8,3.6-6.4,3.8l0,0l-38.5-0.1c-1.4,0-2.8-0.6-3.8-1.6c-1-1.1-1.4-2.7-1.2-4.1
							l0.8-6.9c-1.2-0.9-2.6-1.6-4.2-1.9c-3.2-0.8-8.8-1-17.5,2.3l-4,7.6c-1.4,2.7-4.2,4.5-7.2,4.6h0l-53.7-0.1
							c-3.5,0.1-6.5-2.2-7.3-5.6L2.4-61.9l-13.7-16c-0.4-0.4-0.6-1-0.6-1.6v-4.4l-30-34.2C-46.7-123.9-52.7-129-59.4-132.8
							 M103.4-46.4c0.1,0,0.1,0,0.2,0l38.5,0.1l0,0c1.1-0.2,2-0.9,2.6-1.8l8-11.1c0.3-0.4,0.6-0.9,0.7-1.5l-45-2.1
							c-1.8,0.3-3.2,1.7-3.5,3.5l-0.5,4.4c0,0.1,0,0.1,0,0.2l-0.9,7.9C103.4-46.7,103.4-46.5,103.4-46.4 M6.9-63.5l3.2,15.1
							c0.3,1.1,1.4,1.9,2.6,1.8l0,0l53.7,0.1l0,0c1.3-0.1,2.4-0.9,3-2l6.8-13.1c0.4-0.7,0.5-1.5,0.2-2.3c-0.2-0.3-0.6-0.5-0.9-0.5
							l-65-3h-0.2c-1.1,0-2.1,0.5-2.8,1.3C7-65.3,6.7-64.4,6.9-63.5"/>
						<path id="Trazado_4096_00000059298275958772999810000004523452996065550261_" class="st17" d="M94.1-24L94-24.4
							c2.4-0.9,4.6-2.2,6.5-3.8c2.9-2.3,4.4-6.6,1.6-9.6c-2.8-2.5-6.4-4-10.2-4.3c-10.1-1.4-20.5,0.6-30.3,3l-0.1-0.5
							c6.9-4.3,14.7-6.9,22.8-7.5c7.8-0.5,18.9,0.9,22.6,9.1C109.8-29.8,101.6-24,94.1-24"/>
						<path id="Trazado_4097_00000121237468223047932610000007772744015296780936_" class="st19" d="M-11.8-79.4v-4.4L-41.8-118
							c-4.9-6-10.9-11-17.7-14.8c3-1.2,6.4-1.2,9.4,0.2c1.9,0.8,3.7,2.1,5,3.7l3.3,3.8L5.9-70.8c-3,1.9-4.4,5.5-3.5,8.9l-13.7-16
							C-11.6-78.3-11.8-78.9-11.8-79.4"/>
						<g id="Grupo_1234_00000094596518531846977370000011373166214483955882_" transform="translate(78.424 107.888)" class="st20">
							<g id="Grupo_1233_00000000925232058940182760000017624101028313687197_">
								<g>
									<defs>
										<rect id="SVGID_1_" x="-71.6" y="-175.3" width="146.5" height="21.1"/>
									</defs>
									<clipPath id="SVGID_00000176042502069448944210000000258851989600374173_">
										<use xlink:href="#SVGID_1_"  style="overflow:visible;"/>
									</clipPath>
									
										<g id="Grupo_1232_00000082343478401144928590000001641617500746899863_" style="clip-path:url(#SVGID_00000176042502069448944210000000258851989600374173_);">
										<path id="Trazado_4098_00000014628335652209339680000006013446728407306169_" class="st22" d="M25.9-162.6
											c0-0.1,0-0.1,0-0.2l0.5-4.4c0.3-1.8,1.7-3.2,3.5-3.5l45,2.1c-0.1,0.5-0.4,1-0.7,1.5l-8,11.1c-0.6,0.9-1.5,1.6-2.6,1.8l0,0
											l-38.5-0.1c-0.1,0-0.1,0-0.2,0c0-0.1,0-0.3,0-0.4L25.9-162.6z"/>
										<path id="Trazado_4099_00000021830314214816855560000007439212281279970967_" class="st22" d="M-67.9-175.3h0.2l65,3
											c0.4,0,0.7,0.2,0.9,0.5c0.3,0.7,0.2,1.6-0.2,2.3l-6.8,13.1c-0.6,1.1-1.7,1.9-3,2l0,0l-53.7-0.1l0,0
											c-1.2,0.1-2.3-0.7-2.6-1.8l-3.2-15.1c-0.2-0.9,0.1-1.9,0.7-2.6C-70.1-174.8-69-175.3-67.9-175.3"/>
									</g>
								</g>
							</g>
						</g>
					</g>
				</g>
			</g>
		</g>
	</g>
</g>
</svg>
