<?xml version="1.0" encoding="utf-8"?>
<!-- Generator: Adobe Illustrator 26.0.2, SVG Export Plug-In . SVG Version: 6.00 Build 0)  -->
<svg version="1.1" id="Capa_1" xmlns="http://www.w3.org/2000/svg" xmlns:xlink="http://www.w3.org/1999/xlink" x="0px" y="0px"
	 viewBox="0 0 600 600" style="enable-background:new 0 0 600 600;" xml:space="preserve">
<style type="text/css">
	.st0{fill:#FFDE17;}
	.st1{fill:#EE2424;}
	.st2{fill:#AD1414;}
	.st3{fill:#875D3A;}
	.st4{fill:#FFFFFF;}
	.st5{fill:#E8AE8E;}
	.st6{fill:#256BB7;}
	.st7{fill:#0DB5FF;}
	.st8{fill:#808080;}
	.st9{fill:#FBB040;}
	.st10{fill:#CE956B;}
	.st11{fill:#B27D66;}
	.st12{fill:#FFE6CA;}
	.st13{fill:#593418;}
	.st14{fill:#4D4D4D;}
	.st15{fill:#B3B3B3;}
	.st16{fill:#CC8527;}
	.st17{fill:#1E0A04;}
</style>
<g>
	<path class="st0" d="M545.6,268.7c0-113.5-91.5-159.4-244.5-159.4S24,59.2,24,268.7c0,113.5-9,205.5,277,205.5
		C454.1,474.2,545.6,438.4,545.6,268.7z"/>
	<g id="Grupo_1244" transform="translate(26.85 1509.071)">
		<g>
			<g id="Grupo_1243">
				<path id="Trazado_4291" class="st0" d="M547.4-1174.8c-1.1-260-396.7-260.2-397.8,0c0,109.8,89.1,198.9,198.9,198.9
					S547.4-1065,547.4-1174.8L547.4-1174.8"/>
				<path id="Trazado_4292" class="st1" d="M271.9-991.2c101.4,42.3,217.8-5.5,260.2-106.9c8-19.1,12.9-39.3,14.7-60h0
					c8.1-103.3-6.6-243.2-6.6-243.2c-30.5-21.2-81.1-22.5-98.3-23.4c-16.7-7.9-57.5-12-73.8-7.8c-7.1-3.8-22.8-3.7-30.3,0
					c-12.1-3.2-32.2-2.6-50.8-0.1c-55.4-17.1-108-7.1-120.1-4.7c-16.1-5.1-34.3,0-34.3,0c16.9,175.8,93.7,250.4,93.7,250.4
					c0.2,3.6,0.5,7.2,1.1,10.8c-5.5,17.5-21.1,90.9-23.7,137.6C222.8-1018.2,246.1-1002.1,271.9-991.2"/>
				<path id="Trazado_4293" class="st2" d="M258.9-1170.2c-12.4,32.4-19.1,123.4-21.4,160.4c8.1,5.4,16.5,10.3,25.2,14.5
					c0.6-95.6,13.8-159.6,13.8-159.6S271-1166.9,258.9-1170.2"/>
				<path id="Trazado_4294" class="st2" d="M441.7-1424.7c-23.4-9.4-49-12.1-73.8-7.8c-7.7-3.7-25-5.5-30.3,0
					c0,22,11.1,104.8,11.1,104.8l-42.8,195.9c0,0-8.6,101.5-6.1,149.7c17.5,4.4,35.5,6.4,53.6,5.9c0.5-21,2.5-97.2,3.6-109.7
					c2.8,27.7,6.8,89.7,8,109.1c19.6-1.6,38.9-6.1,57.2-13.4c33.5-13.4,62.7-35.6,84.6-64.3c-2-81-10-319.2-36.8-368.4L441.7-1424.7
					z"/>
				<path id="Trazado_4295" class="st2" d="M286.9-1432.5c0,0,8.1,55.2,19.2,100c-15.9,3-22.9,0-22.9,0s-31.1-62.2-36-108.2
					C260.6-1439.3,273.9-1436.6,286.9-1432.5"/>
				<path id="Trazado_4296" class="st2" d="M215.1-1255.9c0,0-44.9-48-49.3-153.2c8.8,45.7,28.8,88.6,58.2,124.8
					C254-1247.5,215.1-1255.9,215.1-1255.9"/>
				<path id="Trazado_4297" class="st3" d="M208.5-1325.7c12.9,10.8,27.8,19,43.8,24.2c5,1.6,9.8,3.1,14.8,4.4
					c0.9,0.2,1.8,0.4,2.7,0.6l1.5,0.3l0.1-1.6c0.1-6.3,0.8-12.7,2.1-18.9l0.1-0.2c1.2,0.9,2.5,1.7,3.8,2.5c-0.7-0.3-1.4-0.7-2-1.1
					l-1.7-0.9l-0.3,1.9c-0.7,6.4-0.9,12.8-0.7,19.1l0,0.8c-2.4-0.3-4.4-0.6-6.1-1c-8.6-1.7-16.9-4.3-24.9-7.8
					c-3.1-1.3-6.2-2.7-9.1-4.2l-1.4-0.7l-0.4,1.5c-3.2,11.5-5.3,23.2-6.1,35.1l-0.2,2.8c0,0.4,0,0.7,0,1.1l-0.3,6.3l2.7-5.2
					c3.5-6.6,8.9-12,15.4-15.6c3.6,4,6.7,8.5,9.1,13.4c-10.9,2.2-20.1,9.4-24.8,19.4l-2.7-7.3l1.2,10.6l0.1,0.5
					c1.5,7.3,7.6,13.8,14.6,21.2c2,2.1,4.4,4.6,6.7,7.3l8.2,10.8l-0.5,0.5c-0.1,0.1-8.1,9.4-6.3,20.4l0,0.1
					c1.7,6.9,6.5,16.4,27.8,27.7c5.3,3,10.4,6.4,15.3,9.9c2.3,1.7,6.6,2.5,12.5,2.5c8.8-0.2,17.6-1.3,26.2-3.3
					c17.8-3.7,31.2-9,33.4-10.8c5.2-4.5,10.1-9.3,14.7-14.6l0.3-0.3c0.1-0.1,0.3-0.3,0.4-0.5c0.2-0.3,0.5-0.6,0.7-0.9
					c0.5-0.6,1-1.3,1.4-1.9c0.9-1.3,1.6-2.6,2.3-4c0.7-1.4,1.2-2.8,1.6-4.3c0.4-1.5,0.7-2.9,0.9-4.5c0.3-3,0-6.1-0.8-9
					c-0.9-2.9-2.2-5.7-3.9-8.3c-0.8-1.3-1.8-2.5-2.7-3.7c-0.3-0.4-0.7-0.8-1-1.1c-0.2-0.2-0.4-0.4-0.5-0.6l0,0
					c-0.5-0.5-1-1.1-1.6-1.6c-2.1-2.1-4.7-3.7-7.6-4.6c-2.9-0.8-5.9-0.7-8.8,0.3c-2.9,1-5.7,2.3-8.2,4l-1,0.6
					c-2.3,1.5-4.8,3-7.3,4.3c-0.9,0.5-1.7,0.9-2.5,1.3c0.7-0.7,1.4-1.3,2.1-1.9c2.4-2.2,5-4.2,7.7-5.9c2.7-1.8,5.6-3.2,8.7-4.2
					c3.2-1.1,6.6-1.2,9.8-0.3c1.6,0.5,3.1,1.2,4.5,2l1.1,0.7c0.2,0.2,0.4,0.3,0.6,0.5l0.4,0.3c0.4,0.3,0.8,0.7,1.2,1
					c0.2,0.2,0.4,0.4,0.6,0.5c0.6,0.6,1.1,1.1,1.7,1.7c0.2,0.2,0.4,0.4,0.6,0.6c0.4,0.4,0.7,0.8,1,1.2c1,1.2,2,2.5,2.9,3.9
					c1.8,2.7,3.2,5.6,4.1,8.8c0.9,3.1,1.2,6.4,0.9,9.7c0,0.1,0,0.2,0,0.2l-0.6,5l5.3-7.1c6.7-9.3,12.6-19.2,17.4-29.6l0.4-0.8
					l-0.3-0.3c1.1,0.5,2.3,1,3.6,1.5l0.2,0.1c5,1.6,10.2,2.9,15.4,3.7c2.8,0.5,5.7,0.2,8.3-0.9l0.2-0.1c5.5-3.9,10.3-11.3,14.8-22.9
					c2.9-7.6,4.7-15.6,5.4-23.7c0.7-10.3-1.4-18-6.2-22.8l0,0c-8.8-8-21.2-3.9-27.8-0.8c-5.2,2.4-10.2,5-15.1,7.8
					c4.3-4,9-7.5,14-10.4c0.9-0.4,1.8-0.8,2.9-1.2l0.6-0.2l0.2-0.6c1.9-6.2,11.3-37.9,6.3-58.1c-2.6-10.7-13.8-18-20.2-21.5
					l-2.5-1.3c-2-5.7-4.7-11.1-8-16.1c-5-7.6-11.6-14-19.2-19c-5.6-3.8-11.8-6.8-18.4-8.6c-0.2-0.1-0.5-0.1-0.7-0.2l-3.5-0.9
					l1.9,2.9c3.4,5.2,6.4,10.6,8.9,16.3c1.5,3.4,2.7,6.9,3.7,10.5l-2.5-1.8c-12.6-8.9-26.9-15.1-42-18.3c-12.4-2.7-25.2-3.4-37.8-2
					l-3.9,0.5l3.4,1.9c6.8,3.8,12,9.9,14.9,17.1h0c0.1,0.3,0.3,0.8,0.6,1.7c-3.2-0.6-6.4-1.2-9.4-1.5c-18.2-2.1-37.8-2-61.9,0.5
					c-13.7,0.7-28.3-4.8-43.3-16.6c-1-0.8-1.8-1.5-2.7-2.2l-1.8-1.6l-0.3,2.4c-0.7,5.4-1.1,10.8-1.3,16.2
					C185.2-1360.4,192.6-1338.6,208.5-1325.7 M411.4-1258.1L411.4-1258.1c0.1-0.5,0.3-1,0.5-1.4l0.6-1.7l0.5-1.2
					c0.1-0.2,0.1-0.4,0.2-0.5c1-2.3,2.3-4.5,3.7-6.6c2.9-4.2,6.7-7.6,11.1-10.2c2.2-1.3,4.7-2.1,7.2-2.5c1.3-0.2,2.6-0.2,3.9,0
					c0.3,0,0.6,0.1,0.9,0.2l0.2,0c0.1,0,0.2,0,0.2,0.1l0.6,0.2c0.6,0.2,1.2,0.6,1.8,1c1,0.9,1.7,2.1,2,3.4c0.3,1.2,0.4,2.5,0.2,3.7
					c0,0.4-0.1,0.8-0.1,1.1c0-0.4,0-0.8-0.1-1.2c-0.1-1.2-0.3-2.4-0.8-3.5c-0.4-1.1-1.1-2-2-2.7l-0.1,0c-0.4-0.3-0.9-0.5-1.4-0.6
					l-0.3-0.1c-0.1,0-0.2,0-0.4-0.1l-0.1,0c-0.3,0-0.6-0.1-0.9-0.1c-1.1-0.1-2.3,0-3.4,0.2c-2.3,0.5-4.5,1.3-6.5,2.4
					c-4.2,2.4-7.7,5.6-10.5,9.6c-1.4,2-2.6,4.1-3.6,6.3l-0.6,1.5l-0.9,2.3l2.7-0.4c0.2,0,0.3,0,0.5-0.1h0.1c0.5-0.1,1-0.1,1.5-0.1
					c1,0,2.1,0.1,3.1,0.3c1.1,0.2,2.2,0.6,3.1,1.3c0.5,0.4,0.9,0.8,1.2,1.4c0.1,0.2,0.1,0.3,0.2,0.5c0,0.1,0,0.1,0.1,0.2l0,0.2
					c0,0.2,0.1,0.4,0.1,0.5c0,0.1,0,0.2,0,0.3l0,0.3c0,0.1,0,0.2,0,0.2l-0.2,0.7c0,0.1,0,0.1-0.1,0.2l-0.4,0.9
					c0,0.1-0.1,0.1-0.1,0.2l-0.1,0.1c-0.1,0.1-0.1,0.2-0.2,0.3c-0.1,0.1-0.2,0.3-0.3,0.4c-1.2,1.6-2.7,3-4.3,4.2
					c-0.9,0.7-1.8,1.4-3.1,2.1l-0.4,0.3c-0.4,0.2-0.8,0.5-1.1,0.7l-0.7,0.4c-0.3,0.1-0.6,0.3-0.7,0.6c0,0,0,0,0,0.1l-0.1,0.2
					c-0.1,0.2-0.1,0.4-0.1,0.6c0,0.5,0,1.1,0,1.8c0.1,1.2,0.3,2.4,0.5,3.5c0.5,2.3,1.5,4.5,3,6.4c0.3,0.3,0.5,0.6,0.9,0.8
					c-0.3-0.2-0.6-0.4-0.9-0.6c-1-0.8-1.8-1.8-2.4-2.8c-0.7-1.1-1.2-2.2-1.6-3.4c-0.4-1.2-0.7-2.4-0.9-3.7c-0.1-0.7-0.2-1.3-0.2-1.9
					l0-0.5c0-0.1,0-0.2,0-0.3l0-1.2l2.3-1.5l1.5-1c0.9-0.6,1.9-1.3,2.9-2.1c1.5-1.1,2.8-2.4,3.9-3.8c0.4-0.6,0.7-1.3,0.9-2l0.3-0.8
					l-0.1-0.1l0,0l-0.6-0.5c-0.1-0.2-0.3-0.3-0.5-0.4c-0.7-0.4-1.4-0.7-2.2-0.9c-0.9-0.2-1.8-0.3-2.7-0.2c-0.5,0-0.9,0-1.3,0.1
					c-0.2,0-0.3,0-0.5,0.1l-0.6,0.1c-0.1,0-0.2,0-0.2,0l-0.7,0.2l-0.3,0.1c-0.5,0.1-1,0.3-1.5,0.6l-0.9,0.4
					c-0.3,0.1-0.5,0.2-0.8,0.4l-1,0.6L411.4-1258.1z M423.9-1254.1C423.9-1254.2,423.9-1254.2,423.9-1254.1L423.9-1254.1
					C423.9-1254.2,423.9-1254.2,423.9-1254.1 M339.7-1177.5l2.9-1.2c3.7-1.7,7.1-4.1,10-7c4.5-4.4,8.7-9.2,12.5-14.2l1.1-1.5
					l-1.7-0.6l-0.1,0c-2.8-0.7-5.6-0.9-8.5-0.7c-0.8,0-1.7,0-2.6,0h-0.6c-0.6,0-1.2,0-1.8,0c2-0.7,4.1-1.2,6.2-1.4
					c2.8-0.3,7.7-0.5,9.7,2.4c0.8,1.3,1.2,2.8,1.2,4.3c-0.1-0.3-0.2-0.6-0.3-0.9l-0.8-2.2l-1.4,1.8c-3.6,4.8-7.6,9.4-12,13.6
					c-1.5,1.4-3.1,2.8-4.8,4l-0.2,0.1c-0.8,0.6-1.6,1.1-2.5,1.6l-0.3,0.2c-0.1,0.1-0.3,0.2-0.4,0.2l-1.5,0.7l-3.7,1.5
					c-0.6,0.2-1.3,0.4-1.9,0.6l-1.1,0.3c-0.2,0.1-0.4,0.1-0.6,0.2c-0.3,0.1-0.6,0.2-0.9,0.3l-1.6,0.4c-0.4,0.1-0.7,0.2-1.1,0.3
					c-0.7,0.2-1.3,0.3-2,0.5c-0.6,0.1-1.2,0.2-1.8,0.3c-1.5,0.3-3,0.6-4.5,0.8l-1.1,0.2c-0.7,0.1-1.4,0.2-2,0.3l-4.7,0.5l-4.7,0.4
					l-0.8,0c-1.8,0.1-3.7,0.2-5.5,0.3c-5.8,0.2-11.7,0.2-17.6,0l-2.4-0.1l2.2,3.7l-5-3.9l-0.8,0c-0.6,0-1.1-0.1-1.7-0.1l-0.5,0
					c-0.6,0-1.2-0.1-1.7-0.1l-2.4-0.2c-1-0.1-2.1-0.2-3.1-0.3l-1.2-0.1l-0.7-0.1l1.8-1.3c0.3-0.2,0.5-0.4,0.7-0.5l1.3-1.1l0.7-0.6
					l-0.6,0.8c-0.1,0.1-0.2,0.2-0.2,0.4l-0.5,0.4l0.4,0.9c0.2,0.5,0.8,0.9,1.4,0.8l0.4-0.1l0.1,0l4.3,0.2c8.3,0.5,16.7,0.6,25.1,0.3
					c1.8-0.1,3.6-0.2,5.3-0.3l5.7-0.4l4.7-0.5c0.7-0.1,1.3-0.2,2-0.3l1.1-0.2c1.5-0.2,3-0.5,4.4-0.8c0.6-0.1,1.2-0.2,1.8-0.3
					c0.7-0.1,1.3-0.3,2-0.5c0.3-0.1,0.7-0.2,1.1-0.3l1.5-0.4c0.3-0.1,0.7-0.2,1-0.3c0.2-0.1,0.3-0.1,0.5-0.2
					c0.4-0.1,0.7-0.2,1.1-0.3C338.5-1177.1,339.1-1177.3,339.7-1177.5 M285.9-1206.4c-3.6,0.5-6.9,2.1-9.5,4.7
					c-1.1,1.3-1.6,3-1.4,4.7c0.2,1.6,1,3.2,2.1,4.4c-0.6-0.4-1.1-1-1.6-1.5c-1.4-1.8-1.8-4.1-1.1-6.2c3-7.8,14.7-8.2,18.2-8.2
					c4,0.1,8,0.8,11.9,2C298.4-1207.6,292.1-1207.5,285.9-1206.4 M308-1197.6c0.5,0.1,1.1,0.3,1.5,0.6c-0.1,0.2-0.3,0.4-0.6,0.5
					c-0.4,0.2-0.8,0.2-1.2,0.1c-1.3-0.7-2.8-1-4.3-0.8C304.8-1197.8,306.5-1197.9,308-1197.6 M359.6-1235.7c0.4,1.2,0.2,2.5-0.6,3.4
					l-0.1,0.1c-1.7,2.2-4.2,2.6-7.7,1.4c-16.8-6.3-28.4-3.8-35.1-0.6c-2.2,1.1-4.3,2.4-6.3,4c2.4-4.3,6.2-7.7,10.8-9.5
					c5.4-2.3,14.6-3.4,22.7-3.4c3.4,0,6.9,0.2,10.3,0.7C356.2-1239.3,358.4-1237.9,359.6-1235.7 M292.7-1277.7l3.5,4.9l-3.3-17.5
					c28.2-2.2,54.7,8.9,58.5,10.6c1.3,3.9,1.9,8,1.7,12.1c-10.1-4.9-21.3-7.4-32.6-7.3c-9.7,0-19.2,1.6-28.4,4.8
					c-1.6-4.2-2.8-8.6-3.4-13C290.7-1280.6,292.7-1277.7,292.7-1277.7 M279.3-1215.6l-0.2,0.3l-0.1,0.3c-0.1,0.7-0.4,1.3-0.8,1.8
					c-1.2,1.5-3,2.4-4.9,2.3c-6.1,0.3-10.9-4.5-14.4-14.3c-2.2-6.3-2.6-10.6-1-13c1.2-1.5,3-2.4,4.9-2.3c1.6-0.1,3.1,0.2,4.5,0.8
					l4.6,2l-3.1-4c-0.8-1.1-1.8-2.1-2.8-3.1c-6.1-5.9-14-8.4-18.6-6c-2,1-5,3.9-3.7,11.4c1.5,10.9,6.3,21.1,13.8,29.3
					c-1.8-1.1-3.5-2.4-4.9-3.9c-0.4-0.4-0.8-0.7-1.1-1l-2.3-1.9l0.7-0.5c-3.4-5.7-6.1-11.8-8.3-18.1c-0.6-2-1.1-3.9-1.4-6
					c-1-5.8,0.1-10.1,3.2-12.5c3.6-2.8,9.4-2.8,15.7,0.1c11.8,5.3,18.2,22.1,20.4,29.1C281.5-1218.2,279.5-1215.8,279.3-1215.6"/>
				<path id="Trazado_4298" class="st4" d="M262.3-1207.1c0,0,12.9,0.2,16.9-5c4-5.2-5.9-42-30-39.2
					C224.9-1248.6,257.6-1208.3,262.3-1207.1"/>
				<path id="Trazado_4299" class="st5" d="M435.6-1216.4c-8.7,2.5-26-5.4-30.7-9.8c-9.5-14.9-5.6-31.9-5.6-31.9
					c-2.3,2.3-4.3,5-5.8,7.9c1.2-16.4,6.9-23.5,6.9-23.5l13.1-10.4c9.7-10.2,39.3-15.1,44.9,8S444.3-1218.9,435.6-1216.4"/>
				<path id="Trazado_4300" class="st5" d="M251.8-1207.2c-4.1-5.6-8.5-10.8-13.4-15.7c-1-1-1.9-2.1-2.9-3.1l-8-9.6
					c-2.1-2.9-3.5-6.1-4.3-9.6l0-0.1c-0.4-3.1-0.6-6.3-0.8-9.6l0-1l-1-0.2c-2.4-0.7-4.9-0.5-7.1,0.6c-2.7,1.7-3.9,5.4-3.7,11.2
					c0.6,15.9,17.6,39.1,28.8,47c1.7,1.4,3.7,2.2,5.8,2.6c0.2,0,0.4,0,0.6-0.1l0.6-0.2l0.2-0.6c0,0,0.9-2.8,1.6-4.1l2.2-4
					c0.4-0.7,0.9-1.3,1.3-1.9l0.6-0.8L251.8-1207.2z"/>
				<path id="Trazado_4301" class="st6" d="M277.2-1226.1c-3.5-10-8.2-14.6-14.4-14.3l0,0c-1.9-0.1-3.7,0.8-4.9,2.3
					c-1.6,2.4-1.3,6.6,1,13c3.4,9.5,8,14.3,13.8,14.3c0.2,0,0.4,0,0.6,0c1.9,0.1,3.8-0.8,4.9-2.3
					C279.8-1215.5,279.5-1219.6,277.2-1226.1 M267.4-1225.9c-1.1-3.1-0.8-4.2-0.6-4.6c0.1-0.1,0.3-0.4,1.2-0.4c0.1,0,0.2,0,0.3,0
					c1,0,3,0.4,4.8,5.5c1.1,3.1,0.9,4.2,0.6,4.6c-0.3,0.3-0.7,0.5-1.2,0.4C270.4-1220.2,268.7-1222.1,267.4-1225.9"/>
				<path id="Trazado_4302" class="st7" d="M265.3-1216c0,0-2.8-3.5,0-5.1c2.8-1.6,4,1.8,6.4,1.8s3.5-4.1,3.5-4.1s1.1-1.6,2.1,1.5
					s3.4,9.1-2.6,10.5C268.7-1210,265.3-1216,265.3-1216"/>
				<path id="Trazado_4303" class="st5" d="M282.5-1153.5c0,0,5.4,10.6,29.1,9c23.7-1.6,50.5-11.9,57.6-17.4
					c7.1-5.4,22-24.1,17.2-37.5c-4.8-13.4-17.5-24.1-30.1-18.3c-8,3.7-15.5,8.2-22.5,13.5c0,0-7.9,3.6-20.6,0
					c-12.8-3.6-30.7-6.8-36.7,2.4c-7,0.7-14-0.9-20-4.5c-9.3,9.3-12.7,20.3-5.7,29.8C257.7-1166.9,282.5-1153.5,282.5-1153.5"/>
				<path id="Trazado_4304" class="st3" d="M237.6-1104l0.1-0.2l0.2-0.1c12-5.6,23.2-12.8,33.2-21.4l1.1-1l-1.2-1
					c-5.3-4.4-9.5-9.9-12.5-16.1c-1.1-2.4-2.1-5-2.8-7.5l-0.5-1.7l-1.5,0.9c-5.1,3.2-18.6,12-33.9,23.5l-0.3,0.2l-0.4,0l-6.9-0.3
					c-29.1-1.1-54.2-2.1-77.3,1.6l-0.3,0l-0.2,0.1c-0.9,0.6-2.7,1.8-4.7,3.3l-1.3,0.9l9.1,8.5l-0.8,0.3c-0.1,0-6.1,2.1-11.1,3.8
					l-1.8,0.6l1.3,1.5c3.2,3.4,6.6,6.6,10.2,9.6l0.6,0.5l-0.7,0.4c-0.1,0-1.6,0.9-5.3,2.4l-3,1.2l3,1.2c1.9,0.8,4.5,1.7,6.9,2.4
					l1,0.3l-0.8,0.6c-0.2,0.2-5.3,4-10,7l-2.4,1.5l2.7,0.8c4.1,1.2,9.5,2.7,9.5,2.7l0.7,0.2l-5,7l2.2,0.3c6.9,0.8,13.7,1.3,20.6,1.3
					c10.4,0.1,20.8-1.1,30.9-3.5C206.6-1076.6,224.6-1087.9,237.6-1104"/>
				<path id="Trazado_4305" class="st3" d="M476.5-1161.8c-0.8,0.1-1.6,0.1-2.3,0.2l-3.2,0.2l2.4,2.1c1.4,1.2,2.7,2.6,3.8,4.1
					l0.1,0.2l0,0.2c0.2,1.7,0.4,6.5,0.5,6.5l0,0.5l0.3,0.3c6,7.2,10.2,15.7,12.3,24.8l0.5,2.4l1.7-1.8c9.3-9.6,27.6-34.2,30.4-58.3
					c0.4-3.6-1.1-7.2-4-9.4c-6.4-4.9-25-16.7-57.6-20.7l-2.1-0.3l0.7,2c0.2,0.5,0.4,1.1,0.5,1.6c0.7,2.3,1.2,4.6,1.5,7
					c0.3,2.3,0.5,4.7,0.5,7.1c0,4.7-0.5,9.4-1.5,14.1c-0.5,2.3-1.1,4.6-1.9,6.8c-0.6,1.8-1.3,3.6-2.1,5.4l-0.6,1.3l1.4,0.5
					C463.9-1163,470.2-1161.9,476.5-1161.8"/>
				<path id="Trazado_4306" class="st5" d="M61.5-1082.4l-0.4-1.4c-1.3-5.1-2.2-10.4-2.6-15.7l-0.1-1l-0.9-0.2l-0.9-0.2l-0.2,0
					c-1.2-0.1-12.1-0.9-23-0.7c-20.6,0.3-23.8,3.5-24.2,4.8c-1.8,5.6-1.4,11.1,1,14.2c1.6,2,4.1,3.1,6.7,3c0.2,0,0.4,0,0.5,0
					c2-0.1,4.5-0.2,7.3-0.3c11.8-0.2,23.5-0.9,35.2-2.3L61.5-1082.4z"/>
				<path id="Trazado_4307" class="st5" d="M134.2-1076.9c-3.1-0.9-8.6-2.4-10.8-3.2l-1.1-0.4l1-0.6c3.1-1.8,7.4-4.7,10.4-6.9
					l2.1-1.5l-2.4-0.8c-6.1-2.1-7.2-3.1-7.4-3.4l-0.4-0.6l0.7-0.3c2.4-0.9,4.6-1.8,6.4-2.6l1.9-0.8l-1.5-1.3
					c-5.6-4.9-9.2-8.7-9.7-10.3l-0.2-0.5l0.5-0.2c3.4-1.1,8-2.7,10.4-3.5l2.1-0.7l-8.8-8.1l0.5-0.4c0.4-0.3,1.5-1.2,2.8-2.1l1-0.7
					l-0.7-1c-0.1-0.2-0.3-0.4-0.4-0.6c-0.5-0.7-0.9-1.3-1.4-2c-1-1.4-2.1-2.6-3.1-3.7c-2.1-2.4-4.6-4.4-7.4-6
					c-0.7-0.3-1.4-0.6-2.1-0.9c-0.1,0-0.3-0.1-0.4-0.1l-0.2,0l-0.1,0c-0.1,0-0.3-0.1-0.5-0.1l-1.2-0.3c-1.5-0.4-3-0.8-4.8-1.3
					c-3.2-0.9-6.4-1.8-9.5-2.8c-3.8-1.2-6.7-2.1-9.4-3.1c-1.7-0.6-3.2-1.2-4.7-1.9c-0.3-0.2-0.7-0.4-1.1-0.6l-0.1-0.1
					c-0.4-0.2-0.7-0.4-1-0.7c-0.6-0.5-1.1-1.1-1.6-1.7l-0.2-0.3c-1.1-1.3-2-2.7-2.9-4.1c-0.9-1.4-1.8-2.7-2.7-4.1
					c-1.6-2.5-3.4-5.4-5.1-8.6c-0.4-0.8-0.8-1.5-1.1-2.1l0.2-0.1l-0.6-0.8l-0.6-1.3l-0.8,0.5c-0.4-0.1-0.8-0.1-1.2,0
					c-0.7,0.1-1.5,0.3-2.1,0.6c-1.4,0.6-2.7,1.4-3.9,2.5c-1.2,1-2.1,2.2-2.9,3.6c-0.8,1.4-1.3,2.8-1.6,4.4l0,0.2
					c-0.1,0.3-0.1,0.6-0.1,0.9l-0.1,0.5l0,0.8c0,0.1,0,0.3,0,0.4l0.1,1.8c0.3,3.2,1,6.3,2.2,9.3c1.2,3,2.7,5.9,4.5,8.6
					c1.8,2.7,3.9,5.2,6.2,7.3l0.9,0.8l0.1,0c0.2,0.2,0.4,0.3,0.6,0.5l0.3,0.3l0.3,0.2c0.2,0.2,0.4,0.3,0.7,0.5l1,0.6l0.2,0.2
					c0.3,0.2,0.5,0.3,0.8,0.5l1.9,1l0.1,1.9l0,0.6c0.3,3.2,1,6.4,2.1,9.4c2.3,6.3,5.6,12.2,10,17.3c1.3,1.5,2.6,2.8,4.1,4.1
					c-1.6-1.1-3.2-2.3-4.6-3.6c-2.5-2.4-4.7-5-6.6-7.9c-1.9-2.9-3.4-6-4.6-9.3c-0.9-2.5-1.5-5-1.9-7.6l-0.2-1.2l-1.2,0
					c-4.2,0.2-8.3,0.2-12.5-0.1c-2.4-0.8-4.8-1.8-7.1-3c-5.3-2.4-12.5-5.6-19.1-8c-7.3-2.7-12.2-3.6-13.8-2.7l-0.2,0.1
					c-3.5,3-7.5,10.5-7.3,15.5c-0.1,1.7,0.7,3.2,2,4.3c4.1,3,26.9,11.5,41.9,15.3l1.6,0.4l0-1.7c0-1.5,0.1-3,0.4-4.5
					c0.2-0.9,0.3-1.9,0.6-2.7c0-0.1,0.1-0.2,0.1-0.3l0,0.2l0,0.1c0.1,0.9,0.3,1.8,0.3,2.7c0,0.5,0.1,1,0.1,1.5
					c0.1,1.4,0.2,2.6,0.2,3.9c0.2,6.7,1.1,13.3,2.9,19.7c0.8,2.8,1.4,5.7,1.9,8.3c-0.9-1.3-1.6-2.6-2.2-4.1l-0.5-1.2l-1.2,0.5
					c-12,5.1-30.8,13.9-33.4,17.1l-0.2,0.3l0,0.4c0.2,3.9,1.8,7.7,4.4,10.5c1.6,1.9,3.9,3.1,6.4,3.1c0.3,0,0.5,0,0.8,0
					c8.3-0.9,38.3-13.7,38.6-13.8l0.3-0.1l0.3,0c0.3,0,34.6,4.1,52.6-6.6l0.2-0.1l5.1-7.3L134.2-1076.9z"/>
				<path id="Trazado_4308" class="st8" d="M260.6-1144.4c5.5,11.7,15.2,19.9,28.8,24.6l0.6,0.2l0.5-0.4
					c9.4-6.5,18.2-13.6,26.4-21.5l0.7-0.7l-0.9-1.7l-0.9,0.1c-2.7,0.3-5.1,0.6-7.3,0.7l-3.5,0.1l-5-0.1c-3.5,0-7-1-10.1-2.8
					c-3.6-2.6-7.2-5.1-11.1-7.4l-3.7-2.6l-0.1-0.1c-4-2.1-7.9-4.5-11.7-7l-1.5-1.1l-5.8,3.2l0.1,0.8
					C256.8-1154.6,258.3-1149.3,260.6-1144.4"/>
				<path id="Trazado_4309" class="st8" d="M357-1087.2l0.2,0.2l0.3,0.1c13.8,4.8,28.2,7.3,42.8,7.3c8.4,0,16.7-0.8,24.9-2.5
					c19.5-4.1,34.9-13.1,40.3-23.4c8-14.8,11.5-31.6,9.9-48.4l0-0.3l-0.2-0.3c-2.2-2.6-4.8-4.9-7.7-6.8l-0.1-0.1l-0.2-0.1
					c-0.5-0.1-1-0.2-1.6-0.2c-3.1-0.2-6.3-0.6-9.3-1.3l-0.9-0.2l-0.5,0.8c-0.6,1-1.3,2-2,2.9c-1.4,1.9-3.2,3.7-5.1,5.1l-1,0.7h-0.1
					c-0.1,0-0.2,0-0.3,0l-4.3,0l-1.8-0.1c-2.4-0.1-4.8-0.4-7-0.7c-4.7-0.7-9.2-1.9-13.7-3.5c-4.6-1.7-8.9-3.9-12.9-6.6
					c-1.1-0.8-2.2-1.6-3.3-2.4c1.2,0.6,2.5,1.2,3.7,1.8c4.3,2.1,8.7,3.9,13.2,5.6c4.3,1.6,8.8,2.7,13.4,3.4c2.3,0.3,4.6,0.6,6.8,0.7
					l1.7,0.1l3.6,0h0.5l0.3-0.3l0.1,0c1.8-1.3,3.4-2.9,4.7-4.7c1.4-1.8,2.6-3.7,3.6-5.8c1-2,1.9-4.2,2.6-6.3
					c0.7-2.2,1.3-4.4,1.8-6.6c1-4.5,1.5-9.1,1.4-13.7c0-2.3-0.2-4.6-0.5-6.8c-0.3-2.3-0.8-4.5-1.5-6.7c-0.7-2.2-1.6-4.2-2.8-6.2
					l-0.5-0.7l-1.7-0.2c-1.3-0.2-2.4-0.3-3.4-0.4c-3.9-0.4-8-0.7-12.7-0.9l-0.3,0l-0.3,0.1c-2.9,0.9-5.9,1.2-8.9,0.7
					c-1.7-0.4-3.4-0.9-5-1.3l-0.2-0.1H423c-5.8,0-11.3,0.3-13.4,0.5l-0.7,0.1l-0.3,0.7c-1.3,2.4-2.6,4.9-3.9,7.2l-3,4.9
					c-3.8,6.2-8,12.1-12.5,17.9l-3,3.9c-1.8,2.2-3.7,4.5-5.6,6.7l-0.1,0.1c-0.1,0.2-0.3,0.3-0.4,0.5c-0.2,0.2-0.4,0.5-0.6,0.7l0,0
					c-6.6,7.5-24.2,19.7-35.3,22.9l-10.8,2.7c-1,0.2-1.9,0.4-2.9,0.6c-3.2,0.7-6.4,1.3-9.5,1.7l-1.8,0.3l0.9,1.6
					C325-1133,343-1100.5,357-1087.2"/>
				<path id="Trazado_4310" class="st3" d="M488.3-1096.5c3.2-13.9,5-34.8-10.1-50.9c-3.7,29.5-8.2,42.1-20.7,52
					c-12.5,9.9-40.7,23-88.2,14.1c8.9,10.1,13.8,9,14.7,12.8c0.9,3.8,2.9,50.7-13.3,90c0,0,3.2,0.2,8.7,0.2
					c14.7-2.3,29.1-6.2,42.8-11.7c25.8-10.3,49.1-25.9,68.5-45.7C494.3-1073.7,485.5-1084.6,488.3-1096.5"/>
				<path id="Trazado_4311" class="st9" d="M276.8-1069.7c1.6-14.4,2.4-22.4,2.5-23.3c0.2-12.3,0.3-23.4,0.3-27.5
					c-0.4-0.2-0.8-0.4-1.2-0.7c-1,9.6-3.5,35.7-5.2,51C274.3-1070.4,275.6-1070.2,276.8-1069.7"/>
				<path id="Trazado_4312" class="st9" d="M274.8-1042.9c0.3-4.3,1.6-8.5,3.8-12.3c0-1.4,0.1-3,0.1-4.7c-0.5-2.1-1.7-4-3.4-5.4
					l-0.2-0.1c-0.6-0.3-1.3-0.4-1.9-0.1c-1,0.4-3.6,2.4-5.5,11.1c-2.9,13.4-4.4,21.6-5,24.6c2.9,2.2,6.4,3.5,10.1,3.8
					C273.3-1030.1,273.9-1035.8,274.8-1042.9"/>
				<path id="Trazado_4313" class="st9" d="M287.1-1058.5c0.4-16.1,0.7-48,0.8-58.4c-1.3-0.5-2.5-0.9-3.7-1.4
					c-0.1,11.1-0.5,43.2-0.8,59.7C284.6-1058.9,285.9-1058.9,287.1-1058.5"/>
				<path id="Trazado_4314" class="st9" d="M293.9-1016c0.1-21.4-2.8-35.5-7.9-37.8l-0.2-0.1c-0.6-0.3-1.3-0.3-1.9,0.1
					c-1,0.5-3.4,2.7-4.5,11.6c-1.7,13.7-2.5,21.9-2.8,24.9C281.8-1014.1,288.3-1013.6,293.9-1016"/>
				<path id="Trazado_4315" class="st9" d="M249.2-1175.1c-1.7-2.4-2.9-5.1-3.8-7.9c-0.3,0-0.6,0-1,0c-2.1,0.1-5.7,0-10.7-0.1
					c-3.8-0.1-6.4,0.9-7.2,2.6c-0.5,1.5-0.2,3.1,0.8,4.3C228.8-1175,237.6-1174.4,249.2-1175.1"/>
				<path id="Trazado_4316" class="st10" d="M188.4-1411.3c0,0,4.4,72.6,52.5,96.1c-10.9-11.2-17.8-25.7-19.7-41.3
					c14.6,1.7,28.5,7.2,40.2,15.9c-4-7.5-9.4-14.1-16-19.4c0,0,21.7,9,25.8,27.2c-10.4-3.3-21-6-31.8-8.1c0,0,6.8,13.3,31.2,34.2
					l1.8,11.5c0,0-48.1-7.1-73.9-40.6S188.4-1411.3,188.4-1411.3"/>
				<path id="Trazado_4317" class="st10" d="M235.8-1306.2c0,0-4.8,39.8-1.8,59.5c1,6.1,5.7,13.5,11.7,21l6.2,11.5l-2.8-0.1
					c0,0-22.2-14.7-24.3-31.4c-2.2-16.7-0.5-40.9,6.1-62.5C232.5-1307.4,235.8-1306.2,235.8-1306.2"/>
				<path id="Trazado_4318" class="st11" d="M435.6-1216.4c-12.4,2.3-30.7-9.8-30.7-9.8c-2.8-3.5-4.6-7.8-5.2-12.2
					c0,0,5.3,4.7,12.4-3.4c6.7-6.4,15.6-10.2,13-14.1c-2.6-4-12.1-2.3-12.1-2.3s4.1-16.2,15.7-19.9c11.6-3.7,17.5-3.9,16,4.4
					l-1.5,8.3c0,0,7.2,5.2,13.9,1C456.9-1251.1,448-1218.7,435.6-1216.4"/>
				<path id="Trazado_4319" class="st12" d="M394.5-1260.9c0,0,28.9-28.3,45.3-26c16.4,2.3,16.8,12.7,16.8,12.7s-1.5-19.1-16.7-18.4
					c-15.2,0.7-39.5,18.8-39.5,18.8C397.8-1269.8,395.8-1265.5,394.5-1260.9"/>
				<path id="Trazado_4320" class="st10" d="M256.5-1206.1l2.4-2.5l-11.2-8.4L256.5-1206.1z"/>
				<path id="Trazado_4321" class="st12" d="M283.4-1151.7c4.5,1.6,10.4,6.2,13.9,5.4c-5.9-1.4-7-6.7-16.9-13.3
					c-10-6.6-18.4-15.5-24.5-25.8c-5.8-10.1,0.6-20.8,0.6-20.8c-21.7,11.1-2.9,34-2.1,34.8S279-1153.3,283.4-1151.7"/>
				<path id="Trazado_4322" class="st13" d="M351.8-1217.4c0,0,8.5-9.3-7.8-14.2c6.7-4.9,5-9.7,5-9.7s-7.3-40.5-57.5-27.1
					c27.9-21.9,62.8,2.9,62.8,2.9s9.1,9.5,10.8,20.7c7.1-19.9,0-47.8,0-47.8s9.5,8.3,12.3,15.2c0,0,19.9-44.4-13.8-67.6
					c-24-16.5-44.5-10.8-57.2-3.5c0,0-12.9-22.4-66.2-21.1c-28.3,0.7-43.6-19.8-51.8-39.2c0,0,29,17.6,48.4,17s49.5-3.6,68.3,1.6
					l3.5,2c7.7,2.8,14.9,7,21.2,12.4c-11.4-18.4-22-28-38-34c6.2-3.2,33.9-3.7,52.8,5c11.2,5.2,21.8,11.5,31.6,19l-15.3-32
					c0,0,42.6,19.9,53.3,80.6c0.1-11.8-1.6-27.5-1.6-27.5s21.2,12.7,6.8,75.5l-18.8,15c0,0-6.1,7.5-7.1,23.8c1.4-3,3.4-5.6,5.8-7.9
					c-2.4,12.8,0.9,26.1,9,36.3c0.2,10.3-23.3,38.9-23.3,38.9s6.9-11.2-3.4-25C371.3-1221.8,361.6-1222.8,351.8-1217.4"/>
				<path id="Trazado_4323" class="st13" d="M275.8-1237.2c0,0-10.2-21.4-22.4-30.5c-8.9-0.5-17.2,4.1-21.6,11.8
					c6.7-3.2,14.6-3.5,21.5-0.6C256.9-1254.6,275.8-1237.2,275.8-1237.2"/>
				<path id="Trazado_4324" class="st10" d="M306.5-1222.1c0,0-14.7-27.3,1.2-38c-4.5,9.5-2.1,20.7,4,28.4
					C310.4-1228.3,308.6-1225,306.5-1222.1"/>
				<path id="Trazado_4325" class="st10" d="M324.8-1228.7c-12.4,1.7-16.7,8.4-14.6,10.7c2.1,2.3,5.5-2.1,7.1-4.3
					C319.2-1225.1,321.8-1227.2,324.8-1228.7"/>
				<path id="Trazado_4326" class="st11" d="M367.9-1197.4c0,0,1.7,11.3-9.9,23.6c1.2-3.3,2.2-6.7,3-10.2c0,0-7.8,12.5-48.7,13.9
					c14.2-3.6,30.2-3.8,40.9-14.9S367.2-1201.3,367.9-1197.4"/>
				<path id="Trazado_4327" class="st11" d="M308.9-1192.5c-5.6,4.2-15,8.9-28.3,0.7c0,0-2-1.6-1.1-2.7c0.9-1,3.1,2.9,9.9,1.7
					s11.2-6.7,15.3-6.4C308.7-1198.9,314.5-1196.7,308.9-1192.5"/>
				<path id="Trazado_4328" class="st12" d="M285.2-1202.1c-10.8,2.1-6.1,9.9-6.1,9.9c-11.9-14.6,18.7-15.2,25.6-14.2
					c6.9,1,10,4.5,8.9,8.5C313.8-1204.5,296-1204.2,285.2-1202.1"/>
				<path id="Trazado_4329" class="st12" d="M288.9-1196.4c-4.7,0.4-8.7-1-8.9-3.3s3.4-4.4,8.2-4.8c4.7-0.4,8.7,1,8.9,3.3
					S293.6-1196.8,288.9-1196.4"/>
				<path id="Trazado_4330" class="st12" d="M283.2-1185.8c-2.6,4.3-5.5,8.3-8.8,12.1c8.6,1.7,36.4,3.3,58.7-2.5
					c-17,1.1-34.1,0.9-51-0.7C282.7-1179.8,283.1-1182.8,283.2-1185.8"/>
				<path id="Trazado_4331" class="st11" d="M224-1242.4c0,0-6.9,2.7,0,13.7c-0.6,2.4-2.4,3.5-5.7,3.8c2.7,9.4,20.6,30.3,27.3,31.7
					c2.3-4.8,5.4-9.1,9.1-12.9C254.8-1206.1,226.3-1237.6,224-1242.4"/>
				<path id="Trazado_4332" class="st12" d="M212-1244.4c0,0,1.8-9.2,10.9-4c0.4-2.7,0.4-5.4,0-8.1
					C222.9-1256.5,208-1258.9,212-1244.4"/>
				<path id="Trazado_4333" class="st11" d="M68.1-1172.1c0,0,8.3,23.9,13,27.8c4.8,4,31.6,12.9,36.5,19.4c3.1,4.6,5,9.9,5.4,15.4
					l14-4.2l-9.3-8.7l5.8-3.5c0,0-12.1-14.3-17.2-15.8c-5.1-1.6-30-7.3-32.9-9.7C80.6-1153.8,71.7-1171.3,68.1-1172.1"/>
				<path id="Trazado_4334" class="st11" d="M31.8-1136.2c0,0,23.4,14.5,23.4,18.7c0,4.2,0.4,11.9-8.1,10.5c5.6,3,1.7,6.7,1.7,6.7
					s11.8,8.7,3,17.8c1.5,1.4,2.7,3.1,3.4,5.1c0,0,11.5,3.9,11.2,18.3c4.4-0.8,8.6-2.1,12.8-3.8c0,0-13.7-15.6-6.8-32.6
					c6.1,7.3,20,8.1,32,6.2c-17.9-2.8-28.6-23.4-28.7-36.4c-13.6,1.3-17.2-0.6-19.3-1.4C54.3-1127.8,31.8-1136.2,31.8-1136.2"/>
				<path id="Trazado_4335" class="st12" d="M59.8-1169.7c2.9-3.2,9-4.4,6.8,5.6s-1.5,24.4,14.3,33.3c0.5,6,4.1,29.9,15.9,38.2
					c-8.9-3-18.4-14.9-22.5-35.5C56.6-1141.5,51.2-1160.3,59.8-1169.7"/>
				<path id="Trazado_4336" class="st12" d="M30.3-1135.4c-6.1-1.6-14.9,15.1-9.1,18.9s-4.2,1.2-6,0s-6.1-7.6-1-15.2
					C19.2-1139.2,22.1-1140.7,30.3-1135.4"/>
				<path id="Trazado_4337" class="st12" d="M18.9-1099.3c-3.3,1.6-5.2,5.1-4.8,8.7c0.4,6.6,3.1,9.7,5.7,9.6
					c0.5,3.4-11.4,3.5-11.7-8S15.3-1102.5,18.9-1099.3"/>
				<path id="Trazado_4338" class="st12" d="M36.1-1068.3c-5.7,3.3-0.2,18.9,9.6,16.9c-3.7,3.6-13.9,4.8-17.8-3.4
					S30.8-1067.1,36.1-1068.3"/>
				<path id="Trazado_4339" class="st13" d="M273.5-1126.5l-8.1-6.8c0,0-22.6,16.5-39.2,20.6c-12.9,13.2-45.1,17.2-45.1,17.2
					c4.9,1.6,10,2.6,15.1,2.9c-8.3,2.1-28.1,1.3-36,0c3.4,2.2,6.9,4.2,10.7,5.7c-11.3,0.9-22.6,0.6-33.8-0.6
					c-4.3,1.9-8.3,4.2-12.2,6.8l11.6,3.9l-0.5,2.3c0,0,59.2,8.8,100.6-30.2C252.8-1110.3,273.5-1126.5,273.5-1126.5"/>
				<path id="Trazado_4340" class="st13" d="M494.9-1185.9c-1.8-4.2-8.4-8.9-8.4-8.9c5.5,1.5,10.9,3.4,16.1,5.7
					c17.3,8.1,3.3,16.9-5,22.1c-7.9,4.6-26.6,5.6-26.6,5.6c4,4.6,6.4,10.3,6.9,16.4c5,6.4,6.2,9.1,13.1,24.8
					c6.5-3.5,38.8-46.6,32.1-65c-6.7-18.4-63.7-27.2-63.7-27.2l3.1,15.8C462.5-1196.5,482.6-1193.1,494.9-1185.9"/>
				<path id="Trazado_4341" class="st13" d="M434.2-1068.4l1.8-3c0,0,44.5,1.5,48.1-63.2c-1.7-4.2-4.3-8-7.8-10.9
					c0,0-2.4,37.2-16.9,48.5c-14.5,11.3-44,23-89.4,15.9c3.4,4,11.8,7.1,11.8,7.1s6.8,9.9,44.1,12.7c0,0-3.2,24.6-12.7,42.6
					c3.2-2,6.1-4.4,8.6-7.2c0,0-5.2,19.1-14.3,29.6c3.5-1.1,6.7-2.7,9.7-4.8c0,0-3.9,9.1-7.4,15.6c4.2-1.4,8.4-2.9,12.5-4.5
					c2-0.8,4-1.6,6-2.5c0-0.2,0.1-0.4,0.1-0.6C430.6-1006,438.1-1048.6,434.2-1068.4"/>
				<path id="Trazado_4342" class="st13" d="M482.5-1081.6c1-15.7,10.3-19,7.9-35.4c-2.4-16.4-4.7-18.4-8.5-16.3s-9.2,40-9.2,40
					s2.6,26.1-4,50.2c2.8-2.9,5.2-6.3,7.1-9.9c0,0-1.6,17.8-5,34.8c3.7-2.9,7.3-5.9,10.8-9.1
					C482.9-1045.2,483.2-1063.4,482.5-1081.6"/>
				<path id="Trazado_4343" class="st10" d="M179.9-1116c13.7-2.1,27.6-3.4,41.5-3.7c12.2-9.8,36.5-25.9,36.5-25.9l-3.1-8.4
					l-35.2,24.7c0,0-57.4-6.1-86.1,3.3l-5.8,3.5l9.3,8.7l-14,4.2l2.3,1.7c20.7-4.4,42.1-5.5,63.2-3.3
					C185.8-1113.1,182.9-1114.7,179.9-1116"/>
				<path id="Trazado_4344" class="st10" d="M460.1-1174.8c0,0,12.6,8.8,35.7,8.5c-12.7,6.1-28.9,4.7-40.9-0.1
					C457.1-1168.9,458.8-1171.7,460.1-1174.8"/>
				<path id="Trazado_4345" class="st10" d="M390.7-1014.4c0,0,2-45.4-6.7-57.2c3.2,11.8-2,64-12.8,94.3c2.9-0.2,5.8-0.8,8.1-1.1
					c2.3-0.3,4.6-0.7,6.8-1.2c1.5-4,6.4-18,9.3-42.2C391.2-1014.4,390.7-1014.4,390.7-1014.4"/>
				<path id="Trazado_4346" class="st10" d="M440.4-1018.1c1.5-25-4.4-53.3-4.4-53.3c2,14.7-4.8,59.5-8,78.9
					c5.4-2.4,10.6-4.9,15.7-7.7c1.6-11.3,2.5-22.6,2.7-34C446.4-1034.2,444.2-1023.5,440.4-1018.1"/>
				<path id="Trazado_4347" class="st14" d="M395.3-1192.7c0,0,16.8-14.7,67.2-3.8c-4.5-19-6.4-19-6.4-19l-47.8-1.4L395.3-1192.7z"
					/>
				<path id="Trazado_4348" class="st14" d="M289.4-1118.3l27.8-22.5l1.8-3.4l-25.1-0.8l-23,14.6
					C275.7-1123.3,289.4-1118.3,289.4-1118.3"/>
				<path id="Trazado_4349" class="st15" d="M454.9-1166.4c0,0-15.5,4-60.2-6.6c15.1,10.9,33.1,17.2,51.7,18.1
					C450.2-1157.9,453.2-1161.8,454.9-1166.4"/>
				<path id="Trazado_4350" class="st15" d="M425.6-1083.5c-29.8,0.3-45-6-59.8-11.3c-23.2-14.8-44.8-48.4-44.8-48.4
					s15.7,35.6,35.9,57.5C382.1-1077.5,414.8-1077.7,425.6-1083.5"/>
				<path id="Trazado_4351" class="st14" d="M406.4-1165.4c-1.2-0.8-2.3-1.5-3.5-2.2C404.1-1166.8,405.2-1166,406.4-1165.4"/>
				<path id="Trazado_4352" class="st14" d="M397.4-1079.6c33.7-0.6,49.8-4.9,62-17.4c12.2-12.6,18.7-42.6,18.1-56.9
					c-1.9-2.7-4.1-5.2-6.5-7.5l-16-4.9l-8.5,11.5c-14,0.2-27.9-3.4-40-10.5c20.9,14,44.5,46.6,40,57.5
					C441.7-1096.4,428.7-1083.4,397.4-1079.6"/>
				<path id="Trazado_4353" class="st15" d="M271.8-1158.9l-9.4-6.6l-7.6,3.2l3.6,12.3L271.8-1158.9z"/>
				<path id="Trazado_4354" class="st16" d="M297.1-1014.4c0,0-3.5-37.2-10.2-39.7c3.3,13.1,1.1,35,1.1,35s-1.7-11.1-2.7-16.2
					c-1.3,10.6-3.1,21-3.1,21C286.8-1011.8,292.5-1011.9,297.1-1014.4"/>
				<path id="Trazado_4355" class="st16" d="M276.2-1034.3c1-6.7,2.4-13.3,4.2-19.8c0,0,1.6-13.3-5.4-11.2
					c0.6,13.5-0.7,27.1-3.7,40.3C273.9-1023.2,274.4-1022.4,276.2-1034.3"/>
				<path id="Trazado_4356" class="st16" d="M247.1-1183c0,0-2.4,7.8-20.8,4.9c0.4,4.4,2.9,6.1,13.6,5.9s14.7,1.5,12.6-1.9
					C250.2-1177.6,247.1-1183,247.1-1183"/>
				<path id="Trazado_4357" class="st16" d="M547.9-1176.2l0.4-9.5l-24.3,1c0,0-0.8,8-0.7,8C523.5-1176.7,547.9-1176.2,547.9-1176.2
					"/>
				<path id="Trazado_4358" class="st17" d="M548.4-1187.5h-23.4c-0.9-1.9-2.3-3.6-4-4.9c-22.9-17.3-55.7-21.1-62.2-21.7
					c0-0.1-0.1-0.1-0.1-0.2l-0.8-1.2l-0.5-0.7c-0.3-0.1-0.5-0.1-0.8-0.1l-2.4-0.3c-1.2-0.1-2.3-0.3-3.5-0.4c-2.5-0.3-5-0.5-7.5-0.6
					c3.1-3.4,5.8-7.2,7.9-11.3c8.4-15.6,17.1-47.1,2.8-61.3c-2.3-2.1-5.1-3.7-8.1-4.7c-5.2-1.5-10.7-1.5-15.9,0
					c1.1-3.9,2.8-10,4.2-17.2c3.2-16.4,3.6-29.6,1.1-39.5c-3.7-15.1-21.6-23.8-26-25.7c-4.5-13.9-13.4-25.9-25.3-34.3
					c-8-5.4-17-8.9-26.5-10.5l-5.3-0.6l3.2,4.3c3.1,4.3,5.9,8.7,8.4,13.3c1.4,2.5,2.6,5.1,3.8,7.7c-4.7-2.9-9.6-5.5-14.6-7.7
					c-18.3-7.8-38.1-11.1-57.9-9.6c-7,0.7-13.9,2-20.7,3.8l8.8,2.5c7.7,2.2,14.2,7.3,18.1,14.2c-19.3-2.4-38.8-2.6-58.2-0.6
					c-1.2,0.1-4.7,0.4-5.8,0.6c-17.9,1.8-35.8-8.8-48.5-20.6l-3.2-3.1c-3,15.3-3.6,31-2,46.5c2,18,8.3,36.8,23,48.5
					c6.7,5.6,13.9,10.5,21.6,14.7c-4.6,15.8-7,32.3-6.9,48.8c-2.9-0.6-5.9-0.2-8.4,1.3c-3.8,2.3-5.6,7.1-5.3,14.2
					c0.7,17.5,18.7,41.5,30.3,49.6c2,1.6,4.5,2.7,7.1,3.1c-0.1,1.3-0.2,2.6-0.1,3.9c-1.3,0.1-4.2,0.1-10.8,0
					c-2.1-0.1-4.2,0.2-6.3,0.9c-18.9-25.2-34.9-52.5-47.7-81.3c-11.9-26.6-21.8-54.1-29.5-82.2c-8.1-28.5-14-57.6-17.6-87.1
					l-4.7,0.5c3.7,29.7,9.6,59,17.8,87.8c7.8,28.3,17.8,56,29.8,82.9c12.9,29,29,56.5,48,81.9c-0.5,0.6-1,1.2-1.3,1.9
					c-1.4,3.2-0.8,6.8,1.5,9.4c0.4,0.4,0.8,0.8,1.3,1.1c-1.5,5-5.8,19.8-10.3,40.1l-2.1-0.1c-30.2-1.1-56.2-2.1-80.1,2l0,0.2
					c-0.4-0.5-0.7-1-1.1-1.5c-1-1.4-2.1-2.7-3.3-4c-2.3-2.7-5.1-4.9-8.2-6.7c-0.8-0.4-1.7-0.8-2.6-1.1c-0.2-0.1-0.5-0.1-0.7-0.2
					c-0.2-0.1-0.5-0.1-0.7-0.2l-1.2-0.3c-1.6-0.4-3.1-0.8-4.7-1.2c-3.1-0.9-6.3-1.8-9.4-2.7c-3.1-1-6.2-2-9.2-3.1
					c-1.5-0.6-3-1.1-4.4-1.8c-0.3-0.2-0.7-0.3-1-0.5c-0.2-0.1-0.5-0.3-0.7-0.4c-0.1-0.1-0.2-0.2-0.3-0.3c-0.1-0.1-0.2-0.2-0.3-0.4
					c-0.2-0.3-0.5-0.5-0.7-0.9c-1-1.2-1.9-2.6-2.8-3.9c-0.9-1.3-1.8-2.7-2.7-4.1c-1.7-2.7-3.4-5.5-4.9-8.3c-0.4-0.7-0.7-1.4-1-2.1
					l-0.2-0.5c0,0-0.1-0.3-0.2-0.4c-0.1-0.2-0.2-0.4-0.3-0.5c-0.5-0.7-1.1-1.2-1.8-1.5c-1.1-0.5-2.4-0.6-3.6-0.4
					c-1,0.1-2,0.4-2.9,0.8c-5.3,2.2-9.2,7-10.3,12.7c-0.1,0.5-0.2,0.9-0.2,1.4l-0.1,0.7l0,0.7c0,0.2,0,0.5,0,0.7l0,0.7l0.1,1.3
					c0.3,3.5,1.1,6.9,2.4,10.2c1.3,3.2,2.9,6.3,4.8,9.2c1.9,2.9,4.2,5.6,6.7,7.9l1,0.9c0.3,0.3,0.7,0.5,1,0.8
					c0.3,0.3,0.7,0.6,1.1,0.8l0.2,0.2c-3.1,0.1-6.1,0.1-9.2-0.1c-0.7-0.2-3.5-1.5-6.3-2.7c-23.8-10.7-33-13.2-36.7-10.1
					c-4.2,3.6-8.8,12-8.5,18.3c0,2.7,1.2,5.3,3.4,6.9c3.7,2.6,14.7,6.9,25.5,10.5c-1.6,0-3.2,0-4.9,0c-22.4,0.3-26.4,4-27.4,7.2
					c-2.1,6.7-1.5,13.3,1.5,17.3c2.2,2.9,5.8,4.5,9.4,4.3c0.2,0,0.5,0,0.7,0c2-0.1,4.4-0.2,7.2-0.3c6.6-0.2,14.6-0.5,22.1-1
					c-1.2,0.6-2.5,1.2-3.8,1.8c-18.6,8.9-19,11.1-19.3,12.6c-0.6,3.3,1.4,9.6,5.2,13.8c2.2,2.6,5.5,4.2,8.9,4.2c0.4,0,0.8,0,1.2-0.1
					c8.3-0.9,34.6-12,39-13.8c5.2,0.6,37.6,4.2,55.1-7.7c0,0,15.3,1.5,22.2,1.5c10.7,0.1,21.3-1.1,31.7-3.6c6-1.5,11.9-3.5,17.6-6
					c-1.4,11.9-2.4,23.4-2.8,34.3c1.5,1.6,3,3.2,4.5,4.8c0.4-13.1,1.5-27,3.3-41.5c11.6-6,21.8-14.3,30-24.4
					c12.2-5.7,23.6-13.1,33.8-21.9c-0.8,8.3-4.1,40.9-5.8,56.2c-2.5,3.5-4.2,7.6-4.9,11.9c-3.8,17.5-5.2,26.1-5.2,26.1l-0.2,1.2
					l0.9,0.9c3.8,3.3,8.7,5.4,13.7,5.8c-0.3,3.2-0.4,4.8-0.4,4.8l-0.1,1.2l1,0.8c4.1,3,8.9,4.6,13.9,4.6c3.7,0,7.4-1,10.7-2.8
					l1.2-0.7l0-1.4c0.2-20.9-2.1-34.5-7-40.6h0.1c0.4-14.9,0.8-51.6,0.9-62.2c9.1-6.3,17.8-13.3,25.9-20.9c2.4,4.4,6.1,11,10.5,18.3
					c10.3,17,19.1,28.9,26.2,35.6l0.4,0.3l0.5,0.2c3.1,1.1,6.2,2.1,9.4,3c3.1,2.6,7.7,6.2,12.9,9.7c5.5,3.8,4.8,20.1,3.9,29.6
					c-1.6,16.1-6.9,39.8-13.8,64.7l5.3-0.6c7-25.1,11.5-47.2,13.1-63.6c1.8-18.8-0.1-29.9-6-33.9c-1.7-1.1-3.2-2.3-4.7-3.4
					c8,1.5,16.1,2.2,24.2,2.3c8.6,0,17.2-0.9,25.6-2.6c20.7-4.4,36.7-13.8,42.6-25.1c6.1-11.4,9.6-24,10.5-36.9
					c4.6,7,12.7,22.9,7.6,42.1l0,0.1c-1,5-0.5,11.7,0.2,21c1.4,15,1.6,30.1,0.6,45.2c1.7-1.7,3.4-3.4,5-5.1c0.6-13.5,0.3-27-1-40.5
					c-0.6-8.5-1.2-15.3-0.3-19.6c1.7-6.4,2.2-13,1.5-19.6c6.2-5.8,27-29.5,32.7-56.4h22.4l0.2-4.7l-21.8,0c0.1-0.5,0.1-1.1,0.2-1.6
					c0.1-1,0.1-2,0-3h21.8L548.4-1187.5z M240.2-1198.4c-11-7.7-27.7-30.4-28.3-46c-0.1-3.6,0.3-8.3,3.1-10c1.9-0.9,4.1-1.1,6.1-0.5
					c0.1,3.2,0.4,6.4,0.8,9.7l0,0.2c0.8,3.7,2.4,7.1,4.6,10.2l8,9.7c1,1,1.9,2.1,2.9,3.1c4.8,4.8,9.2,10,13.3,15.6
					c-0.4,0.5-0.9,1.2-1.3,2l-2.2,4.1c-0.6,1.4-1.6,4.3-1.6,4.3C245.1-1196,243.2-1196.3,240.2-1198.4 M226.4-1180.4
					c0.8-1.7,3.4-2.7,7.2-2.6c5,0.1,8.6,0.1,10.7,0.1c0.3,0,0.7,0,1,0c0.9,2.8,2.1,5.5,3.8,7.9c-11.6,0.7-20.4,0.1-21.8-1
					C226.2-1177.2,225.9-1178.9,226.4-1180.4 M229.5-1170.6c3.2,0.4,6.4,0.6,9.6,0.6c0.5,0,1,0,1.5,0c5.1-0.1,9.9-0.4,12-0.5
					c1.6,1.8,3.4,3.4,5.3,4.9l-5,2.8v1.4c0,1.9,0.2,3.8,0.6,5.7c-4.3,2.7-17.9,11.4-33.9,23.4C224-1151.8,228.1-1165.9,229.5-1170.6
					 M24.7-1081.1c-2.8,0.1-5.2,0.2-7.3,0.3c-2.3,0.3-4.7-0.6-6.2-2.4c-2.1-2.8-2.4-7.9-0.8-13c0,0,1.4-3.6,23-3.9
					c10.8-0.1,21.4,0.6,22.9,0.7l0.9,0.2c0.4,5.4,1.2,10.7,2.6,15.9C48.2-1082.1,36.5-1081.3,24.7-1081.1 M130-1070
					c-17.6,10.4-51.5,6.5-51.8,6.4l-0.6-0.1l-0.6,0.2c-8.3,3.6-31.5,13-38.2,13.7c-2.4,0.2-4.6-0.8-6.1-2.7c-2.4-2.6-3.9-6-4.1-9.6
					c2-2.6,18.2-10.5,32.9-16.7c1,2.3,2.3,4.5,3.9,6.4c0.6,0.7,1.2,1.4,1.8,2c-0.2-0.9-0.4-1.7-0.5-2.6c-0.7-3.8-1.4-7.4-2.3-10.9
					c-1.7-6.3-2.6-12.9-2.8-19.4c0-1.8-0.2-3.7-0.3-5.5c-0.1-0.9-0.2-1.9-0.4-2.8c-0.1-0.9-0.2-1.9-0.4-2.8l-0.4-2.6l-0.9,2.5
					c-0.3,0.9-0.7,1.8-0.9,2.8c-0.2,0.9-0.4,1.9-0.6,2.9c-0.3,1.6-0.4,3.1-0.4,4.7c-15.2-3.8-37.6-12.3-41.5-15.1
					c-1-0.8-1.5-2-1.5-3.3c-0.2-4.6,3.6-11.7,6.8-14.5c0.2-0.1,2.3-1,12.7,2.8c6.5,2.4,13.7,5.6,19,8c2.4,1.2,4.9,2.2,7.4,3.1
					c4.2,0.3,8.5,0.3,12.8,0.1c0.4,2.7,1.1,5.3,2,7.9c1.2,3.4,2.8,6.6,4.7,9.6c1.9,3,4.2,5.7,6.8,8.2c2.6,2.4,5.5,4.5,8.7,6
					c1.6,0.7,3.2,1.3,4.9,1.8c1.7,0.4,3.4,0.6,5.1,0.7c-1.6-0.4-3.2-1-4.8-1.7c-1.5-0.7-3-1.5-4.3-2.5c-2.7-1.9-5.1-4.1-7.3-6.6
					c-4.3-5-7.6-10.7-9.7-16.9c-1.1-2.9-1.7-5.9-2-9l0-0.6l0-1.2l0-1.2v-0.3c-0.1-0.1-0.2-0.1-0.3-0.1l-0.5-0.3l-1.8-0.9
					c-0.3-0.2-0.6-0.4-0.9-0.6l-0.9-0.6c-0.3-0.2-0.6-0.5-0.9-0.7c-0.3-0.2-0.6-0.5-0.9-0.7l-0.9-0.8c-2.3-2.1-4.3-4.5-6-7.1
					c-1.7-2.6-3.2-5.4-4.3-8.3c-1.1-2.9-1.9-5.9-2.1-8.9l-0.1-1.1l0-0.6c0-0.2,0-0.4,0-0.5l0-0.5l0.1-0.5c0-0.4,0.1-0.7,0.2-1
					c0.3-1.4,0.7-2.7,1.4-3.9c0.7-1.2,1.6-2.3,2.6-3.3c1-0.9,2.2-1.7,3.5-2.2c0.6-0.2,1.2-0.4,1.8-0.5c0.4-0.1,0.8,0,1.3,0.1
					c0.1,0,0.1,0,0,0l0,0l0,0.1l0.3,0.6c0.4,0.8,0.8,1.6,1.2,2.3c1.6,3,3.3,5.8,5.1,8.6c0.9,1.4,1.8,2.8,2.8,4.2
					c0.9,1.4,1.9,2.8,3,4.1c0.6,0.8,1.3,1.5,2,2.2c0.4,0.3,0.9,0.6,1.4,0.9c0.4,0.2,0.8,0.4,1.2,0.6c1.6,0.7,3.2,1.3,4.7,1.9
					c3.1,1.2,6.3,2.2,9.5,3.2c3.2,1,6.3,1.9,9.5,2.8c1.6,0.4,3.2,0.9,4.8,1.3l1.2,0.3c0.2,0.1,0.4,0.1,0.5,0.1
					c0.2,0,0.3,0.1,0.5,0.1c0.7,0.2,1.3,0.5,1.9,0.8c2.6,1.5,5,3.4,7,5.7c1.1,1.2,2.1,2.4,3,3.6c0.5,0.6,0.9,1.3,1.4,1.9
					c0.1,0.2,0.3,0.4,0.4,0.6c-1.2,0.9-2.2,1.7-2.8,2.1l-1.7,1.3l8.3,7.7c-2.8,1-7.2,2.4-10.4,3.5l-1.7,0.6l0.6,1.7
					c0.8,2.4,6.5,7.7,10.1,10.8c-1.4,0.6-3.4,1.5-6.3,2.6l-2.3,0.9l1.5,1.9c0.9,1.1,4.4,2.6,8,3.8c-2.8,2-7.2,5-10.3,6.8l-3.4,2
					l3.7,1.3c2.3,0.8,7.7,2.4,10.9,3.3L130-1070z M237.4-1105.4l-0.5,0.2l-0.3,0.4c-12.8,15.9-30.6,27-50.4,31.6
					c-16.8,3.8-34.1,4.5-51.1,2.2l4.8-6.7l-2.5-0.7c-0.1,0-5.4-1.5-9.5-2.7c4.7-3,9.8-6.8,10.1-7l2.9-2.1l-3.4-1.1
					c-2.3-0.7-4.8-1.6-6.8-2.4c1.9-0.7,3.7-1.6,5.5-2.5l2.3-1.3l-2-1.7c-3.5-2.9-6.9-6.1-10-9.5c5-1.7,11-3.7,11.1-3.8l2.9-1
					l-9.6-8.9c1.8-1.4,3.7-2.7,4.6-3.2c22.9-3.6,48-2.7,77-1.6l6.9,0.3l0.8,0l0.7-0.5c15.1-11.4,28.3-20,33.8-23.5
					c0.7,2.7,1.7,5.2,2.9,7.7c3,6.4,7.4,12.1,12.8,16.6C260.3-1118.1,249.2-1110.9,237.4-1105.4 M278.2-1121.2
					c0.4,0.2,0.8,0.5,1.2,0.7c0,4.1-0.2,15.2-0.3,27.5c-0.1,0.9-0.8,8.9-2.5,23.3c-1.2-0.5-2.4-0.7-3.7-0.5
					C274.7-1085.5,277.2-1111.5,278.2-1121.2 M272.7-1025.8c-3.6-0.3-7.1-1.6-10.1-3.8c0.5-3,2.1-11.1,5-24.6
					c1.9-8.8,4.5-10.7,5.5-11.1c0.6-0.3,1.3-0.2,1.9,0.1l0.2,0.1c1.7,1.3,3,3.2,3.4,5.4c0,1.7-0.1,3.3-0.1,4.7
					c-2.2,3.7-3.5,7.9-3.8,12.3C273.8-1035.7,273.1-1030.1,272.7-1025.8 M293.8-1016c-5.6,2.5-12.1,2-17.3-1.3
					c0.3-3,1.1-11.3,2.8-24.9c1.1-8.9,3.5-11.1,4.5-11.6c0.6-0.3,1.3-0.3,1.9-0.1l0.2,0.1C291-1051.5,293.9-1037.4,293.8-1016
					 M283.3-1058.6c0.4-16.5,0.7-48.6,0.8-59.7c1.2,0.5,2.4,1,3.7,1.4c-0.1,10.4-0.5,42.3-0.8,58.4
					C285.8-1058.8,284.5-1058.9,283.3-1058.6 M289.8-1121.1c-13.2-4.5-22.6-12.5-28-23.9c-2.3-4.8-3.7-9.9-4.2-15.1l4.3-2.4l0.8,0.6
					c3.8,2.6,7.7,5,11.8,7.2l3.7,2.6c3.3,2,6.9,4.4,11,7.4c3.3,2,7,3,10.8,3l5.1,0.1l3.5-0.1c2.4-0.1,4.9-0.4,7.4-0.7l0,0.1
					C307.9-1134.7,299.1-1127.5,289.8-1121.1 M292-1148.6c-5-3.6-10.1-7-15.4-10c-20.6-10.9-25.5-20.1-27.2-26.9
					c-1.7-10.3,5.9-19.2,6-19.3l1.2-1.3l-5.8-7.7c1.6,1.3,5.5,6,11.4,6.7c-9.3-8.5-15.3-19.9-17-32.4c-2.5-14.3,11-13.2,20.2-4.3
					c0.9,0.9,1.8,1.9,2.6,3c-1.6-0.7-3.4-1-5.1-0.9c-2.3-0.1-4.5,1-5.9,2.9c-1.9,2.8-1.6,7.3,0.8,14.1c3.6,10.1,8.6,15.2,15,15.2
					c0.2,0,0.4,0,0.6,0c2.3,0.1,4.6-1,6-2.9c0.5-0.7,0.8-1.5,1-2.3c0.6-0.6,2.6-3.4,0.4-10.4c-2.5-8-9-24.5-21.1-29.9
					c-12.1-5.4-23.3-1-20.7,13.9c0.4,2.1,0.9,4.1,1.5,6.1c2.2,6.4,5,12.5,8.4,18.4c-2.6-3.1-5.4-6-7.9-8.6
					c-6.9-7.3-12.9-13.7-14.3-20.6c0-0.1,0-0.3,0-0.4l0.2,0.4c4.2-11.6,14.5-20,26.7-21.9c-2.7-5.9-6.3-11.3-10.7-16
					c-7.2,3.7-13,9.5-16.8,16.6c0-0.5,0-1,0.1-1.5l0.2-2.8c0.8-11.8,2.9-23.5,6.1-34.8c3,1.5,6.1,2.9,9.2,4.2
					c8.1,3.5,16.5,6.1,25.2,7.9c2.4,0.5,5.2,0.9,7.7,1.2l-0.1-2.4c0-2-0.1-3.9-0.1-5.9c0.1-1.6,0.1-3.3,0.3-4.9
					c0.1-1.7,0.3-3.4,0.5-5.1c0.1-0.8,0.2-1.7,0.4-2.5l0-0.1l1.2,0.6c1.1,0.6,2.2,1.2,3.3,1.8l3.3,1.7l2.7,1.3l3.3,1.6l-0.2-3.7
					l-0.1-1.8l0-1.1c0-1.2,0-2.4,0-3.5c0-1.2,0-2.3,0.1-3.5c0-0.6,0.1-1.1,0.1-1.7l0.1-0.9c0,0,0,0,0,0c0,0,0,0,0,0
					c0,0-0.1-0.1,0.3,0c1.1,0.2,2.2,0.3,3.3,0.4c2.2,0.1,4.5,0,6.7-0.4c-2.1-0.8-4.1-1.5-6.2-2.2c-1-0.3-2-0.7-3-1
					c-0.1-0.1-0.8-0.2-1.3-0.4c-0.5-0.2-1-0.3-1.5-0.4l-0.8-0.2l-0.2,0c0,0.1,0,0.1-0.1,0.2l-0.1,0.4c-0.1,0.5-0.3,1-0.4,1.5
					l-0.3,1.7l-0.1,1c-0.1,0.6-0.1,1.3-0.2,1.9c-0.1,1.2-0.1,2.5-0.1,3.7c0,1.2,0,2.4,0,3.6l0,0.7l-0.6-0.3l-3.3-1.7
					c-1.1-0.6-2.2-1.1-3.3-1.7l-0.8-0.4l-1.3-0.7l-3.2-1.9l-0.5,2.5l-0.3,1.3c0,0.2-0.1,0.4-0.1,0.6l-0.1,0.6
					c-0.2,0.9-0.3,1.8-0.4,2.6c0,0.3-0.1,0.6-0.1,1c-0.6,4.3-0.9,8.6-1,12.9c-0.9-0.2-1.8-0.4-2.7-0.6c-5-1.3-9.8-2.8-14.7-4.3
					c-15.8-5.2-30.5-13.3-43.3-23.9c-19.3-15.6-22.7-42.5-22.1-65.9c0.2-5.4,0.6-10.8,1.3-16.1c0.9,0.8,1.8,1.5,2.7,2.3
					c12.5,9.8,27.9,17.8,44.2,16.9c20.5-2.4,41.2-2.6,61.7-0.6c3.7,0.4,7.8,1.2,11.6,1.9l-1.4-3.8c-3-7.5-8.4-13.7-15.4-17.7
					c12.5-1.4,25.1-0.7,37.3,2c14.9,3.1,29,9.2,41.5,18l5.6,4c-1.3-4.9-2.9-9.7-4.8-14.4c-2.6-5.7-5.6-11.2-9-16.4
					c0.3,0.1,0.6,0.2,0.9,0.2c6.4,1.8,12.5,4.7,18,8.4c7.5,4.9,13.9,11.2,18.9,18.7c10.1,15.2,13.7,33.9,14.1,52
					c0.5-9.2,0-18.5-1.6-27.6c-0.4-2.2-0.9-4.4-1.4-6.6c6.2,3.4,17,10.5,19.5,20.7c4.9,19.9-4.3,51.4-6.2,57.4c-1,0.4-2,0.8-3,1.3
					c-8.1,4.7-15.2,10.9-21.1,18.1c7.4-5.1,15.2-9.5,23.4-13.2c8.3-4,19-6.2,26.4,0.5c10.2,10.3,5.1,32.9,0.5,45.1
					c-3,7.6-7.6,17.5-14.4,22.3c-2.4,0.9-5,1.2-7.6,0.7c-5.1-0.8-10.1-2-15-3.6c-3.1-1.1-6.1-2.6-8.8-4.5c0.8,1.8,1.9,3.4,3.4,4.8
					c-4.8,10.3-10.6,20.1-17.3,29.4l-2.4,3.2c0-0.1,0-0.3,0.1-0.4c0.3-3.4,0-6.9-0.9-10.2c-1-3.2-2.4-6.3-4.3-9.1
					c-0.9-1.4-1.9-2.7-3-4c-0.5-0.6-1.1-1.2-1.6-1.9c-0.5-0.6-1.2-1.2-1.8-1.8c-0.6-0.6-1.2-1.2-1.9-1.7c-0.3-0.3-0.7-0.5-1-0.8
					l-1.1-0.7c-1.5-1-3.1-1.7-4.8-2.2c-3.5-0.9-7.1-0.8-10.5,0.3c-3.2,1.1-6.2,2.5-9,4.3c-2.8,1.8-5.4,3.8-7.9,6
					c-2.4,2.2-4.7,4.5-7,7c3.1-1.2,6.1-2.6,8.9-4.3c2.9-1.6,5.6-3.3,8.3-5c2.5-1.6,5.1-2.9,7.9-3.9c2.6-0.9,5.4-1,8-0.3
					c2.7,0.9,5.1,2.4,7.1,4.3c0.5,0.5,1,1,1.5,1.6c0.5,0.6,1,1.1,1.5,1.7c0.9,1.1,1.8,2.3,2.7,3.6c1.6,2.4,2.9,5.1,3.7,7.9
					c0.8,2.8,1,5.6,0.8,8.5c-0.1,1.4-0.4,2.8-0.8,4.2c-0.4,1.4-0.9,2.7-1.6,4.1c-0.6,1.3-1.4,2.6-2.2,3.8c-0.4,0.6-0.8,1.2-1.3,1.8
					c-0.2,0.3-0.5,0.6-0.7,0.8c-0.2,0.3-0.5,0.6-0.7,0.7l0,0c-6.1,6.9-29.2,21.2-47.3,25C310.6-1145.6,296.6-1145.3,292-1148.6
					 M274.3-1225.9c-0.2-0.6-0.5-1.2-0.7-1.8c0.8,0.3,1.5,0.7,2.1,1.2c0.1,0.2,0.2,0.4,0.3,0.7c2.1,6,2.5,9.8,1.2,11.8
					c-0.9,1.2-2.4,1.8-3.9,1.7c-5,0.3-9.1-3.5-12.3-11.3c1-1.8,2.6-3.3,4.6-3.9c0.1,0.6,0.3,1.3,0.6,1.9c1.3,3.6,3.3,6.5,6.4,6.4
					C275.8-1219.2,275.6-1222.2,274.3-1225.9 M464.3-1106.1c-5.2,10-20.3,18.7-39.4,22.7c-22.3,4.5-45.5,2.9-67-4.7
					c-14-13.4-32.1-46.1-36.9-55.1c3.3-0.5,6.5-1.1,9.6-1.8c1-0.2,2-0.4,2.9-0.6c1.5-0.3,32.6-9.2,46.8-26c0.3-0.3,0.5-0.5,0.7-0.7
					c0.2-0.2,0.4-0.4,0.5-0.6c1.8-2.1,3.7-4.3,5.6-6.7l3.1-3.9c4.5-5.8,8.7-11.8,12.6-18l3-4.9c1.4-2.4,2.7-4.8,4-7.3
					c2.3-0.2,7.6-0.5,13.3-0.5c1.6,0.5,3.3,1,5.2,1.4c3.2,0.5,6.5,0.2,9.6-0.8c4.2,0.2,8.4,0.5,12.6,0.9c1.1,0.1,2.3,0.3,3.4,0.4
					l1.1,0.1h0.1l0,0.1l0.1,0.2c1.1,1.8,2,3.8,2.6,5.9c0.6,2.1,1.1,4.3,1.4,6.4c0.3,2.2,0.4,4.4,0.4,6.7c0,4.5-0.5,9-1.4,13.4
					c-0.5,2.2-1.1,4.4-1.8,6.5c-0.7,2.1-1.6,4.2-2.5,6.2c-1,2-2.1,3.8-3.4,5.6c-1.3,1.7-2.8,3.2-4.5,4.4l-0.1,0.1l0,0l0,0h-0.2h-1.7
					h-1.7l-1.7-0.1c-2.3-0.1-4.5-0.4-6.7-0.7c-4.5-0.7-8.8-1.8-13.1-3.3c-4.4-1.6-8.8-3.4-13-5.5c-4.3-2.1-8.6-4.3-12.9-6.5
					c3.5,3.4,7.2,6.6,11.2,9.4c4.1,2.8,8.5,5.1,13.2,6.8c4.5,1.6,9.2,2.8,13.9,3.5c2.4,0.3,4.8,0.6,7.2,0.7l1.8,0.1h1.8h1.8h0.7
					c0.3,0,0.6,0,0.9,0l1.3-0.9c2.1-1.5,3.9-3.3,5.4-5.3c0.7-1,1.4-2,2.1-3c3.1,0.7,6.3,1.1,9.5,1.3c0.4,0,0.8,0.1,1.2,0.2
					c2.7,1.8,5.2,4,7.4,6.5C475.6-1137.2,472.2-1120.7,464.3-1106.1 M521.7-1180.4c-2.7,24-20.8,48.1-30,57.6
					c-2.1-9.4-6.5-18.1-12.6-25.4c0,0-0.2-4.8-0.5-6.6l-0.1-0.6l-0.3-0.5c-1.1-1.6-2.5-3.1-4-4.4c8.2-0.4,16.2-2.6,23.4-6.7
					c-3.3,1.4-6.8,2.5-10.4,3.1c-9.7,1.6-19.6,0.8-28.9-2.3c0.8-1.8,1.5-3.6,2.2-5.5c0.8-2.3,1.4-4.6,1.9-7c1-4.7,1.5-9.5,1.5-14.3
					c0-2.4-0.2-4.8-0.5-7.2c-0.3-2.4-0.8-4.8-1.6-7.2c-0.2-0.6-0.4-1.1-0.6-1.7c10,1.2,37.6,5.8,56.9,20.5
					C520.8-1186.7,522.1-1183.6,521.7-1180.4"/>
				<path id="Trazado_4359" class="st17" d="M354.3-1265.5c0.6-5.1-0.1-10.3-1.8-15.1c0,0-29.5-13.7-61.1-10.8l2.5,13
					c0,0-4.8-6.9-6.7-8.9c0.4,6.5,1.9,12.9,4.4,18.9C291.5-1268.4,323.6-1281.8,354.3-1265.5"/>
				<path id="Trazado_4360" class="st17" d="M297.3-1191.5c4.9-5.3,7.4-4.9,9.8-3.6c2.4,1.2,6.2-2.5,1.1-3.7
					C302-1200.2,298.4-1195.2,297.3-1191.5"/>
				<path id="Trazado_4361" class="st17" d="M412.9-1254.4l0.8-0.4c0.5-0.2,1-0.4,1.5-0.5l0.7-0.2c0.1,0,0.1,0,0.2,0l0.1,0l0.2,0
					c0.2,0,0.4-0.1,0.6-0.1c0.4,0,0.8-0.1,1.2-0.1c0.8,0,1.6,0.1,2.4,0.2c0.6,0.1,1.2,0.3,1.7,0.7c0.1,0.1,0.2,0.2,0.3,0.3
					c0,0,0,0,0,0l0,0c0,0,0,0,0,0c0,0,0,0,0,0c0,0,0,0.1,0,0.1c-0.1,0.5-0.3,1-0.7,1.5c-1.1,1.3-2.3,2.5-3.7,3.5
					c-0.9,0.7-1.9,1.4-2.9,2l-1.5,1l-2.2,1.4l-0.4,0.2l-0.2,0.1c0,0-0.2,0.1-0.1,0.2l0,0.9l0,0.9c0,0.1,0,0.3,0,0.5v0.4
					c0,0.7,0.1,1.4,0.2,2c0.2,1.3,0.5,2.6,1,3.9c0.4,1.3,1,2.5,1.7,3.7c0.7,1.2,1.7,2.3,2.7,3.2c2.3,2,5.7,2.1,8.1,0.2
					c0.9-0.7,1.8-1.5,2.5-2.4c0.4-0.4,0.7-0.9,1-1.4c0.3-0.4,0.6-0.9,0.9-1.4c-0.4,0.4-0.8,0.8-1.2,1.2c-0.4,0.4-0.8,0.8-1.2,1.1
					c-0.8,0.7-1.7,1.3-2.7,1.7c-1,0.5-2,0.6-3.1,0.5c-0.9-0.2-1.8-0.7-2.4-1.5c-1.4-1.7-2.3-3.7-2.7-5.8c-0.3-1.1-0.4-2.2-0.5-3.3
					c0-0.6-0.1-1.1,0-1.6c0-0.1,0-0.1,0-0.1l0,0l0,0c0,0,0,0,0,0h0l0.1,0l0.8-0.5c0.5-0.3,1.1-0.7,1.6-1c1.1-0.7,2.1-1.4,3.2-2.2
					c1.7-1.3,3.3-2.8,4.6-4.5c0.2-0.2,0.3-0.5,0.5-0.8c0.1-0.1,0.2-0.3,0.2-0.4l0.2-0.5l0.2-0.5c0.1-0.2,0.1-0.3,0.2-0.5l0.1-0.5
					c0-0.2,0.1-0.4,0.1-0.6c0-0.2,0-0.4,0-0.6c0-0.2-0.1-0.4-0.1-0.7l-0.1-0.3c0-0.1-0.1-0.2-0.1-0.3c-0.1-0.2-0.2-0.4-0.3-0.6
					c-0.4-0.7-0.9-1.4-1.6-1.9c-1.1-0.8-2.3-1.3-3.5-1.5c-1.1-0.2-2.2-0.3-3.4-0.3c-0.6,0-1.1,0-1.6,0.1c-0.3,0-0.5,0.1-0.8,0.1
					l-0.2,0l0.1-0.2l0.6-1.5c1-2.1,2.1-4.1,3.4-6c2.6-3.8,6.1-6.9,10.1-9.2c1.9-1.1,4-1.9,6.2-2.3c1-0.2,2.1-0.3,3.1-0.2
					c0.3,0,0.5,0,0.8,0.1c0.1,0,0.3,0,0.4,0.1l0.3,0.1c0.4,0.1,0.7,0.2,1.1,0.4c0.7,0.5,1.2,1.2,1.5,2c0.4,1,0.6,2.1,0.7,3.2
					c0.1,2.4,0,4.8-0.3,7.1c-0.3,2.2-0.7,4.4-1.3,6.5c1-2,1.9-4.1,2.7-6.2c0.9-2.4,1.5-4.9,1.7-7.4c0.1-1.4,0-2.8-0.3-4.1
					c-0.3-1.6-1.2-3-2.4-4.1c-0.6-0.5-1.4-1-2.2-1.2l-0.6-0.2c-0.2-0.1-0.4-0.1-0.5-0.1c-0.4-0.1-0.7-0.2-1.1-0.2
					c-1.4-0.2-2.8-0.2-4.2,0c-2.7,0.4-5.3,1.3-7.7,2.6c-4.6,2.6-8.5,6.2-11.6,10.5c-1.5,2.1-2.8,4.4-3.9,6.8
					c-0.1,0.3-0.3,0.6-0.4,0.9l-0.2,0.5l-0.1,0.2l0,0.1l-0.1,0.2l-0.6,1.6c-0.2,0.5-0.4,1.1-0.5,1.6l-1.8,6.5l3.7-2
					C412.3-1254.1,412.6-1254.3,412.9-1254.4"/>
				<path id="Trazado_4362" class="st17" d="M285.1-1189.1l0.1-0.4c-2.1-0.7-4.1-1.7-5.9-3c-2.6-1.9-4.2-5.6-1.9-8.3
					c2.4-2.3,5.4-3.9,8.7-4.3c8.9-1.7,18-0.4,26.8,1.2l0.1-0.4c-6.2-3.5-13.2-5.4-20.4-5.5c-6.9-0.1-16.6,1.6-19.5,9
					C271-1193.5,278.6-1188.7,285.1-1189.1"/>
				<path id="Trazado_4363" class="st17" d="M334.4-1173.5l1.6-0.4c0.5-0.1,1-0.3,1.5-0.5c1-0.3,2.1-0.6,3.1-1l3-1.2l0.8-0.3
					l0.8-0.4l0.8-0.4c0.2-0.1,0.5-0.3,0.7-0.4c1-0.6,1.9-1.2,2.8-1.8c1.7-1.3,3.4-2.7,4.9-4.1c4.4-4.3,8.5-8.8,12.1-13.7
					c0.2,0.6,0.4,1.3,0.5,2c0.1,1.3,0.1,2.6-0.1,3.9c1-1,1.8-2.3,2.1-3.7c0.6-2.3,0.2-4.8-1.1-6.8c-4-5.8-17.6-2.3-22.5,0.9
					c2.8,0.2,5.4,0.2,8,0.1c3.6-0.3,7.1-0.1,10.6,0.6h0c-3.7,5-7.9,9.7-12.3,14.1c-2.8,2.8-6.1,5.1-9.6,6.8l-2.8,1.1
					c-1,0.3-1.9,0.6-2.9,0.9c-0.5,0.1-1,0.3-1.5,0.5l-1.5,0.4c-1,0.2-2,0.5-3,0.7c-2,0.4-4,0.8-6.1,1.1c-1,0.2-2,0.3-3.1,0.5
					l-3.1,0.4l-1.5,0.2l-1.6,0.1l-3.1,0.3c-2.1,0.1-4.2,0.3-6.2,0.3c-8.3,0.3-16.7,0.2-25-0.3l-4.5-0.3c-0.1,0-0.1,0-0.2,0.1l-0.2,0
					l-0.1,0c0,0-0.1,0-0.1,0s0-0.1,0-0.2l0-0.1c0,0,0-0.1,0.1-0.1l0.3-0.3l0.1-0.1l0.2-0.2l0.4-0.4c0.2-0.3,0.5-0.5,0.7-0.8
					c0.5-0.6,0.9-1.1,1.3-1.7c1.6-2.3,3-4.7,4.1-7.3c-1.7,2.1-3.6,4.2-5.6,6.1c-0.5,0.5-1,0.9-1.5,1.4c-0.2,0.2-0.5,0.4-0.8,0.7
					l-0.4,0.3l-0.2,0.2l-0.3,0.3l-1.3,1.1c-0.2,0.2-0.5,0.4-0.8,0.6l-0.9,0.6l-3.6,2.5c0.2,0.1,0.6,0.1,1,0.1l1,0.1l2.1,0.2
					c1.4,0.2,2.9,0.3,4.4,0.5l2.3,0.2c0.8,0.1,1.5,0.1,2.3,0.2c0.7,0,1.4,0.1,2.1,0.1l10.1,7.7l-4.4-7.5c5.9,0.2,11.8,0.2,17.7,0
					c2.1-0.1,4.2-0.2,6.4-0.3l3.2-0.3l1.6-0.1l1.6-0.2l3.2-0.4c1.1-0.1,2.1-0.3,3.2-0.5c2.1-0.3,4.2-0.8,6.3-1.2
					C332.3-1173,333.3-1173.3,334.4-1173.5"/>
				<path id="Trazado_4364" class="st17" d="M320.1-1238c-7,2.7-12.2,8.8-13.7,16.2c0,0,12.5-19.6,44.3-7.7c4.8,1.8,7.6,0.3,9.2-1.8
					l0.1-0.1c2.7-3.5,0.4-8.1-6.1-9.3C344.6-1242.4,328.2-1241.4,320.1-1238"/>
				<path id="Trazado_4365" class="st17" d="M436.1-1034.4c0.8-7.3,1.1-14.6,1.1-21.9c0-1.8-0.1-3.7-0.2-5.5l-0.1-1.4
					c0-0.5,0-0.9-0.1-1.4l-0.3-2.9l-0.3-2.7l-0.2-1.4c0,0,0-0.1,0-0.1h-0.1l-0.2,0l-0.3,0l-0.6,0.1l-2.4,0.2l-1.2,0.1l-0.7,0.1
					c-1.8,0.1-3.5,0.2-5.3,0.3c-3.7,0.1-7.4,0.2-11.1,0.3s-7.4,0.1-11.2-0.1c3.5,1.6,7.2,2.7,11,3.4c3.8,0.7,7.6,0.9,11.5,0.8
					c1.8-0.1,3.7-0.2,5.5-0.3l0.6,0l0.1,0l0.3,0l0.1,0v0l0.3,2.5c0.1,0.4,0.1,0.9,0.1,1.3l0.1,1.3c0.1,1.8,0.2,3.5,0.2,5.3
					c0,7.2-0.3,14.3-1,21.5c-0.7,7.2-1.6,14.3-2.7,21.4c-1.1,7.1-2.6,15.1-4,22.2c0,0,3.8-1.6,5-2.2c1.3-6.4,2.4-12.9,3.4-19.3
					C434.5-1019.9,435.4-1027.1,436.1-1034.4"/>
				<path id="Trazado_4366" class="st4" d="M266.1-1232.5c1.1,3,2.7,5.4,5.2,5.2c2.7-0.1,2.5-2.6,1.4-5.6c-1.1-3-2.6-5.4-5.2-5.2
					C264.9-1238,265.1-1235.5,266.1-1232.5"/>
			</g>
		</g>
	</g>
</g>
</svg>
