<?xml version="1.0" encoding="utf-8"?>
<!-- Generator: Adobe Illustrator 26.0.2, SVG Export Plug-In . SVG Version: 6.00 Build 0)  -->
<svg version="1.1" id="Capa_1" xmlns="http://www.w3.org/2000/svg" xmlns:xlink="http://www.w3.org/1999/xlink" x="0px" y="0px"
	 viewBox="0 0 600 600" style="enable-background:new 0 0 600 600;" xml:space="preserve">
<style type="text/css">
	.st0{fill:#FFDE17;}
	.st1{fill:#96580C;}
	.st2{fill:#875D3A;}
	.st3{fill:#E8AE8E;}
	.st4{fill:#FFFFFF;}
	.st5{fill:#256BB7;}
	.st6{fill:#0DB5FF;}
	.st7{fill:#B27D66;}
	.st8{fill:#808080;}
	.st9{fill:#FFF422;}
	.st10{fill:#4D4D4D;}
	.st11{fill:#E1F9FF;}
	.st12{fill:#593418;}
	.st13{fill:#CE956B;}
	.st14{fill:#FFE6CA;}
	.st15{fill:#B3B3B3;}
	.st16{fill:#FFCB24;}
	.st17{fill:#1E0A04;}
</style>
<g>
	
		<ellipse transform="matrix(0.5675 -0.8234 0.8234 0.5675 -97.0961 370.2008)" class="st0" cx="303.8" cy="277.5" rx="241.5" ry="285.6"/>
	<g>
		<g id="Grupo_1239" transform="translate(0)">
			<path id="Trazado_4101" class="st1" d="M515.1,486.5c0,0-142.6,126.7-383.9,83.6C-9.5,544.9,13.9,476.5,57.9,423.8L515.1,486.5z"
				/>
			<path id="Trazado_4102" class="st2" d="M199,240.7c1.5-11.7,4.1-23.3,7.9-34.5l0.6-1.6l1.5,0.8c2.8,1.6,5.8,3.2,8.8,4.6
				c7.7,3.9,15.9,6.9,24.2,9c1.6,0.4,3.6,0.8,5.9,1.3l0-0.7c0.1-6.3,0.6-12.7,1.7-18.9l0.4-2l1.3,0.8c-0.5-0.3-0.9-0.7-1.3-1l0,0.1
				h0c-1.6,6.1-2.6,12.3-3.1,18.6l-0.2,1.7l-1.6-0.4c-0.9-0.2-1.8-0.5-2.7-0.8c-4.9-1.5-9.6-3.3-14.4-5.1
				c-15.6-6-29.9-14.9-42.1-26.3c-15.2-13.6-21.4-35.7-18.9-67.5c0.5-5.4,1.2-10.7,2.2-16l0.5-2.5l1.9,1.8c0.8,0.8,1.7,1.6,2.6,2.4
				c14.2,12.4,28.3,18.7,41.9,18.7h0c20.5-1.4,41.1-0.5,61.4,2.7c2.9,0.5,6,1.2,9.1,1.9l-0.5-1.5c-2.5-7.3-7.3-13.5-13.8-17.6
				l-3.5-2.3l4.2-0.3c12.6-0.7,25.2,0.6,37.3,4c14.8,3.9,28.6,10.8,40.6,20.3l2.1,1.7c-0.8-3.5-1.8-7-3-10.3
				c-2.2-5.7-4.9-11.3-8-16.5l-1.8-3.2l3.7,1.2c0.2,0.1,0.5,0.2,0.7,0.2c6.4,2.2,12.4,5.4,17.8,9.5c7.3,5.3,13.4,12.1,18.1,19.9
				c3,5.1,5.4,10.6,7.1,16.3l2.4,1.4c6.2,3.8,16.8,11.7,18.9,22.4c3.9,20.4-7,51.3-9.2,57.3l-0.2,0.6l-0.6,0.2c-1,0.4-2,0.7-2.9,1.1
				c-4.9,2.5-9.4,5.6-13.7,9c6.9-3.5,13.4-6.1,14.6-6.5c6.8-2.8,19.3-6.2,27.6,2.2l0,0c4.5,5.1,6.2,12.8,4.9,23
				c-1.1,8-3.3,15.8-6.6,23.2c-5.1,11.2-10.3,18.4-15.9,21.9l-0.2,0.1c-2.7,0.9-5.5,1.1-8.3,0.4c-5.1-1.1-10.2-2.6-15.1-4.5
				l-0.2-0.1c-1.1-0.5-2.1-1-3-1.4l0,0l-0.4,0.8c-5.3,10.1-11.7,19.6-18.8,28.4l-3.6,4.6l1.2-5.9c0-0.1,0.1-0.3,0.1-0.4
				c0.3-1.4,0.4-2.9,0.4-4.3c0-1.5-0.1-2.9-0.4-4.3c-0.3-1.4-0.7-2.8-1.3-4.2l0-0.1c-0.1-0.3-0.3-0.6-0.4-0.9
				c-0.1-0.1-0.1-0.2-0.2-0.4c-0.1-0.2-0.2-0.4-0.3-0.6l-0.2-0.3c-0.3-0.5-0.6-1.1-1-1.6c-0.8-1.2-1.9-2.3-3.1-3.2
				c-1.2-0.9-2.5-1.6-3.9-2.1c-2.8-0.9-5.8-1.2-8.7-0.7c-2.9,0.4-5.7,1.1-8.4,2.2c-1.3,0.5-2.6,1.1-3.9,1.7c-0.8,0.4-1.4,0.7-1.9,1
				l-0.9,0.5c-0.3,0.2-0.6,0.4-0.9,0.5c-2.7,1.5-5.4,3.1-8.2,4.7c3.1-0.9,6-2.1,8.8-3.7c0.3-0.2,0.6-0.4,0.9-0.5l0.9-0.5
				c0.5-0.3,1.1-0.6,1.8-1c1.3-0.6,2.6-1.2,3.8-1.7c2.6-1,5.3-1.7,8.1-2.1c2.7-0.4,5.5-0.2,8.2,0.7c3.1,1.1,5.6,3.4,7.2,6.2l0.2,0.3
				c0.1,0.2,0.2,0.4,0.3,0.6c0,0.1,0.1,0.2,0.1,0.3c0.2,0.3,0.3,0.7,0.4,1c0.5,1.3,0.9,2.6,1.2,3.9c0.3,1.4,0.4,2.7,0.4,4.1
				c0,1.4-0.1,2.8-0.4,4.1c-0.5,2.7-1.4,5.4-2.6,7.9c-0.6,1.3-1.3,2.5-2,3.7c-0.1,0.1-0.2,0.2-0.2,0.3l-0.1,0.2l-0.1,0.2
				c-6.4,7.5-13.5,14.5-21.1,20.8c-2.3,1.7-16.7,5.9-34,8.5c-7.3,1.2-14.7,1.8-22.2,1.9c-7.9,0-13.6-1.1-16.2-3.3
				c-5.8-4.7-12-9.1-18.3-13.1c-3-6.5-8.3-17.9-9.8-21.2c-2.2-4.6-5.2-4.7-5.2-4.7l-5.7,0l-1.7,0c-1.7-11.3,7.1-20.6,7.2-20.7
				l0.5-0.5l-4.8-8.2l5.1,4.7c-4.8-9.3-8-19.3-9.6-29.7c-0.9-7.6,2.3-10.3,4.3-11.2c4.8-2.2,12.5,0.7,18.3,6.9
				c6.5,7,10.7,19.9,12.5,26.5c0.1-1.9-0.1-3.9-0.6-5.8c-1.8-7-7.2-24-18.6-29.8c-6-3.1-11.8-3.4-15.4-0.9
				c-3.2,2.2-4.5,6.4-3.8,12.2c0.3,2,0.6,4,1.1,6c1.8,6.3,4.2,12.5,7.3,18.3l-2.3,1.5c-2.5-3.2-5.2-6.4-7.3-8.9
				c-6.6-7.8-12.3-14.5-13.4-21.9l0-0.1c-0.5-7.6-0.3-15.2,0.6-22.8l0.1-1.1 M383,266.6c0.3-0.1,0.6-0.3,0.8-0.4l0.9-0.4
				c0.5-0.2,1-0.4,1.5-0.5l0.3-0.1l0.7-0.2c0,0,0.1,0,0.2,0l0.4,0l0.2,0c0.2,0,0.3,0,0.5,0c0.4,0,0.8,0,1.3,0c0.9,0,1.8,0.2,2.6,0.4
				c0.8,0.2,1.5,0.5,2.2,1c0.2,0.1,0.3,0.3,0.4,0.5l0.6,0.5v0l0.1,0.1l-0.4,0.8c-0.2,0.7-0.5,1.4-1,2c-1.2,1.4-2.6,2.6-4.1,3.6
				c-1,0.7-2.1,1.4-3,1.9l-1.5,0.9l-2.3,1.3l-0.1,1.1c0,0.1,0,0.2,0,0.3l0,0.5c0,0.5,0,1.2,0.1,1.9c0.1,1.2,0.4,2.5,0.7,3.7
				c0.3,1.2,0.8,2.3,1.4,3.4c0.6,1.1,1.3,2,2.2,2.8c-1.4-1.9-2.3-4.2-2.7-6.5c-0.2-1.2-0.3-2.3-0.4-3.5c0-0.7,0-1.2,0-1.8
				c0-0.2,0.1-0.5,0.2-0.7l0,0c0-0.1,0.1-0.1,0.1-0.1c0.2-0.2,0.5-0.4,0.8-0.5l0.7-0.4c0.4-0.2,0.8-0.4,1.2-0.6l0.4-0.2
				c1.2-0.7,2.2-1.3,3.1-1.9c1.7-1.1,3.2-2.4,4.5-3.9c0.1-0.1,0.2-0.3,0.3-0.4c0.1-0.1,0.1-0.2,0.2-0.3l0.1-0.1
				c0-0.1,0.1-0.1,0.1-0.2l0.4-0.8c0,0,0-0.1,0.1-0.2s0-0.1,0.1-0.2l0.2-0.5c0,0,0-0.1,0-0.2l0-0.3c0-0.1,0-0.2,0-0.3
				c0-0.2,0-0.4,0-0.5l0-0.2c0-0.1,0-0.1,0-0.2c-0.1-0.2-0.1-0.4-0.2-0.5c-0.2-0.5-0.6-1-1.1-1.4c-0.9-0.7-1.9-1.2-2.9-1.4
				c-1-0.3-2-0.4-3-0.4c-0.6,0-1,0-1.5,0h-0.1c-0.1,0-0.3,0-0.4,0l-0.3,0l-2.6,0.3l1-2.4l0.7-1.5c1.1-2.1,2.4-4.1,3.9-6
				c2.9-3.8,6.7-6.8,10.9-9c2.1-1,4.3-1.7,6.6-2.1c1.1-0.2,2.2-0.2,3.4-0.1c0.3,0,0.6,0.1,0.9,0.1l0.1,0c0.1,0,0.3,0,0.4,0.1
				l0.3,0.1c0.5,0.1,1,0.4,1.4,0.7l0.1,0c0.9,0.7,1.6,1.7,1.9,2.8c0.4,1.1,0.5,2.3,0.6,3.5c0.2-1.2,0.2-2.4,0-3.6
				c-0.2-1.3-0.8-2.5-1.7-3.4c-0.5-0.4-1-0.8-1.6-1.1l-0.6-0.2c-0.1,0-0.1,0-0.2-0.1l-0.2-0.1c-0.3-0.1-0.6-0.2-0.9-0.2
				c-1.3-0.2-2.6-0.3-3.9-0.2c-2.5,0.2-5,0.9-7.2,2.1c-4.5,2.2-8.4,5.5-11.5,9.4c-1.5,2-2.9,4.1-4,6.3c-0.1,0.2-0.2,0.4-0.3,0.5
				l-0.6,1.2l-0.7,1.7c-0.2,0.5-0.4,0.9-0.5,1.4v0l-1.1,3.3L383,266.6z M248.9,315.2c-0.8,2-0.6,4.3,0.7,6.1
				c0.2,0.3,0.4,0.6,0.7,0.8c-0.7-1.1-1.1-2.3-1.2-3.6c-0.1-1.7,0.5-3.4,1.7-4.6c2.7-2.4,6.1-3.9,9.7-4.2c5.8-0.7,11.7-0.5,17.4,0.6
				c-3.4-1.2-7-1.9-10.5-2.2C263.8,308,252.3,307.8,248.9,315.2 M277.9,319.9c1.3,0,2.5,0.4,3.6,1.1c0.3,0.1,0.7,0.1,1,0
				c0.2-0.1,0.4-0.2,0.6-0.4c-0.4-0.3-0.8-0.5-1.3-0.6C280.5,319.5,279.2,319.5,277.9,319.9 M328.5,266.5c5.3,7.9,6.4,19,3.3,32.4
				c1.2-1.4,1.7-3.5,2.7-7.5c0.7-3,3.8-18.6-4-29.3c-4.5-6.1-11.8-9.6-21.8-10.3c-10.5-0.8-18.1,1.8-22.6,7.7
				c-6.4,8.4-4.6,21.6-2.7,26.6c0.3,0.7,0.5,1.4,0.8,2c-1.8-11.2-0.2-20.4,4.9-26.4c4-4.6,9.8-7.1,15.9-6.9c1.1,0,2.2,0.1,3.3,0.2
				C316.3,255.5,323.8,259.8,328.5,266.5 M317.8,304.6c2.5-7.2,2-15-1.3-21.8c-2.6-4.9-10.8-6.6-16.6-5.1l0,0
				c-2.5,0.5-4.7,2.1-5.9,4.4c-2.4,6.6,1.7,19,2.8,22.1C303.8,305.5,310.9,305.6,317.8,304.6 M246.9,304.6c-0.7-5.5-3.1-18-7.3-21.6
				c-2.1-1.7-4.9-2.3-7.6-1.8c-2.9,0.4-4.1,1.1-4.1,4.7c0,5.9,2.1,11.9,7.1,20.6C239.1,307.1,243.2,306.4,246.9,304.6"/>
			<path id="Trazado_4103" class="st3" d="M215.4,328c-1.8-8.2,5.4-18.9,12-21c9.2,13.9,20.1,8.1,23.3,6.9c8.7-5.4,22-6.6,34.3-1.2
				c7.1,3.2,14.8,4.9,22.6,5.1c0,0,26.8-14,34-14c7.1,0,14.2,7,14.5,20.6c0.3,13.5-23.9,34.6-28.7,36.4c-21,7.9-51.8,12.6-64.8,8.6
				c-4.1-1.2-15.5-8.6-21.5-13.4C229.6,349.9,220.6,340,215.4,328"/>
			<path id="Trazado_4104" class="st4" d="M319.1,305.7c-7.4,1.4-22.9-0.3-22.9-0.3s-5.9-0.5-8.6-9.5c-2.7-9.1-8.7-35.3,10.1-39.6
				c18.8-4.3,32.6,3.7,35.4,20s-3.3,26-3.3,26C326.5,304,322.8,305.2,319.1,305.7"/>
			<path id="Trazado_4105" class="st4" d="M234.4,307.7c-0.3,0-5.5-2-5.5-2s-14.6-22.9-13.2-35.8s18.2-12.4,26.1,0.3
				c5.9,9.5,8.4,23.1,9.3,29.3c0.3,2-0.5,4-2,5.3l-0.4,0.4C248.6,305.2,234.7,307.8,234.4,307.7"/>
			<path id="Trazado_4106" class="st5" d="M317.4,304l-0.3,0c-2.7,0.4-5.4,0.6-8.2,0.6c-3.7,0-7.4-0.3-11.1-1l-0.3,0l-0.1-0.3
				c-1.3-3.7-2.2-7.6-2.9-11.5l0-0.1l0.1-0.1c0.9-1.6,2.4-2.7,4.2-3.1l0.7-0.2l-0.1,0.7c-0.1,0.9,0,1.8,0.1,2.7c0.6,4.7,2.8,7,6.7,7
				c1.4,0.1,2.9-0.4,3.9-1.4c1.1-1.7,1.4-3.7,0.9-5.6c-0.1-1-0.3-2-0.7-2.9l-0.3-0.8l0.8,0.2c3,0.3,5.8,1.8,7.8,4.2l0.1,0.1v0.1
				c0.2,3.7-0.3,7.5-1.3,11L317.4,304z"/>
			<path id="Trazado_4107" class="st6" d="M296.5,298.2c0,0-0.4-2.8,1.5-3.1c1.8-0.3,3.4,2.1,3.4,2.1l9.9-0.6
				c1.2-1.7,3.5-2.2,5.2-1.1c1.2,0.8,1.9,2.2,1.6,3.7c-0.3,1.2-0.9,4.7-0.9,4.7c-6.5,0.9-13.1,0.8-19.5-0.4
				C296.9,301.9,296.5,300.1,296.5,298.2"/>
			<path id="Trazado_4108" class="st5" d="M241.8,305.5c-2.2,0.5-4.6,0.7-6.9,0.6h-0.2l-0.1-0.2c-1.7-3.5-3.1-7.1-4.4-10.7l0-0.1
				v-0.1c0.1-1.4,0.7-2.7,1.8-3.6l2.8-0.9l0.3,2.5c0.2,0.9,0.4,1.7,0.7,2.6c1.5,4.5,2.8,6.4,5.1,5.8c1.1-0.3,1.1-0.7,1.4-1.7
				c0.2-1.9,0-3.8-0.7-5.6c-0.3-0.9-0.7-1.8-1.1-2.7l-0.4-0.7l1.2-0.2c2.5,0.2,2.3,0.1,3.5,1.8l0.1,0.1l0,0.1
				c1,3.6,1.6,7.2,1.8,10.9l0,0.3l-0.2,0.1C245,304.5,243.4,305.1,241.8,305.5"/>
			<path id="Trazado_4109" class="st6" d="M234.5,306.4c-0.8-1.7-1.3-3.5-1.4-5.4c0,0-1.2-2.8,0.8-3.5c1.5-0.5,2.9,1.4,2.9,1.4
				l6.2-1.4c0,0-0.5-1.8,0.8-1.8c0.8,0,1.3,2.1,1.5,3.3s1,5,1,5C242.6,305.8,238.5,306.6,234.5,306.4"/>
			<path id="Trazado_4110" class="st3" d="M405.2,306.3c-8.8,2-25.4-6.8-29.8-11.3c-8.6-15.2-0.4-33.5-0.4-33.5
				c-2.4,2.2-4.5,4.7-6.2,7.5c2-16.2,9.2-24.1,9.2-24.1l9.4-5.2c10.1-9.6,39.3-14.6,43.6,8.5C435.2,271.3,414,304.3,405.2,306.3"/>
			<path id="Trazado_4111" class="st7" d="M204.5,285c1.7-2.5,20.9,18.6,18.9,21.2C215.7,316.5,202.8,287.5,204.5,285"/>
			<path id="Trazado_4112" class="st8" d="M217.2,356.4l0.1-0.7l14.1-6l0.6,0.5c3.6,2.8,7.3,5.3,11.2,7.6l3.6,2.8
				c3.7,2.5,7.1,5.1,10.6,7.9c2.9,2,6.3,3.1,9.9,3.3l0.9,0.1l0.2,0.9c0.3,1.7,1.2,3.2,2.4,4.3c3,2.3,6.7,3.3,10.4,3
				c0.8,0,1.5,0,2.4-0.1c12.7-0.8,23-8.8,26.9-12.2l0.2-0.2l0.3-0.1c11.1-2.5,34.1-18.2,43.3-28.4l0.6-0.7l0.9,0.4
				c0.4,0.2,40.6,17.6,47,25.8c1.8,2.5,2.5,5.6,1.7,8.6l-0.3,1.8l-1.6-0.9l-1.2-0.7l-1-0.5c0,0-7.4-5-9.8-4.6
				c-4.3,0.9-8.4,2.4-12.1,4.7c-3.7,2.2-7.1,4.9-10.1,8l-1.1,1.2l-1.5,1.9l-1.4,2c-1.2,1.8-2.2,3.8-3,5.8c-1.6,4-2.3,8.2-2.1,12.5
				l0,0.8l-0.7,0.4c-0.2,0.1-0.5,0.3-0.7,0.4l-1.2,0.6l-0.6-0.5c-5.8-4.3-11.2-9.2-16.1-14.5c2.2,3.1,4.6,6,7.2,8.9
				c2,2.3,4,4.3,6,6.2l1.2,1.2l-1.4,0.9c-0.9,0.6-1.8,1.1-2.7,1.7c-1.8,1.2-3.6,2.5-5.3,3.8c-1.8,1.4-3.3,2.6-4.6,3.8l-0.6,0.5
				l-0.9-0.3c-0.8-0.3-1.9-0.8-3.1-1.4c-3.8-1.8-9.5-4.5-15.2-3.6l-0.4,0.1l-0.4-0.2c-0.2-0.1-0.9-0.4-1.8-0.8l-1.5-0.6l9.1-14.3
				l0-0.3c0.6-4.6-2-9.1-6.4-10.8c-4.1-2.1-9.1-1.5-12.5,1.6l-0.1,0.1l-18.7,29.5l-0.4,0.1c-8.2,2.7-13.1,4.5-14.2,5.6
				c-1.5,1.5-7,12.3-11.7,22.3l-1.5,3.2l-0.9-3.4c-0.2-0.7-0.4-1.5-0.6-2.2c-0.5-2.1-1.1-4.3-1.6-6.7c-0.9-3.9-1.7-8.1-2.7-13.6
				c-1.5-9.1-2.5-18.2-2.9-27.4c0-0.4,0-0.7-0.1-1.1c0-0.8-0.1-1.6-0.2-2.4c-0.1-1.1-0.3-2.3-0.5-3.5c-0.1-0.7-0.2-1.4-0.4-2.1
				c-0.2,0.7-0.3,1.4-0.4,2.1c-0.2,1.2-0.3,2.4-0.3,3.5c-0.1,1.2-0.1,2.3,0,3.5c0,0.6,0.1,1.1,0.1,1.7l0.1,1.2l-8.1,5.7l-0.5-0.1
				c-2.9-0.5-13.1-3.6-21.3-22.5C216.4,373.6,215.5,364.8,217.2,356.4"/>
			<path id="Trazado_4113" class="st9" d="M275.6,372.1c7.3-0.1,14.6-0.8,21.8-2c1-0.1,1.9-0.3,2.9-0.5l6.8-1.2l-6,3.5
				c-5.3,3.3-11.4,5.3-17.7,5.9c-0.8,0.1-1.5,0.1-2.3,0.1c-3.2,0.3-6.4-0.6-9-2.5c-0.5-0.4-0.9-1-1.2-1.6l-1-1.9L275.6,372.1z"/>
			<path id="Trazado_4114" class="st10" d="M372.3,399.4l-10-7.3l-1.6,13.5L372.3,399.4z"/>
			<path id="Trazado_4115" class="st2" d="M124.4,415.1c1.1-12.2,9.2-26,20.2-34.4c7.2-5.5,18.7-9.7,33.1-12.1
				c6.6-1.1,13.3-1.8,20-2h0.2l16.7-7.8l-0.2,2.2c-0.7,7.3,0.5,14.6,3.4,21.3c1.3,3,2.8,5.9,4.5,8.7l0.8,1.2l-1.3,0.6
				c-1.3,0.6-3.2,1.5-5.1,2.5l-0.3,0.2l-0.1,0.4c-1.4,3.6-3.2,7.1-5.3,10.3l-0.8,1.3l-1.1-1.1c-2.3-2.2-4.9-4-7.8-5.4
				c-5.6-2.4-15.9-1.8-29.9,1.8c-6.7,1.7-13.4,3.8-19.9,6.2l0.4,1.2l-6.1-1.6l-1.9,3.9l-8.7-0.5l-0.3,6.9l-4.7,3.3l2.5,8.6l-3.6,1
				l-0.5-0.7C125.1,426.8,123.6,420.9,124.4,415.1"/>
			<path id="Trazado_4116" class="st2" d="M345.4,415.1c1.7-1.3,3.5-2.5,5.3-3.7c3.6-2.4,7.4-4.5,11.3-6.3c3.9-1.8,8-3.3,12.2-4.3
				c4.2-1,8.5-1.4,12.8-1.1c2.4,0.2,4.7,0.4,6.7,0.7c-2.1-0.9-4.4-1.5-6.7-1.7c-3.6-0.2-7.3,0-10.9,0.7l-3.3,0.6l1.6-2.1l-10.2-7.8
				l0.5-1c0.4-0.7,0.8-1.4,1.2-2l1.3-1.9l1.5-1.8l1.1-1.2c2.9-3,6.1-5.6,9.7-7.7c3-1.8,6.3-3.2,9.8-4.1l0.4-0.1l0.4,0.2
				c3,1.3,29.4,13.8,47.5,35.1l0.4,0.4l-0.1,0.6c-1.6,16-8.7,30.9-20.1,42.1c-10.7,10.1-24.7,16.1-39.4,16.9l-1.3,0.1l-0.5-5.3
				l9-4.6l-5.5-4.3l8.5-4.4l-11.5-6.7l1.1-1.2c2-2.2,3.8-4.5,5.3-7.1l0.4-0.9l-0.9-0.2c-3.1-0.7-6.3-1-9.4-1.1l-2.8-0.1l4.4-4.7
				l-1.4-0.3c-3.7-0.7-7.4-0.9-11.1-0.7l-1.3,0.1l0-1.3c0-1.2-0.2-2.5-0.4-3.7l-0.1-0.6h-0.6c-2.7,0-5.4,0.3-8.1,0.9l-1.2,0.3
				l-0.4-1.2c0-0.1-0.1-0.2-0.1-0.3l-0.4-0.7l-5.1,2.7l-4.1-1.6l1.7-1.4C343.3,416.7,344.3,415.9,345.4,415.1"/>
			<path id="Trazado_4117" class="st3" d="M226.9,439c0.3-2.5-1.8-8.3-5.3-14.9l-2.2-4l3.9,2.3c2.2,1.4,4.5,2.5,7,3.3
				c3.7,1.3,6.3,4.7,6.7,8.6c0.1,3.5-2.1,6.7-5.5,7.8c-1.2,0.5-2.5,0.9-3.8,1.1l-2,0.4l0.6-2C226.6,440.7,226.8,439.8,226.9,439"/>
			<path id="Trazado_4118" class="st3" d="M134.2,440.8l-4.7-7.3l4.8-1.4l-2.7-9.1l4.4-3.1l0.3-6.1l8.2,0.5l1.9-3.6l4,1l0.7-2.7
				l1.1,2.7c7.5-2.8,15.1-5.1,22.9-7c11.9-2.8,20.3-3.1,25-1.1c12.6,5.4,24.9,30.2,24.4,34.9c-0.7,5.3-6.1,16.9-10.5,17.3
				c-2.4,0.2-4.8,0.2-7.2,0.2l-1.8-0.1l0.7-1.7c0.3-0.8,0.6-1.6,0.9-2.4c0.9-2.6,1.6-5.2,2.2-7.9c0.3-1.4,0.5-2.7,0.6-4.1
				c0.1-0.7,0-1.4,0-2.2l-0.1-0.6c0-0.1,0-0.2-0.1-0.3l0-0.2c0-0.1-0.1-0.3-0.1-0.4c-0.1-0.2-0.1-0.4-0.2-0.6l-0.1-0.3
				c-0.2-0.6-0.4-1.2-0.6-1.7l-0.4-0.9l-0.4-1c-0.2-0.6-0.5-1.2-0.8-1.9c-0.3-0.6-0.6-1.2-0.9-1.8c-1.6-3.2-3.4-6.3-5.6-9.1
				c1.1,3.4,2.5,6.7,4,9.8c1.2,2.4,2.2,4.8,3.1,7.3c0.1,0.2,0.1,0.4,0.2,0.6c0,0.1,0,0.2,0.1,0.2l0,0.2c0,0.1,0.1,0.2,0.1,0.3
				l0.1,0.5c0,0.6,0,1.2,0,1.8c-0.1,1.3-0.3,2.6-0.5,3.9c-0.5,2.6-1.2,5.1-2.1,7.6c-0.9,2.5-1.9,4.9-3.2,7.2
				c-0.6,1.1-1.3,2.2-2.2,3.2c-0.4,0.4-0.8,0.8-1.3,1.1c-0.5,0.3-1.1,0.5-1.6,0.6c-1.3,0.3-2.5,0.5-3.8,0.6
				c-1.1,0.1-2.2,0.1-3.2,0.1h-0.7c-2.6,0-5.2-0.4-7.8-1c-1.2-0.3-2.4-0.8-3.5-1.4c-0.5-0.3-1-0.7-1.4-1.1l-0.1-0.1
				c-0.2-0.2-0.4-0.5-0.6-0.7l-0.5-0.8l0.6-0.7c0.6-0.8,1.3-1.7,2-2.9c0.9-1.4,1.7-2.8,2.4-4.3c0.8-1.7,1.5-3.1,2-4.5
				c0.2-0.4,0.3-0.9,0.5-1.4c0.1-0.2,0.1-0.4,0.2-0.6l0.1-0.2c0.1-0.2,0.1-0.4,0.1-0.6c0-0.1,0-0.3,0-0.4l-0.1-1.1
				c0-0.5-0.1-0.9-0.1-1.4c-0.2-1.7-0.4-3.5-0.7-5.4c-0.3-1.9-0.6-3.8-1.1-5.7c0,1.9,0,3.8,0.1,5.8c0,1.7,0.1,3.4,0.2,5.4
				c0,0.5,0,0.9,0,1.3l0,0.4v0.5l0,0.2c0,0,0,0.1,0,0.1c0,0.1-0.1,0.3-0.1,0.4l0,0.1c-0.1,0.2-0.1,0.4-0.2,0.6
				c-0.1,0.4-0.3,0.8-0.4,1.2l0,0.1c-0.5,1.3-1.2,2.8-2,4.4c-0.7,1.5-1.5,2.9-2.4,4.2c-0.8,1.4-1.8,2.6-2.8,3.8
				c-0.2,0.2-0.3,0.3-0.5,0.5c-0.1,0.1-0.2,0.2-0.3,0.3l0,0c-0.2,0.2-0.3,0.3-0.5,0.4c-0.1,0.1-0.2,0.2-0.3,0.2l-0.1,0.1
				c-0.6,0.4-1.2,0.8-1.9,1c-1.5,0.5-3,0.7-4.5,0.7c-1.6,0-3.2-0.1-4.7-0.3c-1.6-0.2-3.1-0.6-4.5-1.2c-0.3-0.1-0.7-0.3-1-0.5
				c-0.3-0.1-0.5-0.3-0.8-0.5c-0.1-0.1-0.2-0.2-0.3-0.4l-0.1-0.1l-0.1-0.3c-0.1-0.2-0.2-0.4-0.3-0.7c0-0.1,0-0.1-0.1-0.2l0-0.1
				c-0.2-0.8-0.3-1.6-0.3-2.4v-0.1c0-0.8,0-1.7,0.1-2.5c0-0.3,0.1-0.6,0.1-0.8c0-0.1,0-0.3,0.1-0.4l0-0.1c0-0.1,0.1-0.3,0.1-0.4
				c0-0.2,0.1-0.5,0.2-0.8c0.2-0.8,0.4-1.6,0.8-2.4l0.3-0.5l0.6-0.9l0-0.8l0-3.2c0-0.2,0-0.5,0-0.7l-1.1-0.2
				c-1.3-0.2-2.5-0.6-3.7-1.3c1,1.2,2.2,2.1,3.6,2.7l0.9,0.4l-0.5,3l-0.3,0.2l0,0l-0.1,0.1l-0.1,0.1l-0.4,0.6
				c-0.5,0.8-0.9,1.7-1.2,2.5l0,0.1c0,0,0,0.1,0,0.1l-0.4,1.1l-1-0.1c-7.5-0.5-12.6-2.2-15-5.2c-1-1.1-1.5-2.5-1.4-4L134.2,440.8z"
				/>
			<path id="Trazado_4119" class="st3" d="M274.6,425.4l0.1-0.2l0.2-0.1c6.3-2.7,12.8-5,19.4-6.9c6.1-2,9.9-3.2,11.3-3.9
				c5.2-2.3,12.1,1,12.6,1.2l1.3,0.5l0.4-0.1c5.2-1.1,10.4,1.4,14.3,3.3c1.3,0.6,2.3,1.1,3.3,1.5c1.1,0.4,3,1.1,5.7,2.1l5.4-2.9
				l-0.3,2.6l1.3-0.7c2.6-1,5.3-1.6,8.1-1.6l1.2-0.1l0.1,1.2c0.2,1.2,0.2,2.4-0.1,3.6l-0.4,1.2l1.2-0.2c3-0.4,6.1-0.4,9.1-0.1
				l2.6,0.3l-5,5.3l1.8,0c3.6,0,7.2,0.2,10.7,0.6l2.1,0.3l-1.3,1.8c-1.6,2.1-3.3,4.1-5.1,6l-0.7,0.7l10.8,6.2l-8.2,4.2l5.5,4.3
				l-7.7,4l0.3,3.5l-0.8,0.4c-1.5,0.8-3,1.5-4.5,2.2c-0.1,0.1-3,1.3-4,1.8c-3.2,1.4-6.4,2.5-9.8,3.4c-1.6,0.4-3.3,0.8-5,1
				c-1.6,0.2-3.3,0.2-4.9-0.1c-0.1,0-0.3-0.1-0.5-0.1l-0.9-0.2c-0.4-0.1-0.8-0.2-1.2-0.3c-0.9-0.3-1.7-0.5-2.5-0.7
				c-1.6-0.5-3.3-1.1-4.9-1.7c-2.1-0.8-4.4-1.4-6.6-1.7c0.9,0.7,1.8,1.3,2.8,1.9l2.1,1.2l-2.2,1.1c-1.6,0.8-3,1.5-4.4,2.1
				c-1.5,0.7-2.7,1.2-3.8,1.6c-0.8,0.3-1.4,0.5-1.9,0.6s-1.2,0.3-1.9,0.5h0c-0.8,0.2-1.6,0.2-2.4,0.2c-0.5,0-1,0-1.5-0.1
				c-1.3-0.2-2.6-0.5-3.9-1c-1.3-0.5-2.5-1.1-3.7-1.7c-0.4-0.2-0.8-0.4-1.2-0.6l-0.6-0.4l-1.6-0.9c-0.1,0-0.2-0.1-0.2-0.2l-0.1-0.1
				c0,0-0.1,0-0.1-0.1c-0.2-0.1-0.4-0.3-0.5-0.4l-0.3-0.3l-0.1-0.1c0,0-0.1-0.1-0.1-0.1l-0.2-0.3c0-0.1-0.1-0.2-0.1-0.2
				c0-0.1-0.1-0.1-0.1-0.2l-0.1-0.1c0-0.1-0.1-0.2-0.1-0.4l0-0.1c-0.1-0.2-0.1-0.3-0.1-0.5c-0.2-1.2-0.1-2.5,0.2-3.7
				c0.7-2.6,1.8-5.2,3.2-7.5c2.8-4.8,6.1-9.3,9.7-13.6l1.4-1.7c0.1-0.2,0.3-0.3,0.4-0.5c0.3-0.4,0.6-0.7,0.9-1.1
				c0.9-1,1.9-1.9,3.1-2.6c0.6-0.4,1.3-0.6,1.9-0.8l0.1,0l0.4-0.1c-0.1,0-0.2,0-0.3,0c-0.7-0.1-1.5,0-2.2,0.2
				c-1.5,0.4-2.8,1.2-4,2.2c-0.5,0.4-1,0.9-1.5,1.4l-0.1,0.1c-0.4,0.5-0.9,1-1.4,1.6c-3.7,4.3-7,9-9.9,13.9c-1.5,2.5-2.6,5.2-3.4,8
				c-0.4,1.5-0.5,3-0.2,4.5l0.4,2.3l-2.2-0.9c-0.5-0.2-0.9-0.4-1.3-0.6c-2.1-1-4.1-2.3-5.9-3.7c-1-0.7-1.9-1.5-2.7-2.2
				c-0.9-0.8-1.7-1.6-2.4-2.5c-0.4-0.4-0.7-0.9-1-1.4c-0.2-0.4-0.3-0.9-0.4-1.3c-0.1-1.1,0.1-2.2,0.4-3.2c0.3-1.1,0.8-2.1,1.3-3.2
				c0.5-1.1,1.2-2.2,1.7-3.1c1.1-1.8,2.4-3.7,4-5.9c2.9-3.9,6-7.7,8.9-11.1c2-2.4,3.9-5,5.4-7.7c-2.5,2-4.8,4.2-6.8,6.6
				c-2.1,2.5-3.8,4.6-5.4,6.6l-0.2,0.3l-4.9,1.6L290,440c-0.1,0.1-6.2,9.9-14.3,14.5c-3.7,2.1-8.1,2.7-12.2,1.6
				c-1-0.2-1.9-0.8-2.7-1.5l-0.5-0.6l0.3-0.7C262.7,448.3,272.7,428,274.6,425.4"/>
			<path id="Trazado_4120" class="st8" d="M264.7,459l0.8,0.1c0.8,0.1,1.5,0.2,2.3,0.2c3.3,0,6.6-0.9,9.5-2.5c2.1-1.3,4.1-2.7,6-4.4
				l4-3.6l-1.9,5c-0.2,0.5-0.3,0.9-0.4,1.3c-0.2,0.8-0.4,1.5-0.5,2.3l-0.2,2.1l-0.7-0.5l-10.9,17.3l-13.6,7.4l-0.8-14.1L264.7,459z"
				/>
			<path id="Trazado_4121" class="st8" d="M308.7,389.7c0.8-0.6,1.6-1.1,2.5-1.4c2.3-0.7,4.7-0.6,6.9,0.5c3.1,1.2,5,4.2,4.9,7.4
				l0,0.3l-9.3,14.6l-0.8-0.1c-2.7-0.5-5.5-0.2-8,0.8c-1.3,0.6-5.2,1.9-9.8,3.3l-3.4,1.1l16.9-26.6L308.7,389.7z"/>
			<path id="Trazado_4122" class="st9" d="M375.5,492.4l1.8,0.9c6.3,2.9,22,10.3,31.7,15l0.3,0.1l0.3-0.1c1.2-0.4,2.4-0.8,3.7-1.3
				l13.8-4.9l-6.2,1.6l6.3-4.2c4.6-3.1,8.9-6.6,13-10.3c1.3-1.2,2.6-2.4,3.9-3.6l0.7-0.7l11.8,6.8l0,0l0.7,0.4l2.5,1.4l-2.1,0.6
				l-0.2,1.3l-0.5,0.3l0.4-0.1l4.5,2l-3.7,4l-6.5,3l6.7-1.5l1.3,1.9l-0.8,7.6l-54.5,16.1L404,529l-28.6-16.8L375.5,492.4z"/>
			<path id="Trazado_4123" class="st9" d="M409.9,506.5l-0.5,0.2l-0.5-0.2c-9.1-4.4-22.7-10.7-30-14.2l-2.4-1.1l2.3-1.2
				c6.3-3.3,22.1-12.4,32.2-25.4l0.6-0.7l0.9,0.3c10,3.1,29.1,8.6,36.9,10.8l2,0.6l-1.4,1.5C443.9,484,427.8,500.6,409.9,506.5"/>
			<path id="Trazado_4124" class="st11" d="M288,466.2c0.9,0.9,1.9,1.7,2.9,2.4c2,1.5,4.2,2.9,6.4,4c1.2,0.6,2.4,1.1,3.7,1.4
				c1.2,0.3,2.4,0.5,3.6,0.5l0.2,0.1l0.9,0.5c0.6,0.3,1.3,0.7,1.9,1c1.3,0.7,2.7,1.3,4.1,1.8c1.5,0.6,3,1,4.6,1.2
				c0.4,0,0.7,0.1,1.1,0.1l-34.6,40.7l-125.2-13.7c4.2-1.2,8.7-2.5,11.3-3.4c5.9-2.2,60.8-41,69.9-47.5l20.7,2.7
				c0.3,0.2,0.6,0.4,0.9,0.6l-6.2,9.7l1,16.8l-1.8,3c-0.8,1.2-0.5,2.8,0.6,3.6c1.2,0.8,2.8,0.5,3.6-0.6c0.1-0.1,0.1-0.2,0.2-0.3
				l2-3.4l15.5-8.4l10-15.7C286.1,464.4,287,465.3,288,466.2"/>
			<path id="Trazado_4125" class="st11" d="M206.9,516l77.6,8.5l35-41.2h6.4l-15.7,46.3H181l5.5-8.8L206.9,516z"/>
			<path id="Trazado_4126" class="st11" d="M191.6,483.4c-12.5,8.5-22.2,15-24.2,15.7c-5.8,2.1-21.5,6.1-21.6,6.2l-11,2.8l59.7,6.5
				L111.8,534c-1.4-1.3-4.2-4-7.1-6.6c-2.4-2.1-4.3-3.8-5.7-4.9c-1.1-1.2-2.6-2-4.2-2.3c-4.2-1.9-33.2-19.9-53.9-33
				c23.1-2.6,108.5-12.1,140.5-16.5C186.3,476.6,189.9,481.1,191.6,483.4"/>
			<path id="Trazado_4127" class="st12" d="M378,244.9c0,0-7.1,7.9-9.2,24.1c1.9-2.6,4-5.1,6.2-7.5c0,0-9.7,21.8,3.6,38.3
				c-4.1,11.3-20.6,31-20.6,31s4.1-17-3-21.4c-7.1-4.4-25.2-2.8-25.2-2.8l0-4.4c4.7-6,6.6-13.6,5.5-21.1
				c-2.2-11.9-7.5-25.5-28.5-28.1c0,0-13.8-20.4-33.9-8.3c17.1-15.9,48.1-7.3,48.1-7.3s23.9,4.3,26.2,23.1c5.2-9.1,14.2-39,6.9-56.5
				c0.1,5.7-0.6,11.4-1.9,16.9c0,0-6-51.6-67.7-45.4c0,0-4.1-30.9-46.8-34.2c-32-2.5-57.5-18-66.3-39.3
				c18.4,13.7,24.8,19.6,48.7,20.1c23.9,0.5,55,1.2,67.5,7.2c7.4,2.1,14.6,4.7,21.6,7.7c-10-13.6-23.8-29.2-40.6-30.7
				c25.3-2.9,61.5,2.5,86,27.6l-14.6-32c0,0,44.4,25.2,50.3,84c1.4-9.9-0.8-24.6-0.8-24.6s21.4,10.5,3.6,72.1L378,244.9z"/>
			<path id="Trazado_4128" class="st12" d="M242.6,252.5c5.9,13,9.3,26.9,10.1,41.2c-5.9-15.7-11.5-29.8-29.3-34.2
				c1.9-1.7-6-14.2-19-17.4C222.1,242.4,242.5,252.5,242.6,252.5"/>
			<path id="Trazado_4129" class="st13" d="M169.6,100.2c0,0,1.7,72.1,48.1,98c-10.2-11.7-16.3-26.4-17.3-41.9
				c14.3,2.5,27.8,8.6,39,17.9c-3.5-7.6-8.6-14.4-14.9-20.1c0,0,21,10,24.2,28.3c-10.1-3.8-20.5-7.1-31-9.7c0,0,6,13.5,29.1,35.5
				l1.1,11.5c0,0-47.3-9.5-71-44.1S169.6,100.2,169.6,100.2"/>
			<path id="Trazado_4130" class="st13" d="M212.1,206.8c0,0-6.8,39.1-4.9,58.9c0.6,6.1,4.9,13.7,10.5,21.4l5.6,11.7l-2.8-0.2
				c0,0-21.2-15.7-22.5-32.3c-1.3-16.6,1.6-40.6,9.3-61.6C208.9,205.5,212.1,206.8,212.1,206.8"/>
			<path id="Trazado_4131" class="st7" d="M405.2,306.3c-12.4,1.6-29.8-11.3-29.8-11.3c-2.1-3.9-3.3-8.1-3.6-12.5
				c0,0,4.1,5,11.6-2.6c7-6,16-9.3,13.6-13.3s-11.9-2.9-11.9-2.9s4.9-15.8,16.6-18.9c11.6-3.1,17.5-3,15.6,5.2l-1.9,8.2
				c0,0,6.9,5.6,13.7,1.8C428.2,273.1,417.6,304.6,405.2,306.3"/>
			<path id="Trazado_4132" class="st7" d="M281.5,325.2c-5.9,3.6-15.6,7.4-28-1.9c0,0-1.8-1.8-0.8-2.7c0.9-0.9,2.8,3.2,9.6,2.5
				c6.8-0.6,11.7-5.6,15.7-5S287.5,321.6,281.5,325.2"/>
			<path id="Trazado_4133" class="st14" d="M259,313.6c-10.9,1.1-6.9,9.2-6.9,9.2c-10.4-15.5,19.9-13.3,26.6-11.7
				c6.7,1.6,9.5,5.3,8,9.2C287.5,313.8,269.9,312.5,259,313.6"/>
			<path id="Trazado_4134" class="st14" d="M262.2,319.6c-4.7,0-8.5-1.8-8.5-4s3.8-4,8.5-4c4.7,0,8.5,1.8,8.5,4
				S266.9,319.6,262.2,319.6"/>
			<path id="Trazado_4135" class="st14" d="M371.5,257.4c0,0,25.5-23.8,41.6-20.7c16.1,3.2,16,13.5,16,13.5s-0.5-19-15.6-19.1
				c-15.1-0.1-35.6,13.8-35.6,13.8C375.1,248.7,372.9,252.9,371.5,257.4"/>
			<path id="Trazado_4136" class="st7" d="M337.3,325.2l0.5,12.2c0,0-3.6,8-16,12.6c4-3.5,7.4-7.7,9.9-12.4c0,0-13.7,11.9-39.4,10.7
				C307.1,346.2,322.9,340.9,337.3,325.2"/>
			<path id="Trazado_4137" class="st14" d="M244.4,340.1l6.8-5.1l3.8-4.6l-2.3,7.2c0,0,31.9,9.9,56.9,5.5
				C304.1,347,276.6,348.4,244.4,340.1"/>
			<path id="Trazado_4138" class="st13" d="M227.4,307.1l1.5-1.4l-6.2-5.3L227.4,307.1z"/>
			<path id="Trazado_4139" class="st14" d="M227.4,307.1c0,0-6.9,10.2-1.7,20.5c5.5,10.6,13.3,19.8,22.9,26.9c9.5,7,10.3,12.3,16,14
				c-3.5,0.6-9.2-4.3-13.5-6.1c-4.3-1.8-27-20.1-27.7-20.9S205.4,316.9,227.4,307.1"/>
			<path id="Trazado_4140" class="st10" d="M380.1,371.8c0,0-10-12-33.2-24.5c2.8-3,5.4-6.2,7.8-9.6c0,0,48.3,21.6,50.2,28.5
				c2,6.9,0,11.5,0,10.7C404.7,376,388.1,365.8,380.1,371.8"/>
			<path id="Trazado_4141" class="st10" d="M335.7,416.9c0,0,6.2-6.3,1.6-27.8c5.9,6.6,12.2,13,18.8,18.9l-18.3,12L335.7,416.9z"/>
			<path id="Trazado_4142" class="st10" d="M227.4,394.6c9.3-6.1,17.4-14,23.8-23.2c-0.8,9.7-1.3,17.1-1.3,17.1l-0.2,10l-9.2,7.1
				C240.5,405.6,231.2,402.7,227.4,394.6"/>
			<path id="Trazado_4143" class="st15" d="M360.7,395.7c-12.2-5.9-23.4-13.7-33.3-23c6.6,14.6,28.7,35.3,28.7,35.3l4.6-2.5V395.7z"
				/>
			<path id="Trazado_4144" class="st15" d="M216.5,368.5c6.1-6.1,13.3-10.9,21.2-14.2c-2.2-1.6-4.6-3-7-4.3l-14.4,5L216.5,368.5z"/>
			<path id="Trazado_4145" class="st15" d="M268.3,429.1c0,0-16.6-42.3-17.1-57.7c-1,13.3-1.3,19-1.3,19s3.3,45.8,9.5,59.6
				C262.1,444.4,268.3,429.1,268.3,429.1"/>
			<path id="Trazado_4146" class="st12" d="M389.2,370.1c0,0,20.9,8.8,42.8,30.8c-0.5,20.3-21.3,51.8-46.8,56.3
				c-2.1-1.3-4.1-2.9-5.7-4.7l7-5.7l-10.3-5.8c0,0,7.9-1.7,23.3-13c-3.9,1-7.8,1.3-11.8,1c11.2-5.1,20.6-13.2,27.3-23.5
				c-7.6-8-16.1-15.2-25.2-21.4c1.8,2.4,3.3,5.1,4.4,7.9c-8.6-7.1-18-14.2-18-14.2L389.2,370.1z"/>
			<path id="Trazado_4147" class="st12" d="M186.4,401.6c0,0,15.9,1.3,20.2,2.1c2-3.8,3.9-7.7,5.5-11.6l8-3.6l-3.8-9.9
				c-3.5,0.8-6.8,2-10.1,3.5c-2.3-2.9-5.2-5.4-8.5-7.2l2.2,5.7c-7.8,0.7-15.1,4.2-20.7,9.8c2.7-1,5.6-1.6,8.5-1.9l-8.5,13.9
				L186.4,401.6z"/>
			<path id="Trazado_4148" class="st13" d="M399.8,402.8c0,0-17.9,1.8-26.3,9.4c1.6-2.1,3.1-4.4,4.4-6.7
				c-7.1,3.3-13.8,7.5-19.8,12.6c-5.8,1.1-11.6,1.7-17.5,1.9c0,0,2.6-5.1,15.5-12C369,401.2,383.3,396.8,399.8,402.8"/>
			<path id="Trazado_4149" class="st13" d="M214.3,363.6l-16.5,7.8c0,0-32,0.9-43.7,17.1c-0.8-2-0.8-4.2,0-6.2
				c-4.9,2.7-7.8,8-7.4,13.6c-3.6-4-3.6-5.4-3.6-5.4c-1.2,6.9,0.7,13.9,5.1,19.2l-4.4,3.2l-8.7-0.5v8.4l-5,1.8l2.5,8.6l-3.1,2.4
				c0,0-17.3-14.3,3.1-41.5c20.4-27.2,65.2-26.2,65.2-26.2l17.8-8.6L214.3,363.6z"/>
			<path id="Trazado_4150" class="st7" d="M376.2,441.1c0,0-23.4,17.9-32.2,16.2c-8.8-1.7-10.3-3-10.3-3s-14.4,20.2-23.2,18.7
				c4.6,4.2,11.3,5.1,23.9-2.8c9.1,3,29.5,3.9,40.1-5.6c2-3.9,0.8-5.1,0.8-5.1l7.3-3.8l-5.4-4.4l9.1-4.2L376.2,441.1z"/>
			<path id="Trazado_4151" class="st7" d="M310.6,446.3c0,0-13.7,19.5-20.8,15.6c1,2.8,12.1,9.4,12.1,9.4S304.7,453.5,310.6,446.3"
				/>
			<path id="Trazado_4152" class="st7" d="M264.2,454.9c0,0,12.7-1.7,20.6-20.9c9.4-2.6,19-6,19-6l-7.4,10.4l-5.5,1.7
				C290.9,440.1,278.7,460.8,264.2,454.9"/>
			<path id="Trazado_4153" class="st7" d="M166.4,407.1c0,0,22.5-4.9,31.1,7c8.6,11.9,13.5,26.4,7.3,41.9c2.5,2.1,11.9,3,12.9-0.5
				c1-3.4,8.1-11.9,8.1-11.9s14.8-0.8,13.1-8.8s-22.5-17.3-22.5-17.3S205.9,389.2,166.4,407.1"/>
			<path id="Trazado_4154" class="st14" d="M182.3,445.2c0,0-3.1,16.4,6.5,17.7c-5.6,2.8-14.1-3.8-14.1-3.8L182.3,445.2z"/>
			<path id="Trazado_4155" class="st7" d="M146.5,434.9c0,0-1.6,4.6-11.2,5.1c-1.7,5.1,3.3,10.1,16,11.6c2.6-4.3,4.8-7.3,3.4-9.8
				C150.1,441.6,146.5,434.9,146.5,434.9"/>
			<path id="Trazado_4156" class="st14" d="M260.9,454.6c5.2-5.5,9.7-11.7,13.4-18.3c6-10.8,11.2-10.9,30.3-17
				c0,0,11.2-2.8,15.2-1.9c-5.1-3.3-8.4-6.2-19.3-2.7c-11,3.5-26.4,8.4-27.8,11.2C271.2,428.6,260.9,454.6,260.9,454.6"/>
			<path id="Trazado_4157" class="st14" d="M160.2,459.9c0,0-7.1-1.8,3.1-14.6c-3.5-7.5-2.8-19.6-2.8-19.6s-8.8,6.7-14.5,3.8
				c0,2.5,0.5,4.9,1.5,7.1l7.2,5.1l-0.8,5.3C154,447.1,149.3,462.9,160.2,459.9"/>
			<path id="Trazado_4158" class="st16" d="M409.3,529l-0.2-20.8l14.6-6.3l21.2-17l13.6,6.6l3,6l-3,5.8l1.3,1.9l-1.2,7.7L409.3,529z
				"/>
			<path id="Trazado_4159" class="st17" d="M179.2,502.9c2.9-0.5,5.6-2.2,8.6-2.2c1.3,0,2.7,0.4,3.8,1.2c1.1,0.8,1.8,2,3,2.8
				l-1.1,0.3c1.5-2.1,4.2-3,6.7-2.1c1.3,0.5,2.3,1.3,3.5,1.9c1.5,0.5,3,0.6,4.5,0.4c3.3-0.2,6.7-0.2,10,0c3.1,0.1,6.3,0.4,9.4,0.8
				c1.4,0.2,2.7,0.6,4,1.2c0.3,0.2,0.6,0.3,1,0.5c0.1,0.1,0.2,0.1,0.3,0.2c-0.2,0-0.1,0,0-0.1c0.4-0.5,0.9-0.8,1.5-1
				c1.2-0.2,2.4,0,3.4,0.6c1.2,0.6,2.5,1.7,3.9,1.4c0.6-0.1,1.2-0.5,1.9-0.7c0.7-0.1,1.4-0.1,2.1,0.1c0.6,0.2,1.3,0.4,1.9,0.5
				c0.8,0,1.5,0,2.3-0.3c2.5-0.4,4.2,1.3,6.3,2.2c0.5,0.2,1,0.3,1.5,0.3c0.7-0.2,1.3-0.5,2-0.9c1.7-0.4,3.4-0.3,5.1,0.2l11.2,1.6
				c1,0.1,0.6,1.6-0.4,1.5l-9.7-1.3c-1.5-0.3-3.1-0.5-4.7-0.6c-1.4,0-2.3,1.1-3.7,1.2c-2.2,0.1-3.8-1.7-5.7-2.3
				c-1.3-0.4-2.5,0.3-3.8,0.2c-1.3,0-2.5-0.9-3.8-0.8c-0.6,0.1-1.2,0.4-1.8,0.6c-0.7,0.2-1.4,0.2-2.1,0c-1.2-0.5-2.4-1.1-3.6-1.7
				c-0.5-0.2-1.1-0.3-1.7-0.3c-0.6,0.1-0.8,0.5-1.3,0.8c-1.1,0.9-2.4-0.4-3.4-0.8c-2.8-0.9-5.6-1.4-8.5-1.4
				c-3.2-0.3-6.5-0.5-9.7-0.4c-1.8,0-3.5,0.2-5.3,0.3c-1.6,0.1-3.2-0.3-4.6-1.1c-1.1-0.9-2.4-1.4-3.8-1.7c-1.4-0.1-2.7,0.6-3.5,1.7
				c-0.2,0.4-0.7,0.5-1.1,0.3c-1-0.7-1.9-1.6-2.7-2.5c-0.9-0.9-2.2-1.3-3.5-1.3c-2.8,0.1-5.3,1.7-8,2.1
				C178.7,504.5,178.3,503,179.2,502.9"/>
			<path id="Trazado_4160" class="st17" d="M191.1,494.4c1.9,0.5,3.9,0.3,5.6-0.6c0.7-0.6,1.7-0.6,2.5-0.2c0.5,0.4,1.1,0.5,1.7,0.5
				c2.6-0.1,5.3-2.1,7.9-0.9c0.7,0.4,1.3,0.9,1.6,1.6c0.4,0.7,0.8,1.6,1.6,1.8c0.9,0.2,1.8,0.1,2.6-0.3c0.9-0.3,1.9-0.4,2.8-0.4
				c3.7,0.2,7.1,3,10.9,1.9c1.9-0.9,4-1.5,6.1-1.9c1.8-0.2,3.5,0.7,4.4,2.2l-1.1-0.3c3.3-1.5,7.1-3,10.7-1.3c0.8,0.4,1.4,0.9,2,1.5
				c0.5,0.5,0.9,1.2,1.7,1.3c1.3,0.1,2.7-0.9,3.8-1.3c1.3-0.6,2.8-0.6,4.1,0.1c1.2,0.7,2.1,2.3,3.6,2.5c0.9,0,1.8-0.2,2.6-0.5
				c0.9-0.3,1.8-0.4,2.7-0.4c1.7,0.3,3.3,0.8,4.8,1.5c0.9,0.4,1.9,0.5,2.9,0.3c1.1-0.3,2.2-0.4,3.4-0.5c2.3,0.2,4.6,0.3,6.9,0.2
				c1-0.2,1.4,1.3,0.4,1.5c-2,0.2-3.9,0.2-5.9-0.1c-1-0.1-2-0.1-3,0.1c-1,0.3-1.9,0.4-2.9,0.4c-1.7-0.3-3.3-0.8-4.8-1.5
				c-0.8-0.3-1.6-0.4-2.4-0.4c-0.9,0.2-1.8,0.4-2.7,0.7c-1.6,0.5-3.3,0.1-4.5-1c-1-0.9-2-2.1-3.5-1.8c-1.3,0.4-2.6,0.9-3.9,1.5
				c-1.4,0.5-2.9,0.1-3.8-1c-1.1-1.6-2.9-2.4-4.8-2.3c-2.2,0.2-4.4,0.8-6.4,1.9c-0.4,0.2-0.8,0.1-1.1-0.3c-0.8-1.2-2.3-1.7-3.7-1.4
				c-1.8,0.5-3.6,1.1-5.4,1.9c-1.8,0.4-3.7,0.3-5.5-0.4c-1.7-0.7-3.4-1.2-5.2-1.5c-1.9-0.2-3.6,0.8-5.4,0.7
				c-0.9-0.1-1.7-0.5-2.3-1.1c-0.5-0.6-0.8-1.5-1.4-2.1c-0.9-0.7-2.2-0.9-3.2-0.4c-1.3,0.4-2.7,0.8-4.1,1c-0.7,0.1-1.4,0-2.1-0.2
				c-0.4-0.1-0.7-0.5-1-0.6c-0.4-0.1-1,0.4-1.3,0.6c-2,0.9-4.2,1.1-6.3,0.5c-0.4-0.1-0.6-0.6-0.5-1
				C190.3,494.5,190.7,494.3,191.1,494.4"/>
			<path id="Trazado_4161" class="st17" d="M205.7,484.9c0.9,0.4,2,0.5,3,0.1c1-0.3,2.1-0.5,3.1-0.6c2-0.1,3.9,0.8,5.3,2.2
				c0.2,0.3,0.5,0.8,0.9,1c0.4,0.2,1-0.5,1.3-0.7c0.9-0.7,1.9-1.1,2.9-1.3c1.9-0.4,3.8,0.8,4.3,2.7l-1.3-0.3c1.4-1,3.3-1.2,4.9-0.6
				c1,0.3,1.9,0.8,2.9,1c1,0.2,2,0.3,3.1,0.3c4.2-0.2,8.4-0.1,12.6,0.3c2.4,0.4,4.8,0.9,7.1,1.7c0.9,0.3,0.5,1.8-0.4,1.5
				c-4.9-1.5-10-2.2-15.2-2.1c-2.5,0.3-5,0.2-7.4-0.2c-1.8-0.5-4.5-2.4-6.3-0.9c-0.4,0.3-1.2,0.3-1.3-0.3c-0.1-0.9-0.8-1.5-1.7-1.6
				c-1-0.1-2,0.2-2.7,0.8c-0.8,0.5-1.5,1.3-2.6,1.2c-1-0.1-1.4-1-2-1.6c-1.3-1.3-3.3-1.9-5.1-1.5c-2,0.4-4,1.2-5.9,0.1
				c-0.4-0.2-0.5-0.7-0.3-1.1C204.9,484.9,205.3,484.7,205.7,484.9"/>
			<path id="Trazado_4162" class="st17" d="M62.3,487.6c2.1,0.8,2.9,2.8,4.3,4.4c1.6,1.7,3.9,1,5.9,1.3c1,0.1,1.9,0.5,2.6,1.3
				c0.6,1,0.9,2.2,0.9,3.4c0,0.6,0.2,1.2,0.6,1.7c0.5,0.4,1.1,0.7,1.7,0.9c1.4,0.5,2.9,0.9,4.4,1.4c2.7,0.6,5.2,1.9,7.2,3.8
				c0.4,0.4,0.8,0.9,1.1,1.4c0.2,0.6,0.6,1.1,0.9,1.6c0.4,0.4,1.1,0.3,1.7,0.4c0.5,0.1,0.9,0.3,1.3,0.6c1.3,1.2,2.4,2.6,3.1,4.2
				c0.3,0.6,0.9,1.1,1.6,1.4c1,0.3,2.1-0.4,3.1-0.6c1.1-0.5,2.4-0.1,3.2,0.9c0.6,1,0.3,2.2,0.6,3.2c0.2,0.7,0.9,0.6,1.5,0.7
				c0.6,0.2,1.2,0.5,1.7,0.9c1,0.9,1.5,2.2,1.4,3.6l-1-0.7c2.2-0.8,4.7,0.3,5.6,2.6c0.4,1,0.4,2,0,3c-0.3,0.9-1.8,0.5-1.5-0.4
				c0.6-1.5-0.2-3.1-1.6-3.6c-0.6-0.2-1.4-0.2-2,0c-0.4,0.1-0.8-0.1-1-0.5c0-0.1,0-0.1,0-0.2c0.1-1.1-0.4-2.2-1.4-2.8
				c-0.5-0.2-1.1-0.4-1.7-0.4c-0.5-0.2-1-0.5-1.3-1c-0.3-0.9-0.5-1.9-0.5-2.9c-0.3-1.2-1.2-0.9-2.1-0.6c-1,0.4-2.1,0.6-3.2,0.5
				c-0.8-0.2-1.5-0.6-2-1.2c-1.1-1.3-1.7-2.9-2.8-4.2c-0.7-0.6-1.5-0.9-2.4-0.9c-1.4-0.3-1.8-1.4-2.4-2.5c-1.5-2.1-3.7-3.6-6.2-4.3
				c-1.5-0.5-3-0.9-4.4-1.3c-1.3-0.3-2.5-0.8-3.6-1.6c-0.9-0.9-1.3-2-1.3-3.3c-0.1-1-0.1-2.2-1.2-2.6c-1.1-0.3-2.2-0.4-3.4-0.2
				c-1.2,0.1-2.4-0.2-3.4-0.8c-0.9-0.7-1.7-1.6-2.3-2.6c-0.5-0.9-1.3-1.7-2.3-2.2C60.9,488.8,61.4,487.3,62.3,487.6"/>
			<path id="Trazado_4163" class="st17" d="M82,487.3c1.3-0.1,2.5,0.1,3.7,0.6c0.5,0.3,1,0.6,1.3,1.1c0.4,0.6,0.4,1.3,0.8,1.9
				c0.8,0.8,1.9,1.3,3.1,1.3c1.2,0.1,2.4,0.3,3.6,0.7c1.1,0.4,2,1.2,2.5,2.2c0.2,0.6,0.2,1.2,0.2,1.9c0,0.8,0.5,1,1.3,1.1
				c3.3,0.6,6.4,1.5,9.5,2.8c1.3,0.6,3,1.4,3.3,3c0.3,1.3-0.5,2.5-1.8,2.8c-0.1,0-0.2,0-0.2,0l0.4-1.4c1.6,0.7,3.3,1.2,5,1.5
				c1.7,0.2,3.4,0.5,5,1c1.4,0.3,2.4,1.4,2.7,2.7c0.3,1.2-0.5,2.5-1.7,2.8v-1.5c1.8,0.8,3.8,1.8,4.3,3.9l-0.5-0.5
				c1.4,0.3,2.9,0.4,4.4,0.3c0.3,0,0.7,0.2,0.7,0.6c0.4,2.4,1.6,4.5,3.5,6c0.8,0.6,0,1.9-0.8,1.3c-2.2-1.7-3.8-4.2-4.2-6.9l0.7,0.6
				c-1.6,0.2-3.2,0.1-4.8-0.3c-0.3-0.1-0.5-0.3-0.5-0.5c-0.3-1.5-1.9-2.2-3.2-2.8c-0.6-0.3-0.8-1.3,0-1.5c0.8-0.2,0.6-1.3,0.2-1.8
				c-1-0.8-2.2-1.2-3.4-1.2c-2.8-0.3-5.6-1.1-8.2-2.2c-0.8-0.4-0.3-1.4,0.4-1.4c0.3,0,0.5-0.5,0.5-0.8c-0.1-0.6-0.4-1.1-0.9-1.3
				c-1.2-0.7-2.5-1.3-3.9-1.7c-1.4-0.5-2.8-0.9-4.3-1.2c-0.7-0.2-1.4-0.3-2.1-0.4c-0.6-0.1-1.1-0.2-1.7-0.5
				c-0.5-0.3-0.9-0.7-1.1-1.2c-0.1-0.7-0.1-1.4-0.1-2c-0.1-1-1.2-1.5-2-1.8c-2-0.6-4.4-0.2-6.2-1.6c-0.5-0.3-0.9-0.8-1.1-1.3
				c-0.3-0.6-0.3-1.3-0.9-1.8c-1-0.6-2.2-0.9-3.4-0.7c-0.4,0-0.8-0.3-0.8-0.8S81.5,487.3,82,487.3"/>
			<path id="Trazado_4164" class="st17" d="M103,484.6c0.7,0.8,1.6,1.5,2.6,1.9c1.1,0.4,2.2,0.5,3.4,0.5c2.1,0.1,3.8,1.6,4.3,3.6
				c0.1,0.5,0.5,1,1,1.1c0.5,0.1,0.9,0.2,1.4,0.3c0.9,0.2,1.9,0.3,2.8,0.5c1.8,0.2,3.5,1,4.8,2.2c0.6,0.8,1.1,1.6,1.6,2.5
				c0.8,0.9,1.8,1.5,2.9,1.7c2.2,0.5,4.2,1.5,6,2.8c0.8,0.7,1.4,1.6,1.7,2.6c0.1,0.9,0.6,1.8,1.3,2.4c0.8,0.5,1.7,0.9,2.5,1.1
				c0.9,0.3,1.8,0.8,2.6,1.4c1.8,1.3,3.1,3.3,3.7,5.4c0.1,0.6,0.2,1.1,0.3,1.7c0,0.3,0,0.6,0.1,0.8c0.1,0.3,0.5,0.4,0.7,0.5
				c1.4,0.6,2.7,1.2,4.1,1.8c0.4,0.2,0.5,0.7,0.3,1.1c-0.2,0.4-0.7,0.5-1.1,0.3l-3.7-1.6c-1.1-0.5-1.9-1-2-2.3c-0.1-2-0.9-4-2.2-5.5
				c-0.7-0.7-1.5-1.3-2.4-1.7c-0.9-0.4-1.8-0.7-2.7-1.1c-0.9-0.3-1.6-0.9-2.2-1.6c-0.5-0.9-0.9-1.9-1.1-2.9
				c-1.2-1.8-3.2-3.1-5.4-3.5c-1.1-0.3-2.3-0.8-3.3-1.3c-0.9-0.6-1.7-1.4-2.1-2.4c-0.9-1.5-2.4-2.6-4.2-2.8
				c-0.9-0.2-1.9-0.4-2.8-0.5c-1-0.1-1.9-0.3-2.8-0.7c-0.5-0.2-0.9-0.6-1.2-1.1c-0.3-0.5-0.3-1.2-0.6-1.7c-0.6-1-1.7-1.7-2.9-1.6
				c-1.3,0-2.5-0.3-3.7-0.7c-1.1-0.5-2.1-1.2-2.9-2.2C101.3,484.9,102.4,483.8,103,484.6"/>
			<path id="Trazado_4165" class="st17" d="M155.3,477.5c1.8-0.4,3.7-0.1,5.3,0.8c0.8,0.4,1.4,1.1,2.1,1.6c0.7,0.3,1.5,0.5,2.2,0.5
				c0.8,0,1.5,0.3,2.2,0.6c0.7,0.5,1.2,1.2,1.3,2c0.1,0.9,0.5,1.6,1.2,2.2c0.8,0.6,1.7,1.1,2.6,1.7c2,1.4,3.9,2.8,5.8,4.3
				c0.8,0.6-0.3,1.7-1.1,1.1c-2-1.6-4.1-3.2-6.3-4.6c-1.1-0.6-2-1.3-2.9-2.1c-0.6-0.8-0.6-1.8-1.1-2.7c-0.4-0.8-1.4-0.9-2.2-1
				c-1,0-2-0.3-2.8-0.8c-0.8-0.7-1.8-1.3-2.7-1.8c-1-0.4-2.2-0.5-3.2-0.3C154.8,479.2,154.3,477.7,155.3,477.5"/>
			<path id="Trazado_4166" class="st17" d="M165.3,495.9c-2.7-1.1-5.3-2.6-7.6-4.4c-2.1-1.6-4.1-3.5-6-5.4c-1.1-1-2.2-2-3.3-3
				c-1.1-1.3-2.8-2.2-4.5-2.3c-1.9,0.1-3.7,0.5-5.6,0.7l-5.6,0.8l-13.1,1.8v-1.5c4.3,1.2,8.3,3.2,11.8,5.9c3.2,2.2,6.2,4.6,9.1,7.2
				c1.7,1.5,3.3,2.9,5.1,4.3l-0.8-0.2l18-4.9l2.6-0.7c0.4-0.1,0.8,0.1,0.9,0.6c0.1,0.4-0.1,0.8-0.5,0.9l-14.1,3.8
				c-2.1,0.6-4.2,1.2-6.2,1.7c-0.4,0.1-0.8,0-1.1-0.2c-1.1-0.9-2.2-1.8-3.2-2.7c-1.7-1.5-3.3-3-5.1-4.5c-2.5-2-5.1-3.9-7.8-5.7
				c-2.8-1.9-5.8-3.3-9-4.1c-0.7-0.2-0.8-1.4,0-1.5c7.8-1.1,15.6-2.1,23.4-3.2c1.7-0.4,3.4,0,4.8,0.9c1.3,1,2.6,2.1,3.8,3.2
				c2.1,1.9,4,3.9,6.2,5.7c2.5,2.1,5.4,3.9,8.4,5.1C166.6,494.8,166.2,496.3,165.3,495.9"/>
			<path id="Trazado_4167" class="st4" d="M265.5,459.1l5.2-0.3c0,0-5.9,4.7-4.4,7.4c1.3,2.4,3.4,6.6,3.4,6.6
				c-1.8-3.6-6.1-5.1-9.7-3.3c-0.2,0.1-0.5,0.2-0.7,0.4C261.7,466.4,263.7,462.9,265.5,459.1"/>
			<path id="Trazado_4168" class="st4" d="M297.9,414.1l15.8-22.6c0,0-2-0.8-7.9,3.2c-5.9,3.9-14.7,23.1-14.7,23.1L297.9,414.1z"/>
			<path id="Trazado_4169" class="st17" d="M329.7,302.2c7.8-27.7-2.4-43.7-21.4-45.9c-17.5-2-28.5,12.7-20.7,39.6
				c-2.4-2.7-4.2-5.9-5.4-9.4c-3.2-8.6-6.1-38.6,26.7-36.2s29.1,32.6,27.1,41.3C334.6,297.9,334,300,329.7,302.2"/>
			<path id="Trazado_4170" class="st17" d="M293,281.6c1.3-2.8,3.8-4.8,6.8-5.3l0,0c6.4-1.7,15.3,0.4,18.1,5.8
				c3.3,6.2,4.1,14.4,1.1,23.7c-7.6,1.3-15.4,1.1-23-0.4C296.2,305.4,290.1,289.7,293,281.6 M317.1,303.6c1-3.5,1.5-7.2,1.3-10.9
				c-1.9-2.2-4.6-3.7-7.5-4c0.3,1,0.6,2,0.7,3c0.5,4.1-0.2,7.5-5.3,7.5c-4.8,0.1-6.7-3.3-7.2-7.4c-0.1-0.9-0.2-1.9-0.1-2.8
				c-1.6,0.4-3,1.4-3.9,2.8c0.6,3.9,1.6,7.7,2.8,11.4C304.3,304.3,310.7,304.5,317.1,303.6"/>
			<path id="Trazado_4171" class="st17" d="M234.4,307.7c-4.8-8.2-7.7-14.9-7.7-21.9c0-4.4,1.9-5.6,5.3-6.1c3.1-0.6,6.2,0.2,8.7,2.1
				c5.9,4.9,7.9,23.3,7.9,23.3C245.8,307.5,239.5,308.7,234.4,307.7 M244.2,294.5c-0.7-0.8-1.5-1.5-2.4-1.9c0.3,0.9,0.6,1.7,0.8,2.6
				c1,3.9,1.1,6.9-2,6.6c-2.9-0.3-4.6-3.5-5.6-7.3c-0.3-1.1-0.5-2.3-0.6-3.4c-1.7,0-3.3,1.2-3.7,2.9c0.8,4.1,2.5,8,4.8,11.5
				c3.5,0.5,7.1-0.1,10.4-1.5C245.5,300.7,245,297.5,244.2,294.5"/>
			<path id="Trazado_4172" class="st17" d="M272.4,245c-3-5.7-4.9-11.9-5.9-18.3c2,1.8,7.3,8.2,7.3,8.2l-3.5-12.7
				c31-5.5,61.3,5.7,61.3,5.7c2.1,4.6,3.2,9.7,3,14.8C303,229.1,272.4,245,272.4,245"/>
			<path id="Trazado_4173" class="st17" d="M281.1,322.1c-2.3-1.3-4.8-1.9-9.9,3.1c1.2-3.6,5.1-8.4,11.2-6.7
				C287.3,320,283.4,323.5,281.1,322.1"/>
			<path id="Trazado_4174" class="st17" d="M394.4,267.8c-0.1-0.1-0.2-0.2-0.3-0.3c-0.5-0.4-1.1-0.6-1.7-0.8
				c-0.8-0.2-1.5-0.3-2.3-0.3c-0.4,0-0.8,0-1.2,0c-0.2,0-0.4,0-0.6,0l-0.2,0l-0.1,0c-0.1,0-0.1,0-0.2,0l-0.7,0.2
				c-0.5,0.1-1,0.2-1.5,0.4l-0.8,0.3c-0.3,0.1-0.5,0.2-0.9,0.4l-3.8,1.8l2.2-6.4c0.2-0.6,0.4-1.1,0.6-1.6l0.6-1.6l0.1-0.2l0.1-0.1
				l0.1-0.2l0.2-0.4c0.1-0.3,0.3-0.6,0.4-0.9c1.2-2.3,2.6-4.5,4.2-6.5c3.2-4.1,7.3-7.5,12-9.8c2.4-1.2,5-1.9,7.7-2.2
				c1.4-0.1,2.8,0,4.2,0.2c0.4,0.1,0.7,0.1,1,0.3c0.2,0.1,0.3,0.1,0.5,0.2l0.6,0.2c0.8,0.3,1.5,0.8,2.1,1.3c1.1,1.1,1.9,2.6,2.1,4.1
				c0.2,1.4,0.2,2.7,0,4.1c-0.4,2.5-1.1,5-2.1,7.3c-0.9,2-1.9,4-3,6c0.7-2.1,1.2-4.2,1.6-6.4c0.5-2.3,0.7-4.7,0.7-7
				c0-1.1-0.2-2.1-0.5-3.2c-0.2-0.8-0.7-1.6-1.4-2.1c-0.3-0.2-0.7-0.4-1-0.5l-0.3-0.1c-0.1,0-0.2,0-0.4-0.1
				c-0.2-0.1-0.5-0.1-0.7-0.1c-1-0.1-2.1-0.1-3.1,0.1c-2.2,0.3-4.3,1-6.2,2c-4.1,2-7.6,5-10.4,8.6c-1.4,1.8-2.7,3.7-3.7,5.8
				l-0.7,1.5l-0.1,0.2l0.2,0c0.3,0,0.5-0.1,0.8-0.1c0.5,0,1.1,0,1.6,0c1.1,0,2.2,0.2,3.3,0.5c1.3,0.3,2.4,0.9,3.4,1.7
				c0.6,0.5,1.1,1.2,1.5,1.9c0.1,0.2,0.2,0.4,0.2,0.6c0,0.1,0.1,0.2,0.1,0.3l0,0.3c0,0.2,0,0.4,0,0.7c0,0.2,0,0.4-0.1,0.6
				c0,0.2-0.1,0.4-0.1,0.6l-0.2,0.5c-0.1,0.2-0.1,0.3-0.2,0.5l-0.2,0.4l-0.2,0.4c-0.1,0.1-0.2,0.3-0.3,0.4c-0.2,0.2-0.3,0.5-0.5,0.7
				c-1.4,1.6-3,3-4.8,4.2c-1.1,0.7-2.2,1.4-3.3,2c-0.6,0.3-1.1,0.6-1.7,0.9l-0.8,0.4l-0.1,0h0c0,0,0,0,0,0l0,0l0,0c0,0,0,0,0,0.1
				c0,0.5,0,1.1,0,1.6c0,1.1,0.1,2.2,0.3,3.3c0.3,2.1,1.1,4.2,2.4,5.9c0.6,0.8,1.4,1.3,2.3,1.6c1,0.2,2.1,0.1,3.1-0.3
				c1-0.4,1.9-0.9,2.8-1.5c0.5-0.3,0.9-0.7,1.3-1c0.4-0.3,0.8-0.7,1.2-1.1c-0.3,0.4-0.6,0.9-1,1.4c-0.3,0.4-0.7,0.9-1.1,1.3
				c-0.8,0.9-1.6,1.6-2.6,2.3c-2.4,1.8-5.8,1.5-8-0.6c-1-0.9-1.9-2-2.6-3.3c-0.6-1.2-1.2-2.4-1.5-3.7c-0.4-1.3-0.6-2.6-0.8-3.9
				c-0.1-0.7-0.1-1.3-0.1-2v-0.4c0-0.2,0-0.3,0-0.4l0.1-0.9l0.1-0.9c0-0.1,0.1-0.1,0.1-0.1l0.2-0.1l0.4-0.2l2.3-1.3l1.5-0.9
				c1-0.6,2-1.2,2.9-1.9c1.4-0.9,2.7-2,3.8-3.3c0.4-0.4,0.6-0.9,0.8-1.4c0,0,0-0.1,0-0.1C394.4,267.9,394.4,267.9,394.4,267.8
				C394.4,267.9,394.4,267.9,394.4,267.8L394.4,267.8C394.4,267.8,394.4,267.8,394.4,267.8"/>
			<path id="Trazado_4175" class="st17" d="M287.5,313.4l-0.1,0.4c-8.6-2.1-17.7-3.9-26.5-2.6c-3.3,0.3-6.4,1.6-8.9,3.8
				c-2.5,2.6-1.1,6.3,1.4,8.4c1.7,1.4,3.6,2.6,5.7,3.3L259,327c-6.5,0-13.7-5.1-11.1-12.3c3.2-7.2,12.9-8.4,19.7-7.9
				C274.7,307.3,281.5,309.6,287.5,313.4"/>
			<path id="Trazado_4176" class="st17" d="M243.4,339.1c0.3-0.2,0.6-0.3,0.8-0.5l1.4-0.8l0.3-0.2l0.2-0.1l0.4-0.3
				c0.3-0.2,0.5-0.3,0.8-0.5c0.5-0.4,1.1-0.7,1.6-1.1c2.1-1.6,4.2-3.3,6.1-5.1c-1.4,2.3-3,4.5-4.8,6.5c-0.5,0.5-0.9,1-1.4,1.5
				c-0.2,0.2-0.5,0.5-0.8,0.7l-0.4,0.3l-0.2,0.2l-0.1,0.1l-0.3,0.3c0,0-0.1,0.1-0.1,0.1l0,0.1c0,0.1-0.1,0.1,0,0.1c0,0,0.1,0,0.1,0
				h0.1h0.2c0.1,0,0.1,0,0.2,0l4.2,0.8c7.7,1.6,15.5,2.8,23.3,3.6c1.9,0.2,3.9,0.3,5.9,0.5l2.9,0.2l1.5,0.1l1.5,0l2.9,0.1
				c1,0,1.9,0,2.9,0c1.9,0,3.9-0.2,5.8-0.3c1-0.1,1.9-0.2,2.9-0.3l1.4-0.2c0.5-0.1,0.9-0.2,1.4-0.2c0.9-0.2,1.9-0.3,2.8-0.5l2.8-0.7
				c3.6-1.2,6.9-2.9,9.9-5.3c5.3-4,10.3-8.5,14.8-13.4c-2.3-0.6-4.6-1.2-6.9-1.6c2.4-1.6,5.2-2.2,8-1.9c2.3,0.2,4.1,1.8,4.7,4
				c1,4.4,0.1,9.1-2.6,12.8c-0.3-2.1-0.5-4.1-0.6-6.2c0-1.4-0.2-2.9-0.4-4.3c-4.6,4.9-9.6,9.4-14.9,13.4c-1.7,1.2-3.4,2.3-5.2,3.3
				c-0.9,0.5-1.8,1-2.8,1.4c-0.2,0.1-0.5,0.2-0.7,0.3l-0.8,0.3l-0.8,0.3l-0.7,0.2l-3,0.8c-1,0.2-2,0.4-3,0.6c-0.5,0.1-1,0.2-1.5,0.3
				l-1.5,0.2c-1,0.1-2,0.3-3,0.3c-2,0.1-4,0.3-6,0.3c-1,0-2,0-3,0l-3-0.1l-1.5,0l-1.5-0.1l-3-0.2c-2-0.2-4-0.3-6-0.5
				c-5.5-0.6-11-1.3-16.5-2.3l3.1,7.8l-8.3-8.8c-0.6-0.1-1.3-0.3-1.9-0.4c-0.7-0.1-1.4-0.3-2.1-0.5l-2.2-0.5c-1.4-0.3-2.7-0.7-4-1
				l-1.9-0.5l-0.9-0.3c-0.3-0.1-0.6-0.2-0.9-0.3l3.7-2L243.4,339.1z"/>
			<path id="Trazado_4177" class="st17" d="M201.9,249.7l-0.6-2.3c-1.1-6.8,0-9.1,0-9.1s8-7.1,31.3-2.5c0,0,7.4,9.1,9.9,16.7
				C236.2,250,215,242.8,201.9,249.7"/>
			<path id="Trazado_4178" class="st17" d="M34.4,483.7c1.1-0.1,110.8-12.2,147-17.2c-0.4-0.1-0.8-0.2-1.2-0.3
				c-1.5-0.4-2.9-1-4.3-1.8c-0.7-0.4-1.4-1-2-1.5c-0.2-0.2-0.3-0.3-0.4-0.5c-0.8,0.6-1.7,1.1-2.7,1.4c-1.8,0.6-3.6,0.9-5.5,0.9
				c-1.8,0-3.5-0.1-5.3-0.4c-1.8-0.3-3.5-0.7-5.2-1.4c-0.5-0.2-0.9-0.4-1.3-0.6c-0.5-0.3-1-0.6-1.4-1c-0.3-0.2-0.5-0.5-0.7-0.8
				l-0.3-0.4l-0.2-0.4c-0.3-0.5-0.5-1-0.6-1.6c-0.4-1.6-0.5-3.2-0.3-4.9c-8.2-0.6-13.8-2.7-16.6-6.4c-1.2-1.5-1.9-3.3-1.9-5.3
				l-4-6.2l-70.3-9.6l0.6-4.6l65.8,9c-2.3-4.7-3.2-10.1-2.6-15.3c1.2-13.3,9.7-27.7,21.5-36.7c17.4-13.3,50-14.6,54.6-14.7l16.8-7.8
				c0.1-0.4,0.2-0.8,0.2-1.1l0.3-1.2l12.7-5.4c-8.7-7.8-11.5-14.4-12.5-19.8c0,0,0-0.1,0-0.1c-0.1-0.3-0.1-0.9-0.1-0.9
				c-0.3-5.1,0.8-10.2,3.2-14.7c-2.1-1.2-4-2.7-5.6-4.6c-5.6-6.3-10-16.6-13-30.6c-2-3.1-3.4-6.7-4-10.3l0-0.2
				c-2-30.7,8-59,9.3-62.3c-7.4-4.5-14.3-9.8-20.6-15.7c-13.9-12.3-19.2-31.3-20.2-49.2c-0.8-15.5,0.7-30.9,4.4-46l3,3.3
				c12,12.4,29.1,23.8,47,23c1.2-0.1,4.6-0.2,5.8-0.3c19.3-0.9,38.6,0.3,57.6,3.7c-3.6-7-9.8-12.4-17.2-15l-8.5-3
				c6.8-1.4,13.7-2.3,20.7-2.7c19.7-0.4,39.2,3.9,56.9,12.6c4.9,2.4,9.6,5.2,14.1,8.3c-1-2.7-2.1-5.3-3.3-7.8
				c-2.2-4.7-4.8-9.3-7.6-13.6l-2.9-4.5l5.2,0.9c9.3,2,18.1,6.1,25.7,11.8c11.3,9,19.5,21.4,23.3,35.3c4.2,2.1,21.5,11.7,24.4,26.8
				c1.9,9.9,0.8,23-3.2,39c-1.8,7.1-3.7,13-5,16.8c5.2-1.3,10.7-1,15.8,0.8c2.9,1.1,5.6,2.8,7.7,5.1c13.4,14.8,3.1,45.5-6,60.5
				c-3.3,5.3-7.1,10.7-12.6,13.9c-3.5,1.5-7.3,1.8-11,1c-5.5-1.5-10.8-3.8-15.6-6.8c-2.1,4-4.5,8-7.1,12l-3.2,4.7
				c-4.2,5.9-8.6,11.7-13.4,17.2c3.3,1.5,11.4,5.1,19.8,9.3c15.2,7.5,24.1,13.1,27.1,16.9c2.7,3.7,3.5,8.6,2,13
				c12.7,7.6,24.1,17.2,33.8,28.5l0.7,0.8l-0.1,1.1c-1.4,17.3-9.1,33.5-21.4,45.6c-7.6,7.3-16.9,12.6-27.1,15.4l10.6,1.5
				c2.1-2.1,4.1-4.4,5.8-6.8l0.9-1.2l1.4,0.5c11.7,3.7,41,12,41.3,12l3,0.8l-1.3,1.6l60.4,8.3l-0.6,4.6l-63.4-8.7
				c-0.9,1.1-2.1,2.3-3.5,3.7l13,7.5l-0.4,3l6.1,2.8l-5.3,5.8l1.3,1.8l-1.1,10.6L409,531.8l-36.4-18l0.2-24l1.2-0.5
				c9.2-4.4,17.8-10,25.6-16.7l-21.5-2.9c-1.8,0.1-3.6,0.2-5.4,0.2c-1.3,0-2.6,0-3.9-0.1c-0.5,0.2-1,0.5-1.6,0.7
				c-3.3,1.4-6.7,2.6-10.2,3.5c-1.8,0.5-3.6,0.8-5.5,1c-2,0.3-4,0.2-5.9-0.2c-0.3,0-0.5-0.1-0.7-0.2l-0.6-0.2
				c-0.4-0.1-0.9-0.2-1.3-0.4c-0.9-0.2-1.7-0.5-2.6-0.8c-1.1-0.3-2.2-0.7-3.2-1.1l0,0c-2.5,1.4-5.1,2.6-7.7,3.8
				c-1.3,0.6-2.6,1.2-4,1.7c-0.6,0.2-1.3,0.5-2,0.7l-0.5,0.6h8.7L313,533.7H173.4l7.2-11.6l-70.2,16.5l-0.8-0.8
				c-4.8-4.8-9.9-9.3-15.2-13.4c-1.3-0.3-2.6-0.8-3.7-1.6c-1.6-0.9-4-2.3-7-4.1c-5-3-11.9-7.3-20.6-12.6
				c-14.7-9.2-29.5-18.5-29.6-18.6l-5-3.2L34.4,483.7z M445,486.5c-1.2,1.2-2.5,2.4-3.9,3.7c-4.1,3.8-8.5,7.2-13.2,10.4l28.5-7.4
				L445,486.5z M376.7,511.5l32.8,15.9l48.3-15.6l0.7-6.3l-0.5-0.8l-18,4.1l17.6-8.1l2.3-2.5l-2.5-1.1l-7.4,1.8l6.4-4.1l0.2-1.5
				l-0.1,0l-42.8,15c-1.2,0.5-2.5,0.9-3.7,1.3l-0.8,0.2l-0.7-0.4c-9.7-4.7-25.2-11.9-31.7-14.9L376.7,511.5z M379.5,491.1
				c6.7,3.1,20.7,9.7,30,14.2c17.7-5.8,33.9-22.8,39.5-29.1c-7.6-2.1-26.9-7.6-36.9-10.8C402,478.3,386.7,487.4,379.5,491.1
				 M135.3,439.9l0.5,0.6l-0.2,0.9c0,1.1,0.3,2.2,1.1,3c1.5,1.8,5.2,4.1,14.1,4.7c0-0.1,0.1-0.2,0.1-0.3c0.3-1,0.8-1.9,1.3-2.8
				l0.5-0.7c0.1-0.1,0.2-0.2,0.3-0.3l0.1-0.1l0,0c0,0,0,0,0,0l0,0l0-0.1l0-0.2l0.1-0.3l0.1-0.8c-3.7-1.7-6.3-5.1-6.9-9.1
				c-0.1-0.5-0.1-1.1-0.2-1.6c0.4,1,0.9,1.9,1.5,2.8c1.5,2.2,3.8,3.6,6.3,4c0.2-1.2,0.5-2.3,0.7-3.5l1.1-4.9l0.3,5
				c0.1,1.8,0.2,3.7,0.2,5.5l0,2.7v0.6v0.2l0,0.6l0,0.3c0,0.1-0.1,0.1-0.1,0.2l-0.6,0.8l-0.2,0.5c-0.3,0.7-0.6,1.5-0.7,2.2
				c-0.1,0.4-0.2,0.8-0.2,1.2c0,0.4-0.1,0.8-0.2,1.2c-0.1,0.8-0.1,1.6-0.1,2.4c0,0.7,0.1,1.5,0.3,2.2c0.1,0.2,0.2,0.5,0.3,0.7
				l0.1,0.2c0,0,0,0,0.1,0.1c0,0.1,0.1,0.1,0.1,0.2c0.2,0.2,0.4,0.3,0.6,0.4c0.3,0.2,0.6,0.3,0.9,0.4c1.4,0.5,2.8,0.9,4.2,1.1
				c1.5,0.2,3,0.3,4.5,0.3c1.4,0,2.8-0.2,4.2-0.6c0.6-0.2,1.1-0.4,1.5-0.8c0.2-0.2,0.5-0.4,0.7-0.6s0.5-0.5,0.7-0.8
				c1-1.2,1.9-2.4,2.7-3.7c0.8-1.3,1.6-2.7,2.3-4.1s1.4-2.8,1.9-4.2c0.2-0.4,0.3-0.8,0.4-1.2c0.1-0.2,0.1-0.4,0.2-0.5
				c0-0.1,0.1-0.3,0.1-0.4c0,0,0-0.1,0-0.1v-0.5v-0.3c0-0.4,0-0.9,0-1.3c-0.1-1.8-0.1-3.6-0.2-5.4c-0.1-3.6-0.1-7.3,0-11l0.1-5
				l1.2,4.8c0.9,3.6,1.6,7.2,2.2,10.8c0.3,1.8,0.6,3.6,0.8,5.5c0.1,0.5,0.1,0.9,0.1,1.4l0,0.4l0,0.4l0,0.4c0,0.2,0,0.4-0.1,0.6
				c0,0.3-0.1,0.6-0.2,0.9c-0.1,0.3-0.1,0.5-0.2,0.8c-0.1,0.5-0.3,1-0.5,1.4c-0.6,1.6-1.3,3.1-2.1,4.7c-0.8,1.5-1.6,3-2.5,4.4
				c-0.6,1-1.3,2.1-2.1,3c0.1,0.2,0.3,0.4,0.5,0.6c0.4,0.3,0.8,0.6,1.2,0.9c1,0.6,2.1,1,3.2,1.3c2.4,0.6,4.9,0.9,7.4,1
				c1.3,0,2.6,0,3.8-0.1c1.2-0.1,2.4-0.3,3.6-0.5c0.9-0.1,1.7-0.6,2.3-1.3c0.8-0.9,1.4-1.9,2-3c1.2-2.3,2.3-4.6,3.1-7
				c0.9-2.4,1.6-4.9,2.1-7.5c0.3-1.2,0.4-2.5,0.5-3.7c0-0.6,0-1.1,0-1.7l0-0.3c0-0.1-0.1-0.3-0.1-0.4c-0.1-0.3-0.1-0.5-0.2-0.8
				c-0.9-2.4-1.9-4.8-3-7.1c-2.4-5-4.4-10.3-5.8-15.8c4,4.1,7.3,8.8,9.7,13.9c0.3,0.6,0.6,1.2,0.9,1.9c0.3,0.6,0.6,1.3,0.8,1.9
				l0.4,1l0.4,1c0.3,0.6,0.5,1.3,0.7,2c0.1,0.3,0.2,0.8,0.3,1.1c0,0.2,0.1,0.4,0.1,0.6l0.1,0.7c0.1,0.8,0.1,1.6,0,2.4
				c-0.1,1.4-0.3,2.9-0.6,4.3c-0.6,2.7-1.3,5.4-2.2,8.1c-0.3,0.8-0.6,1.6-0.9,2.4c2.4,0.1,4.7,0,7.1-0.2c3.4-0.3,8.7-10.9,9.4-16.1
				c0.4-3.7-11.2-28.3-23.6-33.6c-10.2-4.4-38.2,4.7-48.1,8.6l-0.1-0.2l0,0.1l-4.2-1.1l-1.8,3.5l-7.7-0.5l-0.3,5.4l-4.2,3l2.8,9.4
				l-4.4,1.2L135.3,439.9z M275.2,479.2l-15.5,8.4l-2,3.4c-0.6,1.3-2.2,1.8-3.5,1.2c-1.3-0.6-1.8-2.2-1.2-3.5
				c0.1-0.1,0.1-0.3,0.2-0.4l1.8-3l-1-16.8l6.2-9.7c-0.3-0.2-0.6-0.4-0.9-0.6l-20.7-2.7c-9.1,6.4-64,45.3-69.9,47.5
				c-2.6,1-7.1,2.3-11.3,3.4l125.2,13.7l34.6-40.7c-0.4,0-0.7,0-1.1-0.1c-1.6-0.2-3.1-0.6-4.6-1.2c-1.4-0.5-2.7-1.2-4.1-1.8
				c-0.6-0.3-1.3-0.7-1.9-1l-0.9-0.5l-0.2-0.1c-1.2,0-2.4-0.2-3.6-0.5c-1.3-0.4-2.5-0.9-3.7-1.4c-2.3-1.1-4.4-2.5-6.4-4
				c-1-0.8-2-1.6-2.9-2.4c-0.9-0.8-1.8-1.7-2.6-2.7L275.2,479.2z M284.1,453.3c-1.9,1.7-4,3.3-6.2,4.6c-3.1,1.8-6.6,2.7-10.1,2.7
				c-0.8,0-1.7-0.1-2.5-0.2l-6,9.4l0.7,11.7l11.6-6.2l11.5-18.1l0,0c0.1-0.9,0.3-1.7,0.5-2.6C283.7,454.2,283.9,453.8,284.1,453.3
				 M236.9,451.7l0.7-0.5l19.3,2.5c0-0.2,0-0.4,0.1-0.6l-31.7-4.3c-2.5,5.3-6.3,10.6-10.9,11c-2,0.2-3.7,0.2-5.2,0.2
				c-2.2,0-3.9-0.1-4.6-0.2c-0.1,0.1-0.1,0.2-0.2,0.3c-0.7,1.3-1.6,2.6-2.6,3.7c-0.6,0.7-1.3,1.3-2,1.7c-0.2,0.1-0.5,0.3-0.7,0.4
				c-0.2,0.1-0.4,0.2-0.6,0.2c-0.4,0.1-0.8,0.2-1.2,0.3c-1.4,0.3-2.9,0.5-4.3,0.6c-1.4,0.1-2.8,0.2-4.2,0.1c-1.8,0-3.6-0.2-5.3-0.4
				l0.2,0.3c5.5,6.6,9.5,11.6,11.3,14C208.4,471.8,224.3,460.6,236.9,451.7 M228.4,439.1c-0.1,0.9-0.4,1.9-0.6,2.8
				c1.2-0.2,2.4-0.6,3.5-1c2.9-0.9,4.8-3.6,4.7-6.6c-0.3-3.4-2.5-6.3-5.7-7.5c-2.5-0.9-5-2-7.3-3.4
				C226.2,429.4,228.8,435.9,228.4,439.1 M231.4,422.9c4.9,1.7,8.3,6,8.7,11.2c0.2,4.7-2.7,9-7.2,10.6c-0.2,0.1-0.5,0.2-0.7,0.3
				l24.4,3.3c-0.4-1.4-0.8-2.9-1.2-4.3c-0.6-2.3-1.1-4.5-1.6-6.8c-1-4.6-1.9-9.1-2.7-13.7c-1.1-6.7-2-13.4-2.5-20.2l-6.1,4.3h-0.7
				c-0.5,0-9.1-0.2-17.9-11.8c-1,0.5-2.9,1.4-4.8,2.4c-1.6,3.9-3.6,7.6-5.9,11.1c1.8,2.1,3.5,4.3,5,6.5l0.1-0.1
				C218.5,415.7,226.6,421.5,231.4,422.9 M213.2,361l-14.9,7h-0.5c-6.7,0.2-13.3,0.9-19.9,2c-14.2,2.4-25.5,6.5-32.5,11.8
				c-10.7,8.1-18.6,21.6-19.7,33.4c-0.8,5.5,0.6,11,3.8,15.5l1.5-0.4l-2.4-8.3l4.9-3.5l0.4-7.6l9.2,0.6l2-4l4.6,1.2l0,0
				c1.5-0.6,37.8-14.6,52-8.5c3,1.4,5.8,3.3,8.2,5.6c2-3.2,3.8-6.6,5.1-10.1l0.3-0.8l0.8-0.4c1.8-1,3.8-1.9,5.1-2.6
				c-1.8-2.8-3.3-5.8-4.6-8.9C213.7,376,212.5,368.5,213.2,361 M220.2,308.3c0.5-0.7,1-1.4,1.4-1.9c-3.7-5.7-7.8-11.1-12.3-16.1
				c-0.9-1.1-1.8-2.2-2.7-3.2C211.6,302.6,217.7,307.1,220.2,308.3 M358.5,313.6c0.6,1.4,1.1,2.9,1.4,4.5c0.3,1.5,0.4,3.1,0.4,4.6
				c0,1.5-0.2,3.1-0.4,4.6c0,0.2-0.1,0.4-0.1,0.6c7.1-8.8,13.4-18.2,18.7-28.2c-1.3-1.4-2.4-3.1-3.1-4.9c2.6,2.1,5.4,3.7,8.5,4.9
				c4.8,1.8,9.7,3.3,14.7,4.4c2.5,0.6,5.1,0.5,7.5-0.3c6.9-4.4,12-13.9,15.4-21.3c5.2-11.9,11.4-34,1.9-44.7
				c-7-7.1-17.7-5.4-26.1-1.9c-8.3,3.2-16.3,7.2-23.8,11.8c6.2-6.9,13.6-12.6,21.9-16.9c1-0.4,2-0.8,3-1.1c2.2-5.9,13-36.5,9.2-56.5
				c-2-10.2-12.3-17.8-18.3-21.5c0.5,2.2,0.8,4.4,1.1,6.6c1.1,9.1,1.2,18.3,0.2,27.4c0.6-18-2-36.7-11.2-52.3
				c-4.5-7.6-10.5-14.2-17.7-19.5c-5.3-4-11.1-7.2-17.4-9.3c-0.3-0.1-0.6-0.2-0.9-0.3c3.1,5.3,5.8,10.9,8.1,16.7
				c1.7,4.7,3,9.6,4,14.5l-5.3-4.2c-11.8-9.4-25.5-16.2-40.1-20c-12-3.3-24.5-4.6-36.9-3.9c6.7,4.3,11.8,10.8,14.4,18.4l1.2,3.9
				c-3.6-0.9-7.7-1.9-11.3-2.5c-20.2-3.1-40.7-4-61.1-2.7c-16.2,0-31-8.7-42.9-19c-0.9-0.8-1.7-1.6-2.6-2.4
				c-1,5.3-1.7,10.5-2.1,15.9c-1.8,23.1,0.2,50,18.4,66.4c12.1,11.2,26.3,20,41.7,26c4.8,1.8,9.5,3.6,14.4,5.1
				c0.9,0.3,1.8,0.5,2.6,0.8c0.3-2.7,0.5-5.5,0.9-8.2c0,0,0-0.1,0-0.1c0.2-1.8,0.4-3.6,0.6-5.4l0.2-1.4l0.3-1.4l0.6-2.5l0.7-2.5
				c2,1.5,4.6,3.3,5.2,3.6c1.1,0.7,2.1,1.4,3.2,2c1.1,0.7,2.2,1.3,3.3,1.9l0.7,0.4l0-0.6c0-1.2,0.1-2.4,0.1-3.6
				c0.1-1.2,0.2-2.4,0.3-3.6c0.1-0.6,0.1-1.2,0.2-1.8l0.2-0.9c0,0,0-0.2,0.1-0.3l0.1-0.4l0.2-0.8c0.1-0.5,0.3-1,0.4-1.5l0.2-0.8
				l0.1-0.2l0-0.1v0h0l0,0l0.4,0.1c1,0.4,2,0.8,3,1.2l3,1.3c2,0.9,4.1,1.7,6.1,2.3l0,0c-2.2,0.5-4.6,0.6-6.8,0.2
				c-0.6-0.1-1.1-0.2-1.7-0.3l-0.8-0.2c-0.1,0-0.3-0.1-0.4-0.1l-0.2-0.1c-0.1,0-0.2,0-0.1,0c-0.1,0.1,0,0.1,0,0.1l0,0.1l-0.1,0.8
				c-0.1,0.6-0.2,1.1-0.2,1.7c-0.1,1.1-0.2,2.3-0.3,3.4s-0.1,2.3-0.1,3.5l0,1.1v1.8l0.1,3.6l-3.3-1.8l-1.6-0.9l-1-0.6
				c-1.1-0.6-2.2-1.3-3.3-2s-2.2-1.4-3.3-2.1l-1.2-0.8l0,0l-0.2,1.2l-0.2,1.3c-0.2,1.7-0.5,3.5-0.6,5.3c-0.1,1.5-0.3,2.9-0.4,4.4
				c-0.1,2.1-0.2,4.1-0.3,6.2l0,2.3c-2.5-0.4-5.2-1-7.6-1.6c-8.5-2.1-16.7-5.2-24.5-9.1c-3-1.4-6-3-8.9-4.7
				c-3.8,11.1-6.4,22.6-7.8,34.2l-0.3,2.7c-0.8,7.5-1,15-0.6,22.6c1,6.9,6.6,13.5,13.1,21.2c2.4,2.8,4.9,5.8,7.3,9
				c-3.1-5.9-5.5-12.2-7.4-18.6c-0.5-2-0.9-4.1-1.1-6.1c-1.8-14.9,9.5-18.7,21.2-12.7c11.7,6,17.3,22.7,19.3,30.7
				c2.1,8-1.1,10.4-1.1,10.4s-4.6-20.5-13.2-29.8c-8.6-9.2-21.9-11.1-20.2,3.2c1.6,11.4,5.4,22.3,11.1,32.3c-1.6-0.8-3-1.9-4.3-3.2
				l2.8,4.5l-1.2,1.3c-0.1,0.1-8.1,8.5-6.9,18.8c1.3,6.8,5.7,16.1,25.5,28.1c5.1,3.3,10,6.9,14.7,10.7c4.3,3.5,18.3,3.9,37.3,1
				c20.7-3.5,39.8-13.6,54.3-28.8c0.1-0.2,0.2-0.3,0.4-0.5c0.7-1.1,1.4-2.3,2-3.5c1.2-2.4,2-4.9,2.5-7.5c0.2-1.3,0.4-2.6,0.4-3.9
				c0-1.3-0.1-2.6-0.4-3.8c-0.2-1.3-0.6-2.5-1.1-3.7c-0.1-0.3-0.2-0.6-0.4-0.9c-0.1-0.3-0.3-0.6-0.4-0.9c-0.3-0.6-0.6-1.1-1-1.6
				c-1.4-2-3.4-3.5-5.7-4.3c-2.4-0.8-5-1-7.5-0.6c-2.7,0.4-5.3,1-7.7,2c-1.3,0.5-2.5,1-3.7,1.6c-0.6,0.3-1.2,0.6-1.8,0.9l-0.9,0.5
				c-0.3,0.2-0.6,0.4-0.9,0.6c-5.3,3-11.1,4.8-17.1,5.4c5.1-3.1,10.2-6,15.2-8.8c0.3-0.2,0.6-0.3,0.9-0.5l0.9-0.5
				c0.7-0.4,1.3-0.7,2-1.1c1.3-0.7,2.7-1.3,4.1-1.8c2.8-1.1,5.7-1.9,8.7-2.3c3.1-0.5,6.3-0.2,9.3,0.8c3.1,1.1,5.8,3.1,7.6,5.8
				c0.5,0.6,0.9,1.3,1.3,2c0.2,0.3,0.3,0.7,0.5,1C358.2,312.9,358.4,313.2,358.5,313.6 M272.1,373.4c0.2,0.5,0.6,0.9,0.9,1.2
				c1.3,1.2,4.1,2.5,10.3,2.1c6.1-0.5,11.9-2.5,17.1-5.7c-1,0.2-2,0.3-2.9,0.5c-7.3,1.2-14.6,1.8-21.9,2L272.1,373.4z M401.8,365.5
				c-5.2-6.6-35.1-20.5-46.5-25.4c-9.5,10.6-17.5,18.8-44,28.8c-4.3,3.8-14.8,11.6-27.7,12.5c-0.8,0.1-1.7,0.1-2.4,0.1
				c-4,0.3-8.1-0.9-11.3-3.4c-1.5-1.3-2.5-3.1-2.8-5c-3.8-0.2-7.4-1.5-10.5-3.6c-3.9-3.2-7.4-5.7-10.5-7.9l-3.5-2.8
				c-3.9-2.3-7.7-4.9-11.3-7.7l-12.7,5.4c-1.7,8.2-0.8,16.7,2.4,24.5c8,18.4,17.8,21.3,20.3,21.7l7.1-5c0-0.7-0.1-1.5-0.1-2.2
				c-0.1-1.2-0.1-2.4,0-3.6c0.1-1.2,0.2-2.4,0.4-3.6c0.4-2.4,1-4.8,1.8-7.2c0.7,2.4,1.2,4.8,1.5,7.2c0.2,1.2,0.4,2.4,0.5,3.6
				c0.1,1.2,0.2,2.4,0.2,3.6c0.4,9.2,1.4,18.3,2.9,27.3c0.8,4.5,1.6,9,2.6,13.5c0.5,2.2,1,4.5,1.6,6.7c0.2,0.7,0.4,1.5,0.6,2.2
				c3.9-8.3,10.1-20.8,11.9-22.7c1.2-1.2,5-2.7,14.7-5.9l18.5-29.2l0.2-0.2c3.8-3.5,9.4-4.3,14-1.9c4.9,2,7.8,7,7.1,12.2l-0.1,0.5
				l-8.4,13.2c0.9,0.4,1.6,0.7,1.9,0.8c6.2-1,12,1.8,16,3.7c1.2,0.6,2.2,1,3,1.3l0.1,0.1c1.6-1.4,3.1-2.6,4.7-3.8
				c1.8-1.3,3.6-2.6,5.4-3.8c0.9-0.6,1.8-1.2,2.7-1.7c-2.1-2-4.1-4.1-6.1-6.3c-7.7-8.6-14-18.3-18.7-28.7c2,3.2,4,6.4,6.3,9.4
				c6.5,8.7,14.3,16.5,23.1,23c0.4-0.2,0.8-0.4,1.2-0.6c-0.2-4.5,0.5-8.9,2.2-13c0.9-2.1,1.9-4.1,3.1-6l1-1.4l0.5-0.7l0.5-0.6
				l1.1-1.3l1.1-1.2c3.1-3.2,6.6-6,10.4-8.3c3.9-2.3,8.1-4,12.5-4.8c2.4-0.5,4.9-0.4,7.2,0.3c1.3,0.3,2.4,1,3.4,1.8
				c0.5,0.5,0.9,1.1,1.1,1.7c0.1,0.5,0.1,1-0.1,1.5c0.4,0.2,0.8,0.5,1.2,0.7C403.9,370.5,403.4,367.7,401.8,365.5 M294.7,414.1
				c4.4-1.4,8.4-2.7,9.6-3.3c2.8-1.1,5.8-1.5,8.7-0.9l8.7-13.6c0.1-2.8-1.6-5.3-4.2-6.2c-1.8-0.9-3.9-1.1-5.9-0.5
				c-0.8,0.3-1.5,0.7-2.1,1.2L294.7,414.1z M362.3,402.5c2.5-1.1,5.1-2.1,7.8-2.9l-6.4-4.9C362.8,397.2,362.3,399.8,362.3,402.5
				 M398.9,370.7c0.9,0.5,1.8,1,2.8,1.6c-0.1-0.3-0.3-0.6-0.5-0.8c-0.3-0.3-0.8-0.5-1.2-0.6C399.6,370.7,399.2,370.7,398.9,370.7
				 M378.2,464.5c14.4-0.8,28.1-6.7,38.6-16.6c11.2-11,18.2-25.7,19.8-41.3c-18-21.2-44.5-33.6-47-34.8c-3.3,0.9-6.5,2.2-9.4,3.9
				c-3.5,2.1-6.7,4.6-9.4,7.5l-1,1.1l-0.9,1.2l-0.5,0.6l-0.4,0.6l-0.9,1.2c-0.4,0.6-0.8,1.3-1.1,1.9l10.8,8.2
				c3.4-0.7,6.9-0.8,10.4-0.6c4.7,0.4,9.2,2.2,12.8,5.3c-4.3-0.9-8.6-1.5-13-1.8c-4.2-0.3-8.3,0.1-12.4,1.1c-4.1,1-8.1,2.4-11.9,4.2
				c-3.8,1.8-7.6,3.9-11.1,6.2c-1.8,1.2-3.5,2.4-5.2,3.7c-1,0.8-2.1,1.6-3.1,2.4l1.5,0.6l5.7-3.1l1,1.8c0.1,0.2,0.2,0.4,0.2,0.5
				c2.8-0.6,5.6-1,8.4-0.9l1.7,0l0.3,1.7c0.2,1.3,0.4,2.6,0.4,3.9c3.8-0.2,7.7,0.1,11.5,0.7l3.7,0.7l-4.1,4.3
				c3.3,0.1,6.5,0.5,9.7,1.1l2.5,0.6l-1.2,2.3c-1.5,2.7-3.4,5.1-5.5,7.4l12.2,7.1l-8.9,4.6l5.5,4.3l-10,5.2L378.2,464.5z
				 M323.9,473.7c1.2-0.5,2.5-1,3.8-1.6c1.4-0.7,2.9-1.4,4.3-2.1c-2.2-1.2-4.2-2.8-5.9-4.7c3.7,0.2,7.3,0.9,10.8,2.1
				c1.6,0.6,3.2,1.2,4.8,1.7c0.8,0.3,1.6,0.5,2.4,0.7c0.4,0.1,0.8,0.2,1.2,0.3l0.6,0.2c0.2,0,0.4,0.1,0.6,0.1c1.5,0.3,3,0.3,4.5,0.1
				c1.6-0.2,3.2-0.5,4.8-0.9c3.3-0.9,6.5-2,9.6-3.3c1.1-0.4,4-1.8,4-1.8c1.5-0.7,3-1.4,4.4-2.2l-0.3-3.5l6.7-3.5l-5.6-4.3l7.9-4.1
				l-10.2-5.9l1.8-1.9c1.8-1.9,3.4-3.8,5-5.9c-3.5-0.4-7-0.6-10.5-0.6l-4.9,0.1l5.3-5.6c-2.9-0.3-5.9-0.3-8.8,0.1l-3.3,0.5l1-3.2
				c0.2-1,0.2-2.1,0-3.1c-2.6,0-5.2,0.5-7.6,1.5l-3.5,1.8l0.3-2.6l-3.5,1.9l-0.1,0.2c-3-1.2-5.2-2-6.4-2.4c-1-0.4-2.1-0.9-3.4-1.5
				c-3.7-1.8-8.8-4.2-13.5-3.2l-0.8,0.2l-1.5-0.6l-0.2-0.1c-0.1,0-6.7-3.4-11.6-1.2c-1.5,0.7-5.4,1.9-11.5,3.9
				c-6.5,1.9-12.9,4.2-19.1,6.8c-5.1,9-9.6,18.2-13.8,27.6c0.6,0.5,1.3,0.9,2.1,1.1c3.8,1,7.8,0.5,11.1-1.5
				c7.7-4.4,13.8-13.9,13.8-14l0.5-0.8l5-1.6c1.8-2.3,3.6-4.5,5.5-6.6c3.3-3.8,7.1-7.1,11.3-9.9c-2,4.6-4.7,8.9-7.9,12.7
				c-3.1,3.6-6.1,7.3-8.9,11.1c-1.4,1.9-2.7,3.8-3.9,5.8c-0.6,1-1.2,2-1.6,3c-0.5,1-0.9,2-1.2,3c-0.3,0.9-0.4,1.8-0.4,2.7
				c0,0.3,0.1,0.6,0.3,0.9c0.2,0.4,0.5,0.8,0.8,1.1c0.7,0.8,1.5,1.6,2.3,2.3c0.8,0.8,1.7,1.5,2.6,2.2c1.8,1.4,3.7,2.6,5.7,3.6
				c0.4,0.2,0.8,0.4,1.2,0.5c-0.3-1.7-0.2-3.4,0.3-5c0.8-2.9,2-5.7,3.6-8.3c2.9-4.9,6.3-9.6,10-14c0.5-0.6,0.9-1.1,1.4-1.7
				c0.5-0.6,1.1-1.2,1.7-1.7c1.3-1.1,2.8-2,4.5-2.5c0.9-0.2,1.8-0.3,2.6-0.2c0.8,0.1,1.7,0.3,2.4,0.6c1.4,0.7,2.7,1.5,3.9,2.5
				c-1.4-0.3-2.9-0.5-4.3-0.6c-0.6,0-1.3,0-1.9,0.2c-0.6,0.1-1.1,0.4-1.6,0.6c-1,0.6-2,1.4-2.8,2.3c-0.4,0.5-0.8,1-1.3,1.5l-1.4,1.7
				c-3.5,4.2-6.7,8.7-9.6,13.4c-1.3,2.2-2.4,4.6-3.1,7.2c-0.3,1-0.4,2.1-0.2,3.2c0,0.1,0,0.2,0.1,0.3c0,0.1,0.1,0.2,0.1,0.3
				c0,0.1,0.1,0.2,0.1,0.3c0,0,0,0.1,0.1,0.1l0.1,0.1c0.1,0.1,0.1,0.2,0.2,0.2l0.2,0.2c0.2,0.1,0.3,0.3,0.5,0.4c0,0,0.1,0.1,0.1,0.1
				l0.2,0.1l0.4,0.3l0.9,0.5c0.6,0.3,1.2,0.7,1.8,1c1.2,0.6,2.4,1.2,3.6,1.7c1.1,0.5,2.3,0.8,3.6,1c1.2,0.1,2.4,0.1,3.5-0.1
				c0.6-0.1,1.2-0.3,1.8-0.5C322.6,474.2,323.2,474,323.9,473.7 M310,529.6l15.8-46.3h-6.4l-35,41.2l-77.6-8.5l-20.4,4.8l-5.5,8.8
				H310z M94.6,520.2c1.6,0.3,3.1,1.1,4.2,2.3c1.4,1.2,3.4,2.8,5.7,4.9c2.9,2.6,5.8,5.3,7.1,6.6l82.7-19.4l-59.7-6.5l11-2.8
				c0.2,0,15.8-4.1,21.6-6.2c2-0.7,11.7-7.2,24.2-15.7c-1.8-2.3-5.3-6.9-10.3-12.8c-32,4.4-117.3,13.9-140.5,16.5
				C61.4,500.2,90.3,518.3,94.6,520.2"/>
			<path id="Trazado_4179" class="st4" d="M316.2,286.2c0.3,3.3-0.3,6-4.1,6c-3.6,0-4.9-2.6-5.3-5.9c-0.3-3.3,0.3-6,4.1-6
				C314.6,280.2,315.9,282.9,316.2,286.2"/>
			<path id="Trazado_4180" class="st4" d="M241.9,288.8c0.7,3.2,0.6,5.7-2.3,5.6c-2.8-0.1-4.1-2.7-4.9-5.8s-0.5-5.7,2.3-5.6
				C239.8,283.1,241.2,285.7,241.9,288.8"/>
		</g>
	</g>
</g>
</svg>
