<?xml version="1.0" encoding="utf-8"?>
<!-- Generator: Adobe Illustrator 26.0.2, SVG Export Plug-In . SVG Version: 6.00 Build 0)  -->
<svg version="1.1" id="Capa_1" xmlns="http://www.w3.org/2000/svg" xmlns:xlink="http://www.w3.org/1999/xlink" x="0px" y="0px"
	 viewBox="0 0 600 600" style="enable-background:new 0 0 600 600;" xml:space="preserve">
<style type="text/css">
	.st0{fill:#0DB5FF;}
	.st1{fill:#875D3A;}
	.st2{fill:#E8AE8E;}
	.st3{fill:#1E0A04;}
	.st4{fill:#EE2424;}
	.st5{fill:#FFFFFF;}
	.st6{fill:#256BB7;}
	.st7{fill:#808080;}
	.st8{fill:#FFF422;}
	.st9{fill:#F0FDFF;}
	.st10{fill:#3A3A3A;}
	.st11{fill:#593418;}
	.st12{fill:#CE956B;}
	.st13{fill:#B27D66;}
	.st14{fill:#FFE6CA;}
	.st15{fill:#4D4D4D;}
	.st16{fill:#B3B3B3;}
	.st17{fill:#FF9797;}
	.st18{fill:#CFE5E8;}
	.st19{fill:#FFDE17;}
	.st20{fill:#FBB040;}
</style>
<g>
	<path class="st0" d="M505.8,318.6c0-126.8-26.4-266.8-158.9-266.8S32.7,77.6,26,318.6c-3.5,126.8,143.5,230.3,239.9,229.6
		C358.8,547.5,505.8,445.4,505.8,318.6z"/>
	<g id="Grupo_1246" transform="translate(203.633 1089.93)">
		<g>
			<g id="Grupo_1245">
				<path id="Trazado_4368" class="st1" d="M17.1-835c-3.1,1.5-5.7,3.9-7.4,6.9c9.1-2.9,18.5-5,28-6.3
					C31.2-837.7,23.7-837.9,17.1-835"/>
				<path id="Trazado_4369" class="st1" d="M91.5-834c-0.7,0.1-1.5,0.3-2.1,0.7c4.8,0.9,9.6,1.9,14.3,3.2
					C100.5-833.3,96-834.8,91.5-834"/>
				<path id="Trazado_4370" class="st1" d="M-50.1-794.6c-2.5-1.5-5-2.8-7.7-3.9c-1.1-0.5-2.2-0.9-3.1-1.2c-1-0.3-2.1-0.6-3.2-0.8
					c-1-0.2-2.1-0.2-3.2,0c-0.5,0.1-1,0.2-1.4,0.4c-0.5,0.2-0.9,0.5-1.3,0.8c-0.8,0.7-1.5,1.6-1.8,2.6c-0.4,1.1-0.5,2.3-0.5,3.4
					c0,0.8,0,1.7,0.2,2.5c-0.2-0.8-0.4-1.6-0.6-2.4c-0.2-1.3-0.2-2.5,0-3.8c0.2-1.3,0.9-2.5,1.8-3.5c0.5-0.5,1-0.9,1.5-1.2
					c0.6-0.3,1.2-0.6,1.8-0.8c1.2-0.3,2.5-0.4,3.7-0.3c1.2,0.1,2.4,0.3,3.6,0.7c1.1,0.3,2.3,0.7,3.4,1.2c2.7,1.2,5.4,2.5,7.9,4.1
					c0.8,0.5,1.6,1,2.5,1.5C-32-809-14.6-819.7,4.3-826.4c0.1-0.3,0.2-0.6,0.3-0.9c2-6.4,7.7-11.1,15.5-12.9c8.7-2,18,0,23.5,5.1
					c13.8-1.3,27.6-1,41.3,1c0.7-1.3,1.6-2.4,2.8-3.3c2.9-2.1,7.1-2.2,12.6-0.2c4,1.8,7.2,5,8.9,9c3.5,1.1,7,2.3,10.5,3.7
					c1.4-6.2,1.9-11.5,0.4-16.9c-1.3-4.3-3-8.4-5.1-12.4l-0.1-0.2l-0.2-0.2c-5.5-4.4-12.3-6.9-19.3-7.3c-4.4-0.4-8.9-0.2-13.2,0.6
					c-0.4-5.5,0-11.1,1.1-16.5c5.8,0.4,11.5,1.7,16.9,3.8l3.8,1.6l-2.4-3.4c-5.6-7.9-10.3-13.8-10.4-13.8l-0.8-1l1-0.7
					c7.4-5.6,12.5-13.7,14.4-22.8c2-10.2-0.4-21.3-7-33.1l-1.3-2.4l-0.8,2.6c-3,9.5-12,17.1-14.6,19.2l-0.4,0.3l0,0.5
					c-0.4,6.5-1.6,12.9-3.7,19.1c-0.6,1.9-1.4,3.8-2.1,5.6c-0.9,2.1-1.7,3.8-2.5,5.4c-0.9,1.8-1.9,3.5-2.9,5.1l-0.9,1.4
					c-0.3,0.5-0.7,1-1,1.5l-0.3,0.4c-0.4,0.6-0.8,1.1-1.3,1.8l-0.2,0.3l-0.9-1.7l-1.7-2.9c-0.7-1.2-1.4-2.4-2.2-3.6
					c-1.7-2.7-3.2-5-4.8-7l-1.1-1.5l-1-1.3c-0.1-0.1-0.1-0.1-0.2-0.2l-0.8-0.8l-1,1c-0.1,0.1-0.2,0.2-0.3,0.3
					c-0.1,0.1-0.3,0.3-0.4,0.5c0.4-0.6,0.9-1.2,1.4-1.7c0.1-0.2,0.3-0.3,0.4-0.5l0.9,0.9l1,1.1c0.5,0.6,0.9,1,1.2,1.4l0.3,0.4
					c1.6,2,3.3,4.2,5.1,6.8c0.8,1.2,1.7,2.4,2.4,3.5l1.6,2.4l1-0.6c0.1-0.1,0.3-0.2,0.4-0.4l1.4-2.5c0.9-1.6,1.8-3.3,2.7-5.1
					c0.7-1.5,1.4-3.2,2.3-5.3c0.6-1.6,1.3-3.6,1.8-5.5c4.6-14.9,4-30.8-1.6-45.3c-1.4-3.5-3.1-6.8-5.3-9.9c-2.2-3-4.6-5.9-7.3-8.5
					c-4.4-4.1-9.1-7.8-14.3-10.9c-5.1-3.1-10.5-5.8-16-8.2c-5.5-2.3-11.1-4.4-16.9-6.1c-2.7-0.8-5.5-1.6-8.6-2.4
					c-0.5-0.1-0.9-0.2-1.4-0.3l-0.8-0.2l-3.2-0.7l0.9,3.2c0.5,2,0.9,4.1,1.2,6.1c0.6,4.2,0.6,8.4,0,12.5C2.3-977,1.8-975,1.1-973
					c-1.4,4-3.5,7.6-6.2,10.8l-0.2,0.3c-1.2,1.4-2.4,2.8-3.6,4.2c-1,1.2-2,2.3-3,3.5c-4.3,4.5-8,9.4-11.2,14.7
					c-1.8,3.3-3.3,6.9-4.2,10.6c-0.2,0.6-0.3,1.2-0.5,1.8c-0.1,0.3-0.1,0.7-0.2,1l-0.3,1.1l0,0.1c-0.1,0.5-0.2,1-0.3,1.5l-0.5,3.2
					c-0.1,0.8-0.2,1.5-0.3,2.2c-0.2,1.4-0.4,2.8-0.6,4.1l-0.3,2.6l-3.3-6.6l-1.6-3.6c-0.2-0.5-0.4-1-0.6-1.5l-0.1-0.3
					c-0.1-0.4-0.3-0.8-0.4-1.3c-0.1-0.3-0.2-0.5-0.3-0.8c-0.2-0.5-0.3-1-0.4-1.5c-0.1-0.2-0.1-0.4-0.2-0.7c-0.2-0.6-0.3-1.3-0.4-2
					l0-0.2c-0.2-0.7-0.3-1.4-0.4-2.2c-0.4-3-0.4-6.1-0.1-9.2c0-0.2,0.1-0.5,0.1-0.7c0-0.1,0-0.3,0.1-0.4l0.1-1.1l0.7-3.9l-4.4,4.4
					c-2.5,2.7-4.7,5.7-6.5,9c-2.7,4.6-4.6,9.6-5.9,14.8c-1.3,5.2-1.7,10.6-1.1,15.9l0.9,8.6L-58-902c-1-2.1-1.9-4.2-2.6-6.4
					c-0.7-2.3-1.3-4.5-1.8-6.6l-0.1-0.4c-0.2-1-0.4-2-0.6-2.9c0-0.2-0.1-0.4-0.1-0.6c-0.1-0.4-0.1-0.7-0.2-1.1l-0.1-0.9l-0.1-1.1v0
					c0-0.6-0.4-1.1-0.9-1.2l-0.9-0.2l-0.4,0.7l0,0c-0.1,0.1-0.1,0.2-0.2,0.3c-0.1,0.2-0.3,0.4-0.5,0.7l-0.5,0.8
					c-0.1,0.2-0.3,0.5-0.4,0.7l-0.9,1.9c-0.6,1.2-1.2,2.5-1.8,3.8c-2.3,5.2-4.1,10.6-5.4,16.1c-1.3,5.6-2,11.2-2,17
					c0.1,5.7,1,11.5,2.8,16.9c0.1,0.4,0.2,0.8,0.4,1.1l0,0.1c0.2,0.6,0.4,1.3,0.6,1.9l-0.3,2.5c-1.3,8.1-0.4,16.4,2.6,24
					c3.1,7,7,13.6,11.5,19.7l0.3,0.4l0.5,0.1c3.2,0.7,6.4,1.6,9.4,2.8c-5.4-1.1-10.9-1.5-16.3-1c-1.5,0.2-3,0.4-4.5,0.8
					c-1.4,0.4-2.8,0.9-4.1,1.6c-0.2,0.1-0.4,0.2-0.7,0.4c-0.1,0.1-0.2,0.1-0.3,0.2l-0.1,0c-0.3,0.2-0.6,0.4-0.9,0.6l-0.8,0.6l-1,0.9
					c-0.1,0.1-0.2,0.2-0.3,0.3l-0.4,0.4c-0.1,0.1-0.2,0.2-0.2,0.3c-0.2,0.2-0.3,0.3-0.4,0.5l-0.6,0.9c0,0-0.1,0.1-0.1,0.1
					c-0.1,0.1-0.2,0.2-0.3,0.4l-0.2,0.4c-1.2,2.4-1.8,5-1.6,7.7c0.1,2.8,0.6,5.7,1.3,8.4c1.6,5.6,3.8,11,6.7,16
					c1.4,2.6,2.9,5.1,4.5,7.5c5.9-10.5,13.2-20.2,21.8-28.7C-48.9-793.9-49.5-794.2-50.1-794.6 M28.2-879.1l5.4,16.2l0.5-5.7
					c0-0.1,0.3-3.5,0.6-6.5c1.5,4.1,2.6,8.4,3.3,12.7c-5.9,1.2-11.6,3-17,5.6c-12.3,5.6-22.7,14.5-30,25.9
					c-2.1-3.4-3.5-7.2-4.2-11.1C-11.1-845.2,4.8-867.3,28.2-879.1"/>
				<path id="Trazado_4371" class="st1" d="M112.5-806.5l2.3,0.4c0.9-3.6,1.8-6.9,2.5-9.6c0.9-3.4,1.7-6.4,2.4-9.3
					c-3.4-1.3-6.9-2.6-10.5-3.7C112.3-821.7,113.5-814,112.5-806.5"/>
				<path id="Trazado_4372" class="st1" d="M84.5-817.8l0.4,7.9l1.9-7.6c0.6-2.6,2.9-4.5,5.6-4.7c4.3-0.4,8.4,2.2,9.8,6.3
					c1.9,6.4,2.2,13.1,0.6,19.6l0,0.1h-0.1c-0.6,0-1.1,0.1-1.7,0.1c-3.4,0-6.8-0.9-9.8-2.7l-0.1-0.1c0-0.1-0.7-1.3-1.5-3.2l-0.1-0.3
					l-0.3-0.2c-0.3-0.2-6.3-4.6-6.6-19c-0.1-4,0.1-10.8,2.1-14.4c-14.1-2.1-28.5-2.4-42.7-1.1c0.3,0.3,2.1,2.4,2.3,2.7
					c8.6,9,11.6,22.8,10.9,29.7c-0.5-2.3-1.3-5.4-2.4-8.7c-3.1-9.3-7-15.7-11.6-19c-1.2-0.8-2.4-1.5-3.6-2.1
					c-9.5,1.3-18.8,3.4-28,6.3c-1.5,2.7-2.3,5.7-2.5,8.7c-0.3,4,0.2,14.7,9.8,28.6l0.2,0.3l0.3,0.1c1,0.4,2.1,0.8,3.1,1.2l1.4,0.7
					c0.2,0.1,0.4,0.2,0.6,0.3l1.8,0.8l-0.5,0l1.7,0.5l0.2,0.1l0,0l4.5,1.2c2.6,0.7,5.5,1.5,8.4,2.3c0.8,0.2,1.6,0.5,2.4,0.7
					c-0.8,0-1.6-0.1-2.5-0.2c-3.2-0.3-6.4-0.8-9.5-1.7c-1.5-0.4-3.1-0.9-4.5-1.4l-0.4-0.1c-0.2-0.1-0.5-0.2-0.7-0.3l-1.2-0.5
					c-0.3-0.1-0.5-0.2-0.7-0.3l-0.4-0.2l-1.1-0.5c-2.8-1.3-5.8-2.2-8.8-2.8c-3-0.6-6.1-0.6-9.1,0.1c-3,0.8-5.7,2.3-7.8,4.5
					c-1.1,1.1-2.1,2.3-2.9,3.7l-0.3,0.5l-0.3,0.6c-0.1,0.1-0.1,0.2-0.2,0.4c-0.1,0.2-0.2,0.4-0.4,0.6l-0.2,0.5
					c-0.3,0.6-0.5,1.1-0.7,1.7c-1.1,3-1.5,6.2-1.2,9.4c0.3,3.2,1.2,6.3,2.5,9.2c0.7,1.5,1.4,2.9,2.3,4.2c0.4,0.7,0.9,1.3,1.3,2
					c0.2,0.3,0.5,0.6,0.7,1l0,0l-0.1,0.1l0.9,0.8c8.5,8.1,16,13.4,22.8,16.3l0,0L19-735l0.3,0.1l0.3,0.1c2.3,1,4.8,1.6,7.3,2
					c15.4,2.2,30.9,3.4,46.5,3.7c26.2,0,29.3-6.1,32.1-11.8c0.1-0.3,0.3-0.6,0.4-0.9c2.2-3.9,4.6-7.6,7.4-11
					c5.1-6.3,9.3-13.3,12.6-20.8c4-9.9,0.2-17.1-12.2-23.4l-0.7-0.4l0.2-0.9c0.2-1.1,0.4-2.2,0.7-3.6l-2.3-0.6
					c-0.3,0.9-0.7,1.8-1.1,2.6c1.6-13.7-0.6-24.4-6.4-30.2c-0.1-0.1-0.2-0.2-0.3-0.3c-4.7-1.3-9.5-2.4-14.3-3.2
					C86.6-831.9,84-827.8,84.5-817.8 M57.7-791.3L57.7-791.3c1.2-4.1,5.7-5.8,7.6-6.4c2.8-0.8,5.7-1.2,8.6-1.1
					c1.2,0,2.6,0.1,3.9,0.2c3,0.2,5.9,0.8,8.7,1.7c4.9,1.8,7.8,4.2,8.8,7.4c0,0.1,0,0.1,0.1,0.2c-1.2-2.3-3.2-4-5.7-4.8
					c-4.4-1.6-9.1-2.4-13.8-2.4c-4.7-0.5-9.4,0.1-13.9,1.7c-2.1,0.8-3.7,2.5-4.4,4.6c-0.1,0.4-0.2,0.9-0.3,1.4
					C57.4-789.8,57.5-790.5,57.7-791.3 M93.2-784.9c-0.1,0.2-0.2,0.4-0.4,0.6c-0.6-0.8-1.4-1.3-2.4-1.5c-0.1,0-0.1,0-0.2,0h-0.1
					c0.4-0.3,0.8-0.5,1.3-0.7c0.5-0.1,1,0.1,1.4,0.5C93.1-785.8,93.2-785.3,93.2-784.9 M70.6-786.1c-1.6-0.3-3.2,0.2-4.5,1.3
					c-0.3,0.2-0.7,0.2-1,0c-0.3-0.1-0.4-0.4-0.4-0.5c0-0.2,0.4-0.6,1.3-0.9c0.7-0.3,1.5-0.4,2.2-0.5c0.7,0,1.4,0.2,2.1,0.4
					C70.3-786.2,70.5-786.2,70.6-786.1 M30.5-788l-5,0.5l-1.3-2.3c-6.4-11.7-6.3-16.9-5.3-20.9c1.2-3.7,4.3-6.5,8.1-7.5
					c1.2-0.4,2.5-0.6,3.8-0.6c2.9,0,5.6,1.1,7.6,3.1c6.2,6.2,9.1,22.1,9.2,22.8l0,0.2l-0.2,0.1C42.2-790.1,36.4-788.6,30.5-788
					 M104.2-769.5l1.5,0.8l2.2,1.1l-7.3,2.2l-2.1,0.6c-2.1,0.6-4.3,1.1-6.5,1.6l-0.3,0.1l-0.2,0.2c-1.2,1.1-6.9,7.2-1.8,17.8
					l-2.7,1.6l4.1,0.1l0.7,0c-4.2,0.8-8.6,1.6-13.1,2.2c-4.1,0.6-7.2,1.1-10.1,1.7c-1.1,0.2-2.1,0.4-3.2,0.6
					c-0.6,0.1-1.2,0.2-1.8,0.4l-0.1,0c-1.7,0.4-3.4,0.7-5.2,0.7c-7,0.4-14-1.2-20.1-4.8c-6.1-3.7-11.3-8.9-14.9-15.1
					c-1.9-3.1-3.6-6.3-4.9-9.7c-0.6-1.3-1.1-2.8-1.6-4.1l-0.3-0.9v0c-0.2-0.6-0.4-1.2-0.6-1.8c-0.1-0.3-0.2-0.5-0.2-0.7l-0.7-2.1
					l-1.1,0.3c-2.3,0.4-4.3,1.8-5.6,3.8c0.4-2,1.6-3.8,3.4-4.8c4.9-2.8,12.2-2.1,18,0.3c-1.4,0-2.7,0-4.1,0c-1.7,0-3.5,0-5.3,0
					l-3.4,0.1l2.7,2c1.7,1.3,3.4,2.4,5,3.4c3.1,1.9,6.3,3.6,9.7,5c6.7,2.8,13.7,4.5,20.9,5.2c7.2,0.7,14.4,0.6,21.6-0.4
					c4-0.5,8.1-1.2,12.6-2.2l0,0l0.8-0.2c2.5-0.6,5.1-1.2,7.9-1.9l2.1-0.5l1.5-0.4l0.2,0h0.2h0.2c0.5,0,0.9-0.3,1.1-0.7
					c0-0.1,0.1-0.2,0.1-0.3l0.2-0.7l-0.4-0.3c-0.1-0.1-0.2-0.3-0.3-0.4l-0.2-0.2l-0.9-0.8l0.8,0.4
					C103.3-770,103.8-769.7,104.2-769.5"/>
				<path id="Trazado_4373" class="st1" d="M-59.5-751.3c1.9,2,4,3.9,6.3,5.6c1.2,0.9,2.5,1.6,3.8,2.2c0.6,0.3,1.2,0.4,1.9,0.5
					l0.1,0c0.1,0,0.2,0,0.2,0h0.1c0.1,0,0.2,0,0.3,0h0.1h0.1c0.2,0,0.4,0,0.6-0.1c0.1,0,0.3,0,0.4-0.1h0.1c1.5-0.3,2.9-0.7,4.3-1.3
					c1.4-0.6,2.8-1.3,4.2-2c1.7-0.9,3.5-2.1,5.6-3.5l15.6-12.5l0.2-0.2l0.3-0.3l1.7,1.8l3.6,3.8l-1.7-5c-0.7-2.1-1.2-4.2-1.4-6.4
					c-0.3-3.4,0.1-6.9,1.3-10.1c0.2-0.7,0.5-1.3,0.8-2l0.2-0.4c0.1-0.2,0.3-0.5,0.4-0.7l0.5-0.9l0.4-0.5c0.9-1.4,1.9-2.7,3.1-3.9
					c2.3-2.4,5.2-4,8.4-4.9c2.6-0.6,5.4-0.8,8.1-0.4l2.5,0.3l-1.4-2.1c-1.2-1.8-11.1-19.1-7.1-33.9c-19.4,7-37.2,17.9-52.2,32
					c0.4,0.3,2.4,1.4,2.8,1.7c0.6,0.4,1.2,0.8,1.8,1.2l1.7,1.2c0.4,0.3,0.7,0.5,1.1,0.8l-0.8,2.9c-0.3,0.1-0.5,0.2-0.7,0.3l-0.6,0.4
					l-0.3,0.2l-0.2,0.2c-0.1,0.1-0.2,0.2-0.3,0.3c-0.1,0.2-0.3,0.4-0.4,0.6c-0.1,0.2-0.2,0.4-0.3,0.6l-0.1,0.1
					c-0.2,0.5-0.4,0.9-0.5,1.4c-0.1,0.2-0.1,0.4-0.1,0.6l0,0.1c0,0.2,0,0.3,0,0.5c0,0.1,0,0.1,0,0.2v0.1c0.1,2.2,0.8,4.3,2,6.1
					c1.1,1.9,2.6,3.5,4.5,4.6c0.8,0.5,1.8,0.8,2.8,0.8h0c0.9,0,1.8-0.3,2.6-0.9c0.1-0.1,0.3-0.2,0.4-0.3l0.3-0.3l0.4-0.5
					c0.1-0.1,0.2-0.2,0.3-0.4l0.6-1c0.3-0.5,0.6-1,0.9-1.6l0.3-0.5l1.2,2.1c0.1,0.1,0.1,0.2,0.1,0.3s0.1,0.2,0.1,0.2l0.3,0.6
					l0.4,1.3l0.3,1.4c0,0.1,0,0.1,0,0.2l0,0.3c0,0.3,0.1,0.5,0.1,0.8c0.2,2.3-0.1,4.6-1.1,6.7c-0.5,1-1.1,1.9-1.9,2.7
					c-0.8,0.7-1.7,1.2-2.7,1.6c-0.7,0.2-1.3,0.4-2,0.4c0.7-0.2,1.3-0.5,2-0.8c1.8-1,3.1-2.6,3.6-4.5c0.6-1.9,0.7-3.9,0.3-5.8
					c0-0.3-0.1-0.5-0.1-0.7l0-0.2l0-0.1l-0.2-0.6l-0.5-0.1c-0.1,0-0.2-0.1-0.3-0.1l-0.2,0c-0.5,0-0.9,0.2-1.1,0.6l-0.1,0.1
					c-0.1,0.1-0.2,0.2-0.3,0.3l0,0c-1.1,0.8-2.4,1.3-3.8,1.3c-1.3,0-2.6-0.4-3.8-1.1c-2.2-1.3-4-3.2-5.3-5.4
					c-0.7-1.1-1.2-2.3-1.6-3.5c-0.4-1.3-0.7-2.6-0.7-4c0-0.1,0-0.2,0-0.3c0-0.3,0-0.5,0.1-0.8c0-0.3,0.1-0.7,0.2-1l0-0.1
					c0.2-0.7,0.4-1.3,0.7-1.9c0.1-0.3,0.3-0.6,0.5-0.9l0-0.1c0.2-0.3,0.4-0.6,0.6-0.8l0,0c0.1-0.1,0.2-0.2,0.3-0.3l0.3-0.3l1.2-1
					l-1.4-0.9c-0.6-0.4-1.2-0.8-1.8-1.2c-0.7-0.4-2.3-1.8-2.9-2.2c-8.8,8.4-16.4,17.9-22.6,28.4c1.6,2.4,5.1,6,6.8,8.3
					C-63.3-755.5-61.4-753.3-59.5-751.3 M-29.3-769.4c-0.1,0.2-0.2,0.5-0.4,0.6l-0.6-0.6l0-0.2l0,0c0,0,0,0,0,0L-29.3-769.4z"/>
				<path id="Trazado_4374" class="st2" d="M-35.3-804.9c-2.5-2-4.4-3.2-4.4-3.2s-26.1-9.9-40.6,0c-8.3,5.7-0.1,26.1,10.4,43
					C-61.2-780.6-49.4-794.1-35.3-804.9"/>
				<path id="Trazado_4375" class="st2" d="M-48.4-741.2c10.3,1.6,33.2-23.2,33.2-23.2c-0.1-13.7-14-29.5-14-29.5
					c2.2,0.2,4.3,0.8,6.3,1.8c-2.5-4.7-8.3-9.6-12.3-12.8c-14.1,10.8-25.9,24.3-34.6,39.8C-62-752.5-52.8-741.9-48.4-741.2"/>
				<path id="Trazado_4376" class="st2" d="M126.9-818.7c-2.9-1-6.1,1.3-7.3,2.3l-0.3,0.2L119-815c-1.2,4.6-2.6,9.8-3.8,15.6
					l-0.2,0.9l0.8,0.4c12,6.4,16,15,11.7,25.6c-1.3,3.2-2.8,6.3-4.6,9.2l-0.9,1.5l1.7,0.3c0.9,0.1,1.8,0.2,2.8,0.2
					c0.5,0,1.1,0,1.6-0.1c0.7-0.2,1.4-0.6,1.7-1.3c3.8-5.2,5.7-25.5,2.7-44.7C131.6-813.9,129.7-817.7,126.9-818.7"/>
				<path id="Trazado_4377" class="st2" d="M111.5-796.6c0,0-2.5,9.7-17.4,14.7c5-11.7-7.4-13.5-18-14.6s-24.3,2.1-15.8,14.7
					c-7.2,0.9-14.5,0.6-21.6-0.9c-12.3-2.5-30.4-13.2-40.2-7.8c-9.8,5.4-16.8,21.8-4.1,37.3c12.7,15.5,23.9,22.2,49.6,24.2
					s57.1,0.2,58.4-4.2s17.3-25.7,17.3-25.7S142-785.8,111.5-796.6"/>
				<path id="Trazado_4378" class="st3" d="M86.1-760.9c-2.9,0.6-5.9,1-8.9,1.4c-7.3,0.9-14.7,1.1-22.1,0.4
					c-7.4-0.7-14.7-2.6-21.6-5.4c-3.5-1.5-6.8-3.2-10-5.2c-1.5-0.9-3-1.9-4.4-3c0.5,1.4,1,2.8,1.6,4.2c1.3,3.2,2.9,6.3,4.7,9.2
					c0.9,1.5,2,3,3.1,4.4c6.2-4,13.7-5.4,20.9-4c2.8,0.6,5.4,1.6,7.8,3.1c2.7-1.4,5.8-2,8.8-1.7c8.3,0.6,13.9,7.3,17.1,13
					c1.1-0.1,2.1-0.2,3.2-0.2C83.9-749.8,83.7-755.8,86.1-760.9"/>
				<path id="Trazado_4379" class="st4" d="M59.6-755l-1.5,0.5c-8.6-3.9-18.6-2.6-25.8,3.5l-1,0.8l1,0.9c2,1.9,4.3,3.6,6.7,5
					c5.3,3.1,11.3,4.7,17.4,4.7c0.7,0,1.4,0,2-0.1c1.7-0.1,3.3-0.3,5-0.7c0.6-0.1,1.2-0.2,1.7-0.3c1.1-0.2,2.3-0.5,3.4-0.6
					c2.9-0.6,6.1-1.1,10.2-1.7c0.5-0.1,1-0.1,1.5-0.2l2.1-0.2l-1-1.6C73-758.1,63.4-756.3,59.6-755"/>
				<path id="Trazado_4380" class="st1" d="M-95.9-646.5l-1.1,0.7l0.3,0.4l-0.3,0.2l1.9,1.6l-2.5,3.2l1.3,0.6
					c3.3,1.6,6.8,2.8,10.5,3.5l1,0.1l-0.7,0.8c-1.9,1.9-3.9,3.8-6,5.4l-1.2,0.9l1.2,0.9c2.5,1.8,5.3,3.1,8.3,3.9l0.5,0.2l-0.2,0.6
					c-1,2.4-2.1,4.6-2.9,6l-0.7,1.3l9.5,2.8l-0.7,0.7c-1.7,1.6-4.8,4.6-7.1,6.6l-1.4,1.2l1.7,0.7c2,0.8,4.3,1.7,4.9,1.9l0.3,0.1
					l0.3-0.1c5.6-1,11.1-2.3,16.5-4c-9.8-14.2-17-29.9-21.3-46.6C-87.9-651-92-648.9-95.9-646.5"/>
				<path id="Trazado_4381" class="st1" d="M-12.2-645.2l0-0.2l0.1-0.1c3-4.5,11.1-20.1,14.5-26.6l0.6-1.1l-1.1-0.5
					c-3.4-1.6-6.7-3.5-9.7-5.7c-2.2-1.5-4.2-3.3-6-5.1c-0.5-0.5-1-1.1-1.6-1.7l-1-1.1l-0.9,1.2c-3.4,4.8-11.8,16.5-15.1,22.1
					l-0.3,0.5l-0.5,0c-17.3,0.8-34.3,4.5-50.5,10.8c4.3,16.7,11.5,32.4,21.3,46.6c10.2-3.2,19.9-8,28.7-14.1
					C-20.8-629.4-14.1-639.4-12.2-645.2"/>
				<path id="Trazado_4382" class="st1" d="M183.2-714c-3,0.4-6.5,0.8-6.6,0.8l-0.5,0l0-5.8l-1.3,0.2c-2.3,0.3-4.4,1-6.4,2l-0.6,0.4
					v-0.8c0-1-0.1-4.8-0.1-7l0-1.4l-1.4,0.3c-2.7,0.4-5.3,1.2-7.8,2.3l-0.9,0.5l0.4-1.2c0.5-1.5,1.5-6.1,2-8.7l0.4-1.9l-1.8,0.5
					c-1.3,0.4-2.6,0.8-3.8,1.4l-0.7,0.3l0.1-0.9c0.4-3.3,1.1-6.6,1.9-9.8l0.4-1.7l-9,1.4l-0.3,0.3c-0.2,0.2-0.5,0.5-0.7,0.7
					c-0.7,0.7-1.4,1.4-2.1,2.2c-1.3,1.4-2.6,2.9-4,4.7c-2.6,3.3-4.9,6.7-7,10.3c-4.2,7.3-7.1,15.2-8.8,23.4c-0.2,1-0.4,2-0.7,3.1
					c-0.2,1.1-0.5,2.1-0.8,3.1c-0.2,0.5-0.3,1-0.5,1.5l0,0.1c-0.1,0.3-0.2,0.7-0.3,1c-0.1-0.4-0.1-0.7-0.2-1.1
					c0-0.5-0.1-1.1-0.1-1.6c0-0.9-0.1-2.2,0-3.3c0.1-0.6,0.1-1.2,0.2-2l0.6-4.1l-2.7,3.2c-9.2,11-10.6,20.6-10.8,24.3l0,0.6l0.5,0.4
					c9.5,7.6,20.3,13.4,31.9,17.3l0.6,0.2l0.5-0.3c5.2-3.3,31.9-21.3,42.1-53.2l0.6-1.8L183.2-714z"/>
				<path id="Trazado_4383" class="st2" d="M-87.5-615.9c0.2-0.3,1.7-2.8,3.1-5.9l0.5-1.2l-1.2-0.4c-6.4-2.2-8.4-4.9-8.5-5l-0.3-0.5
					l0.4-0.3c0,0,2.6-1.9,5.1-4.3l1.6-1.5l-2.1-0.5c-3.3-0.9-6.5-2.2-9.5-3.9l-0.5-0.3l2-2.6l-0.6-0.7c-5-6.4-11.5-12.8-14.1-12.8
					c-0.8,0-1.8,0-2.9,0.1c-5.9,0.2-15.8,0.5-22-2.4c-2-0.9-4.1-2.1-6.1-3.3c-5.3-3.1-10.7-6.2-13-3.7c-1.1,1.2-1.2,4.3-0.4,8.1
					c1.4,6.3,5.4,13.7,10.3,15.5c4.1,1.5,8.3,2.6,12.7,3.3l0.4,0.1l0.3-0.2c3.8-1.9,7.8-3.2,11.9-3.9c2.1-0.3,4.1-0.5,6.2-0.4
					c-2,0.4-4,0.9-6,1.6c-4.4,1.6-8.7,3.5-12.9,5.7l-3.7,2.1c-1.3,0.7-2.7,1.4-4,1.9c-1.2,0.5-2.6,0.9-4.2,1.4
					c-0.8,0.2-1.5,0.4-2.1,0.5l-2.5,0.5l-1.3-0.7l-2.9-1.5c-1.3-0.6-2.6-1.3-3.9-1.9c-3-1.4-5.5-2.4-7.9-3.3c-2.6-1-5.3-1.7-8.1-2.1
					c-1.3-0.2-2.6-0.1-3.8,0.2c-1.3,0.4-2.5,1-3.6,1.8c-1.1,0.8-2,1.7-2.8,2.8c-0.7,1-1.1,2.2-1.2,3.4c0,0.2,0,0.4,0.1,0.6l0.1,0.3
					c0.1,0.2,0.2,0.4,0.3,0.5l0.1,0.1c0.1,0.1,0.3,0.3,0.4,0.4c0.1,0.1,0.2,0.1,0.3,0.2c0.1,0,0.2,0.1,0.2,0.1l0.3,0.2
					c1.2,0.6,2.5,1.2,3.9,2c2.4,1.3,4.9,2.8,7.5,4.5c1.3,0.8,2.5,1.6,3.7,2.4l1.8,1.2l1.3,0.9l0,0.3l0.6,0.1l0.6,0.4l0.2-0.2l0.1,0
					c0.4,0.1,0.9,0.2,1.4,0.3c0.8,0.1,1.7,0.2,2.9,0.4c1.7,0.2,3.5,0.3,5.9,0.5c3,0.2,6.1,0.3,10,0.4l1.1,0l0.1-1.1
					c0.1-2,0.5-4,1.3-5.8c0,0.5,0,1,0,1.5c0,1.7,0,3.4,0.1,5c0.1,3.2,0.4,6.3,0.8,9.4c-1-1.7-1.6-3.6-1.9-5.5l-0.2-0.9l-1.8-0.1
					l-0.2,0.1c-1.1,0.3-2.1,0.7-3.1,1.1c-1,0.4-2,0.8-3,1.3c-0.5,0.2-1,0.5-1.4,0.7l-0.9,0.5l-0.9,0.5l-0.8-0.4l-1.4-0.7
					c-0.4-0.2-0.8-0.3-1.1-0.5c-0.8-0.3-1.5-0.6-2.3-0.9c-1.5-0.6-3.1-1-4.7-1.3c-3.1-0.8-6.3-0.7-9.4,0.3c-0.7,0.3-1.4,0.6-2.1,1.1
					c-0.6,0.4-1.3,0.9-1.8,1.5c-2.3,2.2-3.6,5.3-3.6,8.5c0,0.7,0.1,1.5,0.3,2.2c0,0.1,0.1,0.2,0.1,0.3c0,0.1,0.1,0.2,0.1,0.2
					l0.3,0.4l1.3,0.3l2.7,0.6c1.2,0.3,2.3,0.6,3.6,0.9c1.8,0.5,3.8,1.1,6,1.7l0.4,0.1l1.1-0.5l0.6-0.2c0.3-0.1,0.5-0.2,0.8-0.2
					l0.3-0.1c2.9-0.6,5.8-1.1,8.8-1.4c5.2-0.5,10.8-0.9,17.6-1h0.1l0.1,0.1l0.4-0.1l0.7-0.1l0.1-0.2l0.4-0.2l-0.1-0.6l0.1-0.3
					c0.2-0.6,0.4-1.3,0.7-2.2c0.5-1.4,1.1-2.9,1.8-4.2c1.3-2.7,2.9-5.3,4.8-7.7c1.4-1.8,2.9-3.4,4.7-4.8c-1.5,1.7-2.8,3.6-3.9,5.5
					c-1.5,2.5-2.8,5.1-3.8,7.9c-0.5,1.3-1,2.7-1.5,4.1c-0.2,0.7-0.4,1.4-0.6,2.1l-0.1,0.5c-0.1,0.3-0.2,0.6-0.2,0.9l0,0.2
					c-0.1,0.4-0.2,0.9-0.3,1.4l-3,0c-6.8,0.2-12.3,0.5-17.4,1c-2.9,0.3-5.7,0.7-8.5,1.3l-0.2,0.1c-0.3,0.1-0.5,0.1-0.8,0.2l-0.4,0.1
					l-0.5,0.2c-0.6,0.3-1.2,0.6-1.7,1c-1.1,0.9-2,1.9-2.7,3c-1.5,2.4-2.4,5.1-2.6,8c0,0.7,0,1.3,0.2,2c0.1,0.6,0.3,1.2,0.7,1.6
					c0.3,0.4,0.7,0.6,1.1,0.7l0.3,0c0.1,0,0.1,0,0.2,0c0.1,0,0.3,0,0.4,0l1-0.1c5.8-0.7,11.7-1.1,17.5-1.1h0.1
					c1.7,0,3.4-0.1,5.1-0.1c4.1-0.1,8.3-0.1,12.4-0.4c1.7-0.1,3.1-0.2,4.3-0.4c1.4-0.1,2.8-0.4,4.1-0.7c0.6-0.2,1.3-0.4,1.8-0.7
					l5.6-3.6c6.7-4.2,13.6-8.5,20.2-12.6c3.3-2,6.5-4,9.7-6l1.2-0.7l-0.4-0.9c-0.3-0.6-0.7-1-1.2-1.4l-0.1-0.1l-1-0.6l0.9-0.4l0.1,0
					c2.4-1.9,4.8-3.9,6.9-6.1l1.5-1.4l-9-2.7L-87.5-615.9z"/>
				<path id="Trazado_4384" class="st2" d="M222.5-743.8c-2.3,0.6-4.6,0.9-6.9,0.9c-5.6,0.1-11-1.3-15.9-3.9c-0.3-0.2-0.6-0.4-1-0.6
					l-0.6-0.4c1.9,4.9,3.5,9.8,4.9,14.9c3.3,1.3,6.7,2.2,10.2,2.5h0.1c2.6,0,6.7-4.5,10.5-11.6l1.3-2.4L222.5-743.8z"/>
				<path id="Trazado_4385" class="st2" d="M197.8-748.1l-0.7,0.8c-1.8,2.1-3.2,4.6-4,7.2l-0.1,0.3l0.1,0.3c0.1,0.2,0.2,0.5,0.3,0.7
					l0.1,0.1c0,0,0,0,0,0.1l0.1,0.1c2.1,2.1,4.6,3.7,7.4,4.7c0.6,0.3,1.3,0.5,1.9,0.8c-1.4-5-3-10-4.9-14.9L197.8-748.1z"/>
				<path id="Trazado_4386" class="st2" d="M232.4-770.6c-1.1,2.1-2.5,4.2-4,6l0,0c-2.3,2.8-7.3,4.4-13.4,4.5
					c-5.3-0.1-10.5-1.1-15.5-2.8l-1.1-0.4l-0.4,1c-0.8,1.7-1.4,3.5-1.9,5.3c-0.6,2.1-0.3,5.2,4.6,8.1c4.6,2.5,9.7,3.8,15,3.7
					c5,0,9.6-1.2,11.6-3.6c4.8-6,7.4-13.5,7.5-21.2l0.2-5.1L232.4-770.6z"/>
				<path id="Trazado_4387" class="st2" d="M194.1-757.6c0.6-2.2,1.4-4.4,2.4-6.5l0.3-0.6l-0.4-0.5c-0.2-0.2-0.3-0.5-0.4-0.7
					c-1.7-3.6-0.8-9.2-0.1-12.1l0.9-3.9l-2.9,2.8c-0.5,0.5-1,1-1.5,1.5c-0.8,0.8-1.6,1.5-2.3,2.1l-0.7,0.7l0,0l-0.3,0.1l-0.1,0.3
					l-0.6,0.6l0.6,0.6l0.2,0.6c0.3,0.7,0.5,1.4,0.8,2.5c0.5,1.7,0.8,3.3,1,5c0.1,0.7,0.1,1.4,0.2,2c1,1.9,2,3.8,3,5.8
					C194.1-757.4,194.1-757.5,194.1-757.6"/>
				<path id="Trazado_4388" class="st2" d="M229.4-789.5l0.2-0.5l-0.5-0.3l-0.1-0.7l-0.8,0.2l-0.5-0.3l-0.2,0.2l-0.3-0.1
					c-0.2-0.1-0.4-0.1-0.7-0.2c-0.2-0.1-0.4-0.1-0.6-0.2c-0.9-0.3-1.7-0.7-2.5-1c-2.7-1.3-5.3-2.7-7.9-4l-2.3-1.2
					c-2.7-1.5-5.6-3-8.3-4.2c-0.9-0.4-1.7-0.7-2.3-1l-0.5-0.2l-0.5-0.2l-0.3-0.1c-0.1,0-0.2,0-0.3,0l-0.1,0l-0.9,0l-0.8,0.1
					c-0.4,0-0.8,0.1-1.1,0.1c-0.7,0.1-1.5,0.2-2.5,0.3c-3.1,0.4-6.4,0.9-10.1,1.6c-4.1,0.8-7.2,1.5-9.9,2.3
					c-0.3,0.1-0.5,0.2-0.8,0.2l-0.4,0.1c-0.4,0.1-0.8,0.3-1.2,0.4c-0.1,0-0.2,0.1-0.3,0.1c-0.3,0.1-0.6,0.2-0.8,0.4l-0.4,0.2
					c-0.1,0.1-0.3,0.1-0.4,0.2l-0.2,0.1c-0.6,0.5-1.2,1.1-1.7,1.7c-0.5,0.5-0.9,1.1-1.3,1.8c7.9,7.8,14.8,16.7,20.5,26.3
					c-0.2-0.7-0.4-1.5-0.6-2.2c-0.2-0.7-0.5-1.5-0.8-2.2l-1.4-3l1.7-1.5l3.6-3.4c0.6-0.6,1.3-1.2,1.9-1.9l0.9-0.9l1.4-1.4l3.1,0.8
					l7.5,2c3.3,0.8,6.6,1.7,10,2.5l1.3,0.3l1.1,0.2c0.3,0.1,0.5,0.1,0.8,0.1c0.1,0,0.2,0,0.4,0l0.3,0c0.3,0,0.6,0,1,0
					c1.5-0.1,3-0.6,4.3-1.4c1.3-0.9,2.4-2.1,3.2-3.4c0.8-1.4,1.3-2.9,1.5-4.5c0.1-0.7,0-1.4-0.1-2.1
					C229.5-789.4,229.5-789.5,229.4-789.5"/>
				<path id="Trazado_4389" class="st2" d="M168.3-793.6c-0.1,0.1-0.1,0.2-0.2,0.3c-2.1,2.9-3.9,6-5.7,8.9
					c-3.3,5.6-6.5,11.5-9.5,17.2l-1.2,2.2c-0.1,0.1-0.1,0.3-0.2,0.4c0,0,0,0.1-0.1,0.2c0,0,0,0.1-0.1,0.1c-0.1,0.1-0.1,0.2-0.2,0.3
					l-0.4,1.1l-0.2,0.7c-0.1,0.4-0.2,0.8-0.3,1.3c-0.3,1.7-0.5,3.5-0.7,5.2c-0.2,3-0.3,6.4-0.2,10l0,1.3l8.1-1.3l-0.2,0.8
					c0,0-1.4,5-2.1,9.2l-0.4,2l1.9-0.6c1.3-0.4,2.6-0.8,4-0.9l0.6-0.1l-0.1,0.7c0,0-0.9,4.7-1.7,8.2l-0.5,2l1.9-0.6
					c2.3-0.7,4.6-1.2,7-1.6l0.5-0.1l0,0.8c0,0.9,0.1,3.9,0.1,6.2l0,1.7l1.5-0.6c2.1-0.7,4.2-1.2,6.4-1.3l0.4,0l0,5.8l1.3-0.1
					c1.9-0.2,4.5-0.5,6.4-0.8l1.2-0.4c0.1,0,11.6-3.7,17-13.9l0.6-1.2l-1.3-0.5l-0.4-0.1l-0.5-0.2l-1.2-0.5l-1.1,3.5
					c-0.4,1.4-1.4,2.5-2.7,3.1c-1.3,0.6-2.7,0.6-4,0.1c-1.2-0.5-2.2-1.5-2.7-2.8c-0.5-1.3-0.5-2.7,0-4l2.2-5.8l-0.2-0.4
					c-0.4-0.7-0.5-1.5-0.3-2.3c0.9-3,2.4-5.8,4.4-8.2l0.6-0.7l-0.6-0.8c-1.6-2-2.3-4.6-1.7-7.1c-1-2-1.9-3.9-3-5.8
					c0.2,2.7,0.1,5.5-0.4,8.1c-0.3,2-0.9,4-1.6,5.9c0.5-2,0.8-4,0.9-6c0.2-3.3-0.1-6.5-0.7-9.7c-0.2-0.9-0.4-1.7-0.6-2.5
					C183-776.9,176.2-785.8,168.3-793.6"/>
				<path id="Trazado_4390" class="st2" d="M234.7-791.1l0-0.2l-0.1-0.2c-3-3.7-6.5-7.1-10.3-10l-1.3-0.9l-2,5.9l0.9,0.5
					c1,0.5,1.9,0.9,2.7,1.3c0.6,0.3,1.5,0.7,2.3,1c0.2,0.1,0.4,0.1,0.6,0.2c0.2,0.1,0.4,0.1,0.6,0.2l0.9,0.2c0.2,0,0.3,0.1,0.5,0.1
					c0.1,0,0.2,0.1,0.4,0.2l0.1,0c0.1,0.1,0.2,0.1,0.3,0.2c0.1,0.1,0.3,0.2,0.4,0.3c0.1,0.1,0.2,0.3,0.4,0.4
					c0.1,0.1,0.1,0.2,0.2,0.3l0,0c0.1,0.1,0.1,0.2,0.2,0.4l0.1,0.2c0.1,0.2,0.2,0.4,0.2,0.6l0,0c0.3,1,0.4,2.1,0.2,3.2
					c-0.2,2-0.8,3.9-1.8,5.6l0,0c-0.5,0.8-1.1,1.6-1.7,2.4c-0.7,0.7-1.4,1.3-2.2,1.9c-1.6,1-3.4,1.6-5.4,1.7c-0.5,0-0.9,0-1.4,0
					l-0.5,0c-0.3,0-0.6-0.1-0.9-0.1l-0.7-0.1l-1.9-0.4c-3.4-0.8-6.7-1.6-10-2.5l-5-1.3l-1.7-0.4l-0.3,1.1c-0.1,0.3-2.4,8.3-0.5,12.3
					c0.4,0.9,1.2,1.7,2.2,2c4.9,1.7,10.1,2.6,15.3,2.7c5.4,0,9.7-1.2,11.7-3.7C232.8-773,235.5-782.1,234.7-791.1"/>
				<path id="Trazado_4391" class="st1" d="M73.8-727.2l-27.5-1.5C72.2-710.8,73.8-727.2,73.8-727.2"/>
				<path id="Trazado_4392" class="st1" d="M116.1-610.3c0,0-28.4,18.7-100.6,8.5c4.9,12.7,4.7,16.2,4.2,18.7
					c-0.4,2.4-10.9,28.8-12.1,31.8c27.8,10.4,58.1,12.3,87,5.5c5.7-26.3,7.1-32.9,9.7-37.1C106.8-587,116.1-610.3,116.1-610.3"/>
				<path id="Trazado_4393" class="st5" d="M22-836.6c-6.4,1.7-10.4,4.8-12.7,8.6c9.7-3.1,19.8-5.3,29.9-6.6
					C34-837.7,27.8-838.5,22-836.6"/>
				<path id="Trazado_4394" class="st5" d="M17-790.9c3.6,1.5,7.3,2.5,11.2,3.1l20.6-4.3c0,0,6.1-2.6,6.2-8.1
					c0-4.1-2.8-26.4-15.8-34.4c-10.2,1.3-20.2,3.5-29.9,6.6C1.7-815.4,13.3-794.8,17-790.9"/>
				<path id="Trazado_4395" class="st5" d="M86.9-833.8c6.6,1.1,13.2,2.5,19.6,4.4C101.4-836.3,90.9-841.5,86.9-833.8"/>
				<path id="Trazado_4396" class="st5" d="M89.6-802.4c5.3,5.8,14.2,7.2,14.2,7.2c1.7,0,3.3-0.3,4.9-0.8c2.6-2.9,2.5-19.2,0.3-28.2
					c-0.5-1.9-1.4-3.6-2.6-5.1c-6.4-1.9-13-3.3-19.6-4.4c-0.2,0.3-0.3,0.7-0.4,1C82.1-822.8,83.3-811.3,89.6-802.4"/>
				<path id="Trazado_4397" class="st6" d="M103.2-810.3l-0.4-0.3c-2.2-1.8-5-2.6-7.8-2.3l-2.7,0.4l2.2,1.7c1.6,1.5,2.5,3.6,2.8,5.7
					c0.7,3.3,0.3,4.3,0,4.6c-0.2,0.2-0.6,0.3-1.3,0.2c-2.2-0.3-3.7-2.5-4.6-6.5c-0.2-0.7-0.3-1.4-0.4-2.1l-0.3-2.7l-1.8,2
					c-0.3,0.3-0.5,0.6-0.8,1l-0.3,0.5l0.2,0.5c0.8,2.7,1.9,5.4,3.3,7.9l0.2,0.3l0.3,0.2c2.9,1.6,6.1,2.4,9.3,2.4c0.2,0,0.4,0,0.6,0
					l0.9,0l0.2-0.9c0.8-4,0.9-8.1,0.4-12.2L103.2-810.3z"/>
				<path id="Trazado_4398" class="st6" d="M43.9-805.1l-0.1-0.3l-0.3-0.2c-2.7-1.8-5.9-2.5-9.1-2.1l-3.2,0.3l2.6,1.8
					c1.3,1.1,2.3,2.6,2.8,4.3c0.8,1.5,0.9,3.2,0.4,4.8c-0.5,0.8-1.4,1.2-2.3,1.3c-1.8,0.3-4.4,0.2-6.2-4.9c-0.5-1.2-0.7-2.4-0.7-3.7
					l0.3-2.5l-2.1,1.4c-2.7,1.8-4.4,4.7-4.8,7.9l0,0.3l0.1,0.3c0.8,1.9,1.9,4,3.2,6.4l1.1,1.7l3.6-0.1c5.9-0.4,11.8-1.9,17.2-4.3
					l0.9-0.4l-0.2-0.9C46.3-797.7,45.2-801.4,43.9-805.1"/>
				<path id="Trazado_4399" class="st0" d="M40.8-801.9c-2.5-0.4-2.3,3.1-2.3,3.1s-7.5,4.6-9.6,2.1s-6.3,0.6-4.2,4.6
					c0.2,8.6,18.5,0.7,20.7-0.2c2.2-0.8-0.2-5.1-0.7-6.6C44.2-800.6,42.6-801.8,40.8-801.9"/>
				<path id="Trazado_4400" class="st0" d="M100.6-804.9c-1.5-0.3-1.8,1.6-1.8,1.6l-8.7-0.5c1.1,5.7,6.1,6,10,6.6
					c3.9,0.6,2.3-4,2.3-5.1C102.3-803.4,102.1-804.5,100.6-804.9"/>
				<path id="Trazado_4401" class="st7" d="M100.9-692.8c0.2,0.4,0.4,0.7,0.6,1.1c0.2,0.3,0.4,0.7,0.6,1.1c0.4,0.7,0.8,1.4,1.1,2.2
					l1.7,3.4c0.3,0.5,0.5,1,0.7,1.6l1.6,3.5l0.8-3.3c2.5-9.2,7.4-17.5,14.3-24.1l0.9-0.9l-0.9-0.8c-6.9-6.6-14.9-12-23.6-15.9
					c-2.8-1.2-5.7-2.1-8.7-2.7l0-0.4l-1.4,0.2c-1.7,0.2-3.5,0.4-5.5,0.6l-1.3,0.1l0.2,1.2c0.8,4,0.1,8.1-1.9,11.6
					c-2.3,3.3-6.4,5-12.1,5.2c-9.2,0.3-19.5-3.4-29.5-10.7c-4.3-3.1-8.4-6.7-12-10.6l-0.3-0.3l-0.4-0.1c-2.1-0.4-4.1-0.9-6.1-1.7
					l-1.4-0.5l-0.1,0.6l-0.4,0l-1.3,0.2L16-732c-1.2,0.2-2.3,0.6-3.5,1l-1.7,0.7c-0.4,0.2-0.8,0.3-1.1,0.6c-0.2,0.1-0.4,0.2-0.5,0.3
					c-0.9,0.4-1.8,0.9-2.6,1.5L6-727.6c-4.2,2.9-7.9,6.3-11.2,10.2l-2.4,2.9c-0.3,0.4-0.6,0.7-0.9,1.1c-0.1,0.2-0.2,0.3-0.4,0.5
					l-2.8,3.9c-0.1,0.2-0.2,0.4-0.4,0.6l-3.3,5.2c-0.2,0.4-0.5,0.8-0.7,1.1c-0.1,0.2-0.2,0.4-0.3,0.6l-2.8,5l0.2,0.5l0.3,0.7
					c0.2,0.4,0.4,0.9,0.6,1.3c0.1,0.2,0.2,0.3,0.3,0.5c0.2,0.4,0.4,0.8,0.6,1.1c2.7,4.3,6.2,7.9,10.4,10.8c4.1,2.9,8.5,5.3,13.2,7.2
					c4.6,1.9,9.5,3.1,14.4,3.6c0.7,0.1,1.3,0.1,1.8,0.1c0.5,0,1,0,1.5,0l1.5,0l0.3-0.8l0.2-0.5c0.9-2.4,1.7-4.9,2.4-7.4
					c1.2-5,2.2-10,3.2-16c0.3-2,0.7-4,1-6.5c0.1,2.3,0.1,4.5,0,6.6c-0.1,5.6-0.8,11.1-2.1,16.5c-0.6,2.6-1.5,5.2-2.5,7.8l-1.1,2.6
					l-1.4,0.1c-0.4,0-0.9,0.1-1,0.1h0h-0.3c-0.6,0-1.1,0-1.7,0c-0.6,0-1.2,0-1.9-0.1c-2.2-0.2-4.4-0.5-6.5-1.1l-1.3-0.3l-0.1,1.3
					c-0.3,3.5-0.5,7.4-0.7,11.7c-0.2,5-0.3,9.9-0.4,14.5c-0.1,9.5,0.1,19.2,0.7,29l0.2,3.6l0.4,6.1l1,0.2c0.6,0.1,1.1,0.2,1.7,0.3
					c4.3,0.8,8.7,1.4,13.6,1.9c8.8,1,17.6,1.4,26.4,1.5h0.9c9.1,0,18.2-0.6,27.3-2c4.5-0.7,9-1.6,13.4-2.8c4.4-1.2,8.7-2.7,12.9-4.6
					c4.2-1.9,8-4.3,11.5-7.3l0.5-0.4l0.8-0.1l-0.3-2.3h-0.1l-1.9-9.3c-1.9-8.5-4.2-18.4-7.2-27.9c-3.3-10.9-6.4-19.9-9.6-28.2
					l-1.4-3.4c-0.3-0.8-0.6-1.5-0.9-2.2c-0.2-0.4-0.4-0.8-0.5-1.3s-0.4-0.9-0.5-1.3c-0.3-0.7-0.6-1.4-0.9-2.1l-0.4-0.8l0.4,0.7
					C100.1-694.3,100.5-693.6,100.9-692.8"/>
				<path id="Trazado_4402" class="st8" d="M79.8-727l-1,0c-1,0-2,0.1-3.1,0.1l-1.2,0l0,1.2c0.1,1.5-0.3,2.9-1.1,4.2
					c-1.4,2-3.9,3-7.4,3h-0.3c-9.5-0.1-20.1-8.3-22.1-9.9l-0.3-0.2l-0.3,0c-3.2-0.3-6.6-0.7-10.1-1.1l-3.6-0.4l2.7,2.5
					c2.4,2.2,4.9,4.3,7.6,6.2c6.6,4.7,16.6,10.3,27.4,10.3c0.3,0,0.6,0,0.9,0c5.1-0.2,8.6-1.6,10.6-4.4c1.7-2.4,2.2-5.9,1.5-10.3
					L79.8-727z"/>
				<path id="Trazado_4403" class="st9" d="M368.3-1000.9l-227.6,27.5c3.5,4.2,5.8,11.5,5.8,19.9v142.4c6.8,4.4,13.2,9.4,19.1,15
					c0.5-0.6,0.9-1.2,1.4-1.9c0.7-0.8,1.4-1.6,2.2-2.2l0.4-0.3c0.1-0.1,0.3-0.2,0.4-0.2l0.7-0.4c0.4-0.2,0.9-0.4,1.4-0.6
					c0.5-0.2,0.9-0.3,1.3-0.5c0.4-0.1,0.9-0.3,1.3-0.4c3.4-1,6.8-1.7,10.2-2.4c3.4-0.7,6.8-1.2,10.3-1.7c0.9-0.1,1.7-0.2,2.6-0.3
					c0.4-0.1,0.9-0.1,1.3-0.1l0.7,0l0.7,0h0.4l0.5,0c0.2,0,0.3,0,0.5,0.1l0.4,0.1l0.8,0.2l0.7,0.2c0.9,0.3,1.7,0.7,2.6,1.1
					c1,0.4,1.9,0.9,2.8,1.4c2.2-0.6,4.4-1.1,6.7-1.5l44.6-116.5c0.4-1.1,1.6-1.7,2.7-1.3c0,0,0,0,0.1,0c1.1,0.5,1.7,1.8,1.3,2.9
					L225-805.1c2.5,1.8,4.9,3.8,7,6c5,4.8,5.4,6.1,5.5,6.6c0.7,4.2,0.5,8.4-0.6,12.5c0.6,3.2,3.3,20.1-7.4,33
					c-0.3,0.7-0.8,1.7-1.4,2.9L376.9-763V-982C376.9-982.1,377.5-999,368.3-1000.9"/>
				<path id="Trazado_4404" class="st9" d="M146.6-758.3c0.1-1.2,0.3-2.4,0.5-3.7c0.1-0.5,0.2-1,0.3-1.4l0.2-0.7
					c0.1-0.2,0.2-0.5,0.2-0.8l0.2-0.8c0.1-0.3,0.2-0.5,0.3-0.8s0.2-0.5,0.4-0.8l0.3-0.6c3.4-6.3,6.8-12.6,10.4-18.8
					c1.8-3.1,3.7-6.2,5.8-9.2l0.3-0.4c-5.9-5.5-12.3-10.5-19.1-15L146.6-758.3z"/>
				<path id="Trazado_4405" class="st10" d="M133.8-972.6c-5,0-8.5,10.1-8.5,19.1c0,9,3.5,19.1,8.5,19.1c5,0,8.5-10.1,8.5-19.1
					C142.3-962.6,138.8-972.6,133.8-972.6"/>
				<path id="Trazado_4406" class="st11" d="M-27.2-844.9c3.8,7.4,8,9.5,8,9.5s-22-48.4,27.7-78.5c0,0-6.6-17.9,5.7-42.8
					C26.5-981.5-2.6-1004-2.6-1004s9.3,19.6,0,34.7s-25,27.7-26.7,47.5c0,0-2.1,19.4,2.1,29c-10.9-13.5-17.8-35.3-12-50.8
					c-7.4-0.6-19.7,23.7-18,35.3c-4.8-4.6-7.3-14.8-7.3-14.8s-17.8,44.6,4.9,82.9c-7.1-8.1-7.5-10.1-7.5-10.1s-5.2,14.8,15.1,36.5
					c6,2.2,11.6,5.2,16.6,9c5.7-4.4,11.7-8.3,17.9-11.7C-21.6-822.2-26-831.2-27.2-844.9"/>
				<path id="Trazado_4407" class="st11" d="M8.5-831c1.4-9.8,9.9-26.2,24.3-29c-15.8-0.1-36,9.5-41.9,30.7c-0.6,3-1,6-1.2,9
					c5.2-2.5,10.5-4.7,15.9-6.6C6.2-828.4,7.2-829.8,8.5-831"/>
				<path id="Trazado_4408" class="st11" d="M-23-792.1c-2.1-0.7-4.2-1.3-6.3-1.8c0,0,14.5,16.1,13.8,29.7c1.1,1.9,2.3,3.6,3.8,5.2
					c0,0-4-15.6,2-22.9c6-7.4,14.5-11.5,23.3-8.2c-6.2-12.2-11.3-29.6-7.8-38.4c-5.4,1.9-10.6,3-15.8,5.5c-0.5,4.8-0.2,9.6,0.8,14.3
					c-3.3-2.4-6.2-5.3-8.6-8.6c-6.6,3.3-12.9,7.2-19,11.4C-31.5-802-26.9-797.4-23-792.1"/>
				<path id="Trazado_4409" class="st11" d="M-95.7-640.7c3.2,4,13.2,4,13.2,4l-8.9,6.9c0,0,5.7-2.6,13.4-5.7
					c-1.6-3.9-2.9-7.9-4.1-12C-86.5-645.6-91.1-643.3-95.7-640.7"/>
				<path id="Trazado_4410" class="st11" d="M-58.9-637.7c0,0,26.5-9.4,32.9-10.1c5.9-9,14.3-26.2,14.3-26.2l-0.8,8.1l6.7-12
					L-17-689.1l-16.7,29.6c0,0-21.1-0.3-48.5,12c1.2,4.1,2.6,8.1,4.1,12c9-3.8,18.4-6.7,28-8.8C-53.3-642.6-56.3-640.4-58.9-637.7"
					/>
				<path id="Trazado_4411" class="st11" d="M115.4-610.3c0,0-23.2,19-99.5,9.5c1.9,5.3,2.6,7.5,2.6,7.5s61.6,12,93.8-7.5
					C117-609.7,115.4-610.3,115.4-610.3"/>
				<path id="Trazado_4412" class="st11" d="M38.4-553.3c-0.3-8.4,2.6-27.1,2.6-27.1c0.7,2.2,1.6,4.3,2.7,6.3
					c-0.3-10.1,0-18.9,0-18.9l-18.2-1.2c0,0,1.2,4.9,2,7.3c0.6,1.6-10.1,34.3-11.5,38.5c5.2,1.6,10.5,2.9,15.8,3.9
					c1.2-6.2,3.3-17,3.3-17C36-558.7,37.1-555.9,38.4-553.3"/>
				<path id="Trazado_4413" class="st11" d="M73.5-546.7c0,0,0.6-18.3,3.8-26.3c10.4-5.9,13-13.7,13-13.7c-5.2,3-10.8,5-16.7,6
					c-8.9,12.1-13.2,36.6-13.6,38.9c3,0,6.1-0.1,9.1-0.3c0-3.9,0.5-7.8,1.3-11.6C71.1-551.1,72.1-548.8,73.5-546.7"/>
				<path id="Trazado_4414" class="st12" d="M2-999.8c0,0,42.7,13.4,63.3,62.8c-13.2-17.3-28.8-20.7-28.8-20.7s-2,17.1,1.5,27.2
					c-10.6-8.2-13.8-12.5-13.8-12.5s6.4,15.7,19.4,23.2c-1-7.6-0.5-15.4,1.4-22.8c0,0,26.1,12.1,19.4,48.6c0.7,2.3,1.8,4.4,3.2,6.3
					c0,0,23-35.3,5.9-71.5C56.5-995.3,2-999.8,2-999.8"/>
				<path id="Trazado_4415" class="st12" d="M121.5-838.8c-1.9-9.5-29.9-51.7-29.9-51.7s31.1-26,6.1-56c0,0,4.1,21.3-1,30.2
					c0.3-4.8-0.6-9.5-2.4-13.9c0,0-0.8,23.3-13.3,40.2c0,0,30.6,35,34,52.5c0.4,3.6,0.2,7.3-0.4,10.8c1.9,0.7,3.7,1.4,5.6,2.1
					C121.5-830.4,122.2-835.6,121.5-838.8"/>
				<path id="Trazado_4416" class="st12" d="M111.5-796.6c3.7-9.1,6.6-18.5,8.8-28c-1.8-0.7-3.7-1.4-5.6-2.1
					c-1.2,9.5-4.1,23-7.5,36.9C109.1-791.7,110.6-794.1,111.5-796.6"/>
				<path id="Trazado_4417" class="st11" d="M97.5-837.6c-1.7-12.7,11.5-17.2,11.5-17.2s-17.9-5.2-25.3,5.2
					c-2.5,3.6-3.3,9.1-3.3,14.8c2.5,0.3,5,0.7,7.4,1.1C90.5-836.1,93.9-837.5,97.5-837.6"/>
				<path id="Trazado_4418" class="st11" d="M87.9-833.6c-2.5-0.4-4.9-0.8-7.4-1.1c0.3,7.7,1.4,15.4,3.3,22.8
					C82.5-820.2,83-828.8,87.9-833.6"/>
				<path id="Trazado_4419" class="st12" d="M176.2-713.7l0.4-6.2l-6.6,2.3c0,0-11.8,25.8-17.8,30.9c2.6,0,5.1-0.7,7.2-2.1
					c0,0-1.3,8.1-22.6,27.8c3.4,1.5,5.2,2.1,5.2,2.1s35.5-19.3,44-56.4C179.2-714.4,176.2-713.7,176.2-713.7"/>
				<path id="Trazado_4420" class="st12" d="M-81.1-614.5l3.9,1.1l-9.1,7.6c0,0,1.8,1.8,4.8,5c6.6-1.1,13.2-2.6,19.6-4.5
					c-2.8-4-5.4-8.1-7.8-12.4C-73.3-616.4-77.2-615.3-81.1-614.5"/>
				<path id="Trazado_4421" class="st12" d="M-11.6-644.7l15.3-28.1l-4.1-2.1c0,0-9.4,18.6-16,29.3c-8.9,17.6-50,29.9-50,29.9
					s3.6-3.7,3.4-5.2c-2.1,1.2-4.3,2.3-6.5,3.1c2.4,4.3,5,8.4,7.8,12.4C-18.8-618.4-11.6-644.7-11.6-644.7"/>
				<path id="Trazado_4422" class="st12" d="M47.6-542.3c3.5,0.3,7.1,0.5,10.6,0.5c0.5-2.7,4.5-24.4,14.5-40.7
					C62.8-570.1,54.4-556.6,47.6-542.3"/>
				<path id="Trazado_4423" class="st12" d="M110.8-600c0,0-9,13.4-12.8,17.5c-3.7,4.1-10.2,28.9-10.2,28.9
					c-0.6-2.8-0.9-5.6-1.1-8.4c-2,5.3-3.4,15.6-3.7,18.5c3.9-0.6,7.7-1.3,11.5-2.2l8.1-33.7C102.7-579.4,111.6-592.7,110.8-600"/>
				<path id="Trazado_4424" class="st13" d="M-47.5-794.3c-6.1-3.6-12.8-6-19.8-7c-7.3-1-4.5,13.4-4.5,13.4c-1.1,4-6.7,4-10.7,1.8
					c1.2,7.9,5.7,16.3,11.2,23.7C-65.1-774.2-57-785-47.5-794.3"/>
				<path id="Trazado_4425" class="st13" d="M-48.3-741.1c9.2,3.8,29.5-18.8,32.7-23c0.3-3.8-0.8-10-5.4-17.8
					c-0.8,6.1-7.7,5.3-7.7,5.3c-1.9,8.7-9.3,8-14.6,2.2c-5.3-5.7-1.7-12.6,1.5-15.6c-1.7-1.6-3.6-3.1-5.7-4.3
					c-9.5,9.3-17.6,20.1-23.9,31.9C-63.5-751.9-53.7-743.4-48.3-741.1"/>
				<path id="Trazado_4426" class="st13" d="M92.9-787.7c-2.1-1.8-3.9,3.3-10.1,2.7c-6.2-0.6-9.5-4.5-13.1-3.8
					c-3.6,0.7-8.6,3.4-3.2,7.1c5.4,3.7,15.1,7.8,26.3-1.6c1.2-0.7,1.6-2.3,0.9-3.5C93.5-787.2,93.3-787.5,92.9-787.7"/>
				<path id="Trazado_4427" class="st13" d="M15.7-777.2c-6.1,1.5-8,5.2-7.6,9.2c1.9,5.9,4.7,11.5,8.2,16.6c-0.7-3.6-1.3-7.3-1.6-11
					c0,0,11.5,27,40.3,25.8C37.8-741.7,20.4-753.8,15.7-777.2"/>
				<path id="Trazado_4428" class="st13" d="M126.8-801.3c-0.8-16.1-10.4-0.5-10.4-0.5l-2.8,4c0,0,11.6,4.5,14.1,14.9
					c2.5,10.4-7.4,20.4-7.4,20.4s7.4,5.8,9.9,1.2c8.6-17.7,2.8-41.5,2.8-41.5c-1.2,2.1-3.9,2.8-6,1.6
					C126.8-801.3,126.8-801.3,126.8-801.3"/>
				<path id="Trazado_4429" class="st13" d="M-98.4-639.4l0.6-2.3l2.1-1.5c0,0-0.5-0.6-1.3-1.5c-3-3.4-10.6-11.7-12.8-12.1
					c-2.9-0.4-16.2,0.4-23.9-1.7s-19.1-11-22.6-7.6c-3.5,3.4,1.2,22.2,9,25.3c4.7,1.9,9.7,3.1,14.8,3.5l-16.4,7.4
					c0,0-21.3-11.8-29.4-9s-10,9.8-6.8,12.4c3.2,2.6,21.1,12.5,21.1,12.5s-20.1,0.2-17.4,16.4c1.1,3.8,17.7,5.8,17.7,5.8
					s28.1-1.5,36.8,1.6c1.2-13.6,9.4-39.1,35-36.7l-1.1-2.8l7.3-6.5L-98.4-639.4z"/>
				<path id="Trazado_4430" class="st13" d="M212.4-777c-5-2.3-10.2-3.9-15.5-5l-9,7.7c0.9,3,1.6,6.1,2,9.3
					c6.3,11.2,11,23.1,14,35.6l0.9-1c0,0-6.5-6.1,1.6-12.6c-2.4-6.4-0.4-13.8,4.1-17.2C208.3-765.8,209-772.1,212.4-777"/>
				<path id="Trazado_4431" class="st13" d="M186.8-744.1c-1.9,3.4-4.6,6.3-7.9,8.5c15.4,2,18.2,13.6,18.2,13.6l6.9-7.5
					c-3-12.5-7.7-24.4-14-35.6C190.9-758.7,190.9-750.3,186.8-744.1"/>
				<path id="Trazado_4432" class="st13" d="M173.7-787.9c1-1.7,2.3-3.3,3.8-4.6c2.2-0.8,24.1-6.8,26.2-6.4c2.2,0.5,18.8,9,23.3,8.8
					c-9.4-5.4-20.9-15.3-27-14.9c-6.1,0.4-27.4,4.8-30.2,7c-1,1-1.8,2.1-2.5,3.3C169.5-792.4,171.6-790.2,173.7-787.9"/>
				<path id="Trazado_4433" class="st13" d="M148.3-744.1l9.2-1.1l-3.2,11.9l6.5-2c0,0-2.9-17.2-0.1-27c2-7,8.6-19,13.1-25.6
					c-2.1-2.3-4.2-4.6-6.4-6.7c-5.4,8.1-16.3,27.9-17.2,30.9C149.1-760.1,148.3-744.1,148.3-744.1"/>
				<path id="Trazado_4434" class="st14" d="M77.3-797.9c-22.3-2.4-22.1,10.7-16.8,15.6c0,0-5.5-13.4,18.7-11.1
					c2.3,0.2,19.5,0.8,14.6,11.1C96.7-786.4,99.6-795.5,77.3-797.9"/>
				<path id="Trazado_4435" class="st14" d="M81.4-794.4c-5.4-0.5-9.9,0.5-10.1,2.2c-0.2,1.7,4.1,3.5,9.5,4
					c5.4,0.5,9.9-0.5,10.1-2.2C91-792.1,86.8-793.9,81.4-794.4"/>
				<path id="Trazado_4436" class="st14" d="M119.5-817.7c-0.7,2.7-1.1,5.4-1.1,8.2c0,0,9.7-10.1,13.1,2.3
					C133.4-815,128.4-823.8,119.5-817.7"/>
				<path id="Trazado_4437" class="st14" d="M111.5-796.6c0,0,16.2,12,3.6,31.8c-12.6,19.9-10.9,29.4-20.9,32.8
					c5.7,0.3,11.5-7.6,12.9-10.7s22.6-26.1,20.6-40.3C125.6-797.1,111.5-796.6,111.5-796.6"/>
				<path id="Trazado_4438" class="st14" d="M93.2-778.6c1.3,2.7,3.6,7,3.6,7s-17.7,9.8-49.5,7.3c5.8,2.2,32.4,5.5,57.7-4.8
					C100.7-771.8,96.8-775,93.2-778.6"/>
				<path id="Trazado_4439" class="st14" d="M99.9-744c-8.2,0.4-37.3,6.8-37.3,6.8s30.3-3.4,34.1-2.1c3.8,1.3-0.9,6.3-0.9,6.3
					c1.9-0.3,3.7-1.1,5.1-2.4C104.2-738.7,106.6-744.3,99.9-744"/>
				<path id="Trazado_4440" class="st14" d="M-41.3-808.9c0,0-43.1-14.6-40.1,12.2c0,0-1.9-20.8,43-5.7c1.1-0.9,2.1-1.7,3.2-2.5
					C-37.1-806.5-39.1-807.8-41.3-808.9"/>
				<path id="Trazado_4441" class="st14" d="M-35.2-805c-1.1,0.8-2.1,1.7-3.2,2.5c3.1,1,6.3,2.2,9.8,3.6
					C-30.6-801-32.8-803.1-35.2-805"/>
				<path id="Trazado_4442" class="st14" d="M-82-613.5c-24.5,8.3-38.7,29.9-44.8,30.2c-40,2.1-42.9,6.4-42.9,6.4
					c0.3,4.8,45.5,0.3,45.5,0.3s40.3-24.3,40.6-24.2c-0.7-1.3-1.6-2.5-2.5-3.6l7.4-8.6C-79.9-613-81-613.1-82-613.5"/>
				<path id="Trazado_4443" class="st14" d="M227.1-778.6c1.8,4.8,0.9,10.3-2.2,14.3c2.9,5.9,1.8,12.9-2.6,17.7l-3.4,2.4
					c0,0-1.6,10.9-7.8,12.2c2.7,2.2,9.9,0.2,14.1-12.6c7.7-9.4,12.6-22,9.6-32.2c1.8-12.2,2.8-18.4-11.8-25.6
					c-1.1,3.1-2.4,7.2-2.4,7.2S237.9-793.5,227.1-778.6"/>
				<path id="Trazado_4444" class="st14" d="M227.1-790c0,0,3.4,13.1-34.6-0.8c-3.2,3.2-8.9,8.3-12,11.1c3.4,4.5,6.5,9.2,9.3,14.2
					c-0.4-3-1-6-1.8-8.9l9-7.7c0,0,20,8.2,26.5,4.4S233.9-791.8,227.1-790"/>
				<path id="Trazado_4445" class="st14" d="M178.2-777.6c0,0,13,20.9,0.7,42c7.5-4.4,12.6-15.4,10.9-29.9
					c-2.8-4.9-5.9-9.7-9.3-14.2C179.1-778.4,178.2-777.6,178.2-777.6"/>
				<path id="Trazado_4446" class="st11" d="M157.5-745.2l-9.2,1.1c0,0-14.4,13.8-21,28.4c-2.8,6.6-4.6,13.5-5.5,20.6
					c0-2.9-0.1-6.9-0.3-9.6c-9.7,4.5-13.7,26.9-13.7,26.9s16.9,13.2,28.9,16.7c-0.7-0.6-1.4-1.1-2-1.7c-0.5-0.5-9.8-4.5-7-26.3
					c1.6-12.8,11.4-27.9,11.4-27.9c-0.2,3.1,0.3,6.2,1.6,9.1c4.9-15,17.5-25.9,17.5-25.9l-4,0.6L157.5-745.2z"/>
				<path id="Trazado_4447" class="st15" d="M13.8-733c-5.1,1.2-25.4,12.8-33.9,36.2c3.2,7.7,11.9,14.2,11.9,14.2s13.6-46.1,36.3-46
					C26.9-732.7,18.8-734.3,13.8-733"/>
				<path id="Trazado_4448" class="st15" d="M90.1-710.8c9.1,15.2,17.1,30.9,17.1,30.9l6.3-15.3C108.7-696.4,96.1-704.1,90.1-710.8"
					/>
				<path id="Trazado_4449" class="st16" d="M26.8-669.8c3.1-13.5,5.2-27.2,6.3-41c-7.2,25.4-18.4,40.6-18.4,40.6L26.8-669.8z"/>
				<path id="Trazado_4450" class="st16" d="M111-619.4c-7.2,9.2-17.4,15.5-28.8,17.9c19.5-1.4,35.6-10.2,41.9-15.3
					c-11.6-64.2-34-94-34-94S112.3-670.2,111-619.4"/>
				<path id="Trazado_4451" class="st15" d="M37.1-626.1c-6.8-16.7-4.8-60.7-4.4-69.1c-0.7,6.9-6,25.4-6,25.4
					c-4.9,0.3-9.8,0-14.6-0.8c-4.7,19.1,0,68.6,0,68.6s58.5,6.6,89.3-3.5C81.2-604.9,44.6-607.6,37.1-626.1"/>
				<path id="Trazado_4452" class="st15" d="M32.8-695.2c0.1-0.5,0.1-0.9,0.1-1.4C32.8-696.6,32.8-696.1,32.8-695.2"/>
				<path id="Trazado_4453" class="st16" d="M89.3-726.7c11,6.3,20.5,14.7,28.1,24.9c2.6-1.8,4.9-4.2,6.7-6.8
					C116-716.3,96.7-728.7,89.3-726.7"/>
				<path id="Trazado_4454" class="st17" d="M64.7-752.7c-0.8,3.2,9.5,4.5,8.6,2.8C72.4-751.5,65.4-755.4,64.7-752.7"/>
				<path id="Trazado_4455" class="st17" d="M74.5-748.6c-0.4,0.3-0.3,1.1,0.2,1.7s1.2,0.8,1.6,0.5s0.3-1.1-0.2-1.7
					C75.6-748.7,74.9-748.9,74.5-748.6"/>
				<path id="Trazado_4456" class="st18" d="M143.8-961.9l234.4-28.8c0,0-0.8-12.9-10.3-13.2c-13.2,2.5-233.1,29.2-233.1,29.2
					S143-970.3,143.8-961.9"/>
				<path id="Trazado_4457" class="st19" d="M260.2-805c-7.3,0.7-14.6,0.4-21.7-1c-27.3-5-41.6-27.6-47.7-40.7
					c-0.5-1.1-0.1-2.4,0.9-3.2c0.3-0.2,0.6-0.4,0.9-0.5c-1.1-1.2-2.2-2.4-3.3-3.7c-0.7-0.9-0.7-2.1,0-3l3.2-4.8
					c0.5-0.7,1.2-1.1,2-1.2c0.4,0,0.9,0,1.2,0.2c7.7,3.8,34.8,16.2,59.9,13.8c3.1-0.3,6.1-0.8,9.1-1.6c26.6-7,45.7-34.7,56-49.6
					c1.5-2.2,3.1-4.4,4.3-6c0.1-0.2,0.3-0.3,0.4-0.4c1.3-1.2,2.7-2.2,4.2-3.1c0.3-0.2,0.7-0.3,1.1-0.3c0.1,0,0.2,0,0.3,0l5,0.1
					c1,0,1.9,0.7,2.1,1.7c3.8,19.8,0,40.3-10.7,57.4C311-823.8,287.1-807.5,260.2-805 M322.9-866.1c-0.9,0.1-2.3,1.3-3.7,4.7
					c-1.1,2.6-1.6,5.5-1.5,8.3c2.5-1.8,4.6-3.9,6.4-6.3c1.3-1.9,1.3-4.3,0-6.2C323.8-866,323.4-866.1,322.9-866.1 M319.1-878.5
					c-0.5,0.5-0.8,1.1-1.1,1.8c-0.2,0.6-0.4,1.2-0.6,1.9c0.5-0.5,1-1.1,1.5-1.7C319.3-877.2,319.3-877.9,319.1-878.5"/>
				<path id="Trazado_4458" class="st20" d="M335.9-906.9c0,0-5.7,38.6-33.1,64.5c-27.4,25.9-57.9,31.5-113.3-9.3
					c6.8,20.7,36.8,59.6,79.3,46.1c42.5-13.5,74.5-57.1,72.3-88.4C339.8-898.4,338.1-902.8,335.9-906.9"/>
				<path id="Trazado_4459" class="st19" d="M255.8-849.4c-10.9,1-23.4-0.6-37.3-4.9c-7.9-2.4-15.6-5.5-23-9.2
					c-0.3-0.2-0.6-0.4-0.9-0.8c-3.1-5.3-5.4-11.1-6.6-17.2c-0.3-1.3,0.5-2.7,1.8-3.1c-0.8-0.9-1.7-1.8-2.6-2.8
					c-0.3-0.3-0.5-0.7-0.6-1.2l-0.1-0.4c0-0.3-0.1-0.5-0.1-0.7c-0.1-0.6,0-1.1,0.3-1.6l1.2-2.1c0.3-0.5,0.7-0.9,1.1-1.1l4.7-2.5
					c0.3-0.2,0.6-0.3,1-0.3c0.5-0.1,1,0.1,1.5,0.4c5.2,3.4,32.7,20.1,67.2,16.9l0.2,0c22.6-2.2,43.3-13.5,57.3-31.3
					c0.5-0.6,1.1-1,1.9-1.1h0.1l0.4,0c0.3,0,0.7,0.1,1,0.2l1.3,0.6c0.8,0.3,1.3,1.1,1.3,1.9c0.1,0.9-0.3,1.7-1,2.3
					c-0.3,0.3-0.7,0.6-1,0.9l0,0c-1.2,1.5-2.7,3.7-4.5,6.3c-10.2,14.8-29.3,42.4-55.6,49.4C261.8-850.2,258.8-849.7,255.8-849.4"/>
				<path id="Trazado_4460" class="st20" d="M303.6-878.7c0,0-31.6,24.4-62.2,18.8c-30.5-5.6-54.4-27.2-54.4-27.2l6.5,23.6
					c0,0,28.8,12.1,47.1,14.5s40.3-8.2,40.3-8.2L303.6-878.7z"/>
				<path id="Trazado_4461" d="M196.9-900.3l-1.3-0.9l-9.4,5l-3,5.5c1,8.6,3.6,19.1,7.7,26.5l-6.6,9.6c2.7,8.5,6.7,16.5,11.8,23.7
					c4.5,6.5,10,12.2,16.2,16.9c7.4,5.6,16.1,9.4,25.3,11.1c36.1,6.6,70.6-10.7,92.3-46.5c18.6-30.6,11.6-58.3,10.7-61.3l3.8-24.9
					l-13.2-4.4l-3.1,4c5.2,7.6,0.7,17.3-0.9,20.4l-2.7,0.1l-3.4-0.4c-0.5,0.9-20.4,29.2-57.7,32.8
					C230.2-879.9,202.7-896.3,196.9-900.3 M302.9-842.1c-4.1,4-8.8,7.3-13.8,10.1c-14.4,8-31.3,10.1-47.2,5.8
					c-18.8-4.7-38.3-14.3-50.6-29.4l3.2-4.8c8.9,4.4,42.7,19.7,70.7,12.3c27.6-7.3,47.1-35.5,57.5-50.7c1.6-2.4,3.1-4.5,4.2-5.9
					c1.2-1,2.4-2,3.7-2.8l5,0.1c3.6,19.1-0.1,39-10.4,55.5c-20.3,33.4-52.6,49.7-86.2,43.6c-26.6-4.9-40.5-27.4-46.1-39.5
					c3.2,3.4,6.8,6.4,10.6,9.2c26.7,19.1,66.5,27.7,93.4,3.1C299.2-837.6,301.2-839.8,302.9-842.1 M188.9-890.1l1.2-2.1l4.7-2.5
					c6.3,4.1,33.9,20.6,68.8,17.2c23.3-2.3,44.7-14,59.2-32.4l0.4,0l1.3,0.6c-0.3,0.3-0.7,0.6-1.1,0.9l-0.2,0.2l-0.2,0.3
					c-1.2,1.6-2.8,3.8-4.6,6.4c-10,14.5-28.7,41.5-54.1,48.2c-26.6,7-60.4-8.7-67.6-12.3c-3-5.1-5.1-10.7-6.3-16.5
					c15.2,15.5,35.9,24.4,57.7,24.8c4.3,0.1,8.5-0.3,12.7-1.1c4.3-0.8,8.4-2.1,12.3-4c-8,2-16.3,2.8-24.6,2.3
					c-10-0.5-19.8-2.9-29-6.9c-0.9-0.4-1.8-0.8-2.7-1.2c-0.9-0.4-1.8-0.9-2.6-1.3c-3.5-1.8-6.8-3.9-10-6.1c-3.2-2.3-6.2-4.7-9.1-7.4
					c-2.1-1.9-4-3.9-5.9-6C189-889.5,188.9-889.9,188.9-890.1"/>
				<path id="Trazado_4462" d="M317-862.3c-1.2,2.7-2.9,9.7-0.8,11.5s7.5-4.4,9.8-7.3c2.3-2.9,1.9-7.8-0.2-9.6
					S320.1-869.5,317-862.3"/>
				<path id="Trazado_4463" d="M212.9-874.5c2.1,1.6,7.6,2,9.2,0.3c1.7-1.7,2.3-4.6-3-7c-2-0.9-7.3-2.2-8.9-0.5
					C208.5-880.1,209.4-877.1,212.9-874.5"/>
				<path id="Trazado_4464" d="M228-875.5c1.4,0.9,3.2,0.9,4.6,0.1c0.8-0.8,1.1-2.3-1.5-3.5c-1-0.5-3.7-1.1-4.5-0.3
					S226.2-876.8,228-875.5"/>
				<path id="Trazado_4465" d="M315.8-877.5c-0.7,1.5-1.6,5.5-0.5,6.5s4.2-2.5,5.5-4.1c1.2-1.6,1.2-3.8-0.1-5.4
					C319.6-881.6,317.5-881.6,315.8-877.5"/>
				<path id="Trazado_4466" class="st3" d="M60.1-782l0.3-0.3c-2.7-4.2-3-9.5,2.1-11.6c4.3-1.5,8.8-2,13.4-1.6
					c4.6,0,9.1,0.8,13.4,2.4c4.7,1.8,7.3,5.9,4.4,10.8l0.3,0.3c2.3-1.9,3.2-5,2.4-7.9c-1.4-4.4-5.6-6.8-9.5-8.1c-2.9-1-6-1.6-9-1.8
					c-4.3-0.5-8.7-0.1-12.9,1c-3.5,1-7.3,3.3-8.4,7.2C55.8-788,57.2-784.2,60.1-782"/>
				<path id="Trazado_4467" class="st3" d="M65.5-787.3c-4.3,1.7-0.7,4.9,1.3,3.5c2-1.5,4.1-2.2,8.8,2.4
					C74.4-785,70.8-789.5,65.5-787.3"/>
				<path id="Trazado_4468" class="st3" d="M93.5-786.9c-2.8-2.5-6.1,1.6-7.7,4.9c1.5,0.2,3.6-4.8,6.1-1.6
					C92.8-781.9,95.8-784.8,93.5-786.9"/>
				<path id="Trazado_4469" class="st3" d="M37.8-741.7c6.3,3.7,13.5,5.4,20.7,4.9c1.8-0.1,3.6-0.4,5.4-0.8c1.7-0.3,3.3-0.7,4.9-1
					c3.3-0.6,6.7-1.2,10.1-1.6c7-1,13.9-2.4,20.9-3.9c-2.9-0.4-5.8-0.7-8.7-0.7l0,0c-5.6-10.5-0.1-16.4,1-17.4
					c2.2-0.5,4.4-1,6.5-1.6l2.1-0.6l2.5-0.7l4-1.2l1.9-0.6l0.9-0.3c0.3-0.1,0.6-0.2,0.8-0.3l-3.3-1.6l-1.6-0.8l-1.4-0.7
					c-0.5-0.2-0.9-0.5-1.3-0.7l-0.8-0.4c-0.5-0.3-1-0.5-1.5-0.8c-2-1.1-4-2.4-5.9-3.8c1.4,2,3,3.8,4.8,5.4c0.4,0.4,0.9,0.8,1.4,1.2
					l0.7,0.5c0,0,0.5,0.4,0.4,0.4l-0.8,0.2l0,0l-0.1,0l-0.5,0.1l-1.1,0.3l-2.1,0.5c-2.6,0.7-5.2,1.3-7.9,1.9c0,0-0.3,0.1-0.7,0.2
					c-4.1,0.9-8.3,1.6-12.5,2.1c-7.1,0.9-14.2,1-21.3,0.3c-7.1-0.7-14-2.4-20.6-5.2c-3.3-1.4-6.5-3-9.5-4.9c-1.7-1-3.3-2.2-4.9-3.3
					c4.5-0.1,9.1,0.1,13.8-0.2c-6.2-3.9-16.5-6.1-23.1-2.3c-3.8,2.2-5.2,7-3.1,10.9c0.1-1.4,0.5-2.7,1.1-4c1-2,2.9-3.3,5-3.7l0.3,1
					c0.3,0.9,0.5,1.8,0.9,2.6c0.6,1.7,1.2,3.5,2,5.1c1.4,3.4,3.1,6.7,5,9.8C26.2-750.8,31.5-745.5,37.8-741.7 M78.4-744
					c-3.4,0.5-6.8,1-10.2,1.7c-1.7,0.3-3.4,0.7-5.1,1c-1.6,0.4-3.2,0.6-4.8,0.7c-6.6,0.4-13.1-1.2-18.8-4.5c-2.3-1.4-4.5-3-6.5-4.9
					c4.5-3.7,10.2-5.7,16-5.5c6.6,0.6,12.8,3.4,17.6,7.9c-1.9-2.4-4.1-4.5-6.6-6.3c3.6-1.3,12.5-2.8,20.2,9.7
					C79.6-744.1,79-744.1,78.4-744 M19.2-772.7c1.4,1,2.9,2,4.4,3c3.2,2,6.5,3.7,10,5.2c6.9,2.9,14.1,4.7,21.6,5.4
					c7.3,0.7,14.7,0.6,22.1-0.4c3-0.4,5.9-0.8,8.9-1.4c-2.3,5.2-2.2,11.1,0.3,16.2c-1.1,0-2.1,0.1-3.2,0.2
					c-3.2-5.7-8.8-12.3-17.1-13c-3.1-0.2-6.1,0.4-8.8,1.7c-2.4-1.5-5.1-2.5-7.8-3.1c-7.2-1.4-14.7,0-20.9,4
					c-1.1-1.4-2.1-2.9-3.1-4.4c-1.8-2.9-3.4-6-4.7-9.2C20.2-769.9,19.7-771.3,19.2-772.7"/>
				<path id="Trazado_4470" class="st3" d="M32.9-868.7l-4-12.1C2.5-868-14.6-842.3-14.6-842.3c0.8,4.9,2.7,9.5,5.5,13.5
					c16.9-28.4,48.3-32.7,48.3-32.7c-0.7-6.2-2.5-12.2-5.2-17.9C33.6-876.8,32.9-868.7,32.9-868.7"/>
				<path id="Trazado_4471" class="st3" d="M-26.2-770.2l0-0.2c0-0.1,0-0.2-0.1-0.4l-0.2-0.7l-0.2-0.8l-0.2-0.7l-0.2-0.7l-0.3-0.6
					c-0.1-0.2-0.2-0.4-0.3-0.6l-0.3-0.6l-0.7-1.1l-1.3-2.1l-1.1,1.9c-0.4,0.7-0.8,1.4-1.1,1.9l-0.6,0.9c-0.1,0.1-0.2,0.3-0.3,0.4
					l-0.3,0.4l-0.4,0.3c-0.1,0.1-0.1,0.1-0.2,0.2c-0.5,0.4-1.2,0.7-1.9,0.7c-0.8,0-1.6-0.3-2.2-0.7c-1.7-1-3.1-2.5-4.1-4.2
					c-1.1-1.7-1.7-3.6-1.8-5.5c0-0.2,0-0.4,0-0.6c0-0.2,0.1-0.4,0.1-0.6c0.1-0.4,0.3-0.9,0.4-1.3c0.1-0.2,0.2-0.4,0.3-0.5
					c0.1-0.2,0.2-0.3,0.3-0.5c0.1-0.1,0.1-0.1,0.2-0.2l0.1-0.1l0-0.1c0,0,0,0,0,0l0.1-0.1l0.7-0.5c0.1-0.1,0.3-0.2,0.4-0.2l0.5-0.2
					l0.6-2.1l0.6-2.1c-0.6-0.4-1.2-0.9-1.7-1.3l-0.9-0.6l-0.8-0.6c-0.6-0.4-1.2-0.8-1.9-1.3c-0.3-0.2-0.7-0.5-1.1-0.7
					c-0.9-0.6-1.8-1.2-2.8-1.7c-2.6-1.6-5.3-3-8.1-4.1c-1.1-0.5-2.3-0.9-3.5-1.2c-1.2-0.4-2.5-0.6-3.8-0.7c-1.4-0.1-2.8,0-4.1,0.3
					c-0.7,0.2-1.4,0.5-2.1,0.9c-0.6,0.4-1.2,0.9-1.8,1.4c-1.1,1.1-1.8,2.6-2.1,4.1c-0.3,1.4-0.3,2.8,0,4.2c0.4,2.5,1.3,4.9,2.5,7.2
					c1,1.9,2.2,3.8,3.5,5.6c-0.9-2-1.6-4-2.2-6.1c-0.7-2.2-1-4.5-1.1-6.9c0-1,0.1-2.1,0.5-3c0.3-0.8,0.8-1.6,1.4-2.1
					c0.3-0.3,0.7-0.5,1.1-0.7c0.4-0.2,0.8-0.3,1.2-0.4c0.9-0.1,1.9-0.1,2.8,0c1,0.2,2,0.4,3,0.7c1,0.3,2,0.7,3.1,1.1
					c2.6,1.1,5.1,2.4,7.5,3.8c0.5,0.3,1,0.6,1.5,0.9c0.7,0.4,1.4,0.9,2.1,1.3c0.6,0.4,1.2,0.8,1.8,1.2l0.1,0.1l-0.1,0.1l-0.4,0.4
					c-0.1,0.1-0.3,0.3-0.4,0.5c-0.3,0.3-0.5,0.6-0.7,1c-0.2,0.3-0.4,0.7-0.6,1c-0.3,0.7-0.6,1.4-0.8,2.1c-0.1,0.4-0.2,0.8-0.2,1.2
					c-0.1,0.4-0.1,0.8-0.1,1.2c0,1.5,0.3,3,0.8,4.4c0.4,1.3,1,2.6,1.8,3.8c1.4,2.4,3.4,4.4,5.7,5.8c1.3,0.8,2.8,1.2,4.3,1.2
					c1.6,0,3.2-0.6,4.5-1.6c0.2-0.1,0.3-0.2,0.5-0.4l0.2-0.2l0.1-0.1h0l0,0c0,0,0,0,0,0c0-0.1,0-0.1,0.1-0.1c0,0,0,0,0.1,0l0,0
					c0,0,0,0,0,0l0,0.2c0.1,0.2,0.1,0.4,0.1,0.7c0.3,1.7,0.2,3.5-0.3,5.3c-0.5,1.6-1.6,3-3.1,3.8c-0.8,0.4-1.6,0.8-2.5,0.9
					c-0.9,0.2-1.9,0.3-2.8,0.3c-2.1,0-4.1-0.2-6.1-0.7c1.9,0.9,3.9,1.6,6,2.1c1,0.2,2.1,0.3,3.2,0.3c1.1,0,2.2-0.2,3.3-0.5
					c1.1-0.4,2.2-1,3.1-1.8c0.9-0.9,1.7-1.9,2.2-3c1-2.3,1.4-4.8,1.2-7.3C-26.1-769.6-26.2-769.9-26.2-770.2"/>
				<path id="Trazado_4472" class="st3" d="M88.8-587.2c-0.8,0.5-1.7,1-2.5,1.4c-1.8,0.8-3.6,1.4-5.4,1.9c-0.4,0.1-0.9,0.3-1.3,0.4
					c-0.5,0.1-0.9,0.2-1.4,0.3l-1.4,0.2l-0.7,0.1l-0.7,0.1l-1.9,0.2l-0.7,0.1l-0.2,0c-0.1,0-0.1,0.1-0.1,0.1l-0.2,0.3l-0.7,1.3
					l-0.8,1.4l-0.7,1.4c-1.9,3.8-3.6,7.6-5.1,11.5c-1.5,3.9-2.9,7.9-4.1,11.9c-0.3,1-0.6,2-0.8,3.1c-0.3,1-0.5,2.1-0.8,3.1
					c-0.5,2.1-0.8,4.3-1,6.5l0.2,0c1.1,0,2.3,0,3.4,0c0.2-1.9,0.5-3.8,0.9-5.7c0.2-1,0.4-2,0.7-3s0.5-2,0.8-2.9
					c1.1-3.9,2.5-7.8,4-11.6c1.5-3.8,3.1-7.5,5-11.2l0.7-1.4l0.7-1.3l0-0.1h0.1l0.2,0l0.8-0.1l0.8-0.1l0.8-0.1l1.5-0.3
					c0.5-0.1,1-0.2,1.5-0.3s1-0.2,1.5-0.4c2.2-0.6,4.2-1.7,5.9-3.2c0.9-0.8,1.6-1.7,2.2-2.7c0.6-1,1-2.1,1.1-3.2
					C90.4-588.4,89.7-587.7,88.8-587.2"/>
				<path id="Trazado_4473" class="st3" d="M228.1-789.7L228.1-789.7C228.1-789.8,228.1-789.7,228.1-789.7"/>
				<path id="Trazado_4474" class="st3" d="M368.7-1005.4l-0.3-0.1l-234.9,28.4c-7.1,0.2-12.6,10.5-12.6,23.6
					c0,13.3,5.6,23.6,12.8,23.6c0.4,0,0.9,0,1.3-0.1l7.2-0.8v187.5h0.2c-0.2,0.3-0.5,0.5-0.7,0.8c-1.5,1.6-2.9,3.2-4.2,4.9
					c-2.7,3.4-5.1,7-7.3,10.8c-2.6,4.7-4.8,9.6-6.6,14.7c-7.9-7.3-17-13.2-27-17.3c6.6-2.6,9.6-5.9,11.5-9.8
					c0.1-0.3,0.3-0.6,0.4-0.8c2.1-3.7,4.4-7.2,7-10.5c2-2.7,4.1-5.5,6.1-8.5c1.6,0.4,3.2,0.6,4.8,0.6c0.6,0,1.2,0,1.9-0.1
					c1.5-0.2,2.7-1.1,3.5-2.3c4.6-6.4,6.1-28.3,3.2-46.9c-1.2-7.6-3.7-12.1-7.5-13.4c-1.9-0.6-4-0.4-5.9,0.4c0.2-1,0.5-1.9,0.7-2.8
					c1.5-6.8,2.2-12.8,0.5-19c-4.4-16.4-22.6-40.2-28-47.1c7.1-6,12-14.3,13.8-23.4c2.4-12.5-1.1-26.2-10.4-40.6l-3.8-5.9l-0.1,7.1
					c-0.1,8.3-7.4,16.1-11.7,20c-0.3-7.8-1.8-15.5-4.5-22.9c-1.5-3.9-3.4-7.6-5.7-11c-2.3-3.3-5-6.4-7.9-9.2
					c-4.6-4.4-9.6-8.2-15.1-11.5c-5.3-3.2-10.8-6-16.6-8.4c-5.6-2.4-11.4-4.5-17.3-6.3c-2.9-0.9-5.9-1.7-8.8-2.4
					c-0.7-0.2-1.5-0.4-2.2-0.5l-1.1-0.3l-0.9-0.2l-1.1-0.2c-1.5-0.3-2.9-0.6-4.3-0.8l-4.2-0.8c0.9,2.1,1.9,4.2,2.7,6.2l0.5,1.4
					l0.4,1.4l0.1,0.4l0,0.2l0.1,0.3c0.1,0.2,0.1,0.5,0.2,0.7c0.5,1.8,0.8,3.7,1.1,5.5c0.5,3.7,0.5,7.4,0,11.1
					c-0.3,1.8-0.7,3.6-1.3,5.3c-0.6,1.7-1.3,3.3-2.2,4.9l-0.7,1.2l-0.8,1.1c-0.2,0.4-0.5,0.7-0.8,1.1c-0.3,0.4-0.5,0.7-0.9,1.1
					c-1.2,1.5-2.5,3-3.8,4.4c-2.5,2.9-5.2,5.8-7.7,8.9c-2.7,3.1-5.1,6.5-7.1,10.1c-2,3.7-3.6,7.6-4.7,11.7c-0.3,1-0.5,2-0.7,3.1
					l-0.1,0.3c-0.2-0.6-0.3-1.2-0.5-1.9c-0.2-0.6-0.3-1.3-0.4-1.9c-0.1-0.7-0.2-1.3-0.3-2c-0.3-2.6-0.4-5.3-0.1-7.9
					c0-0.3,0.1-0.7,0.1-1l0.1-0.5l0-0.2l0-0.1c0-0.1,0-0.1,0-0.2l0.4-2l0.2-1c0-0.2,0.1-0.3,0.1-0.5l0.2-0.6c0.4-1.5,0.8-3,1.2-4.6
					l1.3-4.6l-4,2l-2,1c-0.7,0.3-1.4,0.8-2,1.1c-0.7,0.5-1.4,1-2.1,1.5l-2.1,1.8l-0.7,0.7c-0.2,0.2-0.4,0.4-0.6,0.5l-1.1,1.1
					c-2.7,3-5.1,6.3-7.2,9.8c-2.9,5-5,10.5-6.4,16.2c-0.2,0.9-0.4,1.8-0.5,2.7c-0.1-0.6-0.3-1.2-0.4-1.8c-0.1-0.5-0.2-1.1-0.3-1.6
					l-0.2-0.8l-0.1-0.7L-60-923l-0.5-3.1l-0.4-3.3l-0.7-6.8l-0.4,0.6c-0.1,0.1-0.1,0.1-0.2,0.3l-0.3,0.4l-1,1.5l-1.9,3
					c-0.3,0.5-0.6,1-0.9,1.5l-0.9,1.6l-0.9,1.6c-0.3,0.6-0.6,1.1-0.9,1.7l-0.7,1.4c-0.2,0.3-0.3,0.7-0.5,1l-0.9,2
					c-0.6,1.3-1.2,2.7-1.7,4c-2.2,5.5-3.8,11.1-5,16.9c-1.1,5.8-1.5,11.7-1.3,17.6c0.3,5.3,1.4,10.4,3.1,15.4
					c-1.6,8-3,21.5,1.6,32.4c2.6,5.9,5.8,11.6,9.5,16.9c-0.5,0-0.9,0-1.4,0c-1.7,0-3.5,0.1-5.1,0.4c-1.8,0.3-3.5,0.9-5.1,1.6
					c-0.4,0.2-0.8,0.4-1.2,0.6c-0.4,0.2-0.8,0.5-1.2,0.7l-1.2,0.8l-1.1,0.9c-0.2,0.2-0.4,0.3-0.5,0.5l-0.5,0.5
					c-0.3,0.4-0.7,0.7-1,1.1l-0.9,1.2c-0.1,0.2-0.3,0.4-0.4,0.6l-0.4,0.7c-0.9,1.6-1.5,3.3-1.8,5.1c-0.3,1.7-0.4,3.4-0.4,5.1
					c0.1,3.2,0.6,6.5,1.5,9.6c1.7,5.9,4.1,11.7,7.1,17.1c1.8,3.3,3.8,6.6,5.9,9.7c1.3,1.9,2.6,3.7,4,5.5c1.8,2.4,3.8,4.7,5.9,6.9
					c2.1,2.2,4.4,4.3,6.9,6.1c1.5,1.1,3.1,2,4.8,2.7c1,0.4,2,0.6,3,0.7c0.3,0,0.6,0,0.9,0c0.3,0,0.6,0,0.9-0.1
					c0.5-0.1,0.9-0.2,1.4-0.3c1.7-0.4,3.4-1.1,5-1.9c1.5-0.8,3-1.7,4.4-2.7c2.3-1.6,4.4-3.4,6.4-5.3l12.9-10.3
					c7.6,8,17.4,17.9,28,23.9l-0.6,0.2l-1.9,0.8c-0.6,0.3-1.2,0.6-1.8,0.9c-1.2,0.6-2.4,1.3-3.5,2.1c-4.4,3.1-8.4,6.7-11.9,10.9
					l-2.6,3.1c-0.4,0.5-0.8,1.1-1.2,1.6l-1.2,1.6l-1.2,1.6l-0.6,0.8c-0.2,0.3-0.4,0.6-0.5,0.8l-2.1,3.4l-1.1,1.7
					c-0.4,0.6-0.7,1.2-1,1.7l-2,3.5l-1.3,2.3l-0.2,0.4l-0.1,0.2l-0.1,0.1l0,0.1l0,0.1l0.3,0.9l0.6,1.6c0.3,0.7,0.6,1.4,0.9,2
					s0.7,1.3,1,1.9c0.2,0.4,0.5,0.8,0.8,1.2c-2.5,3.4-11.2,15.6-15.3,22.3c-17.1,1-34,4.6-50,10.9c-4.8,1.9-9.3,4.3-13.7,7
					c-0.8-1-1.8-2-2.8-3.1c-6.3-6.6-9.1-7.3-10.7-7.3c-0.8,0-1.8,0-3,0.1c-5.7,0.2-15.1,0.5-20.7-2.1c-1.8-0.9-3.9-2.1-5.9-3.2
					c-6.3-3.7-12.8-7.5-16.7-3c-2.6,2.9-1.8,8.3-1.2,11.2c1.6,7,6.1,15.5,12.3,17.9c2.5,0.9,5,1.7,7.6,2.3c-0.9,0.5-1.9,0.9-2.8,1.3
					c-1.3,0.5-2.6,0.9-3.9,1.3c-0.7,0.2-1.3,0.4-2,0.5l-1.3,0.3l-1.2-0.7l-2-1c-1.3-0.7-2.6-1.3-4-1.9c-2.7-1.2-5.4-2.4-8.2-3.4
					c-2.8-1.1-5.8-1.9-8.8-2.3c-0.8-0.1-1.7-0.1-2.5-0.1c-0.4,0-0.9,0.1-1.3,0.1c-0.2,0-0.5,0.1-0.7,0.2c-0.2,0.1-0.5,0.1-0.7,0.2
					c-1.6,0.5-3.1,1.3-4.4,2.3c-1.4,1-2.7,2.3-3.7,3.8c-0.5,0.8-1,1.7-1.3,2.6c-0.4,1-0.5,2.1-0.5,3.2c0,0.6,0.1,1.2,0.3,1.8
					c0.2,0.6,0.5,1.2,0.9,1.7c0.6,0.7,1.3,1.3,2.1,1.7l0.3,0.1l0.2,0.1c1.3,0.6,2.5,1.3,3.7,1.9c2.5,1.4,4.9,2.8,7.4,4.4
					c1.1,0.7,2.3,1.5,3.4,2.2c-1.4,0.1-2.8,0.4-4.2,0.9c-1.9,0.7-3.6,1.8-5,3.3c-3,3-4.7,7-4.7,11.3c0,1.2,0.2,2.3,0.5,3.4
					c0.1,0.2,0.1,0.3,0.2,0.5c0.1,0.2,0.1,0.3,0.2,0.5c0.2,0.4,0.4,0.8,0.7,1.1c0.3,0.3,0.6,0.6,1,0.8c0.2,0.1,0.4,0.2,0.6,0.3
					c0.1,0,0.2,0.1,0.3,0.1l0.3,0.1l1,0.2l0.9,0.2l1.8,0.4c1.2,0.3,2.4,0.6,3.5,0.9c0.9,0.2,1.7,0.5,2.6,0.7
					c-0.4,0.5-0.8,1.1-1.2,1.6c-1.9,3-3,6.4-3.2,10c0,1,0.1,1.9,0.2,2.9c0.2,1.1,0.7,2.2,1.4,3.1c0.2,0.2,0.4,0.5,0.7,0.7
					c0.3,0.2,0.5,0.4,0.8,0.6c0.3,0.2,0.6,0.3,0.9,0.4c0.3,0.1,0.6,0.2,0.9,0.2c0.3,0,0.6,0.1,0.9,0.1c0.3,0,0.5,0,0.8-0.1l0.4,0
					l0.3,0l0.5-0.1c5.7-0.7,11.5-1.1,17.2-1.1c5.8-0.1,11.7-0.1,17.6-0.4c1.5-0.1,3-0.2,4.5-0.4c1.6-0.2,3.1-0.4,4.6-0.8
					c0.9-0.2,1.7-0.6,2.6-1l0.3-0.2l0.2-0.1l0.1-0.1l0.5-0.3l0.9-0.6l3.7-2.4c9.8-6.2,19.7-12.3,29.6-18.4c8.5-1,16.8-2.8,25-5.5
					c10.1-3.3,19.7-8.1,28.4-14.2c13.3-9.5,20.3-19.8,22.6-26.4C-6-649,2.5-665.3,5.4-670.9h0c1.4,0.5,2.7,1,4.1,1.5
					c-0.4,4.2-0.6,8.4-0.8,12.6c-0.2,4.9-0.3,9.7-0.4,14.6C8.2-632.5,8.4-622.7,9-613l0.2,3.6l0.3,3.6l0.2,2.1l0.1,1.8l0.1,0.9
					l0,0.5c0.1,0,0.3,0.1,0.4,0.1l3.2,0.6c0.4,0.1,0.8,0.2,1.2,0.2c0.5,2.3,1.7,7.1,3.5,13c0.4,2.9-6.1,20.1-12.3,34.5
					c1.3,0.5,2.7,1,4.1,1.5c0.8-1.9,3.8-8.8,6.6-16.1c6.9-17.8,6.2-20.1,5.8-21.3c-1.3-4.5-2.3-8.3-3-10.9c3.2,0.5,6.4,0.9,9.7,1.3
					c9.2,1,18.4,1.5,27.7,1.5c9.3,0,18.6-0.7,27.7-2c4.6-0.7,9.2-1.6,13.7-2.8c4.6-1.2,9.1-2.8,13.4-4.8c0.5-0.2,1-0.5,1.5-0.7
					c-2.9,8.3-6.7,16.2-11.2,23.7l0,0.1c-4.7,7.6-9,33.5-9.6,37.3c1.5-0.3,3-0.7,4.5-1.1c1.5-9.2,5.2-28.2,8.6-33.7
					c6.9-10.4,12.1-25.6,13.4-29.6c1.8-1.2,3.5-2.4,5.1-3.8l1.8-1.7l0.6-0.6l0.3-0.3c0,0,0-0.1,0-0.1l0-0.1l0-0.2l-0.3-1.8l-0.8-3.9
					l-1.4-7.2c-2.1-9.5-4.4-19-7.3-28.2c-1.3-4.3-2.7-8.5-4.3-12.8c8.6,6.1,18,10.9,28,14.2c0.4,0.1,0.7,0.2,0.8,0.3l0.9,0.4
					l0.9-0.5c21.1-13.2,37-33.4,44.8-57c6.9-2.6,12.8-7.3,16.8-13.5c0.5-0.8,0.9-1.6,1.3-2.4c2.3,0.7,4.8,1.2,7.2,1.3h0.1
					c4.6,0,9.1-6.2,12.4-11.8l36-4.6v20.9c-3.7,1.5-6,5.2-5.8,9.2c0,5.3,3.6,9.6,8,9.6s8-4.3,8-9.6c0.2-4-2.1-7.7-5.8-9.2v-21.4
					L381.2-759v-222.8C381.3-983.3,381.8-1003.2,368.7-1005.4 M133.7-934.4c-5,0-8.5-10.1-8.5-19.1c0-9,3.5-19.1,8.5-19.1
					s8.5,10.1,8.5,19.1C142.3-944.5,138.8-934.4,133.7-934.4 M126.5-817.6c2.3,0.8,4,4.4,4.9,10.3c2.9,18.7,1,38.9-2.5,43.9
					c-0.3,0.5-0.7,0.8-0.9,0.8c-1.3,0.1-2.7,0.1-4-0.1c1.8-3,3.4-6.1,4.7-9.4c6.3-15.8-6.2-23.8-12.3-27c1.2-5.8,2.6-11,3.8-15.6
					l0.2-0.7C121.8-816.6,124.4-818.3,126.5-817.6 M-3.4-752.3L-3.4-752.3c-0.2-0.2-0.5-0.6-0.7-0.8c-0.2-0.3-0.5-0.6-0.7-0.9
					c-0.4-0.6-0.9-1.3-1.3-1.9c-0.8-1.3-1.6-2.7-2.2-4.1c-1.3-2.8-2.1-5.8-2.5-8.8c-0.3-3,0.1-6,1.1-8.8c0.3-0.7,0.6-1.4,0.9-2.1
					c0.2-0.3,0.4-0.7,0.5-1l0.3-0.5l0.3-0.5c0.8-1.3,1.7-2.4,2.7-3.5c2-2,4.5-3.5,7.3-4.2c2.8-0.6,5.7-0.7,8.6-0.1
					c3,0.6,5.8,1.5,8.6,2.7l1,0.5c0.4,0.2,0.7,0.3,1.1,0.5l1.2,0.5c0.4,0.2,0.8,0.3,1.2,0.4c1.5,0.6,3.1,1,4.6,1.4
					c3.2,0.8,6.4,1.4,9.7,1.7c3.3,0.3,6.5,0.4,9.8,0.2c-3.1-1.1-6.2-2.1-9.3-3c-2.8-0.8-5.6-1.6-8.4-2.3c6.1-0.5,12-2.2,17.5-4.8
					l0.9-0.5l-0.2-1.1c-0.1-0.7-3.1-17-9.6-23.4c-3.3-3.2-8.2-4.3-12.6-2.8c-4.2,1.1-7.6,4.2-8.9,8.3c-1.1,4.2-1.1,9.7,5.4,21.8
					c-0.3-0.1-0.6-0.3-0.9-0.4l-1.1-0.5c-1-0.5-2.1-0.9-3.2-1.3c-2.7-3.9-10.4-16.1-9.6-27.8c0.1-3.3,1.2-6.5,3-9.3
					c5.1-7.4,15.5-8.8,24.1-5.4c1.8,0.7,3.6,1.6,5.2,2.8c10.7,7.6,14.4,31.2,14.4,31.2c3.8-4.1,1.2-23.6-9.7-35c0,0-0.1-0.1-0.1-0.1
					c-11-11.3-36.5-8.7-41.7,7.6c-0.2,0.6-0.3,1.2-0.5,1.8c-3.6,14.9,5.9,30.3,7.3,32.4c-2.8-0.4-5.7-0.3-8.5,0.4
					c-3.4,0.9-6.5,2.7-9,5.2c-1.2,1.2-2.3,2.6-3.3,4.1l-0.4,0.6l-0.3,0.6c-0.2,0.4-0.4,0.8-0.6,1.2c-0.4,0.8-0.7,1.6-1.1,2.5
					c-1.3,3.4-1.7,7-1.4,10.6c0.2,2.3,0.7,4.5,1.4,6.7c-0.8-0.9-1.7-1.7-2.4-2.6l-0.6,0.6c0.1-0.2,0.2-0.3,0.3-0.4
					c-0.4,0.3-0.7,0.7-1.1,1l-15.6,12.4c-1.8,1.2-3.6,2.4-5.5,3.4c-1.3,0.7-2.7,1.4-4.1,2c-1.3,0.5-2.7,1-4,1.2
					c-0.3,0-0.7,0.1-0.9,0.1c-0.1,0-0.2,0-0.3,0c-0.1,0-0.2,0-0.3,0c-0.6-0.1-1.1-0.3-1.6-0.5c-1.3-0.6-2.5-1.2-3.6-2.1
					c-2.2-1.6-4.2-3.4-6.1-5.4c-1.9-2-3.8-4.2-5.5-6.4c-1.9-2.4-3.6-4.9-5.3-7.4c-1.5-2.3-2.8-4.6-4.1-6.9c-2.8-5-5-10.3-6.6-15.8
					c-0.8-2.6-1.2-5.4-1.3-8.1c-0.2-2.4,0.3-4.9,1.4-7.1l0.2-0.4c0.1-0.1,0.2-0.3,0.3-0.4l0.6-0.8c0.2-0.3,0.4-0.5,0.7-0.8l0.3-0.4
					c0.1-0.1,0.2-0.2,0.4-0.3l0.7-0.7l0.8-0.6c0.3-0.2,0.6-0.4,0.8-0.6c0.3-0.2,0.6-0.4,0.9-0.5c1.3-0.6,2.6-1.2,3.9-1.5
					c1.4-0.4,2.9-0.6,4.3-0.8c6.2-0.4,12.4,0.1,18.4,1.5c2.8,0.6,5.6,1.3,8.3,2.2c-2.5-1.5-5.1-2.8-7.8-4c-3.8-1.7-7.8-3-11.9-3.8
					c-4.5-6.1-8.3-12.6-11.4-19.5c-2.9-7.4-3.8-15.5-2.5-23.4c1.3,2.6,2.7,5.1,4.3,7.5c2.6,4,5.6,7.7,9.1,11
					c-3.2-3.5-6-7.4-8.3-11.5c-1.8-3.1-3.3-6.3-4.6-9.7c-0.3-0.7-0.6-1.4-0.8-2.1c-0.1-0.4-0.3-0.8-0.4-1.2
					c-1.7-5.4-2.6-11-2.7-16.6c0-5.6,0.7-11.2,2-16.7c1.3-5.4,3.1-10.8,5.4-15.9c0.6-1.3,1.2-2.5,1.8-3.8l0.9-1.9
					c0.2-0.3,0.3-0.6,0.5-0.9l0.2-0.5l0.1-0.1c0.1-0.2,0.3-0.4,0.4-0.6c0.1-0.1,0.1-0.2,0.2-0.2l0.1-0.1c0-0.1,0,0.1,0,0.1l0.1,1
					v0.1v0c0,0,0,0,0,0l0,0.1l0.1,0.8c0.1,0.6,0.2,1.1,0.3,1.7c0.2,1.1,0.4,2.2,0.7,3.4c0.5,2.2,1.1,4.5,1.8,6.7
					c0.7,2.2,1.6,4.4,2.6,6.6l6.6,13.4l-1.6-15.1c-0.5-5.2-0.1-10.4,1.1-15.5c1.2-5.1,3.2-10,5.8-14.5c1.8-3.1,3.9-6.1,6.4-8.8
					l1.7-1.7l0,0.2l-0.2,1.1c0,0.4-0.1,0.8-0.1,1.2c-0.3,3.1-0.3,6.3,0.1,9.4c0.1,0.8,0.2,1.6,0.4,2.3c0.2,0.8,0.3,1.5,0.5,2.3
					c0.2,0.7,0.4,1.5,0.6,2.3c0.2,0.7,0.4,1.4,0.7,2.1c0.2,0.6,0.5,1.3,0.8,1.9l1.6,3.6l1.7,3.3l3.4,6.7l0.8-6.3
					c0.3-2.1,0.6-4.2,0.9-6.3l0.5-3.2c0.1-0.5,0.2-1,0.3-1.5l0.3-1.1c0.2-0.9,0.4-1.9,0.7-2.8c0.9-3.6,2.3-7.1,4.1-10.4
					c3.6-6.5,9-12,14.1-18c1.3-1.5,2.6-3,3.9-4.5c2.8-3.3,5-7.1,6.4-11.2c0.7-2.1,1.2-4.2,1.5-6.3c0.6-4.3,0.6-8.6,0-12.9
					c-0.3-2.1-0.7-4.2-1.2-6.2l-0.4-1.3l1.3,0.3c0.7,0.2,1.4,0.3,2.2,0.5c2.9,0.7,5.7,1.5,8.6,2.4c5.7,1.7,11.3,3.7,16.7,6.1
					c5.5,2.3,10.8,5,15.8,8.1c5.1,3.1,9.8,6.7,14.1,10.7c2.6,2.6,5,5.3,7.1,8.3c2.1,3,3.8,6.3,5.1,9.7c5.5,14.2,6.1,29.9,1.6,44.5
					c-0.5,1.8-1.2,3.6-1.8,5.4c-0.7,1.8-1.4,3.5-2.2,5.2c-0.8,1.7-1.7,3.4-2.6,5l-0.6,1.1l-0.2,0.4l-0.3,0.5l-0.2,0.2l-0.1,0.1
					c0,0,0,0,0,0.1c-1-1.8-2.1-3.7-3.3-5.4c-1.7-2.7-3.6-5.3-5.8-7.8c-0.3-0.3-0.6-0.6-0.9-0.9l-0.4-0.4l-0.1-0.1
					c-0.1-0.1-0.1-0.1-0.2-0.2l-0.4-0.4l-1.8-1.6l-0.1-0.1c0,0,0,0-0.1,0l0,0.1l-0.2,0.2l-0.4,0.4l-0.8,0.9
					c-0.3,0.3-0.5,0.6-0.8,0.9l-0.4,0.5l-0.8,0.9c-0.5,0.6-1,1.3-1.5,1.9c-1,1.3-1.9,2.5-2.8,3.8l-1.6,2.3l-0.8-0.8
					c-0.7-0.8-1.4-1.5-2.1-2.3c-1.4-1.5-2.7-3.1-4-4.7l-1-1.2l-0.2-0.3l-0.4-0.5l-0.9-1.3l-0.4-0.6l-0.2-0.3l-0.1-0.1l0,0
					c0,0,0,0,0,0l-0.2,0.1l-1.2,1l-1.1,1l-0.6,0.6c-1.6,1.6-3,3.3-4.2,5.1c1.9-1.1,3.9-2.1,5.7-3.3l0.7-0.4c0,0,0.1,0,0.1,0
					c0,0,0.1,0,0.1,0c0,0,0,0.1,0,0.1c0,0,0,0,0,0.1v0l0.1,0.2l0.2,0.4c0.3,0.5,0.6,0.9,1,1.4c1.3,1.7,2.7,3.3,4.1,4.8
					c0.7,0.8,1.4,1.6,2.1,2.3l0.5,0.6l0.8,0.9l2.2,2.2l1.3-2l1.1-1.6l1.3-1.9c0.9-1.3,1.8-2.5,2.7-3.8c0.5-0.6,0.9-1.2,1.4-1.8
					l0.7-0.9l0.4-0.4l0.5,0.5l0.2,0.2l0.2,0.3l1.1,1.5c1.7,2.2,3.2,4.5,4.7,6.9c0.8,1.2,1.5,2.4,2.2,3.6l0.8,1.4l0.9,1.5l1.8,3.1
					l0.2-0.1c0.1-0.1,0.1-0.1,0.2-0.2l0.3-0.4l0.7-0.9c0.5-0.6,0.9-1.2,1.4-1.8c0.5-0.6,0.9-1.3,1.3-2l0.5-0.8l0.4-0.6
					c1.1-1.7,2-3.4,3-5.2s1.8-3.6,2.6-5.4c0.8-1.9,1.5-3.7,2.1-5.7c2.1-6.3,3.4-12.8,3.7-19.4c2.7-2.1,12-9.9,15-19.8
					c6.4,11.5,8.8,22.3,6.8,32.3c-1.8,8.8-6.7,16.7-13.9,22.1l-2.1,1.4l1.6,2c0.1,0.1,4.7,5.9,10.3,13.8c-5.8-2.3-12-3.7-18.3-4
					c-1.5,6.3-1.9,12.7-1.3,19.1c5.3-1.1,21.6-3.1,32.8,6.2c2.1,3.9,3.8,7.9,5,12.1c1.2,5.3,1.1,10.9-0.4,16.2
					c-0.6,2.9-1.5,6-2.4,9.4c-0.8,3-1.7,6.2-2.5,9.6c1-7.4,0-14.9-2.9-21.8c-2.2-5-5.5-9-10.1-10.6c-9.1-3.3-14.3-0.8-17,4.4
					c-1.7,4-2.5,8.4-2.1,12.8c0.4,14.9,6.7,19.6,7.1,19.9c0.8,1.9,1.5,3.1,1.6,3.3l0.2,0.3l0.3,0.2c3.1,1.9,6.7,2.9,10.4,2.9
					c0.6,0,1.2,0,1.8-0.1l0.9-0.1l0.3-0.9c1.6-6.7,1.4-13.7-0.6-20.3c-1.6-4.6-6.2-7.5-11.1-7c-3.2,0.2-5.9,2.5-6.6,5.6
					c-0.4-7.5,0.9-14.3,6-15c0.1,0,0.1,0,0.2,0c3.2-0.5,6.4,0.2,9.1,2c6.8,4.5,10.7,16.2,7.7,34.9c1.9-1.5,3.3-3.6,3.9-6
					c-0.3,1.2-0.5,2.4-0.7,3.6l-0.3,1.7l1.5,0.8c11.9,6.1,15.4,12.6,11.7,21.9c-3.2,7.4-7.4,14.2-12.4,20.5
					c-2.8,3.5-5.3,7.3-7.5,11.2c-0.1,0.3-0.3,0.6-0.4,0.9c-3.8,7.6-34.4,18.7-77.4,7.4c-2.4-0.5-4.7-1.2-7-2l-0.2-0.1l-0.1,0
					C11.6-739.2,3.7-745.6-3.4-752.3 M27.5-799.7c1.3,3.7,3.5,6.5,7.5,5.7c4.2-0.8,4.1-4,2.8-7.6c-0.5-1.9-1.7-3.6-3.2-4.9
					c2.9-0.4,5.8,0.3,8.3,1.9c1.3,3.6,2.3,7.2,3.1,10.9c-5.3,2.3-11,3.7-16.8,4.1l-2.9,0.1l-0.7-1.1c-1.2-2.2-2.3-4.3-3.1-6.3
					c0.3-2.9,1.9-5.4,4.3-7C26.7-802.5,26.9-801,27.5-799.7 M98.4-805.4c-0.3-2.4-1.5-4.7-3.3-6.4c2.5-0.2,5,0.5,7,2.1
					c0.5,3.9,0.4,7.9-0.4,11.8c-3.3,0.1-6.5-0.7-9.3-2.2c-1.3-2.5-2.4-5.1-3.2-7.7c0.2-0.3,0.5-0.6,0.7-0.9c0.1,0.8,0.2,1.5,0.4,2.2
					c0.8,3.8,2.5,7,5.6,7.4C99.1-798.6,99.2-801.6,98.4-805.4 M65.7-717.3H66c4,0,6.8-1.2,8.4-3.6c0.9-1.4,1.4-3.1,1.3-4.9
					c1.1,0,2.1,0,3.1-0.1c0.8,3.2,0.3,6.6-1.3,9.5c-1.7,2.4-5,3.7-9.7,3.9c-10.8,0.3-21-5.3-27.6-10c-2.6-1.9-5.1-3.9-7.5-6.1
					c3.5,0.4,7.7,1.4,10.9,1.7C46.1-724.9,55.9-717.4,65.7-717.3 M53.1-726c6.1,0.7,12.2,0.7,18.3,0.3c0.1,0.8-0.1,1.6-0.5,2.3
					c-1,1.4-3.3,1.7-5.1,1.6C61.3-722.1,56.9-723.5,53.1-726 M-87.9-603.3c0.4,0.3,0.7,0.7,0.9,1.1l-0.3,0.2h0l0,0
					c-10,6.2-20,12.3-29.9,18.6l-3.8,2.4l-0.9,0.6l-0.5,0.3l-0.1,0.1l-0.1,0l-0.1,0.1c-0.5,0.3-1,0.4-1.6,0.6
					c-1.3,0.3-2.6,0.6-4,0.7c-1.4,0.2-2.8,0.3-4.2,0.3c-5.7,0.3-11.6,0.3-17.5,0.4c-5.9,0-11.9,0.4-17.8,1.1l-0.6,0.1l-0.3,0l-0.2,0
					c-0.2,0-0.3,0-0.5,0c-0.2,0-0.4-0.1-0.5-0.3c-0.2-0.3-0.4-0.7-0.4-1.1c-0.1-0.6-0.2-1.1-0.1-1.7c0.1-2.6,1-5.2,2.4-7.4
					c0.7-1,1.5-2,2.5-2.7c0.5-0.3,0.9-0.6,1.5-0.9l0.4-0.2l0.4-0.1c0.3-0.1,0.6-0.2,0.9-0.2c2.8-0.6,5.6-1,8.4-1.3
					c5.7-0.6,11.5-0.9,17.3-1l3.9-0.1c0.2-0.8,0.3-1.5,0.5-2.2c0.1-0.4,0.2-0.7,0.3-1.1l0.1-0.5c0.2-0.7,0.4-1.4,0.6-2.1
					c0.4-1.4,0.9-2.7,1.5-4.1c1-2.7,2.3-5.2,3.8-7.7c1.4-2.4,3.2-4.7,5.1-6.8c2-2.1,4.3-3.8,6.8-5.1c-2.9,0.7-5.6,1.9-8,3.5
					c-2.5,1.7-4.7,3.9-6.6,6.3c-1.9,2.4-3.6,5.1-4.9,7.9c-0.7,1.4-1.3,2.8-1.8,4.3c-0.3,0.7-0.5,1.5-0.8,2.2l-0.2,0.5h0c0,0,0,0,0,0
					h-0.4c-5.9,0.1-11.8,0.4-17.7,1c-3,0.3-6,0.8-8.9,1.4c-0.4,0.1-0.8,0.2-1.2,0.3l-0.7,0.2l-0.6,0.3c0,0-0.1,0-0.1,0.1
					c-2-0.6-4-1.2-6-1.7c-1.2-0.3-2.4-0.6-3.6-0.9l-1.8-0.4l-0.9-0.2l-0.8-0.2c0,0,0-0.1-0.1-0.1c0-0.1,0-0.1-0.1-0.2
					c-0.2-0.6-0.3-1.2-0.3-1.8c0-1.4,0.3-2.8,0.8-4.1c0.6-1.3,1.4-2.5,2.4-3.5c0.5-0.5,1.1-0.9,1.7-1.3c0.6-0.4,1.2-0.7,1.8-0.9
					c2.8-0.9,5.9-1,8.7-0.2c1.5,0.3,3.1,0.8,4.6,1.3c0.8,0.3,1.5,0.6,2.2,0.9c0.4,0.2,0.7,0.3,1.1,0.5l0.5,0.3l0.3,0.1l0.6,0.3
					l1.4,0.7l0.8-0.4l0.4-0.2l0.3-0.2l0.9-0.5c0.5-0.2,0.9-0.5,1.4-0.7c0.9-0.4,1.9-0.9,2.9-1.2c1-0.4,2-0.7,3-1l0.7,0
					c0.5,3.6,2.2,6.9,4.9,9.4c-0.8-4.5-1.3-9-1.4-13.5c-0.2-3.6,0-7.1-0.2-10.8c-2.1,2.9-3.3,6.4-3.5,10.1c-3.3-0.1-6.6-0.2-9.9-0.4
					c-2-0.1-3.9-0.3-5.8-0.5c-1-0.1-1.9-0.2-2.8-0.4c-0.5-0.1-0.9-0.2-1.3-0.3c-0.2,0-0.4-0.1-0.5-0.1c0,0-0.1,0-0.1,0l0,0l-1.8-1.2
					l-1.8-1.2c-1.2-0.8-2.5-1.6-3.7-2.4c-2.5-1.6-5-3.1-7.6-4.5c-1.3-0.7-2.6-1.4-4-2.1l-0.3-0.1c-0.1,0-0.2-0.1-0.2-0.1
					c-0.1,0-0.1-0.1-0.2-0.1c-0.1-0.1-0.2-0.1-0.3-0.2c-0.1-0.1-0.1-0.2-0.1-0.3c0-0.1-0.1-0.3-0.1-0.4c0-1,0.4-1.9,0.9-2.7
					c0.7-1,1.5-1.8,2.5-2.5c1-0.7,2.1-1.3,3.3-1.7c1.1-0.3,2.2-0.3,3.3-0.2c2.7,0.4,5.3,1.1,7.8,2.1c2.6,0.9,5.2,2.1,7.8,3.2
					c1.3,0.6,2.6,1.2,3.8,1.8l1.9,1l0.9,0.5l1.6,0.9l1.8-0.4l1.1-0.2c0.7-0.2,1.4-0.4,2.1-0.6c1.4-0.4,2.9-0.9,4.3-1.4
					c1.4-0.5,2.9-1.2,4.2-2l3.7-2.1c4.1-2.2,8.3-4.1,12.7-5.6c2.2-0.8,4.4-1.3,6.7-1.7c0.6-0.1,1.1-0.2,1.7-0.2l0.9-0.1l0.9,0
					c1.2-0.1,2.3,0,3.5,0.3c-1.1-0.6-2.2-1.1-3.4-1.4l-0.9-0.2l-0.9-0.2c-0.6-0.1-1.2-0.2-1.8-0.2c-2.5-0.2-4.9-0.1-7.4,0.3
					c-4.3,0.7-8.4,2.1-12.3,4c-4.2-0.6-8.4-1.7-12.4-3.2c-4.5-1.7-8.3-8.8-9.6-14.7c-0.9-3.8-0.5-6.3,0.1-7.1
					c1.7-1.9,7.1,1.3,11.5,3.9c2.1,1.2,4.2,2.5,6.2,3.4c6.5,3,16.5,2.7,22.6,2.5c1.2,0,2.2-0.1,2.9-0.1c1.7,0,7.4,5,13.2,12.3
					l-2.2,2.9l1.7,1c3.1,1.7,6.4,3.1,9.8,4c-2.5,2.3-5,4.2-5,4.2l-1.4,1l1,1.4c0.3,0.3,2.5,3.2,9.1,5.5c-1.5,3.2-3,5.8-3,5.8
					l-1.2,1.9l8.6,2.5c-2.1,2.1-4.3,4.1-6.7,5.9l-3,1.3L-87.9-603.3z M-13.1-646.2l-0.2,0.3l-0.1,0.3c-1.8,5.6-8.4,15.4-21,24.4
					c-8.8,6.2-18.4,10.9-28.7,14.1c-5.3,1.7-10.6,3-16.1,3.9c-1.2-0.4-3.2-1.2-4.8-1.9c2.4-2,5.6-5.1,7.2-6.7l2.1-2.1l-10-2.9
					c1.1-2,2-4,2.9-6.1l0.8-1.8l-1.8-0.5c-2.8-0.7-5.5-2-7.9-3.7c2.1-1.7,4.2-3.6,6.1-5.5l2.3-2.4l-3.2-0.5
					c-3.5-0.6-6.9-1.7-10.1-3.3l2.3-3l-1.7-1.5l0.1-0.1l-0.2-0.3c3.8-2.4,7.8-4.4,11.9-6.1c16-6.3,33-10,50.2-10.8l1.2,0l0.6-1
					c3.3-5.7,11.8-17.6,15-22c0.5,0.6,1.1,1.2,1.6,1.7c1.9,1.9,4,3.7,6.2,5.3c3.1,2.2,6.4,4.2,9.9,5.8
					C-1.8-666.6-10.1-650.7-13.1-646.2 M119.5-628.2l1.4,7.1l0.6,3.3c0,0,0,0,0,0l0,0l0,0l-0.1,0.1l-0.6,0.6
					c-3.4,2.9-7.1,5.3-11.2,7.1c-4.1,1.9-8.3,3.4-12.7,4.5c-4.4,1.2-8.8,2.1-13.3,2.7c-9,1.3-18,2-27.1,1.9
					c-9.1,0-18.2-0.5-27.2-1.4c-4.5-0.5-9-1.1-13.5-1.9c-0.6-0.1-1.1-0.2-1.7-0.3l-0.2,0l-0.1-1.6l-0.3-3.6l-0.2-3.6
					c-0.5-9.6-0.7-19.2-0.7-28.9c0-4.8,0.2-9.6,0.4-14.4c0.2-3.9,0.4-7.8,0.7-11.6c2.2,0.5,4.5,0.9,6.7,1.1c0.7,0.1,1.3,0.1,2,0.1
					s1.3,0,2,0c0.2,0,1-0.1,1.6-0.1l0.9-0.1l0.5,0l0.2,0c0-0.1,0.1-0.1,0.1-0.2l1.3-3.1c1-2.6,1.8-5.2,2.5-7.9
					c1.3-5.5,2-11.1,2.1-16.8c0.1-2.8,0-5.6-0.1-8.4c-0.2-2.8-0.4-5.6-0.8-8.3c-0.3,2.8-0.7,5.5-1.1,8.2c-0.4,2.7-0.8,5.4-1.3,8.1
					c-0.9,5.4-1.9,10.7-3.1,15.9c-0.6,2.5-1.4,4.9-2.3,7.3L25-672l-0.1,0.1v0h-0.3c-0.6,0-1.2,0-1.8,0c-0.6,0-1.2,0-1.8-0.1
					c-4.8-0.5-9.6-1.7-14.1-3.5c-4.6-1.8-8.9-4.1-13-7c-4-2.8-7.4-6.3-10.1-10.5c-0.3-0.5-0.6-1-0.9-1.6c-0.3-0.5-0.5-1.1-0.7-1.6
					l-0.1-0.3l0.6-1.2l1.9-3.4c0.3-0.6,0.6-1.1,1-1.7l1-1.6l2.1-3.3c0.2-0.3,0.3-0.5,0.5-0.8l0.6-0.8l1.1-1.6l1.1-1.6
					c0.4-0.5,0.7-1.1,1.1-1.5l2.4-2.9c3.2-3.8,6.9-7.2,10.9-10c1-0.7,2-1.3,3.1-1.8c0.5-0.3,1-0.6,1.6-0.8l1.6-0.7
					c1.1-0.4,2.2-0.7,3.3-0.9l0.4-0.1l0.4,0l0.8-0.1l0.8,0c0.1,0,0.2,0,0.4,0h0.2c0,0,0.1,0,0.1,0l0-0.1c2,0.8,4.2,1.4,6.3,1.7
					c3.7,4,7.8,7.6,12.2,10.7c9.9,7.1,20,10.9,29.2,10.9c0.3,0,0.7,0,1,0c6.1-0.2,10.5-2.1,13-5.7c2.3-3.7,3.1-8.2,2.1-12.4
					c2-0.2,4.1-1,5.7-1.2c3.1,0.9,6.2,2,9.2,3.4c8.6,3.9,16.5,9.2,23.3,15.7c-7,6.7-12.1,15.2-14.6,24.6c-0.3-0.7-0.6-1.4-1-2.1
					l-1.7-3.4c-0.5-1.1-1.2-2.2-1.8-3.3s-1.2-2.2-1.8-3.3l-1.9-3.2c-1.3-2.1-2.7-4.2-4.1-6.2c-1.4-2-2.9-4-4.6-5.8
					c1.3,2.1,2.5,4.2,3.7,6.4c1.1,2.2,2.2,4.4,3.3,6.6l1.5,3.4c0.5,1.1,1,2.3,1.5,3.4c0.5,1.1,1,2.3,1.4,3.4l1.4,3.5
					c3.6,9.2,6.7,18.6,9.6,28.1C115.2-646.9,117.4-637.6,119.5-628.2 M141.8-660.3L141.8-660.3c-11.5-3.8-22.1-9.6-31.5-17.1
					c0.2-3.1,1.4-12.6,10.6-23.6c-0.1,0.7-0.2,1.4-0.3,2c-0.1,1.2-0.1,2.3,0,3.5c0,0.6,0.1,1.2,0.1,1.7c0.1,0.6,0.2,1.2,0.3,1.7
					c0.2,1.1,0.5,2.3,0.8,3.4c0.4-1.1,0.8-2.2,1.2-3.2c0.2-0.5,0.3-1.1,0.5-1.6c0.2-0.5,0.4-1.1,0.5-1.6c0.3-1.1,0.6-2.1,0.8-3.2
					c0.3-1,0.5-2.1,0.7-3.1c1.6-8.1,4.5-15.9,8.6-23.1c2-3.6,4.3-7,6.9-10.2c1.3-1.6,2.6-3.2,4-4.6c0.7-0.8,1.4-1.5,2.1-2.2
					c0.3-0.3,0.5-0.5,0.8-0.7l6.9-1.1c-0.9,3.3-1.5,6.6-2,10l-0.3,3l2.6-1.3c1.2-0.6,2.4-1,3.6-1.4c-0.6,3.1-1.5,7.2-2,8.6l-1.2,3.8
					l3.4-1.7c2.4-1,4.9-1.7,7.5-2.2c0.1,2.3,0.1,6,0.1,7v2.9l2.4-1.4c1.9-1,3.9-1.6,6-1.9l0,5.8l1.8-0.2c0.2,0,3.7-0.4,6.6-0.8
					C173.2-681.3,146.7-663.4,141.8-660.3 M185.6-716.8l-1,0.3c-1.9,0.3-4.6,0.6-6.3,0.8l0-5.7l-1.6,0c-2.3,0.1-4.6,0.6-6.8,1.4
					c-0.1-2.6-0.1-6.2-0.1-6.4l0-1.9l-1.8,0.3c-2.4,0.4-4.8,0.9-7.2,1.6c0.8-3.4,1.7-8,1.7-8.3l0.5-2.3l-2.2,0.2
					c-1.4,0.2-2.8,0.5-4.2,1c0.7-4.1,2.1-9,2.1-9.1l0.7-2.5l-8.5,1.3c-0.1-3.3,0-6.6,0.2-9.9c0.1-1.7,0.3-3.4,0.6-5.1
					c0.1-0.4,0.2-0.8,0.3-1.2l0.1-0.6l0.2-0.5l0.2-0.5c0.1-0.2,0.1-0.3,0.2-0.4c0.1-0.2,0.1-0.3,0.2-0.5l0.3-0.6
					c3.4-6.3,6.8-12.6,10.3-18.7c1.8-3,3.6-6.1,5.6-8.8l0,0c0.5-0.7,1-1.4,1.5-2c0.4-0.6,0.9-1.1,1.5-1.5c0,0,0.1-0.1,0.1-0.1
					c0,0,0.1-0.1,0.2-0.1l0.4-0.2c0.3-0.2,0.7-0.3,1-0.4c0.3-0.1,0.7-0.3,1.1-0.4c0.4-0.1,0.8-0.3,1.2-0.4c3.2-0.9,6.5-1.6,9.8-2.3
					c3.3-0.6,6.7-1.2,10-1.6c0.8-0.1,1.7-0.2,2.5-0.3c0.4,0,0.8-0.1,1.2-0.1l0.6,0l0.5,0h0.3c0,0,0.1,0,0.1,0c0.1,0,0.1,0,0.2,0
					l0.2,0l0.5,0.1l0.5,0.2c0.7,0.3,1.5,0.6,2.2,0.9c3,1.4,6.1,3,9.1,4.7c3.1,1.6,6.1,3.3,9.3,4.8c0.8,0.4,1.6,0.8,2.5,1.1
					c0.2,0.1,0.4,0.2,0.7,0.2c0.2,0.1,0.5,0.2,0.7,0.2l0.4,0.1l0.4,0.1l0.2,0c0,0,0,0,0,0l0,0c0,0,0,0,0,0l0,0l0,0c0,0,0,0,0,0
					c0,0,0,0,0,0.1c0,0,0,0,0,0.1c0,0.1,0.1,0.1,0.1,0.3c0.1,0.6,0.2,1.2,0.1,1.8c-0.1,1.4-0.6,2.8-1.3,4.1c-0.7,1.2-1.7,2.3-2.8,3
					c-1.1,0.7-2.4,1.2-3.8,1.2c-0.3,0-0.7,0-1,0c-0.4,0-0.7-0.1-1.1-0.1l-0.5-0.1l-0.3-0.1l-0.3-0.1l-1.2-0.3
					c-3.3-0.8-6.7-1.6-10-2.5l-5-1.3l-2.5-0.7l-3.7-1l-0.9,1l-0.9,0.9l-0.9,0.9c-0.6,0.6-1.3,1.2-1.9,1.8l-2.3,2.1l-1.3,1.2
					l-2.3,2.1l0.6,1.1l0.3,0.6l0.2,0.5l0.5,1l0.1,0.1l0,0.1l0.1,0.1l0.1,0.2l0,0.1c0.3,0.7,0.6,1.4,0.8,2.1c0.5,1.5,0.9,3,1.2,4.5
					c0.6,3.1,0.8,6.3,0.7,9.4c-0.2,3.2-0.8,6.3-1.9,9.3c-1.2,3-2.9,5.8-5,8.2c2.7-2,4.9-4.5,6.6-7.4c1.7-3,2.9-6.3,3.4-9.7
					c0.3-1.9,0.5-3.8,0.5-5.8c0-1.6-0.1-3.2-0.3-4.7c-0.2-1.8-0.6-3.5-1-5.2c-0.2-0.9-0.5-1.7-0.8-2.5l-0.2-0.6l0-0.1l0-0.1l0,0v0
					c0,0,0,0,0,0c-0.1,0.1,0.2-0.2,0.4-0.4l0.6-0.5c0.8-0.7,1.6-1.4,2.3-2.2c0.5-0.5,1-1,1.6-1.5c-0.8,3.2-1.7,9,0.2,12.9
					c0.1,0.3,0.3,0.6,0.5,0.9c-0.9,1.9-1.7,3.9-2.3,5.9c-0.1,0.3-0.2,0.5-0.2,0.8c-0.8,2.9-0.2,6.1,1.8,8.4
					c-2.2,2.5-3.8,5.5-4.7,8.7c-0.2,1-0.1,2.1,0.4,3.1l-2,5.3c-0.6,1.6-0.6,3.3,0,4.9c0.6,1.6,1.8,2.8,3.4,3.5
					c0.7,0.3,1.5,0.5,2.3,0.5c0.9,0,1.8-0.2,2.6-0.6c1.6-0.8,2.8-2.1,3.3-3.8l0.8-2.3l0.5,0.2l0.5,0.2
					C196.7-720.4,185.6-716.8,185.6-716.8 M232.6-790.7c-0.1-0.3-0.2-0.7-0.4-1c-0.1-0.2-0.2-0.3-0.3-0.5c-0.1-0.2-0.2-0.3-0.3-0.5
					c-0.1-0.2-0.3-0.3-0.4-0.5s-0.3-0.3-0.5-0.4c-0.2-0.1-0.3-0.3-0.5-0.4c-0.2-0.1-0.4-0.2-0.6-0.3c-0.2-0.1-0.4-0.1-0.6-0.2
					l-0.4-0.1l-0.2,0l-0.2-0.1c-0.2,0-0.3-0.1-0.5-0.2c-0.2-0.1-0.4-0.1-0.5-0.2c-0.7-0.3-1.5-0.6-2.2-1c-0.9-0.4-1.7-0.8-2.6-1.3
					l1.2-3.5c3.7,2.8,7,6.1,10,9.6c0.8,8.7-1.9,17.4-7.5,24.1c-3.3,4.1-14.6,4.4-25.7,0.6c-0.7-0.2-1.2-0.7-1.5-1.4
					c-1.4-3-0.1-9.1,0.6-11.4l0.6,0.2l5,1.3c3.3,0.9,6.7,1.7,10,2.5l1.3,0.3l0.3,0.1l0.4,0.1l0.7,0.1c0.5,0.1,1,0.1,1.5,0.2
					c0.5,0,1,0,1.5,0c2.1-0.1,4.2-0.8,5.9-1.9c0.9-0.6,1.7-1.3,2.4-2.1c0.7-0.8,1.4-1.6,1.9-2.6c1.1-1.9,1.8-4,2-6.1
					C233.1-788.3,233-789.5,232.6-790.7 M213.3-731.9L213.3-731.9c-3.7-0.3-7.3-1.3-10.8-2.8c-0.3-0.1-0.6-0.3-1-0.4
					c-2.6-0.9-5-2.4-7-4.3c-0.1-0.1-0.1-0.2-0.2-0.2c-0.1-0.1-0.1-0.2-0.2-0.3c0.8-2.5,2-4.8,3.8-6.8c0.2,0.2,0.5,0.3,0.7,0.5
					c0.1,0.1,0.2,0.1,0.3,0.2c5.1,2.7,10.8,4.1,16.5,4.1c2.4,0,4.9-0.3,7.2-0.9C218.7-735.4,214.9-731.9,213.3-731.9 M201.1-750.1
					c-3.4-2-4.7-4.3-4-6.8c0.5-1.8,1.1-3.5,1.9-5.2l0,0c5.1,1.8,10.5,2.8,15.9,2.9c7.1,0,12.1-2.1,14.4-4.9c1.6-1.9,3-4,4.1-6.2
					c0,7.4-2.6,14.6-7.2,20.5C222.4-745.3,208.9-745.5,201.1-750.1 M267.5-713.6c0,2.8-1.6,5-3.7,5s-3.7-2.3-3.7-5s1.6-5,3.7-5
					S267.5-716.4,267.5-713.6 M376.9-982V-763l-148.6,18.9c0.6-1.2,1.1-2.3,1.4-2.9c10.7-12.9,8-29.9,7.4-33c1-4.1,1.2-8.3,0.5-12.5
					c-0.1-0.5-0.5-1.8-5.5-6.6c-2.2-2.2-4.5-4.2-7-6l39.5-115.4c0.4-1.1-0.1-2.4-1.3-2.9c-1.1-0.4-2.3,0.1-2.7,1.2c0,0,0,0,0,0.1
					L216-805.6c-2.2,0.4-4.5,0.9-6.7,1.5c-0.9-0.5-1.9-0.9-2.8-1.4c-0.8-0.4-1.7-0.7-2.6-1.1l-0.7-0.2l-0.8-0.2l-0.4-0.1
					c-0.2,0-0.3-0.1-0.5-0.1l-0.5,0h-0.4l-0.7,0l-0.7,0c-0.5,0-0.9,0.1-1.3,0.1c-0.9,0.1-1.8,0.2-2.6,0.3c-3.5,0.5-6.9,1-10.3,1.7
					c-3.4,0.7-6.8,1.4-10.2,2.4c-0.4,0.1-0.9,0.3-1.3,0.4c-0.4,0.1-0.9,0.3-1.3,0.5c-0.5,0.2-0.9,0.4-1.4,0.6l-0.7,0.4
					c-0.1,0.1-0.3,0.2-0.4,0.2l-0.4,0.3c-0.8,0.7-1.5,1.4-2.2,2.2c-0.5,0.6-1,1.2-1.4,1.9l-0.3,0.4c-2.1,3-4,6.1-5.8,9.2
					c-3.6,6.2-7,12.5-10.4,18.8l-0.3,0.6c-0.1,0.2-0.2,0.5-0.4,0.8c-0.1,0.3-0.2,0.5-0.3,0.8l-0.2,0.8c-0.1,0.2-0.2,0.5-0.2,0.8
					l-0.2,0.7c-0.1,0.5-0.2,1-0.3,1.4c-0.2,1.2-0.4,2.5-0.5,3.7v-195.3c0-8.5-2.3-15.8-5.8-19.9l227.6-27.5
					C377.5-999,376.9-982.1,376.9-982"/>
				<path id="Trazado_4475" class="st5" d="M32.8-815.3c-3.5,0.8-3.5,3.5-2.3,6.7s3.1,5.5,6.6,4.8c3.6-0.8,3.5-3.5,2.3-6.7
					C38.2-813.7,36.3-816,32.8-815.3"/>
				<path id="Trazado_4476" class="st5" d="M96.8-819.7c-3-0.4-3.5,2.3-3.1,5.6c0.4,3.4,1.6,6.2,4.5,6.5c3,0.4,3.5-2.3,3.1-5.6
					C100.9-816.5,99.8-819.3,96.8-819.7"/>
			</g>
		</g>
	</g>
</g>
</svg>
