<?xml version="1.0" encoding="utf-8"?>
<!-- Generator: Adobe Illustrator 26.0.2, SVG Export Plug-In . SVG Version: 6.00 Build 0)  -->
<svg version="1.1" id="Capa_1" xmlns="http://www.w3.org/2000/svg" xmlns:xlink="http://www.w3.org/1999/xlink" x="0px" y="0px"
	 viewBox="0 0 600 600" style="enable-background:new 0 0 600 600;" xml:space="preserve">
<style type="text/css">
	.st0{fill:#FFDE17;}
	.st1{fill:#0DB5FF;}
	.st2{fill:#D1D1D1;}
	.st3{fill:#875D3A;}
	.st4{fill:#E8AE8E;}
	.st5{fill:#593418;}
	.st6{fill:#FFF422;}
	.st7{fill:#808080;}
	.st8{fill:#FFFFFF;}
	.st9{fill:#256BB7;}
	.st10{fill:#CE956B;}
	.st11{fill:#B27D66;}
	.st12{fill:#4D4D4D;}
	.st13{fill:#B3B3B3;}
	.st14{fill:#FFE6CA;}
	.st15{fill:#959CA5;}
	.st16{fill:#1E0A04;}
</style>
<g>
	<path class="st0" d="M600,323c-3.6,177.1-139.3,272-250.4,248.7C229.8,546.6,61.7,540.8,6.1,382.3c0,0,0,0,0-0.1
		c-1.3-3.6-2.5-7.3-3.6-11c-0.1-0.2-0.1-0.4-0.2-0.6c-6.7-25.3-2.2-75.6,61.2-106.1c110.1-53,50-155,196.9-185.2
		c0.1,0,55.6-6.3,89.5-6.3C488,72.9,602.7,184.9,600,323z"/>
	<g>
		<path id="Trazado_3909" class="st1" d="M438.4,566.7c-0.5,0.2-1.1,0.3-1.6,0.5C437.3,567,437.9,566.9,438.4,566.7"/>
		<path id="Trazado_3914" class="st1" d="M434.3,567.9c-0.6,0.2-1.1,0.3-1.7,0.5C433.2,568.2,433.8,568.1,434.3,567.9"/>
		<path id="Trazado_3920" class="st1" d="M450.9,562.2c-0.2,0.1-0.5,0.2-0.7,0.3C450.5,562.4,450.7,562.3,450.9,562.2"/>
		<path id="Trazado_3922" class="st1" d="M446.3,564c-0.4,0.1-0.7,0.3-1.1,0.4C445.6,564.3,445.9,564.1,446.3,564"/>
		<path id="Trazado_3923" class="st1" d="M442.4,565.4c-0.5,0.2-1,0.3-1.5,0.5C441.4,565.7,441.9,565.6,442.4,565.4"/>
		<path id="Trazado_3928" class="st1" d="M430.2,569c-0.5,0.1-1.1,0.3-1.6,0.4C429.1,569.3,429.7,569.2,430.2,569"/>
		<path id="Trazado_3944" class="st1" d="M394.6,574.7c-0.6,0-1.1,0.1-1.7,0.1C393.5,574.8,394,574.7,394.6,574.7"/>
		<path id="Trazado_3945" class="st1" d="M403.4,574c-0.6,0.1-1.2,0.1-1.8,0.2C402.2,574.1,402.8,574,403.4,574"/>
		<path id="Trazado_3946" class="st1" d="M407.7,573.5c-0.6,0.1-1.1,0.1-1.7,0.2C406.6,573.6,407.1,573.6,407.7,573.5"/>
		<path id="Trazado_3947" class="st1" d="M399,574.4c-0.6,0-1.2,0.1-1.8,0.1C397.8,574.5,398.4,574.4,399,574.4"/>
		<path id="Trazado_3948" class="st1" d="M411.9,572.9c-0.5,0.1-1,0.1-1.5,0.2C410.9,573,411.4,572.9,411.9,572.9"/>
		<path id="Trazado_3949" class="st1" d="M426,570.1c-0.5,0.1-1,0.2-1.5,0.4C425,570.4,425.5,570.2,426,570.1"/>
		<path id="Trazado_3950" class="st1" d="M416.1,572.2c-0.3,0.1-0.6,0.1-0.8,0.1C415.6,572.3,415.9,572.2,416.1,572.2"/>
		<path id="Trazado_3951" class="st1" d="M421.5,571.1c-0.4,0.1-0.8,0.2-1.2,0.2C420.7,571.3,421.1,571.2,421.5,571.1"/>
		<path id="Trazado_3952" class="st1" d="M365.9,574.1c-0.3,0-0.7-0.1-1-0.1C365.2,574,365.6,574.1,365.9,574.1"/>
		<path id="Trazado_3954" class="st1" d="M389.9,574.9c-0.5,0-1,0-1.4,0C389,574.9,389.5,574.9,389.9,574.9"/>
		<path id="Trazado_3955" class="st1" d="M361.8,573.6l-1.4-0.2L361.8,573.6"/>
		<path id="Trazado_3956" class="st1" d="M352.2,572.2l-0.3-0.1L352.2,572.2"/>
		<path id="Trazado_3957" class="st1" d="M357.5,573c-0.4-0.1-0.8-0.1-1.2-0.2C356.7,572.9,357.1,573,357.5,573"/>
		<path id="Trazado_3958" class="st1" d="M379.9,575c-0.4,0-0.9,0-1.3,0C379,574.9,379.5,574.9,379.9,575"/>
		<path id="Trazado_3959" class="st1" d="M375.6,574.8l-1.4-0.1L375.6,574.8"/>
		<path id="Trazado_3960" class="st1" d="M371,574.5c-0.3,0-0.6,0-0.9-0.1C370.3,574.5,370.7,574.5,371,574.5"/>
		<path id="Trazado_3961" class="st2" d="M198,481.9l-84.6-75.3L82,418.1l-46.3-15.2c0,0-16.9,4.9-24.3,30.4
			c-7.4,25.5,4.3,37.1,4.3,37.1l29.4,8.7c0,0,103.1,61.8,111.2,61.7c8.1-0.1,10-5.5,19.7-18.3c16.4-4.6,15-22.8,15-22.8L198,481.9z"
			/>
		<path id="Trazado_3962" class="st3" d="M551,224.2c-6-11.7-20.5-12.3-28.6-11.6c-1.1,0.1-2.3,0.2-3.4,0.4
			c-0.9,0.1-1.7,0.3-2.5,0.3c-6.1,0.4-12.1,1.2-18.1,2.5c5-2.6,10.2-4.7,15.6-6.3l0.3-0.1l0.2-0.3c11.9-17.6,17.5-31.6,17.5-44
			c0-10.3-6.3-18-10.1-21.7l-1.4-1.4l-0.2,2c-0.6,7.1-2.3,14.1-5.1,20.7c1.2-3.5,2-7,2.6-10.6c1.2-7.9,1-16.1-0.6-23.9
			c-1.5-7.8-4.5-15.2-8.7-21.9c-0.9-1.6-2.4-4-3.6-5.8l-2-2.7c-2.8-3.5-5.9-6.8-9.2-9.8l-1.6-1.4l0,2.1c0.3,6.8-0.6,13.6-2.5,20.2
			c-0.9,3.1-2.5,6-4.7,8.5l-2.6,2.9l-1-3.8c-4.8-18.9-19.3-35.2-38.6-43.6l-2.3-1l1.1,2.3c3.2,6.4,5.3,13.3,6.4,20.4
			c0.4,2.1,0.7,8.6,1,13.3c0,0.2,0,0.4,0,0.6l-4.6-8.4c-4.3-7.8-10.1-14.6-17.2-20c-3.6-2.7-7.3-5.2-11.2-7.4
			c-16.8-9.5-28.3-21.2-34.1-34.5c-2.2-5.1-3.7-10.5-4.4-16l-0.2-1.3l-1.2,0.7c-13.1,7.2-25,16.6-35,27.7
			c-10.9,12.3-17.8,25.4-20.5,38.8c-3.8,21.8,9.3,41.6,18,51.9l-4.9,2.3l-0.1,0.2c-4.6,5.3-11.3,13.6-17.6,22.5l-1.5,2.2l2.5-0.7
			c0.1,0,0.4-0.1,0.7,0.6c1.3,3-1.1,13.2-14.5,20.6l-0.3,0.2l-0.1,0.3c-0.5,1.4-3.1,7-3.4,8.1c-2.4,8.6,6.1,38.1,8.3,44.8
			c0,0,4.1,8.6,4.4,10.1l0.3,1.4l-1.2,0.8c-8.5,5.8-13.8,13.3-14.5,20.5c-0.6,6.4,2.2,12.7,8.2,18.8c8.6,8.6,25.6,28.3,31.5,36.2
			l0.1,0.1c3.6,5.4,22.8,8.5,33.6,9.4c5.3,0.5,10.6,0.7,15.5,0.7c11.1,0,20.6-1.1,25.8-3.2c11.3-4.5,26.8-15.9,42.6-31.3l0.1-0.1
			c0.7-0.8,1.4-1.7,2.1-2.5c2.1-2.5,4.7-5.7,6.5-7.6l-0.9,2.5l3.2-3.5c5.6-6,10.8-12.5,15.4-19.3l0.3-0.4l-0.2-0.4
			c-0.2-0.6-0.4-1.1-0.6-1.7c1.6,2.1,3.4,4,5.3,5.7c4.6,3.7,9.5,7,14.7,10c2.7,1.6,5.7,2.4,8.8,2.3l0.1,0
			c7.2-1.9,15.2-7.8,24.5-18.2l0,0C545.5,259.5,557.4,238.4,551,224.2"/>
		<path id="Trazado_3963" class="st3" d="M448.7,563.1c-5.2-14.3-16.2-40.7-16.2-40.7s-60.9-76.3-124.6-68
			c2.1,8.4-1.3,19.5,25.7,48.8c13.7,29.9,21.6,65.3,22.6,69.6C387.2,577.7,419.2,574.3,448.7,563.1"/>
		<path id="Trazado_3964" class="st4" d="M106.3,520.4c0.5-2.1,1.4-4,2.5-5.8c0.6-0.9,1.3-1.8,2.1-2.5c0.8-0.8,1.8-1.4,2.8-1.9l0,0
			c0.2-0.1,0.5-0.2,0.7-0.3l0.6-0.2V509c0-1.6-1.5-3.8-4.1-6c-6.9-5.9-17.4-9.3-20.1-7.5c-6.5,4.2-8.9,15.2-5.9,20.4
			c3,5.2,13.4,10.8,19.3,13.6l1.6,0.8l-0.4-2.4l-0.1-0.9v-0.4C105.4,524.6,105.7,522.5,106.3,520.4"/>
		<path id="Trazado_3965" class="st4" d="M141.2,536.8l-0.8-0.4l-0.1,0.2c0.4-2,0.6-4,0.3-6c-0.1-1-0.3-1.9-0.7-2.8
			c-0.3-0.9-0.8-1.8-1.3-2.6c-1.1-1.6-2.4-3.1-3.9-4.4c-3-2.5-6.3-4.7-9.7-6.6l-0.1,0c-0.8-0.5-1.6-0.9-2.5-1.3l-0.6-0.3l-0.6-0.2
			c-0.3-0.1-0.6-0.2-0.9-0.3c-0.1,0-0.2-0.1-0.4-0.1l-0.1,0c-0.9-0.2-1.8-0.3-2.6-0.2c-0.9,0.1-1.7,0.3-2.5,0.6
			c-1.6,0.8-3,2-3.9,3.6c-1,1.6-1.8,3.3-2.2,5.2c-0.5,1.8-0.8,3.7-0.8,5.6v0.4l0,0.5l0.1,0.4c0,0.2,0.1,0.4,0.1,0.7l0,0.1
			c0,0.2,0.1,0.4,0.2,0.5c0.3,0.9,0.7,1.7,1.2,2.5c1,1.6,2.3,3.1,3.6,4.5c1.4,1.4,2.8,2.7,4.4,3.9c3.1,2.4,6.4,4.4,10,6.1
			c0.9,0.4,1.8,0.7,2.7,1c0.4,0.1,0.9,0.3,1.4,0.4l0.2,0c0.4,0.1,0.7,0.2,1.1,0.2c0.3,0,0.7,0.1,1,0.1c1.4,0,2.9-0.4,4.1-1
			c1.7-0.9,3.1-2,4.4-3.4c0.6-0.7,1.2-1.5,1.8-2.2c0.3-0.4,0.5-0.8,0.8-1.2l0.7-1.1l-0.9-0.4C143.5,537.8,142.3,537.3,141.2,536.8"
			/>
		<path id="Trazado_3966" class="st4" d="M87.6,494.1l0.8-0.7l-0.8-0.7c-3.6-3.1-12.5-9.9-17.7-6.1c-2.5,2.1-3.8,5.4-3.5,8.7
			c0.1,6.3,3.3,12.5,5.5,14c2.4,1.6,4.9,2.9,7.5,4l1.5,0.6l-0.2-1.6c-0.3-2.9,0-5.8,0.9-8.5C82.7,500.1,84.7,496.7,87.6,494.1"/>
		<path id="Trazado_3967" class="st4" d="M192.7,469.8c-1.9-0.3-11.5-1.7-12.6-1.8l0,0c-0.3,0-0.6-0.2-0.8-0.4
			c-0.4-0.6-0.4-2,3.8-12.9l0.5-1.4l-8,0.7l10.9-12.2l-2.2,0.1c-2.3,0.1-6.7,0.4-10.9,0.6l-1.7,0.1l0.8-1.5c0.6-1.1,2.3-3.9,4.9-8
			l0.8-1.2l-1.4-0.2c-1.8-0.3-3.6-0.5-5.4-0.6l-0.9,0v-0.9c0-2.2,0.4-4.3,1.2-6.4l0.3-0.7l-0.6-0.4c-6.3-4.3-11.1-7.7-15.5-11.2
			c-0.5-0.4-1-0.8-1.5-1.2l-0.4-0.4c-0.2-0.2-0.4-0.3-0.6-0.5l-0.6-0.5c-0.2-0.2-0.4-0.4-0.7-0.6c-1.2-0.8-2.5-1.4-3.8-1.8
			c-3-0.9-6.1-1.6-9.2-1.9c-3-0.4-6.2-0.6-9.6-0.7c-3.2-0.1-6.4,0-9.5,0.3c-1.5,0.1-3,0.4-4.5,0.7c-0.3,0.1-0.5,0.1-0.7,0.2
			c-0.1,0-0.2,0.1-0.4,0.1c-0.1,0-0.2,0.1-0.3,0.1l-0.1,0.1c-0.2,0.1-0.4,0.1-0.5,0.2l-0.1,0c-0.1,0-0.1,0-0.2,0.1h-0.7v0.6
			l-0.2,0.2c-0.7,1-1.3,2.1-2,3.2l-0.6,1c-0.8,1.4-1.6,2.7-2.4,4.1c-3.4,5.6-7.1,11.1-11.1,16.2l-1.5,1.9l-1.6,1.9
			c-0.5,0.7-1.1,1.3-1.6,1.9l-1.6,1.8c-0.4,0.4-0.7,0.9-0.9,1.5c-0.1,0.5-0.2,1,0,1.5c0.4,1.2,1.2,2.3,2.2,3.1
			c1.1,0.9,2.4,1.7,3.7,2.2c1.4,0.6,2.8,1,4.3,1.2c1.4,0.2,2.9,0.3,4.4,0.1c0.7-0.1,1.4-0.2,2.1-0.4l0.1,0c0.2-0.1,0.5-0.2,0.7-0.2
			c0.5-0.1,0.9-0.3,1.4-0.5c2.9-1.1,5.7-2.6,8.3-4.3c1.2-0.7,2.3-1.6,3.9-2.8l2.2-1.7l0.6-0.5c0.4-0.4,0.9-0.7,1.3-1.1l2.1-2
			l0.1,0.3c0.4,1.1,0.7,2.3,1.1,3.4l0.5,1.2l0.9,2.1c0.7,1.5,1.4,2.9,2.2,4.2c1.6,2.8,3.4,5.4,5.6,7.7c1.1,1.2,2.2,2.3,3.5,3.3
			c0.5,0.4,1,0.8,1.4,1.1l0.5,0.4l0.1,0l0.5,0.3c0.5,0.3,1,0.7,1.5,0.9c0.7,0.4,1.4,0.8,2.1,1.1l-0.8-0.1l2,1.9
			c3.6,3.4,6.5,6.2,9.2,8.8l4,3.9l0.6,0.6l0.9,0.2c0.9,0.2,1.8,0.4,2.7,0.5c3.6,0.6,7.3,0.9,11,1.1c3.3,0.2,6.8,0.2,10.1,0.2l1.1,0
			c1.1,0,2.2,0,3.4,0.1l0.7,0l2.7-8.2L192.7,469.8z"/>
		<path id="Trazado_3968" class="st3" d="M313.5,390.4c-7.5-4.9-13.6-11.6-17.7-19.5l-0.7-1.3l-1.2,0.8
			c-5.5,3.9-18.9,13.5-24.7,18.2l-0.5,0.4l-0.7,0c-12.4-0.5-63.2,12.5-92.9,32.2l-0.2,0.1l-0.1,0.2c-1.3,2-2.1,4.3-2.4,6.7l-0.2,1.3
			l1.3,0.1c2.9,0.3,5.9,0.8,6.5,1l0.9,0.2l-0.5,0.8c-0.4,0.7-2.8,4.4-4.5,7.2l-1.2,2l2.4-0.1c6-0.3,11.7-0.6,11.8-0.6l1.5-0.1
			l-10.7,12l6.6-0.6l-0.4,0.9c-1.7,4.3-3.7,9.8-4.6,12.7l-0.4,1.4l1.4,0.2c3.3,0.4,9.5,1.4,13,1.9l0.7,0.1l-3.2,9.8l1.5,0.1
			c0.5,0,1,0.1,1.5,0.2l0.7,0.1l0.2,0l0.2,0.1l0.4,0.1l0.4-0.1c61.3-19.9,86.1-58.3,86.4-58.6l0.2-0.3l26.2-19.1l0.1-0.3
			c1.2-2.9,2.4-5.8,3.6-8.7l0.4-1L313.5,390.4z"/>
		<path id="Trazado_3969" class="st4" d="M400.7,505.2l0.3,0.2l0.2,0.3c0.1,0.1,6.5,10.5,17.1,14.4l0.3,0.1l0.2,0.3
			c0.7,0.8,1.4,1.7,2.1,2.7c5,6.3,10.9,13.7,19.6,13.7c3-0.1,5.9-0.8,8.5-2.2c5.4-2.6,10.4-5.9,14.9-9.9c4.7-4.3,7.4-8.7,7.8-12.6
			c0.3-3.1-0.9-6.2-3.1-8.4l-1-1.1l-0.9,1.2c-1.6,2.2-3.3,4.2-5.2,6.2c-0.6,0.6-1.2,1.3-2,2l-0.5,0.5l0.2,0.7c0.4,1.6,0.4,3.4-0.2,5
			c-0.2-1-0.6-2-1.2-2.9l-0.7-1.1l-1.3,1c-0.3,0.3-0.6,0.5-1,0.7s-0.6,0.4-0.9,0.7c0.2-0.3,0.5-0.6,0.7-0.9c1.6-2,3.2-4.3,5.1-7.1
			c3-4.6,5.9-9.4,8.6-14.1l0.5-0.8c1.1-1.8,2.2-3.8,3.2-5.7l2.5-4.7l-7,2.7l2.6-8.7l-1.9,0.3c-2.7,0.4-6.3,0.9-8.3,1.1l-0.8,0.1
			l0.2-0.8c0.9-3.2,2-6.4,3.4-9.5l0.8-1.9l-2,0.2c-3.3,0.3-9.3,0.8-11.9,1l-0.9,0.1l0.3-0.9c0.4-1.2,1-2.5,1.6-4l1.3-2.8l-2.9,1.1
			c-2.3,0.8-4.5,1.8-6.7,2.8l-0.1,0c-0.3,0.2-0.6,0.2-0.9,0c-0.4-0.3-0.6-0.9,0.5-5.2c0.3-1.1,0.6-2.2,0.9-3.2l0.6-1.9l-2,0.4
			c-3.2,0.5-6.3,1.2-9.4,2l-0.8,0.3l0-0.8c0-1.7,0.1-3.4,0.3-5.1l0.3-2.1l-2,0.8c-5.1,1.9-31,12.8-43.6,36.3
			C381.5,495.6,400.5,505.1,400.7,505.2"/>
		<path id="Trazado_3970" class="st3" d="M512.8,435.5c-0.5-0.7-1-1.4-1.5-2c-0.3-0.4-0.5-0.7-0.8-1.1c-0.7-1-1.4-1.9-2.2-2.9
			l-0.8-1c-0.6-0.7-1.1-1.5-1.7-2.2c-3-3.8-6.1-7.5-9.8-11.9c-5.9-6.9-12.2-14-18.8-21.1l-0.9-1l-0.9,1
			c-6.8,7.3-15.3,12.8-24.8,16.1l-1.5,0.5l12.4,18.4l-4.1,2.8l2.3-0.4c-1.3,0.5-2.8,1.1-4.3,1.9c-5.6,2.7-10.9,6-15.8,9.8
			c-2.1,1.7-4.1,3.4-6,5.3l-0.2,0.2l-0.1,0.3c-0.4,1.6-0.6,3.3-0.7,4.9l-0.1,1.7l1.6-0.4c1.8-0.4,5-1.1,10.3-2l1.1-0.2l-0.5,1
			c-0.9,2.3-1.6,4.7-2.1,7.1l-0.5,2.4l2.2-0.9c2.6-1.1,6.1-2.4,8.6-3.3l1.6-0.6l-0.8,1.5c-0.1,0.3-1.4,2.5-2.6,5.2l-0.8,1.9l2.1-0.2
			c4.8-0.4,11.9-1,12-1l1-0.1l-0.4,1c-0.8,1.8-2.7,6.1-3.8,9.3l-0.7,1.9l2-0.3c3.4-0.5,7.6-1.1,8.3-1.2l1-0.1l-2.5,8.1l5.6-2.2
			l4-2.3c0.8-0.5,1.6-1,2.3-1.5c0.3-0.2,0.6-0.4,0.9-0.6l1.5-1c0.4-0.2,0.7-0.5,1-0.8c0.2-0.1,0.3-0.3,0.5-0.4
			c0.3-0.3,0.7-0.5,1.1-0.8c0.7-0.5,1.3-1,1.9-1.5c4-3.2,7.7-6.6,11.1-10.4c3.4-3.7,6.5-7.7,9.2-12l1-1.6c0.2-0.3,0.4-0.7,0.6-1
			c0.1-0.2,0.2-0.4,0.3-0.6c0.1-0.2,0.2-0.4,0.3-0.5c0.2-0.4,0.4-0.7,0.6-1.1l0.8-1.6c0.2-0.4,0.4-0.9,0.6-1.3
			c0.1-0.1,0.1-0.3,0.2-0.5c0.1-0.2,0.1-0.3,0.2-0.5c0.2-0.4,0.3-0.8,0.4-1.2c0.1-0.2,0.1-0.4,0.2-0.7c0.1-0.3,0.2-0.7,0.3-1
			l0.2-1.1L512.8,435.5z"/>
		<rect id="Rectángulo_544" x="368.3" y="343.7" class="st5" width="22" height="4.7"/>
		<path id="Trazado_3971" class="st6" d="M403.2,344.2c-1.8,0.3-3.8,0.5-5.8,0.6l-0.2,0l-0.1,0.1c-5.2,4.2-11.7,6.4-18.3,6.4
			c-1.8,0-3.6-0.1-5.3-0.4c-4.2-0.6-7.9-3.1-10-6.8l-0.2-0.3l-0.3,0c-1.8-0.2-3.5-0.5-5.2-0.8L357,343l0.1,0.8
			c1.1,7.9,8.3,10.5,12.6,11.3c3.6,0.7,7.2,1.1,10.8,1.1c9.1,0.5,17.9-3.7,23.3-11l0.9-1.2L403.2,344.2z"/>
		<path id="Trazado_3972" class="st7" d="M483.7,373.1c-6.9-13.4-17.3-24.7-30-32.8c-1.3-1.1-2.7-2.2-4.2-3.3l-0.1-0.1
			c-4.9-2.8-9.9-5.4-15-7.7l-0.7-0.3l-0.6,0.4c-6.2,4.8-13,8.8-20.1,12c-1.3,0.5-2.7,0.9-4,1.3l-0.5,0.1l-0.3,0.4
			c-6.5,10.6-15.6,15.7-27.6,15.7c-3.8,0-7.7-0.4-11.4-1.2c-4.8-0.6-9.2-3.2-12.1-7.1c-1.5-2.3-2.4-4.9-2.5-7.6l-0.1-0.9l-0.9-0.2
			c-3-0.6-6-1.3-8.9-2.2l0.8-1.7l-1.6,1.5c-3.9-1-7.5-3.1-10.3-6l-0.6-0.8l-0.9,0.4c-5.6,2.5-24.8,11.4-36.7,22.7L295,356l0.1,0.6
			c2.5,16.5,14.5,26.5,19.6,30l1.2,0.8l0.6-1.4c2.1-4.7,4.3-9.4,6.6-13.9c1.1-2.4,6.4-13.1,7.6-14.9c2-3.4,4.5-6.6,7.3-9.4
			c-3.5,7.5-9.4,20.5-17.2,37.7l-0.4,0.8c-8.4,18.3-15.2,37.3-20.3,56.8l-0.2,0.7l0.9,0.9c1.3,1.3,2.8,2.8,4,3.9
			c2.9,2.6,5.9,5.1,9.1,7.4c14,9.8,30,16.4,46.8,19.3c4.8,0.8,9.5,1.4,13.7,1.8c3.1,0.1,6.3,0.3,9.4,0.5l4.2,0.2l0.4-0.6
			c13.4-18.8,34-27.9,40-30.2l0.7-0.3l0.1-0.8c1-14.3,1-28.6-0.2-42.9l0-0.4l-0.2-0.3c-3.5-4.6-6.7-9.5-9.3-14.7l0-0.1
			c-1.7-3.2-2.9-6.6-3.5-10.1c-0.7-3-1.1-6.1-1.4-9.2c0.2,0.7,0.5,1.3,0.7,1.9c1.7,4.4,3.7,8.6,6.1,12.7c4.2,9.1,9.8,17.5,16.6,24.8
			l0.4,0.5l0.6-0.1c4.6-0.5,9.1-1.7,13.3-3.5c14-5.8,25.2-16.8,31.3-30.7l0.2-0.5L483.7,373.1z"/>
		<path id="Trazado_3973" class="st8" d="M345.2,249.9c0,0,2.1-2.4,2-10.4s-2.9-39.8-23.3-40.4c-20.4-0.6-21.5,25.6-4.5,55.5
			c0,0,3.1,0.2,6.9,0S345.2,249.9,345.2,249.9"/>
		<path id="Trazado_3974" class="st8" d="M388.3,257.9c0,0-2.5-0.9-4.6-5.8c-1-2.4-1.5-5.1-1.4-7.7c0,0,0.6-31.7,15.3-38.7
			c14.8-7,31.8-5.7,44.9,10.5s-2.3,46.1-9.2,50.3c-6.1,0.2-12.1-0.2-18.1-1.2L388.3,257.9z"/>
		<path id="Trazado_3975" class="st9" d="M342.1,248.3c0.1-4.1,0-8.2-0.4-12.3c-0.7-0.9-1.6-1.5-2.6-1.8c0.2,1,0.4,2,0.4,3
			c0.4,4.5-0.3,8.3-4.1,8.6c-3.6,0.4-5-3.2-5.4-7.7c-0.1-1.4-0.1-2.7,0.1-4.1c-2.4,0.5-4.4,2.2-5.3,4.4c0.5,4.5,1.7,8.9,3.4,13
			C333.1,251.4,337.8,250.3,342.1,248.3"/>
		<path id="Trazado_3976" class="st1" d="M331.1,242.8c-0.6-1-1.9-1.4-3-1c-2.1,0.7-1.9,4.2-1.1,6.3c0.7,2-0.1,4.2,3.1,3.9
			s11.8-2.4,12.1-3.8c0.3-1.4,0.8-5.7-1.6-5.9c-2.2-0.2-1.3,2.8-4.1,3.2S331.1,242.8,331.1,242.8"/>
		<path id="Trazado_3977" class="st9" d="M413.1,242.9c0,1.2-0.2,2.5-0.5,3.7c-1.2,4.9-3.6,8.6-9.5,7.1c-5.7-1.4-6.4-5.8-5.3-10.7
			c0.3-1.1,0.6-2.2,1.1-3.3c-2.1,0-4.2,0.7-5.8,2.1c-1,4.6-1.5,9.3-1.6,14c7.1,3.2,14.7,5.3,22.4,6.1c2.8-3.7,4.9-7.8,6.3-12.2
			C419.6,247.1,416.8,244.7,413.1,242.9"/>
		<path id="Trazado_3978" class="st1" d="M391.4,255.9c0,0-0.9-9,2.7-9c4.2,0.1,2.4,3.9,6.2,5.1c3.8,1.3,7,2.2,9.4,0.4
			c2.4-1.8,4.5-0.8,6.4,1c1.9,1.8,1.2,5-2.2,8.6C411.9,264,391.7,258.4,391.4,255.9"/>
		<path id="Trazado_3979" class="st4" d="M313.5,254.6c0,0,2.4,10.1,25.4,16.1c-3.2-8.1-6.4-16.5,18.9-13.7
			c25.2,2.8,31.7,12.7,21.2,20.4c13.5,0,26.3-1.1,26.3-1.1s36.8-6.2,41.4-4.5s18.1,8.9,16.4,19.1s-29.6,46.9-53.5,50
			c-23.9,3.1-63.7,0.5-73.5-8.1c-9.8-8.6-38-44-39.2-45.7S287,259.9,313.5,254.6"/>
		<path id="Trazado_3980" class="st4" d="M307.3,251.6c-1.5-6.4-3.3-12.6-5.5-18.8c-3.1-9.1-5.9-17.8-6.2-27l0-1.1l-1.1-0.1
			c-2-0.3-4-0.1-5.8,0.7c-1.7,0.9-2.8,2.5-3.3,4.3c-1.2,4.1-0.5,11.3,2,19.2c3,9.7,7.6,18.8,13.6,27l0.8,1.1l1-0.9
			c1.2-1.1,2.5-2.2,3.9-3.2l0.7-0.5L307.3,251.6z"/>
		<path id="Trazado_3981" class="st8" d="M341.7,291.2c1.2,3.4,2.6,6.7,4.2,9.9c2,3.2,13,6.8,13,6.8s-9.8-1.3-10.6,0.5
			c-0.6,1.8-0.9,3.7-1,5.5c7,1.5,13.8,3.5,20.3,6.3c7.7,3.6,16.1,5.8,24.6,6.4l1.8,0.1c2.7,0.2,5.5-0.6,7.7-2.1
			c6.4-4.5,11.7-10.4,15.5-17.2c-5,1.6-10.3,2.7-15.5,3.2c-3,0.3-6,0.4-9,0.3c-1.5,0-3-0.1-4.5-0.2c1.5-0.1,3-0.3,4.5-0.4
			c4.4-0.5,8.8-1.4,13.1-2.7c5.5-1.6,10.8-4,15.5-7.2l0,0c0.2-0.4,0.4-0.7,0.6-1.1c1.7-3.3,3.2-6.6,4.6-10.1
			c-7.7,4.2-16.1,7.2-24.8,8.8C381.5,301.4,360.9,297.8,341.7,291.2"/>
		<path id="Trazado_3982" class="st4" d="M492.5,218c0,0-12.2,8.1-17.2,27.2c5.5-6.4,7.3-7.1,7.3-7.1s-7.5,18.5-4.5,30.8
			c2.6,6.6,15.3,21.8,26.8,23.4c11.5,1.6,35.1-15.7,46-42.3S545.9,198.1,492.5,218"/>
		<path id="Trazado_3983" class="st5" d="M488.4,435.4c-1.4,2.5-18.2,16.6-18.2,16.6c3.6-0.1,7.2-0.6,10.7-1.5
			c-6.6,4.9-22.7,14.7-22.7,14.7l7.3,0.1l-4.9,12.2l11.3-1.6c0,0,31.6-20.9,35.5-36.6c-9.9-18.9-34.1-43.6-34.1-43.6l-11.7,8.7
			c0,0,8.9,9.5,11.7,16.6c-0.2-2.4-0.6-7.6-0.6-7.6C478.6,420.3,483.8,427.7,488.4,435.4"/>
		<path id="Trazado_3984" class="st5" d="M193.8,474.9c0,0,61.7-25.4,85-57.8c23.3-15.4,35.2-25.2,35.2-25.2l-0.5-1.5l-9.7-8.1
			c0,0-14.9,14.8-27.9,19.7l9.1,0.9c0,0-16.6,6.8-18.5,8.6c-11.1,7.8-23.4,13.6-36.5,17.1c4.3,1.4,8.7,2.1,13.2,2l-23.9,9.8H231
			c-14.8,5.2-29.9,9.1-45.3,11.9c-4.6,12.7-6.4,15.2-6.4,15.2l16.5,1.1L193.8,474.9z"/>
		<path id="Trazado_3985" class="st5" d="M388.3,481c0,0-58.1-4.2-80.6-26.6c-2.5,2.3,1.4,15.8,1.4,15.8s36.4,21.1,76.3,22.5
			C385.9,488.7,386.9,484.8,388.3,481"/>
		<path id="Trazado_3986" class="st5" d="M478.1,268.9c-2.9-12.3,4.5-30.8,4.5-30.8s-1.8,0.7-7.3,7.1c5-19.1,17.2-27.2,17.2-27.2
			c5.3-2,10.8-3.7,16.3-5c0.1-0.6,0.1-1.2,0.2-1.7c26.6-35,9.2-57.1,9.2-57.1c-5.2,20.7-13.1,30.1-22.9,34.9
			c39-46.1-3-100.4-3-100.4s-2.4,22.3-9.7,33.7c-4.1-33.8-26.6-40-39.6-47.3c36.4,36.9,10.2,66.9,10.2,66.9s2.1-10.1-4-31.4
			s-27.6-32.5-45.8-44.3s-25.7-42.1-25.7-42.1s-21.4,27,7.5,49.8c28.9,22.7,44.2,43.9,37.2,70.8c0,0,40.1,5.1,51.2,29.3
			c9.8,21.2-1.9,42.4-1.9,42.4c4.3-2,8.4-4.4,12.4-7c-5.8,16-15,30.6-27.1,42.7c0,0,16.4-23.9-1.7-46.4
			c-14.3-18.3-37.3-27.5-60.3-24.1c9,2.6,16.9,8.3,22.2,16.1c20.2,12.8,47.9,24.8,16.3,68.8c-1.2,1.9-2.1,4-2.8,6.1
			c0,0,14.2-5.6,19.4-0.8c5.2,4.8,15.7,7.7,11.7,28.6c4.2-2.2,11.9-12.4,19.9-25.4C480.2,273.1,479,271.1,478.1,268.9"/>
		<path id="Trazado_3987" class="st5" d="M396.4,574.6c-3.7-12.7-18.7-61.9-31.7-74.9c-8.1-3.5-16.5-6.4-25-8.6c0,0,10,11,20.3,15.2
			c5.5,13.2,9.9,26.9,13.3,40.8c1.1-2.7,1.9-5.6,2.2-8.5c3.4,11.9,6,24.1,7.7,36.4c0.3,0,0.7,0,1,0
			C388.3,575,392.3,574.9,396.4,574.6"/>
		<path id="Trazado_3988" class="st5" d="M426.6,532.7c-2.4-6.2-26.6-26.5-33.5-30.4c5.7,13.1,8.9,33.3,8.9,33.3
			c2.3-3.2,3.5-7,3.5-10.9c3.3,7.2,6,31.5,6,31.5l2.9-9.3l7.8,24.1c6.1-1.3,12.2-2.9,18.1-4.9C433.3,550.4,426.6,532.7,426.6,532.7"
			/>
		<path id="Trazado_3989" class="st10" d="M368,108.3c-4.7-10.9-10.9-21.1-18.5-30.2c0,0-13.3,16.8-12.3,45.4
			c-10.8-67.6,40.4-99.5,40.4-99.5c-30,16.1-46.4,31.1-57.8,64.5c-14.2,41.7,42.8,78.4,42.8,78.4l0.4-10.1
			c-20.9-24.4-12.7-55.6-12.7-55.6c7.9,8.5,14.3,18.2,19.1,28.8c8.1-24.1,1.8-39.4,1.8-39.4C370.5,96.6,369.4,102.5,368,108.3"/>
		<path id="Trazado_3990" class="st10" d="M342.2,151.6c0,0-26.1,22.9-31.4,47.5c-5.3,24.7-0.3,40.8,8.6,55.5
			c-4.2-0.1-6.9-0.3-6.9-0.3s-19.1-36.1-13-56.3c6.2-20.2,22.9-45.1,34.9-56.4C337.2,144.8,339.8,148.1,342.2,151.6"/>
		<path id="Trazado_3991" class="st5" d="M341,176.7c-6.4-2.2-21.8,3.1-32.1,10.1c0,0,12.5-2.9,20.5,7.1
			c17.8,7.1,20.1,36.5,20.1,36.5S352.5,199,341,176.7"/>
		<path id="Trazado_3992" class="st10" d="M447.8,408.7l12,22.1c0,0-12.8,3.6-26.2,17c-2.3,5-1.2,7.2-1.2,7.2l13-2.6
			c0,0,14.8-13.6,29.2-16.5c-3.5-0.8-7.1-1.1-10.8-1c2.5-2.5,5.3-4.6,8.3-6.4c-6.4-6.3-12-13.3-17-20.7L447.8,408.7z"/>
		<path id="Trazado_3993" class="st10" d="M297.9,374.6l-25.7,20.5c0,0-37.8,11.3-63.7,26.8c6.4-6.1,12-11.8,12-11.8
			s-33.6,15.8-40.2,21.5c-7-0.4-8.8-0.5-8.8-0.5l2-10.8c0,0,51.1-29.7,94.7-33.6c12.8-9.2,26.8-19.1,26.8-19.1L297.9,374.6z"/>
		<path id="Trazado_3994" class="st10" d="M348.9,521.8c-4.1-12.3-8.4-22.1-11.9-24.4c-10.7-6.8-22.6-20.8-22.6-20.8
			s6.9,15.8,15.9,23c9,7.3,23.6,72.7,23.7,72.8c3.6,0.6,7.2,1.1,10.9,1.5c-5.8-48.8-17.2-64.2-17.2-64.2L348.9,521.8z"/>
		<path id="Trazado_3995" class="st10" d="M368.9,502c-0.9-1.6-1.9-3-3.1-4.4C365.9,497.7,367,499.2,368.9,502"/>
		<path id="Trazado_3996" class="st10" d="M368.9,502.1c9.8,16.6,24.7,62.8,27.8,72.5c3.4-0.2,6.9-0.6,10.2-1
			C395.9,542.9,376.4,513,368.9,502.1"/>
		<path id="Trazado_3997" class="st11" d="M478.3,253.4c3.2,2.7,7.5,3.7,11.6,2.6c7.4-1.7,21.7-4.3,20.6-9.1c-1.2-4.9-11-8-11-8
			s13.8-14.6,27.8-13.6s16,7.8,13.3,12.3c0,0,4.1,9,10,7.7c-5.6,18.9-31,49.3-42.5,48.5c-11.5-0.8-29-20.6-30-24.7
			C477.1,263.8,477.2,258.5,478.3,253.4"/>
		<path id="Trazado_3998" class="st11" d="M437.4,290.2c-1.2,9.4-4.2,18.5-9,26.7c1.3-7,3.4-15.2,3.4-15.2s-13.2,28.2-34,29
			c7.9-5.4,28.9-26.8,32.3-45.5C433.1,285.7,435.8,287.6,437.4,290.2"/>
		<path id="Trazado_3999" class="st11" d="M459.3,530.2c14.9-13,15.8-21.5,8.4-27.6c4.1-8.1,8.8-20.7,8.8-20.7l-8.2,3.1l3.7-9.2
			l-11.3,1.6c0,0-7.3,31.7-24.6,41.1c6.6,11.8-5,14.6-5,14.6S444.4,543.2,459.3,530.2"/>
		<path id="Trazado_4000" class="st11" d="M91.1,444.7c0,0,16.5,3.2,32.6-21.9c0,0,1.6,3.1,12.9,4.5c4.7,13.8,26,18,51.2,13.8
			l-8.4,11l6.2,0.3l-6.4,15.2l16.5,1.1c0,0-1.7,10.1-3.2,9.8c-1.5-0.3-31.7,0.6-31.7,0.6l-38.3-38
			C122.6,441.1,108.3,455.3,91.1,444.7"/>
		<path id="Trazado_4001" class="st11" d="M140.5,535.6l-0.1-8.1c-1.1-3.7-4.1-7.9-11.1-10.9c0,0,7.2,9.4,2.9,19
			c-4.3,9.6-9.4,6.9-9.4,6.9s13.9,15.5,22.9-3.8v0L140.5,535.6z"/>
		<path id="Trazado_4002" class="st11" d="M94.1,523.9c0,0,6.9,0.7,9.2-10.1c2.3-10.8-1.8-16.7-1.8-16.7s12.8,2.3,14.7,13.4
			c-7.3,4-10.3,10.7-10.3,19.7C100.2,529.2,94.1,523.9,94.1,523.9"/>
		<path id="Trazado_4003" class="st11" d="M72.7,485.5c0,0,12.5,4.1,5.2,27.1l3.8,2c0,0,0.2-14.4,8-21.6
			C85.3,485.9,72.8,485.5,72.7,485.5"/>
		<path id="Trazado_4004" class="st11" d="M341.2,272.1c6.7,6.3,16.1,9.9,31.6,4.9c6-2.4,2-7.9-2.8-7.3c-4.8,0.5-10.3,1.6-15.5,0.4
			c-5.2-1.2-9.2-6-13.5-4C337.4,267.7,341.2,272.1,341.2,272.1"/>
		<path id="Trazado_4005" class="st12" d="M431.2,330.7c0,0,33.4,24,43.4,57.1c9.1-2.9,10.9-16.2,10.9-16.2s-18.9-32.6-53.1-43.8
			L431.2,330.7z"/>
		<path id="Trazado_4006" class="st12" d="M415.1,372.7c0,0-3.2,59.2-11.8,89.1c-3.2,2.7-4.6,4-4.6,4s-32,8.1-82.1-8
			c18.1,12,30.7,17.4,71.7,23.2c10.4-15.2,29.5-27.5,41.7-33.4c1-15.3,1-30.6,0-45.8C430.1,401.8,415.8,378,415.1,372.7"/>
		<path id="Trazado_4007" class="st12" d="M302.9,375.3c0,0,19.8-11.7,28.9-19.7c-3.4,9.6-15.3,35.1-15.3,35.1
			S304.3,383.2,302.9,375.3"/>
		<path id="Trazado_4008" class="st13" d="M439,408.3c0,0-21.4-20.8-25.7-48.6c2,6.9,16,30,40.1,44.7
			C449.3,407.6,444.1,409,439,408.3"/>
		<path id="Trazado_4009" class="st13" d="M297.3,365.1c0,0,16.9-21.4,36.2-30.1c-0.5-2.5-0.2-0.7-3.7-1c-3.5-0.4-27,10.3-35.4,22.3
			C294.1,362.7,297.3,365.1,297.3,365.1"/>
		<path id="Trazado_4010" class="st13" d="M337,350c-11.8,30-20.3,61.1-25.4,92.9c0,0,5.8,15.6,37.7,28.9
			c-14.2-3.4-39.5-12.6-51.4-27.7C311.2,398.4,337,350,337,350"/>
		<path id="Trazado_4011" class="st14" d="M337.9,268c0,0-3.1-11.5,18.7-6.5s26.1,7.7,24.1,13c0,0,7.2-5-1.8-12.1
			c-9-7.1-35.7-8.8-39.4-4.3C335.8,262.6,336,264.1,337.9,268"/>
		<path id="Trazado_4012" class="st14" d="M365.8,265c-0.4,2.2-5.8,3.2-12.1,2.2c-6.3-1-11.1-3.6-10.8-5.9c0.4-2.2,5.8-3.2,12.1-2.2
			C361.3,260.1,366.1,262.8,365.8,265"/>
		<path id="Trazado_4013" class="st14" d="M319,278.2c0,0,9-3.4,11.9-5.7c-1,1.8-2.6,5.1-2.6,5.1s33.5,14.9,52.5,17.2
			c-2.4,1.8-25.3-1.6-28.7-2.6C348.6,291.2,319,278.2,319,278.2"/>
		<path id="Trazado_4014" class="st14" d="M379.3,328.8c-1.6-0.7-3.2-1.4-4.8-2.1c-30.5-14.6-33.8-12.5-37.9-13.4
			c-5.7-1.2-7.6,1.8-6.5,4.6c1.3,2.4,2.9,4.7,4.6,6.8c0,0-5.1-10.6,6.1-7.9c5.7,1.4,11.4,3,16.9,4.9
			C364.7,324.6,371.9,326.9,379.3,328.8"/>
		<path id="Trazado_4015" class="st14" d="M482.9,228.4c0,0,38-16.7,56.2-9.7c10.3,4,12.8,11.4,13,17.1c0,0,7.2-21.1-16.6-23.8
			c-14.6-1.5-29.4,0.6-43,6.1C488.7,220.9,485.4,224.4,482.9,228.4"/>
		<path id="Trazado_4016" class="st14" d="M296.8,213.8c0,0-17-1.6,6.7,41.7l-1.4,1.4c0,0-36.3-52.7-7.5-54.5
			C296.8,202.4,296.8,213.8,296.8,213.8"/>
		<path id="Trazado_4017" class="st14" d="M88.9,439.6c9.5-7.6,17.8-16.6,24.6-26.8c5-6,24-2.2,30-0.7c6,1.5,11.8,14.5,28.1,19.1
			l1.8-9.5c0,0-16.7-15.5-25.2-16.7c-8.5-1.3-35.3-4.2-36.8-0.9S94.6,436.6,88.9,439.6"/>
		<path id="Trazado_4018" class="st14" d="M431.1,453.8c0,0-30.1,21-35.5,37.3c-1.4,7,8,10.4,8,10.4s5,12.8,15.1,17.5
			c-7.5-0.6-18.6-12.6-18.6-12.6s-19.6-10.2-16.1-20c3.5-9.7,27.5-34.9,48.1-39.2C431.6,450.6,431.1,453.8,431.1,453.8"/>
		<path id="Trazado_4019" class="st15" d="M198,481.9c0,0-2.4-3.2-14-0.9c5.9,4.7-0.8,19.6-4.7,23.1c1.2,7.2-5,16.1-5.8,16.8
			s-9.3,2.2-14.1,6.2c-4.9,5.6-18.3-0.3-18.3-0.3l-0.8-0.6c1.5,3,1.5,6.5,0.1,9.5c0,0,14.5,4.9,18.4,5.1c3.9,0.2,12.1-11.5,19-20.9
			c15.2-7,14.1-14,13-20.1C195.2,494.8,197.8,488.5,198,481.9"/>
		<path id="Trazado_4020" class="st15" d="M78.4,483.9L78.4,483.9c-16-11.3-22.4-20.4-27.2-21.6c-5.7-1.5-42.3-14.4-42.3-14.4
			c-0.4,8,2,16,6.7,22.5l29.4,8.7l18.4,12l2,0.8C67.2,482,78.4,483.9,78.4,483.9"/>
		<path id="Trazado_4021" class="st14" d="M313.5,254.5c0,0-8.8,11.1-7.7,23.8c1.2,12.7,11.3,21.6,17,29.3
			c5.7,7.7,17.2,25.1,17.2,25.1l-4-1.7l-39.7-44.4C296.3,286.5,290.3,257.5,313.5,254.5"/>
		<path id="Trazado_4022" class="st16" d="M427.6,197.9c-37.7-12.7-47.5,23-47.5,33.9c-0.2,4.3,0.6,8.5,2.2,12.5
			c2.6-33.6,22.1-47.3,41.9-39.7c21.5,8.2,30.6,32.1,9.2,61.8c6.1-1.3,7.6-3.5,12.1-10.3C451.7,246.6,465.3,210.6,427.6,197.9"/>
		<path id="Trazado_4023" class="st16" d="M405.5,225.3L405.5,225.3c-3.9-0.2-7.7,1.2-10.4,4.1c-7.1,8.5-6.8,28.5-6.8,28.5
			c8.4,4.1,17.6,6.6,27,7.4c7.7-9.9,10.3-19.7,9.1-27.8C423.4,230.2,413.9,225.3,405.5,225.3 M413.9,262c-7.8-0.8-15.3-2.9-22.4-6.1
			c0.1-4.7,0.7-9.4,1.6-14c1.6-1.4,3.7-2.1,5.8-2.1c-0.5,1-0.8,2.1-1.1,3.3c-1.2,4.9-0.4,9.3,5.3,10.7c6,1.4,8.4-2.2,9.5-7.1
			c0.3-1.2,0.5-2.4,0.5-3.7c3.7,1.8,6.5,4.2,7.1,6.9C418.8,254.2,416.6,258.3,413.9,262"/>
		<path id="Trazado_4024" class="st16" d="M345.2,249.9c0,0,1.1-23.5-4.9-28.5c-2.1-1.8-4.8-2.7-7.6-2.7c-5.1-0.2-9.6,3.3-10.6,8.3
			c-1.5,9.4,0,19.1,4.2,27.7C332.5,254.6,341.1,253.3,345.2,249.9 M330.2,234.1c-0.2,1.4-0.2,2.7-0.1,4.1c0.4,4.5,1.7,8.1,5.4,7.7
			c3.8-0.4,4.4-4.1,4.1-8.6c-0.1-1-0.2-2-0.4-3c1,0.3,2,0.9,2.6,1.8c0.4,4.1,0.5,8.2,0.4,12.3c-4.3,2.1-9.1,3.2-13.9,3.3
			c-1.7-4.2-2.9-8.5-3.4-13C325.8,236.3,327.8,234.6,330.2,234.1"/>
		<path id="Trazado_4025" class="st16" d="M335.8,258.4c-2.9,4.1-0.8,9.7,3,12.3l0.5-0.4c-0.7-1.2-1.3-2.5-1.7-3.8
			c-2.7-11.5,16.6-8.7,23.2-7.7c5.6,0.6,11.1,2.2,16.1,4.8c4.6,2.6,6.7,7.4,3,11.8c-0.4,0.5-0.9,1-1.5,1.5l0.4,0.5
			c7.5-2.6,8-10.8,2.7-16.1c-7.5-7.8-23.2-10.1-33.6-8.9C343.5,253,338.6,254.4,335.8,258.4"/>
		<path id="Trazado_4026" class="st16" d="M360.8,274.6c6-4.1,8.2-3,10.2-1.1c2,1.9,6.5-0.9,2-3.4
			C367.5,266.9,362.8,271.1,360.8,274.6"/>
		<path id="Trazado_4027" class="st16" d="M341.7,266c-2.9,1.8,0,5.3,1.3,3.8c3.3-3,4.8,2.7,6.5,2.7
			C348.3,268.7,345.3,263.8,341.7,266"/>
		<path id="Trazado_4028" class="st16" d="M337.6,285.1c-5.7-2.4-11.6-4.3-17.4-6.6c3.8-1.5,7.4-3.5,10.6-6.1
			c-4.4,2.5-9.2,4.1-14.3,4.7l-3.9,0.1c6.9,4.2,14.1,8,21.6,11.2c2.6,3.3,6.8,10.9,7.3,24.7c-1-0.1-2.4-0.1-3.3-0.1l-3.8,0.1
			c5,0.5,9.8,1.6,14.5,3.3c5.8,2.1,11.3,5.2,17,7.8c8.2,3.7,17.1,6,26.1,6.6l1.9,0.1c3.6,0.2,7.1-0.8,10.1-2.7
			c8.3-5.4,14.8-14.3,20-23.8l0,0l0,0c3-5.5,5.6-11.3,7.9-17.1l0.1-0.3c2.6,2.1,4.8,4.6,6.6,7.4c0.6,1,1.2,2,1.7,3l0.3-0.1
			c0-6.3-3.5-12.1-9.2-15c-4-2-8.7-2-12.6,0v0.4c2.3,0.1,4.6,0.5,6.8,1.1c0.4,0.1,0.9,0.2,1.3,0.4C400,300.5,366,296.1,337.6,285.1
			 M426.6,289.1c-1.4,3.4-3,6.8-4.6,10.1c-0.2,0.4-0.4,0.7-0.6,1.1l0,0c-4.8,3.2-10,5.6-15.5,7.2c-4.3,1.2-8.6,2.1-13.1,2.7
			c-1.5,0.2-3,0.3-4.5,0.4c1.5,0.1,3,0.2,4.5,0.2c3,0.1,6-0.1,9-0.3c5.3-0.5,10.5-1.5,15.5-3.2c-3.9,6.8-9.1,12.7-15.5,17.2
			c-2.3,1.5-5,2.3-7.7,2.1l-1.8-0.1c-8.5-0.6-16.9-2.7-24.6-6.4c-6.6-2.7-13.4-4.8-20.3-6.3c0.1-1.9,0.4-3.7,1-5.5
			c0.8-1.7,10.6-0.5,10.6-0.5s-11-3.5-13-6.8c-1.7-3.2-3.1-6.5-4.2-10c19.2,6.6,39.8,10.2,60,6.7
			C410.4,296.3,418.8,293.3,426.6,289.1"/>
		<path id="Trazado_4029" class="st16" d="M403,157.5l-2.6,14.5c0,0-2.2-8.9-3.2-11.6c-2.1,6.9-3.2,14.1-3,21.3c0,0,37.5-2.8,62,25
			c2.6-5.1,4-10.7,4.1-16.4C460.2,190.2,436,165.5,403,157.5"/>
		<path id="Trazado_4030" class="st16" d="M555.8,221.8c-1.6-3.2-3.9-6-6.7-8.2c-6-4.4-13.2-6.7-20.6-6.6c-2.1,0-4.3,0-6.4,0.2
			c10.4-16.4,15.3-29.9,15.3-42.2c0.1-17.3-14.2-27.9-15.8-29c-0.2-7-1.5-14-3.8-20.6c-0.8-2.3-1.7-4.5-2.8-6.7l-0.8-1.6l-0.9-1.6
			c-0.6-0.9-1.3-2.2-1.9-3.1l-2.1-3l-2.2-2.9c-4.1-5.2-8.8-10-14.1-14.1c-0.9-0.8-5.9-4.1-7-4.9c1.1,10.3,1.9,21.6-1.2,31.6
			c-0.1,0.4-0.3,0.8-0.4,1.2c-5.9-15.3-16.9-28.1-31.2-36.1c-7.6-4.6-16.8-7.4-25.2-10l4.9,7.3c3.3,4.8,5.9,10.1,7.6,15.6
			c-3-3.5-6.4-6.7-10-9.5c-3.7-2.9-7.7-5.5-11.8-7.8C405.4,62.4,393,52,386.8,37.8c-2.6-6-4.1-12.4-4.5-18.9l-0.3-4.7
			c-16.3,7.6-30.9,18.3-43.1,31.4c-11,12.2-20.3,26.7-23.4,43.1c-3,16.7,3.2,33.8,12.5,47.4c0.8,1.2,1.6,2.3,2.5,3.5
			c-25.9,29.9-32.4,46.5-34,52.3c-0.7,2.5-1.1,5-1.4,7.5c-2.8-0.4-5.6,0.1-8.1,1.3c-2.9,1.5-4.9,4.2-5.8,7.4
			c-1.6,5.4-0.6,14.2,2.6,23.9c3.3,9.8,8.2,19.1,14.4,27.5c-3.7,4.3-6.1,9.7-6.7,15.4c-0.8,8,2.5,15.8,9.7,23
			c7.1,7.1,19.9,21.8,27.4,31c-7.3,3.3-26.1,12.4-37.9,24.1l-1.1,1l0.2,1.5c0.4,3.4,1.1,6.8,2.3,10c-5.1,3.6-18.5,13.2-25.2,18.5
			c-15,0.2-65.8,13.6-95.4,33.5c-4.4-3-8.8-6.2-13-9.4c-0.6-0.5-1.2-1-1.8-1.5c-0.3-0.2-0.6-0.5-0.9-0.8c-0.3-0.3-0.5-0.5-1-0.8
			c-1.6-1.1-3.3-2-5.2-2.6c-3.3-1-6.6-1.7-10-2.1c-3.3-0.4-6.6-0.7-10-0.7c-3.4-0.1-6.7,0-10.1,0.3c-1.7,0.2-3.5,0.4-5.2,0.8
			c-0.4,0.1-0.9,0.2-1.4,0.4c-0.2,0.1-0.5,0.2-0.7,0.3c-0.3,0.1-0.5,0.2-0.7,0.3c-0.3,0.1-0.5,0.3-0.8,0.4c-0.3,0.2-0.6,0.4-0.9,0.7
			l-0.4,0.4c-0.1,0.1-0.3,0.3-0.4,0.4l-0.4,0.6c-0.9,1.3-1.6,2.5-2.3,3.8c-4.7,0.6-9.3,1.6-13.8,3c-3.5,1.1-7.1,1.9-10.7,2.2
			c-3.8,0-24.6-5.6-39.8-11.3l-6.5,1.1c6.7,2.5,40.5,15.2,46.3,15.2c4.1-0.3,8.1-1.1,12-2.4c3-0.8,6.2-1.7,9.2-2.2
			c-3.2,5.2-6.6,10.2-10.4,15l-1.5,1.9l-1.5,1.8c-0.5,0.6-1,1.2-1.6,1.8l-1.6,1.8c-0.8,0.9-1.4,1.9-1.8,3.1
			c-0.4,1.2-0.4,2.5-0.1,3.8c0.3,1.1,0.8,2.2,1.5,3.1c0.6,0.8,1.3,1.6,2.1,2.2c1.5,1.2,3.1,2.2,4.8,2.9c1.7,0.7,3.5,1.2,5.3,1.5
			c1.8,0.3,3.7,0.4,5.6,0.2c0.9-0.1,1.9-0.3,2.8-0.5c0.8-0.3,1.7-0.5,2.5-0.8c3.2-1.2,6.3-2.8,9.2-4.7c1.1-0.7,2.1-1.4,3.1-2.2
			c10.7,10,21.5,20.1,32,30.3l4,3.9l0.6,0.6l0.5,0.5l0.3,0.2c0.1,0.1,0.2,0.2,0.3,0.2l2.1,0.5c1,0.2,1.9,0.4,2.9,0.5
			c3.8,0.6,7.6,1,11.5,1.1c3.8,0.2,7.6,0.2,11.3,0.3c1.9,0,3.7,0.1,5.5,0.2c0.9,0.1,1.8,0.1,2.6,0.2l0.4,0.1v0.1c0,0.1,0,0.2,0,0.3
			l0,0.6c0,0.4-0.1,0.9-0.2,1.3c-0.1,0.4-0.2,0.9-0.3,1.3c-0.4,1.7-1,3.4-1.9,4.9c-0.9,1.6-1.9,3-3.1,4.4c-0.7,0.6-1.3,1.3-1.9,1.9
			l-1.1,0.9c-0.3,0.3-0.7,0.6-1.1,0.9l-1,0.7l-0.5,0.4c0,0-0.1,0,0,0l0,0h-0.1l-0.1,0l-0.8,0.1l-1.7,0.2c-1.1,0.2-2.2,0.3-3.3,0.5
			c-2.2,0.4-4.4,0.8-6.6,1.3c-2.2,0.5-4.4,1.1-6.6,1.8c-2.2,0.7-4.3,1.4-6.4,2.4c2.3-0.2,4.5-0.2,6.7-0.3l6.7-0.2
			c2.2-0.1,4.5-0.2,6.7-0.3l3.3-0.2l1.7-0.1l2.3-0.2l2.8-2c0.1-0.1,0.3-0.2,0.4-0.3c-0.1,1.3-0.3,2.6-0.6,3.9
			c-0.2,0.7-0.4,1.4-0.7,2c-0.3,0.7-0.6,1.3-0.9,1.9c-0.7,1.2-1.5,2.3-2.5,3.3c-2.3,1.8-4.9,3-7.7,3.8c-3,1-6.1,2-9.1,3.1
			c-3.2,1.2-6.1,3.2-8.4,5.8c3.4-0.1,6.7-0.8,9.9-1.9c0.6-0.2,1.2-0.5,1.9-0.7c-6.7,8.1-11.9,13.4-13.4,13.9
			c-1.9,0.3-9.3-2.5-15.2-5.5c0.2-0.8,0.3-1.6,0.3-2.4c0.1-2.4-0.4-4.8-1.6-6.9c-1.1-2-2.6-3.8-4.3-5.3c-3.2-2.7-6.6-5-10.3-7
			c-0.9-0.5-1.8-1-2.8-1.5l-0.8-0.3l-0.8-0.3c-0.5-0.2-1.1-0.4-1.7-0.5c-0.5-0.1-1-0.2-1.5-0.2c-0.2-2.3-1.5-5.1-5.6-8.6
			c-5.5-4.7-15.5-9.5-21.8-8.9c-2.3-2.2-4.8-4.1-7.5-5.9c-8.6-5.4-13.9-4-16.8-1.9c-1.9,1.4-3.4,3.4-4.2,5.6
			c-4.9-3.5-14.7-10.3-17.2-11.6c-3.3-1.8-26-6.2-30.6-7l6.5,5.4c12.9,2.4,19.9,4.9,21.7,5.9c2.3,1.3,13.3,8.9,18.5,12.6
			c0,0.3,0,0.7,0,1c0.1,6.7,3.4,14.6,7.2,17.2c3.8,2.5,7.9,4.5,12.3,6l0-0.1c2.4,3.6,7.5,7.6,15.2,11.8c5.8,3.2,11,5.4,11.2,5.4l0,0
			c0.8,1,1.6,1.9,2.5,2.8c1.5,1.5,3.1,2.9,4.7,4.2c3.3,2.6,6.9,4.7,10.7,6.5c1,0.4,2,0.8,3,1.2c0.5,0.2,1,0.3,1.6,0.5
			c0.6,0.1,1.2,0.3,1.7,0.3c2.4,0.3,4.8-0.2,7-1.3c2-1,3.8-2.5,5.3-4.2c0.7-0.8,1.4-1.7,2-2.6c0.3-0.4,0.6-0.9,0.9-1.4
			c0.2-0.3,0.3-0.5,0.4-0.8c3,1.4,6.2,2.2,9.5,2.5c0.4,0,0.8,0,1.2-0.1c4.3-0.9,15-14,21.1-21.8c1-0.4,2-0.7,3.1-1.2
			c1.7-0.7,3.3-1.7,4.6-2.9c1.3-1.3,2.4-2.7,3.3-4.3c0.4-0.8,0.8-1.6,1.2-2.4c0.3-0.8,0.6-1.7,0.8-2.5c0.4-1.7,0.7-3.4,0.8-5.2
			c0-0.9,0-1.7,0-2.6c0-0.3,0-0.6-0.1-0.9l0.3-0.3c1.5-1.6,2.8-3.4,3.8-5.4c1.1-1.9,1.9-4,2.4-6.2c0.1-0.5,0.2-1.1,0.3-1.6
			c0.1-0.6,0.1-1.1,0.2-1.7l0.1-0.9c0-0.1,0-0.2,0-0.4c24.2-7.9,46.7-20.4,66.1-37c7.9-6.6,14.9-14.3,20.9-22.6l17.5-12.7
			c-4,10.8-7.4,21.8-10.2,33l-0.4,1.7c0.8,0.8,3.3,3.3,4.1,4.1c1.1,1.1,2.2,2.1,3.3,3.1c0.1,5.4,2.1,24,22.3,46.1l0.1,0.1
			c9.1,9.3,21.1,54.5,25.2,72.9c2.2,0.4,4.4,0.8,6.6,1.2c-2.9-13.5-15.9-66.6-27.3-78.3c-13.9-15.2-18.5-28.5-19.9-36.2
			c12.8,9.6,27.5,16.5,43.2,20.2c10.4,2.5,21,3.8,31.7,4.1c-0.2,0.4-0.5,0.8-0.7,1.3l0,0.1c-1.9,4-2.5,10.3,6,17.8
			c2.9,2.5,6.1,4.7,9.5,6.5c4.4,6.7,10.6,11.9,17.9,15.1c0.5,0.7,1.1,1.4,1.7,2.1c4.2,5.3,9.8,12.3,17.6,14.5
			c3.2,8.2,7,16.2,11.5,23.8c2-0.7,3.9-1.5,5.8-2.3c-4-6.7-7.5-13.7-10.5-20.9c2.9-0.3,5.6-1.2,8.2-2.4c10.8-5.2,23.7-15,24.8-25.5
			c0.4-4.6-1.4-9-4.8-12c0.9-1.4,1.8-2.8,2.6-4.2c1.1-1.9,2.2-3.9,3.3-5.9c0.5-1,1.1-2,1.6-3l1.1-2.2l0.8-0.5l1.7-1
			c1.2-0.7,2.2-1.4,3.4-2.2l1.7-1.1c0.6-0.4,1.1-0.8,1.6-1.2c1.1-0.8,2.1-1.6,3.2-2.4c4.2-3.3,8-7,11.6-10.9
			c3.6-3.9,6.9-8.2,9.8-12.7l1.1-1.7c0.3-0.6,0.7-1.2,1-1.8s0.7-1.2,1-1.8l0.9-1.9c0.3-0.6,0.6-1.3,0.8-1.9c0.3-0.6,0.6-1.3,0.7-2
			s0.4-1.4,0.6-2.1l0.7-3.3c0,0,0-0.1,0-0.1l-0.1-0.1l-0.1-0.2l-0.3-0.4l-0.5-0.8l-0.8-1.1l-1.1-1.6c-0.8-1.1-1.5-2.1-2.3-3.2
			c-0.8-1.1-1.6-2.1-2.4-3.1c-0.8-1-1.6-2.1-2.4-3.1c-3.2-4.1-6.6-8.1-9.9-12c-6.3-7.4-12.8-14.6-19.5-21.8l0.1-0.2
			c3.7-4.8,6.7-10.1,8.8-15.8l-0.6-1.2c-7-14-17.4-26-30.4-34.8c-2.4-2-15.7-8.5-20-10.5c15.5-11.9,33-28.7,44.7-45.7
			c4.1,4.9,9,9.1,14.5,12.4c3.7,2.2,8,3.2,12.3,2.8c7.1-1.7,13.1-6.2,18.5-10.8C543.5,272.3,565.3,242.5,555.8,221.8 M80.7,503.5
			c-0.9,2.9-1.3,5.9-1,8.9c-2.6-1.1-5-2.4-7.4-3.9c-2-1.4-5-7.4-5.1-13.2c-0.3-3,0.9-5.9,3.2-7.9c4.3-3.1,12.1,2.2,16.5,6
			C84,496.1,81.8,499.6,80.7,503.5 M108.1,514.1c-1.2,1.9-2.1,3.9-2.7,6.1c-0.6,2.1-0.9,4.3-1,6.4v0.4l0,0.5l0,0.5l0.1,0.5
			c0,0.1,0,0.1,0,0.2c-6.8-3.3-16.3-8.7-18.9-13.3c-2.8-4.7-0.4-15.3,5.6-19.2c2.2-1.4,12.2,1.7,19,7.5c2.7,2.3,3.8,4.2,3.8,5.3
			c-0.3,0.1-0.5,0.2-0.8,0.3c-1.1,0.5-2.2,1.2-3.1,2C109.5,512.2,108.7,513.1,108.1,514.1 M144.1,539.4c-0.2,0.4-0.5,0.8-0.8,1.2
			c-0.5,0.8-1.1,1.5-1.7,2.1c-1.1,1.3-2.5,2.4-4.1,3.2c-1.4,0.7-3,1-4.7,0.9c-0.4,0-0.8-0.1-1.2-0.2c-0.4-0.1-0.9-0.2-1.3-0.4
			c-0.9-0.3-1.8-0.6-2.6-1c-3.5-1.6-6.8-3.6-9.8-5.9c-1.5-1.2-3-2.4-4.3-3.8c-1.3-1.3-2.5-2.7-3.5-4.3c-0.5-0.7-0.8-1.5-1.1-2.3
			c-0.1-0.2-0.1-0.4-0.2-0.6c-0.1-0.2-0.1-0.4-0.1-0.5l0-0.3l0-0.3l0-0.3v-0.3c0-1.8,0.3-3.7,0.8-5.4c0.5-1.7,1.2-3.4,2.1-4.9
			c0.8-1.4,2-2.5,3.5-3.2c0.7-0.3,1.4-0.5,2.2-0.5c0.8,0,1.6,0,2.4,0.2c0.4,0.1,0.8,0.2,1.2,0.4l0.6,0.2l0.6,0.3
			c0.8,0.4,1.6,0.8,2.5,1.3c3.4,1.8,6.6,4,9.6,6.5c1.4,1.2,2.7,2.6,3.7,4.2c0.5,0.7,0.9,1.5,1.2,2.4c0.3,0.8,0.5,1.7,0.6,2.6
			c0.2,1.9,0.1,3.9-0.3,5.8c-0.4,2-1,4-1.8,5.9c1.2-1.5,2.3-3,3.2-4.7c0.9,0.5,2.1,1,3.4,1.6L144.1,539.4 M287.3,210
			c0.3-1.5,1.3-2.8,2.7-3.6c1.6-0.7,3.3-0.9,5-0.6c0.2,9.5,3.2,18.3,6.2,27.4c2.2,6.1,4,12.3,5.4,18.7c-1.4,1-2.7,2.1-4,3.3
			C289.5,237,285.1,217.3,287.3,210 M190.4,477.2c-1.1,0-2.3-0.1-3.4-0.1c-3.8,0-7.5-0.1-11.1-0.3c-3.6-0.1-7.3-0.5-10.9-1
			c-0.9-0.1-1.8-0.3-2.6-0.5l-0.7-0.1h0l-0.4-0.4l-4-3.9c-3.1-3-6.1-5.9-9.2-8.8c1.8,0.2,3.7,0.3,5.6,0.1c-3.2-0.5-6.3-1.6-9.1-3.2
			c-0.7-0.4-1.3-0.8-2-1.2c-0.6-0.5-1.3-0.9-1.9-1.4c-1.2-1-2.3-2.1-3.4-3.2c-2.1-2.3-3.9-4.9-5.4-7.6c-0.8-1.4-1.5-2.8-2.1-4.2
			l-0.5-1.1l-0.4-1l-0.5-1.2c-0.6-1.6-1.1-3.4-1.7-5.1l-1.4,1.3l-1.9,1.8c-0.6,0.6-1.2,1.1-1.9,1.6l-1.2,1l-0.9,0.7
			c-1.2,0.9-2.5,1.9-3.8,2.7c-2.5,1.7-5.3,3.1-8.1,4.2c-0.7,0.3-1.4,0.5-2.1,0.7c-0.6,0.2-1.3,0.3-2,0.4c-1.4,0.2-2.8,0.1-4.1-0.1
			c-1.4-0.2-2.8-0.6-4.1-1.2c-1.3-0.5-2.4-1.2-3.5-2.1c-0.9-0.7-1.5-1.6-1.9-2.6c-0.1-0.3-0.1-0.7,0-1c0.1-0.4,0.4-0.8,0.7-1.1
			l1.6-1.8c0.6-0.6,1.1-1.2,1.6-1.9l1.6-1.9l1.6-1.9c4.1-5.2,7.8-10.7,11.2-16.3c0.9-1.4,1.7-2.8,2.5-4.2c0.8-1.4,1.7-2.8,2.5-4
			l0.3-0.4c0,0,0,0,0,0c0,0,0.1,0,0.1-0.1c0.1-0.1,0.2-0.1,0.3-0.1c0.1-0.1,0.3-0.1,0.4-0.2c0.1-0.1,0.3-0.1,0.4-0.2
			c0.3-0.1,0.6-0.2,1-0.3c1.5-0.3,3-0.6,4.5-0.7c3.1-0.3,6.3-0.4,9.4-0.3c3.2,0.1,6.3,0.3,9.5,0.7c3.1,0.4,6.1,1,9,1.9
			c1.3,0.4,2.5,0.9,3.6,1.7c0.2,0.1,0.6,0.5,0.9,0.7s0.6,0.6,1,0.8c0.7,0.5,1.3,1.1,1.9,1.6c5.1,4,10.3,7.7,15.6,11.2
			c-0.8,2.1-1.3,4.4-1.3,6.7v1.8l1.8,0.1c1.8,0.1,3.5,0.3,5.3,0.6c-1.6,2.6-4.2,6.6-4.9,8l-1.7,3l3.4-0.2c3.7-0.2,7.8-0.4,10.9-0.6
			l-11,12.3l8.9-0.8c-4.7,12.3-4.3,12.9-3.7,13.8c0.3,0.5,0.9,0.8,1.5,0.8l0,0c0.8,0,7.3,1,12.4,1.8L190.4,477.2z M283.1,419.2
			l-0.3,0.5c-0.2,0.4-24.9,38.3-85.7,58.1l-0.2-0.1c-0.1,0-0.2-0.1-0.3-0.1l-0.3,0l-0.4-0.1c-0.5-0.1-1.1-0.1-1.6-0.2l3.2-9.7
			l-2.2-0.3c-3.9-0.6-9.8-1.5-13-1.9c0.8-2.6,2.7-7.9,4.6-12.6l1.1-2.8l-5.5,0.5l10.6-11.9l-4.4,0.2c-0.1,0-5.8,0.3-11.8,0.6
			c1.9-3.1,4.5-7.2,4.5-7.2l1.5-2.3l-2.7-0.5c-0.2,0-3.5-0.7-6.6-1c0.3-2.2,1-4.3,2.2-6.2c29.1-19.2,80-32.5,92.2-32l1.2,0.1
			l0.9-0.7c5.7-4.7,18.7-14,24.7-18.2c4.3,8.1,10.5,14.9,18.2,20c-1.2,2.9-2.5,5.8-3.6,8.8L283.1,419.2z M471.1,487.5
			c-1,1.9-2.1,3.8-3.2,5.7c-3,5-5.9,10-9.1,14.9c-1.6,2.4-3.2,4.8-5,7.1c-1.8,2.3-3.8,4.4-6.1,6.2c2.9-0.9,5.6-2.4,8-4.2
			c0.4-0.3,0.8-0.6,1.2-0.9c1.2,2,1.5,4.4,0.8,6.6c2.7-2.5,3.7-6.2,2.8-9.7c0.7-0.7,1.4-1.4,2-2.1c1.9-2,3.6-4.1,5.3-6.3
			c2,1.9,3,4.7,2.8,7.4c-0.8,7.9-11.6,16.5-22,21.6c-12.8,6.2-20.2-3.1-26.6-11.2c-0.7-0.9-1.5-1.8-2.1-2.7l-0.4-0.5l-0.6-0.2
			c-10.2-3.8-16.4-13.8-16.4-13.9l-0.4-0.6l-0.7-0.3c-0.2-0.1-18.1-9.2-13.8-17.9c12.4-23.2,38.5-34,42.9-35.7
			c-0.3,1.8-0.4,3.5-0.3,5.3l0.1,2.5l2.4-0.8c3-0.8,6.1-1.5,9.2-2c-0.3,1-0.6,2.2-0.9,3.3c-1.2,4.6-1,5.7,0,6.5
			c0.7,0.6,1.7,0.6,2.4,0c0.5-0.4,3.2-1.5,6.4-2.7c-0.6,1.3-1.2,2.7-1.7,4.1l-1,2.7l2.8-0.2c2.5-0.2,8.3-0.7,11.9-1
			c-1.4,3.1-2.6,6.4-3.5,9.7l-0.5,2.5l2.5-0.3c2-0.3,5.8-0.8,8.4-1.1l-2.8,9.3l6.2-2.4L471.1,487.5z M495.1,415.2
			c3.3,3.9,6.6,7.8,9.8,11.8c0.8,1,1.6,2,2.4,3c0.8,1,1.6,2,2.3,3.1c0.7,1,1.5,2,2.2,3.1l1.4,2l0,0.1l-0.1,0.4
			c-0.2,0.5-0.3,1.1-0.5,1.6c-0.2,0.6-0.4,1.1-0.6,1.6c-0.2,0.5-0.4,1.1-0.7,1.6l-0.8,1.6c-0.3,0.5-0.6,1.1-0.9,1.6
			c-0.3,0.5-0.6,1.1-0.9,1.6l-1,1.6c-2.7,4.2-5.7,8.1-9.1,11.8c-3.4,3.7-7,7.1-10.9,10.2c-1,0.8-2,1.5-3,2.3c-0.5,0.4-1,0.8-1.5,1.1
			l-1.6,1c-1,0.7-2,1.4-3.1,2l-3.8,2.3l-3.3,1.3l2.3-7.6l-2.9,0.4c-0.1,0-4.7,0.7-8.4,1.2c1.1-3.1,2.9-7.4,3.7-9.2l1.3-2.9l-3.1,0.3
			c-0.1,0-7.2,0.6-12,1c1.2-2.7,2.5-5.1,2.5-5.1l2.5-4.4l-4.7,1.7c-2.5,0.9-6.1,2.3-8.7,3.4c0.5-2.4,1.2-4.7,2.1-6.9l1.3-3.1
			l-3.4,0.6c-5.2,0.9-8.4,1.6-10.4,2c0.1-1.6,0.3-3.2,0.7-4.7c1.9-1.8,3.9-3.6,5.9-5.2c4.8-3.8,10.1-7,15.6-9.7
			c2.8-1.3,5.7-2.4,8.6-3.4l3-0.9l3-0.7l1.5-0.3c1-0.1,3.6-0.5,4.7-0.6c-1.1,0-3.7,0-4.7,0c-1,0.1-3.7,0.3-4.7,0.4
			c-1.2,0.2-2.9,0.4-4.4,0.7l0.2-0.2L451,410.7c9.6-3.4,18.3-9,25.3-16.5C482.7,401.1,489,408.1,495.1,415.2 M434.7,411.5
			c0.6,0.7,1.2,1.3,1.8,2l1.5-0.1c2.3-0.2,4.5-0.5,6.7-1l12.2,18c-7.9,2.3-15.4,5.7-22.2,10.1C435.2,430.8,435.2,421.2,434.7,411.5
			 M453,341.3c12.5,8,22.7,19.2,29.6,32.4c-5.9,13.6-16.9,24.3-30.6,30c-4.2,1.7-8.5,2.9-13,3.4c-6.7-7.3-12.3-15.6-16.5-24.6
			c-2.4-4-4.4-8.2-6.1-12.6c-1.3-3.4-2.3-6.8-3.2-10.2c-0.3,6.1,0.2,12.2,1.5,18.2c0.6,3.7,1.9,7.2,3.7,10.5
			c2.7,5.2,5.8,10.2,9.4,14.9c1.2,14.2,1.3,28.5,0.2,42.7c-5.5,2.1-26.8,11.3-40.6,30.6c-4.3-0.2-8.6-0.5-12.9-0.7
			c-4.4-0.4-9.2-1-13.6-1.8c-16.7-2.8-32.5-9.4-46.3-19.1c-3.2-2.3-6.2-4.7-9-7.3c-1.3-1.1-2.9-2.8-4.4-4.2
			c5.1-19.4,11.8-38.4,20.2-56.6c1.4-3.1,16.1-35.7,20.2-44.1c-4.8,3.8-8.9,8.5-12.1,13.8c-1.3,1.9-6.8,12.9-7.7,15
			c-2.3,4.6-4.5,9.2-6.6,13.9c-5.4-3.7-16.7-13.4-19.1-29.2c11.9-11.2,31.1-20.1,36.4-22.4c3.5,4.4,12.2,7.2,20.7,8.9
			c0.2,2.9,1.1,5.8,2.7,8.2c3.1,4.2,7.8,6.9,12.9,7.6c3.8,0.8,7.7,1.2,11.7,1.2c10.2,0,20.7-3.4,28.7-16.3c1.4-0.3,2.8-0.8,4.2-1.3
			c7.2-3.3,14.1-7.3,20.4-12.2C440.5,333.5,446.9,337.2,453,341.3 M373.4,351.5c1.8,0.3,3.6,0.4,5.4,0.4c6.8,0.1,13.4-2.2,18.7-6.5
			c2-0.2,3.9-0.4,5.8-0.6c-7.5,9.7-17.9,12.6-33.5,9.7c-9.2-1.7-11.6-7.1-12.1-10.8c1.8,0.3,3.6,0.5,5.2,0.8
			C365.1,348.3,369,350.9,373.4,351.5 M369.1,345.2l0.7,0.1c4.9,0.4,10.4,0.7,16.1,0.7c0.8,0,1.6,0,2.5,0c-4.6,1.7-9.5,2.2-14.3,1.4
			C372.2,347,370.5,346.3,369.1,345.2 M532.7,272.4c-6.2,6.9-15,15.5-24.1,17.9c-2.9,0-5.8-0.8-8.3-2.2c-5.1-2.9-9.9-6.2-14.5-9.8
			c-3-2.7-5.6-5.9-7.8-9.3c0.3,2.1,0.9,4.2,1.6,6.3c-4.6,6.8-9.7,13.2-15.3,19.2c1.6-4.3,1.5-9-0.5-13.1c-2.4-5.6-7-9.9-12.8-11.9
			c-8.3-2.8-16.9-0.9-23.9,1.4c-7.1,2-14.6,3.5-22,5.5c7.7,0.5,15.4,0.2,23-0.9c8.2-1.5,17.8-3.1,25.1,2c1.9,1.4,3.6,3.2,4.8,5.3
			c5.1,7.8,0.9,16.3-4.6,22.9c-13.8,13.5-29.8,26.1-42.3,31.1c-7.4,2.9-23.8,3.9-40.9,2.4c-13.8-1.2-29.9-4.5-32.9-9l-0.1-0.1
			c-6-8-23-27.7-31.6-36.3c-5.9-5.9-8.5-11.9-8-18c0.7-7,5.8-14.2,14.1-19.8l1.7-1.1l-0.4-2c-0.3-1.7-0.7-3.4-1.1-5.1
			c2.4,4.1,5,6.8,7.4,7.2c-5.5-8.4-9.9-25.8-9.3-39.5c0.7-17,17.3-18,26.3-8.8c9.1,9.2,10.8,33.2,10.8,33.2s3.2-3.1,2.2-12.4
			c-1-9.3-4.8-28.3-18.4-32.8c-13.7-4.5-26.6,1.8-27.3,19.5c-0.1,2.4,0,4.8,0.2,7.2c-2.6-9-3.9-17.6-1.2-27.3
			c0.3-1.2,0.7-2.4,1.2-3.7c17.4-9.7,38.5-3.1,38.5-3.1s-0.7-13.7-5.1-21.1c-7.6-1.9-16.4,0.2-20.3,1.3c6.3-9,13.2-17.4,17.6-22.4
			c9.3,11.2,20.5,20.7,33,28.1l-0.3-4.9c-0.2-5.8,0.1-11.7,0.8-17.5l1.3,0.7c1.2,0.6,2.5,1.1,3.7,1.6c1.2,0.5,2.5,1,3.7,1.5l2.4,0.9
			l3.7,1.4l0.4-3.3l0.3-2.4c0.1-1.1,0.3-2.2,0.5-3.3c0.3-2.2,0.7-4.3,1.2-6.4l0.1-0.4c0-0.1,0.1-0.3,0.1-0.3c0,0,0,0,0,0
			c0,0,0-0.1-0.1-0.2c0-0.1,0-0.1,0.4-0.1c0,0,0.1,0,0.1,0l0.2,0l0.3,0.1c0.2,0.1,0.4,0.1,0.6,0.2c0.4,0.1,0.8,0.2,1.2,0.2
			c1.6,0.3,3.3,0.3,4.9,0.2c-1.4-0.8-2.8-1.6-4.1-2.4l-2-1.2c-1-0.6-2.5-1.6-3.9-2.4c-0.3,0.9-0.6,1.9-0.9,2.9l-0.4,1.5
			c-0.1,0.3-0.1,0.4-0.1,0.5l-0.1,0.4c-0.5,2.2-0.9,4.5-1.2,6.7c-0.2,1.1-0.3,2.2-0.5,3.3l-0.1,0.9l-1.3-0.5c-1.2-0.5-2.4-1-3.6-1.5
			c-1.2-0.5-2.4-1-3.6-1.6c-0.3-0.1-0.6-0.3-0.9-0.4l-0.4-0.2l-0.3-0.1l-0.4-0.2c-1.1-0.6-2.2-1.2-3.4-1.8c-0.1-0.1-0.3-0.2-0.4-0.3
			c-0.1,0.7-0.2,1.4-0.4,2l-0.1,0.5c-0.2,0.8-0.5,1.5-0.7,2.3l-0.2,0.7c-0.1,0.2-0.1,0.4-0.1,0.6l-0.2,1.3c-0.3,1.7-0.5,3.4-0.6,5.1
			c-0.1,0.7-0.1,1.4-0.1,2.1c-0.2,1.3-0.3,2.5-0.4,3.8c-1.8-1.5-3.6-3-5.3-4.5c-5.9-5.1-11.5-10.5-16.7-16.4
			c-12.3-14.2-21.9-32.9-18.6-52.1c5.7-28.3,30.1-52.1,55-65.9c0.7,5.6,2.2,11.1,4.5,16.3c6.7,15.5,20.1,26.8,34.5,35
			c3.9,2.2,7.6,4.6,11.1,7.3c6.9,5.3,12.7,12.1,16.9,19.7l6.6,12c-0.2-3.3-0.8-15-1.3-18c-1.1-7.2-3.2-14.1-6.5-20.6
			c18.3,7.9,33.1,23.4,38.1,42.9l1.5,5.4l3.8-4.1c2.2-2.6,3.9-5.6,4.9-8.8c1.9-6.6,2.8-13.6,2.5-20.5c3.3,3,6.3,6.2,9.1,9.7l2,2.7
			c1.1,1.6,2.6,4,3.6,5.7c4.2,6.6,7.1,13.9,8.6,21.6c1.6,7.8,1.8,15.8,0.6,23.6c-1.6,10.3-5.8,20-12.1,28.2c1.6-1.7,3.1-3.5,4.5-5.3
			c6.9-9.6,11-20.9,11.9-32.7c3.9,3.8,9.8,11.3,9.8,21.1c0,12.2-5.6,26-17.4,43.5c-7.5,2.2-14.7,5.4-21.4,9.5c7.9-2,16-3.3,24.1-3.9
			c2-0.2,3.9-0.7,5.9-0.8c10.4-0.9,22.6,1,27.7,11.1C556.9,239.4,542.5,261.3,532.7,272.4"/>
		<path id="Trazado_4031" class="st16" d="M541.3,226.3l-0.5-0.5c-0.2-0.2-0.3-0.3-0.5-0.4c-0.3-0.3-0.7-0.5-1-0.7
			c-1.4-0.9-2.8-1.5-4.4-2c-3-0.9-6.1-1.2-9.1-0.9c-6,0.5-11.7,2.4-16.9,5.4c-2.6,1.5-5,3.2-7.2,5.2c-0.3,0.2-0.5,0.5-0.8,0.7
			l-0.4,0.4l-0.2,0.2l-0.1,0.1l-0.2,0.2l-1.3,1.4c-0.4,0.5-0.9,0.9-1.3,1.4l-5,5.8l4.8-0.3c0.4,0,0.7,0,1.1,0l1,0
			c0.6,0,1.2,0,1.8,0.2l0.8,0.1c0.1,0,0.1,0,0.2,0l0.1,0l0.2,0c0.2,0.1,0.4,0.1,0.7,0.2c0.4,0.1,0.9,0.3,1.3,0.5
			c0.8,0.4,1.6,0.8,2.3,1.3c0.6,0.4,1.1,0.9,1.5,1.5c0.1,0.1,0.1,0.3,0.2,0.4c0,0,0,0,0,0v0c0,0,0,0,0,0c0,0,0,0,0,0.1
			c0,0,0,0.1-0.1,0.1c-0.4,0.5-0.8,0.9-1.4,1.2c-1.7,0.9-3.5,1.5-5.4,1.9c-1.3,0.3-2.6,0.5-3.9,0.8l-2,0.3l-2.9,0.4l-0.5,0.1l-0.2,0
			c-0.1,0-0.2,0-0.2,0.1l-0.4,0.9l-0.4,0.9c-0.1,0.1-0.1,0.3-0.2,0.5l-0.2,0.4c-0.3,0.7-0.5,1.4-0.7,2.2c-0.4,1.5-0.7,3-0.8,4.5
			c-0.1,1.5-0.1,3.1,0.1,4.6c0.2,1.6,0.6,3.1,1.3,4.5c1.4,3.1,4.9,4.8,8.2,4c1.3-0.3,2.5-0.7,3.7-1.3c0.6-0.3,1.1-0.6,1.7-0.9
			c0.6-0.3,1.1-0.7,1.6-1c-0.6,0.2-1.2,0.5-1.8,0.7c-0.6,0.2-1.2,0.4-1.8,0.5c-1.2,0.3-2.4,0.5-3.6,0.5c-1.2,0-2.4-0.3-3.4-1
			c-0.9-0.7-1.5-1.6-1.8-2.7c-0.6-2.4-0.6-4.9-0.1-7.3c0.2-1.2,0.6-2.5,1-3.6c0.2-0.6,0.5-1.2,0.7-1.7c0-0.1,0-0.1,0-0.1l0,0l0,0
			c0,0,0,0,0.1,0h0h0l0,0h0.1l1.1-0.1c0.7-0.1,1.4-0.2,2.1-0.3c1.4-0.2,2.9-0.4,4.3-0.8c2.4-0.5,4.7-1.3,6.8-2.5
			c0.3-0.2,0.6-0.4,0.9-0.6c0.1-0.1,0.3-0.2,0.4-0.3l0.4-0.4l0.4-0.4c0.1-0.1,0.3-0.3,0.4-0.5l0.4-0.5c0.1-0.2,0.3-0.4,0.4-0.6
			c0.1-0.2,0.2-0.4,0.3-0.6c0.1-0.2,0.2-0.5,0.2-0.7l0.1-0.4c0-0.1,0-0.3,0-0.4c0-0.3,0-0.5,0-0.8c0-0.9-0.3-1.9-0.8-2.7
			c-0.7-1.3-1.7-2.4-2.9-3.2c-1-0.8-2.1-1.4-3.3-1.9c-0.6-0.2-1.2-0.5-1.7-0.7c-0.3-0.1-0.6-0.2-0.9-0.3l-0.3-0.1l0.2-0.2l1.4-1.3
			c2-1.7,4.1-3.3,6.4-4.6c4.5-2.6,9.5-4.2,14.7-4.7c2.5-0.2,5,0,7.4,0.5c1.1,0.3,2.3,0.7,3.3,1.2c0.3,0.1,0.5,0.3,0.7,0.4
			c0.1,0.1,0.3,0.2,0.3,0.2l0.3,0.2c0.3,0.3,0.7,0.6,0.9,1c0.5,0.9,0.7,1.8,0.6,2.8c-0.1,1.2-0.4,2.4-0.8,3.6
			c-1,2.5-2.2,4.9-3.7,7.1c-1.3,2.1-2.8,4.1-4.4,6.1c2-1.6,3.9-3.3,5.7-5.1c2.1-2,3.8-4.3,5.3-6.8c0.8-1.4,1.3-2.8,1.7-4.4
			c0.4-1.8,0.2-3.6-0.5-5.3C542.5,227.7,542,226.9,541.3,226.3"/>
		<path id="Trazado_4032" class="st16" d="M395.3,559.8l-0.9-2.7l-1-2.7c-2.5-7.2-5.4-14.3-8.5-21.3c-3.1-7-6.5-13.8-10.2-20.6
			c-1.9-3.3-3.8-6.7-5.8-9.9l-1.5-2.4l-1.2-1.9l-0.2-0.3l-0.1-0.2c0-0.1-0.1-0.1-0.1-0.1l-0.7-0.1l-1.4-0.3l-1.4-0.3
			c-0.4-0.1-0.9-0.2-1.3-0.3l-2.7-0.7c-3.6-1-7.2-2.1-10.8-3.4c-1.8-0.6-3.6-1.4-5.3-2.2c-1.8-0.8-3.5-1.7-5.2-2.7
			c1.1,1.7,2.4,3.3,3.9,4.6c1.5,1.4,3.1,2.7,4.8,3.8c3.5,2.2,7.2,3.9,11.2,5l2.9,0.7c0.5,0.1,1,0.2,1.4,0.3l1.4,0.3l0.3,0.5l1.5,2.4
			c2,3.2,3.8,6.5,5.7,9.7c3.6,6.6,7,13.3,10,20.2c3,6.9,5.8,13.9,8.3,20.9l0.9,2.7l0.9,2.7c0.6,1.8,1.2,3.6,1.7,5.4
			c0.8,2.6,1.6,5.2,2.2,7.9c1.8-0.1,3.5-0.2,5.3-0.4c-0.8-3.1-1.6-6-2.5-9C396.5,563.5,395.9,561.7,395.3,559.8"/>
		<path id="Trazado_4033" class="st16" d="M113.5,406.7L113.5,406.7L113.5,406.7"/>
		<path id="Trazado_4034" class="st8" d="M421.4,242.1c-1.2,4-3.2,7-7.5,5.7c-4.1-1.2-4.3-4.8-3.1-8.9c1.2-4,3.3-7,7.5-5.7
			C422.4,234.5,422.6,238.1,421.4,242.1"/>
		<path id="Trazado_4035" class="st8" d="M341.5,230.3c0.3,4-0.2,7.3-3.6,7.6c-3.3,0.3-4.5-2.8-4.8-6.8s0.3-7.3,3.6-7.6
			C340,223.2,341.1,226.3,341.5,230.3"/>
	</g>
</g>
</svg>
